<svg width="71" height="71" viewBox="0 0 71 71" fill="none" xmlns="http://www.w3.org/2000/svg">
<path fill-rule="evenodd" clip-rule="evenodd" d="M35.0002 25.9472C34.9769 25.9995 34.7473 26.453 34.724 26.5053C32.1775 31.9792 28.8112 28.5489 29.6194 26.6245L31.6339 21.8164C32.0874 20.7408 32.7473 19.9326 33.7095 19.2815L36.4711 17.4123C40.3578 14.7757 45.2153 14.8309 49.0438 17.5547C51.8229 19.5315 51.7764 21.4733 54.9944 21.4733H58.8054V31.3396L54.9944 31.4588L48.4421 32.5693C43.0176 33.485 42.2996 28.1419 35.0002 25.9472Z" fill="#F1CBBC"/>
<path fill-rule="evenodd" clip-rule="evenodd" d="M42.3836 21.5964L43.5726 25.1662C46.6685 28.5063 48.9272 31.3348 50.3429 33.8319C54.8662 41.8232 48.4302 49.9365 39.8081 49.7883C31.186 49.9365 24.747 41.8232 29.2732 33.8319C30.6889 31.3348 32.9447 28.5063 36.0435 25.1662L37.2354 21.6022L34.3313 18.6836C33.6249 17.9714 33.6249 16.8057 34.3313 16.0935C34.936 15.4889 35.8895 15.3871 36.6046 15.8493C36.872 16.0208 37.1772 16.047 37.4709 15.9249C37.7616 15.8057 37.9592 15.5674 38.0261 15.2563C38.2063 14.4336 38.9389 13.8145 39.8081 13.8145C40.6598 13.8145 41.404 14.4191 41.5871 15.2563C41.654 15.5674 41.8517 15.8057 42.1453 15.9249C42.436 16.047 42.7412 16.0208 43.0086 15.8493C43.7121 15.3929 44.6685 15.4772 45.2819 16.0935C45.9912 16.8057 45.9912 17.9714 45.2819 18.6836L42.3836 21.5964Z" fill="#FFC338"/>
<path fill-rule="evenodd" clip-rule="evenodd" d="M42.3837 21.5964L43.5726 25.1662C46.6686 28.5063 48.9273 31.3348 50.343 33.8319C54.8662 41.8232 48.4302 49.9365 39.8081 49.7883C39.6395 49.7912 39.4709 49.7912 39.3052 49.7883C47.6686 49.6168 53.7732 41.6662 49.3343 33.8319C47.9186 31.3348 45.6627 28.5063 42.5639 25.1662L41.3779 21.5964L44.2761 18.6836C44.9825 17.9714 44.9825 16.8057 44.2761 16.0935C44.0494 15.8668 43.779 15.7127 43.4912 15.6313C44.1075 15.454 44.7994 15.6081 45.2819 16.0935C45.9912 16.8057 45.9912 17.9714 45.2819 18.6836L42.3837 21.5964ZM35.1191 15.6313C35.6104 15.4918 36.1569 15.5586 36.6075 15.8493L36.6104 15.8522C36.5639 15.8784 36.5145 15.9046 36.4651 15.9249C36.1715 16.047 35.8662 16.0208 35.5988 15.8493C35.4476 15.7505 35.2848 15.6778 35.1191 15.6313ZM39.3023 13.8871C39.9331 14.0703 40.436 14.5906 40.5813 15.2563C40.6482 15.5674 40.8459 15.8057 41.1366 15.9249C41.4273 16.047 41.7325 16.0208 41.997 15.8522C41.7877 15.7185 41.6424 15.5121 41.5872 15.2563C41.4069 14.4191 40.6598 13.8145 39.8081 13.8145C39.6337 13.8145 39.4651 13.8406 39.3023 13.8871Z" fill="#F5B829"/>
<path fill-rule="evenodd" clip-rule="evenodd" d="M35.8543 25.1655H43.7613C44.7351 25.1655 45.5345 24.3632 45.5345 23.3835C45.5345 22.4039 44.7351 21.6016 43.7613 21.6016H35.8543C34.8776 21.6016 34.0811 22.4039 34.0811 23.3835C34.0811 24.3632 34.8776 25.1655 35.8543 25.1655Z" fill="#837683"/>
<path fill-rule="evenodd" clip-rule="evenodd" d="M42.7559 25.1655H43.7617C44.7355 25.1655 45.5349 24.3632 45.5349 23.3835C45.5349 22.4039 44.7355 21.6016 43.7617 21.6016H42.7559C43.7297 21.6016 44.5262 22.4039 44.5262 23.3835C44.5262 24.3632 43.7297 25.1655 42.7559 25.1655Z" fill="#685E68"/>
<path fill-rule="evenodd" clip-rule="evenodd" d="M14.6311 47.7149L23.0207 42.8283C24.5962 41.9126 26.198 41.2615 27.9305 41.8254C29.8579 42.4562 33.0119 43.8051 36.2241 44.3894C37.416 44.7789 38.1602 45.9795 37.8375 47.1946C37.5119 48.4126 36.4887 49.0405 35.0439 48.8167L36.1689 48.9969C37.4538 49.2033 38.6369 49.0289 39.7648 48.369L47.8317 43.6452C54.102 39.9708 55.0236 45.6219 52.9393 46.9126L38.2968 55.9737C36.9509 56.808 35.477 57.0027 33.9509 56.5899L23.3317 53.7295L19.3986 56.0144C18.6427 56.4533 17.6689 56.1888 17.2329 55.4301L14.0526 49.8923C13.6166 49.1336 13.8753 48.1568 14.6311 47.7149Z" fill="#F6DCCD"/>
<path fill-rule="evenodd" clip-rule="evenodd" d="M37.6458 47.7001C37.1982 48.5809 36.2737 49.0083 35.0441 48.8164C33.3057 48.3542 31.5673 47.8803 29.829 47.4123C29.3638 47.2873 29.0877 46.8048 29.2127 46.3367C29.3377 45.8687 29.8144 45.5926 30.2795 45.7176L37.6458 47.7001Z" fill="#F1CBBC"/>
<path fill-rule="evenodd" clip-rule="evenodd" d="M14.6311 47.7149L23.0207 42.8283C24.5962 41.9126 26.198 41.2615 27.9305 41.8254C28.9625 42.1626 30.3433 42.7062 31.8986 43.2266L15.6427 52.6626L14.0526 49.8923C13.6166 49.1336 13.8753 48.1568 14.6311 47.7149Z" fill="#F1CBBC"/>
<path fill-rule="evenodd" clip-rule="evenodd" d="M15.6039 45.2856L22.258 57.1083C22.5807 57.678 22.3801 58.4106 21.8103 58.7362L19.5458 60.024C18.9789 60.3466 18.2493 60.1432 17.9295 59.5705L11.2725 47.7507C10.9498 47.178 11.1533 46.4455 11.7231 46.1228L13.9847 44.835C14.5545 44.5123 15.2812 44.7158 15.6039 45.2856Z" fill="#D1D1D6"/>
<path fill-rule="evenodd" clip-rule="evenodd" d="M19.1044 53.4078L20.2818 55.5008L21.4474 57.5706C21.7672 58.1404 21.5666 58.87 21.0027 59.1956L21.8108 58.7363C22.3806 58.4107 22.5812 57.6781 22.2585 57.1084L21.0899 55.0328L18.744 50.8642L16.3951 46.6898L15.6044 45.2857C15.3254 44.7915 14.7411 44.5735 14.2207 44.7334L15.5899 47.1636L17.9358 51.3322L19.1044 53.4078Z" fill="#B1B1B5"/>
<path fill-rule="evenodd" clip-rule="evenodd" d="M46.1306 25.2417H58.805V31.3405L54.994 31.4597L48.4417 32.5702C42.9533 33.4975 42.2876 28.012 34.7382 25.8725C33.5376 25.5498 32.8137 24.2882 33.1364 23.0818C33.4562 21.8725 34.7062 21.1487 35.9097 21.4713C39.8312 22.5847 41.6887 24.8987 46.1306 25.2417Z" fill="#F6DCCD"/>
<path fill-rule="evenodd" clip-rule="evenodd" d="M59.9563 21.189V31.7267C59.9563 32.3837 59.4244 32.9186 58.7732 32.9186L56.1802 32.9244C55.529 32.9244 54.9941 32.3895 54.9941 31.7355V21.1977C54.9941 20.5436 55.5261 20.0058 56.1773 20.0058L58.7703 20C59.4215 20 59.9563 20.5349 59.9563 21.189Z" fill="#D1D1D6"/>
<path fill-rule="evenodd" clip-rule="evenodd" d="M57.1366 32.9215L56.1802 32.9244C55.529 32.9244 54.9941 32.3895 54.9941 31.7355V21.1977C54.9941 20.5436 55.5261 20.0058 56.1773 20.0058L58.7703 20C58.7907 20 58.811 20 58.8313 20.0029L57.1947 20.0058C56.5436 20.0058 56.0116 20.5436 56.0116 21.1977V31.7355C56.0116 32.3692 56.5116 32.8895 57.1366 32.9215Z" fill="#B1B1B5"/>
<mask id="mask0_1399_1312" style="mask-type:luminance" maskUnits="userSpaceOnUse" x="10" y="13" width="51" height="48">
<path d="M10 13H60.7907V61H10V13Z" fill="white"/>
</mask>
<g mask="url(#mask0_1399_1312)">
<path fill-rule="evenodd" clip-rule="evenodd" d="M57.7679 21.9767C57.3522 21.8139 56.8871 22.0232 56.7272 22.4389C56.5673 22.8575 56.7737 23.3255 57.1894 23.4883C57.6022 23.6482 58.0673 23.4418 58.2301 23.0232C58.39 22.6075 58.1836 22.1366 57.7679 21.9767ZM59.1429 21.1889V31.7267C59.1429 31.9302 58.9714 32.1017 58.7708 32.1017L56.1807 32.1046C56.1778 32.1046 56.1778 32.1046 56.1778 32.1046C56.047 32.1046 55.9598 32.0377 55.9162 31.9941C55.8755 31.9534 55.8086 31.8662 55.8086 31.7354V21.1976C55.8086 20.9941 55.9772 20.8226 56.1778 20.8226L58.7708 20.8197C58.9045 20.8197 58.9918 20.8866 59.0325 20.9273C59.0732 20.968 59.1429 21.0581 59.1429 21.1889ZM49.0673 33.2907L48.5761 33.375C48.0993 33.4564 47.6545 33.4941 47.2359 33.4941C44.7621 33.4941 43.2214 32.1773 41.4743 30.6889C39.9569 29.3924 38.2592 27.9418 35.5005 26.9709C32.9423 29.8226 31.1313 32.2034 29.9801 34.2383C28.6138 36.6511 28.2534 39.1744 28.9249 41.5668C29.2679 41.686 29.6342 41.8197 30.0121 41.9564C31.8435 42.622 34.1197 43.4505 36.4249 43.8691C36.4598 43.875 36.4947 43.8837 36.5295 43.8953C38.1574 44.4244 39.0964 46.0901 38.672 47.6831C38.608 47.9273 38.5208 48.154 38.4133 48.3633C38.7505 48.2645 39.0761 48.122 39.3987 47.9331L47.4423 43.2238C48.6778 42.5 49.7098 42.122 50.5673 41.9709C51.1836 40.125 51.4278 37.404 49.6371 34.2383C49.4627 33.9302 49.2708 33.6133 49.0673 33.2907ZM48.2592 44.6366C50.5208 43.3139 52.2534 43.1627 52.8929 44.2325C53.329 44.9651 53.1371 46.1046 52.515 46.4912L37.9191 55.5261C36.7883 56.2296 35.5441 56.404 34.2243 56.0465L23.6371 53.1947C23.4278 53.1395 23.2069 53.1686 23.0179 53.2761L21.4976 54.1598L17.6167 47.2674L23.5266 43.8255C24.8464 43.0581 26.2737 42.4127 27.7592 42.8953C28.2447 43.0552 28.8086 43.2616 29.4598 43.497C31.3319 44.1773 33.6575 45.0232 36.0761 45.468C36.8609 45.747 37.2999 46.5087 37.0993 47.2616C36.8377 48.247 36.0121 48.372 35.3522 48.2965C34.1749 48.0523 33.0528 47.7296 31.8668 47.3895C31.2999 47.2267 30.7156 47.0581 30.1138 46.8982C29.6807 46.7819 29.233 47.0407 29.1168 47.4767C29.0005 47.9127 29.2592 48.3604 29.6923 48.4767C30.2824 48.6366 30.8609 48.8023 31.4191 48.9622C32.6487 49.3168 33.8086 49.6482 35.0615 49.9069C35.0673 49.9069 35.0731 49.9069 35.0761 49.9069C35.0819 49.9098 35.0877 49.9127 35.0935 49.9127L36.0935 50.0755C37.6138 50.3197 38.9627 50.0814 40.2185 49.3459L48.2592 44.6366ZM21.5179 57.5203L14.8842 45.7354C14.8173 45.6191 14.7156 45.5755 14.6604 45.561C14.6342 45.5523 14.5993 45.5465 14.5557 45.5465C14.5063 45.5465 14.4423 45.5581 14.3784 45.593L12.1226 46.8779C11.9481 46.9767 11.8842 47.2093 11.983 47.3837L18.6167 59.1686C18.6807 59.2848 18.7854 59.3284 18.8406 59.343C18.8958 59.3575 19.0063 59.375 19.1197 59.311L21.3784 58.0261C21.4917 57.9622 21.5354 57.8575 21.5499 57.8023C21.5673 57.7441 21.5819 57.6337 21.5179 57.5203ZM31.9743 28.5726C31.4394 28.7674 31.0383 28.5407 30.7912 28.3023C30.3929 27.9244 30.2069 27.3255 30.3697 26.9447L32.3842 22.1366C32.7737 21.2122 33.3377 20.5203 34.1662 19.9593L34.3377 19.843L35.0761 20.5843C34.6255 20.622 34.1865 20.7587 33.7854 20.9912C33.0702 21.4069 32.5615 22.0726 32.3493 22.872C31.9772 24.2732 32.6284 25.7122 33.8377 26.3837C33.1604 27.1482 32.5412 27.8779 31.9743 28.5726ZM34.9104 18.1046L37.5731 20.7819H42.0441L44.7069 18.1046C45.0993 17.7093 45.0993 17.0668 44.7069 16.6715C44.3755 16.3372 43.8464 16.2819 43.4481 16.5377C42.9656 16.8488 42.3609 16.904 41.8348 16.6831C41.3057 16.4622 40.9162 15.9941 40.7912 15.4302C40.6923 14.968 40.2766 14.6308 39.8086 14.6308C39.3377 14.6308 38.9249 14.968 38.8231 15.4302C38.7011 15.9941 38.3115 16.4622 37.7824 16.6831C37.2563 16.904 36.6516 16.8488 36.1662 16.5377C35.7708 16.2819 35.2418 16.3372 34.9104 16.6715C34.515 17.0668 34.515 17.7093 34.9104 18.1046ZM40.233 22.4186C40.2737 22.4418 40.3173 22.4622 40.3609 22.4854C41.6226 23.1424 42.8348 23.7703 44.3551 24.1366C44.5819 23.9534 44.7214 23.6802 44.7214 23.3837C44.7214 22.8517 44.2912 22.4186 43.7621 22.4186H40.233ZM48.5731 18.2238C49.4947 18.8779 50.0906 19.5407 50.6168 20.125C51.5005 21.1046 52.3377 22.0377 54.1807 22.247V30.7674L48.3057 31.7616C45.7534 32.1947 44.4714 31.0988 42.5295 29.4389C40.8028 27.9651 38.6545 26.1308 34.9598 25.0843C34.954 25.0843 34.9511 25.0843 34.9481 25.0814C34.579 24.9825 34.2679 24.7383 34.0731 24.3982C33.8755 24.0581 33.8231 23.6657 33.922 23.2936C34.0208 22.9186 34.2621 22.6046 34.5993 22.4098C34.9365 22.2151 35.3261 22.1627 35.6952 22.2616C37.2098 22.6918 38.4307 23.3255 39.6138 23.9389C41.4104 24.875 43.2708 25.8401 46.0673 26.0552C46.5179 26.0901 46.9074 25.7529 46.9423 25.3023C46.9772 24.8517 46.64 24.4593 46.1923 24.4244C46.172 24.4244 46.1516 24.4215 46.1313 24.4186C46.2708 24.0959 46.3493 23.747 46.3493 23.3837C46.3493 22.1308 45.4656 21.0843 44.2912 20.8372L45.858 19.2616C46.4423 18.6773 46.6923 17.8837 46.6138 17.1162C47.2941 17.4098 47.9481 17.779 48.5731 18.2238ZM60.7708 21.1889V31.7267C60.7708 32.8343 59.8755 33.7354 58.7737 33.7383L56.1807 33.7412C56.1807 33.7412 56.1807 33.7412 56.1778 33.7412C55.6458 33.7412 55.1458 33.5319 54.7679 33.154C54.5528 32.9389 54.3958 32.6831 54.2999 32.4069L50.7999 32.997C50.8871 33.1424 50.9685 33.2877 51.0499 33.4273C52.6168 36.1947 53.0354 39.1918 52.2679 41.9738C53.4598 42.2325 54.0586 43.0116 54.2883 43.3924C55.1807 44.8924 54.7418 47.0348 53.3697 47.8837L38.7737 56.9186C37.765 57.5436 36.6604 57.8604 35.5179 57.8604C34.954 57.8604 34.3784 57.7848 33.8028 57.6279L23.5412 54.8633L22.2999 55.5843L22.9336 56.7122C23.1952 57.1773 23.2621 57.7209 23.1197 58.2383C22.9743 58.7558 22.6429 59.186 22.1778 59.4505L19.922 60.7354C19.6197 60.9069 19.2824 60.9941 18.9452 60.9941C18.765 60.9941 18.5848 60.9709 18.4045 60.9215C17.89 60.7761 17.4627 60.4418 17.1981 59.9767L10.5644 48.1918C10.0237 47.2267 10.3609 46 11.3202 45.4534L13.5761 44.1686C14.0412 43.9069 14.579 43.8401 15.0935 43.9825C15.608 44.1279 16.0383 44.4622 16.2999 44.9273L16.8144 45.843L22.7098 42.4098C23.9947 41.6627 25.4947 40.9622 27.1458 41.1104C26.6633 38.5668 27.1458 35.936 28.5673 33.4273C29.1487 32.4011 29.8668 31.3168 30.7418 30.1482C30.358 30.0203 29.9917 29.7994 29.6691 29.4912C28.7708 28.6337 28.4423 27.3255 28.8697 26.3081L30.8842 21.5C31.4016 20.2703 32.1545 19.3488 33.2563 18.6046L33.2737 18.5901C32.7708 17.5959 32.9307 16.3459 33.7592 15.5145C34.6284 14.6395 36.0092 14.4912 37.047 15.1598C37.0819 15.1831 37.1226 15.186 37.1604 15.1715C37.1981 15.154 37.2243 15.125 37.233 15.0813C37.4947 13.872 38.579 12.9941 39.8086 12.9941C40.89 12.9941 41.858 13.6744 42.2534 14.6627C42.8726 14.6424 43.4918 14.6686 44.1051 14.747C44.3028 14.7558 44.5005 14.7848 44.6952 14.8372C46.4162 15.1482 48.0383 15.8401 49.5121 16.8866C50.5819 17.6482 51.2708 18.4127 51.8232 19.029C52.6197 19.9098 53.1138 20.4593 54.2679 20.6104C54.5179 19.7877 55.2766 19.186 56.1749 19.186L58.7679 19.1831H58.7708C59.3028 19.1831 59.8028 19.3924 60.1836 19.7703C60.5615 20.1511 60.7708 20.654 60.7708 21.1889ZM14.0702 47.0988C14.5092 47.0319 14.9191 47.3401 14.983 47.7819C15.0499 48.2238 14.7447 48.6366 14.3028 48.7005C13.8638 48.7645 13.454 48.4593 13.39 48.0174C13.3261 47.5755 13.6313 47.1627 14.0702 47.0988ZM43.6429 39.6366C43.7388 40.436 43.5237 41.1686 43.0237 41.7529C42.4772 42.3866 41.5964 42.8226 40.5877 42.9738V43.5784C40.5877 44.029 40.2243 44.3953 39.7737 44.3953C39.3231 44.3953 38.9598 44.029 38.9598 43.5784V42.9622C37.4336 42.6918 36.2592 41.686 35.9074 40.2674C35.797 39.8284 36.0644 39.3866 36.5005 39.2761C36.9365 39.1686 37.3784 39.4331 37.4859 39.872C37.7621 40.9854 38.8638 41.3866 39.7679 41.3982C39.7766 41.3982 39.7854 41.3982 39.7912 41.3982C39.8202 41.3982 39.8522 41.3982 39.8813 41.3953C40.6836 41.3779 41.4336 41.0959 41.7912 40.6802C41.9918 40.4476 42.0673 40.1773 42.0266 39.8314C41.9598 39.2674 41.6255 38.5755 39.6516 38.25C36.8987 37.7965 36.2592 36.3662 36.204 35.247C36.1284 33.7005 37.1981 32.404 38.8668 32.0232C38.8987 32.0174 38.9278 32.0116 38.9598 32.0029V31.375C38.9598 30.9244 39.3261 30.5581 39.7737 30.5581C40.2243 30.5581 40.5877 30.9244 40.5877 31.375V31.997C41.7098 32.2122 42.7912 32.9011 43.3493 34.2296C43.5208 34.6482 43.329 35.1279 42.9133 35.3023C42.4976 35.4767 42.0208 35.2819 41.8464 34.8633C41.4598 33.936 40.6284 33.5581 39.8231 33.5552C39.797 33.5552 39.7708 33.5552 39.7447 33.5552C39.5673 33.561 39.3929 33.5813 39.2272 33.6191C38.5237 33.7819 37.7883 34.2703 37.829 35.1686C37.8464 35.4796 37.8842 36.2994 39.9133 36.6337C40.765 36.7732 43.3493 37.2005 43.6429 39.6366Z" fill="black"/>
</g>
</svg>
