<svg width="71" height="71" viewBox="0 0 71 71" fill="none" xmlns="http://www.w3.org/2000/svg">
<mask id="mask0_1399_1194" style="mask-type:luminance" maskUnits="userSpaceOnUse" x="6" y="20" width="55" height="28">
<path d="M6 20.0527H60.7066V47.0819H6V20.0527Z" fill="white"/>
</mask>
<g mask="url(#mask0_1399_1194)">
<path d="M47.1222 41.8416C47.1222 37.3074 50.8205 33.6325 55.3811 33.6325C57.3285 33.6325 59.1146 34.3012 60.5283 35.4216V21.5521C60.5283 20.8922 59.9886 20.3555 59.3229 20.3555H7.56087C6.89804 20.3555 6.3584 20.8922 6.3584 21.5521V45.7129C6.3584 46.3728 6.89804 46.9066 7.56087 46.9066H48.8848C47.7791 45.5135 47.1222 43.7538 47.1222 41.8416Z" fill="#EAEAEA"/>
</g>
<mask id="mask1_1399_1194" style="mask-type:luminance" maskUnits="userSpaceOnUse" x="6" y="20" width="56" height="28">
<path d="M6 20H61.4574V47.8328H6V20Z" fill="white"/>
</mask>
<g mask="url(#mask1_1399_1194)">
<path d="M48.8842 47.2638H7.56028C6.70095 47.2638 6 46.5688 6 45.7124V21.5515C6 20.6951 6.70095 20 7.56028 20H59.3223C60.1845 20 60.8855 20.6951 60.8855 21.5515V35.421C60.8855 35.5559 60.8063 35.682 60.6831 35.7406C60.557 35.7993 60.4104 35.7846 60.3018 35.6996C58.8911 34.5792 57.1901 33.9868 55.3805 33.9868C51.0252 33.9868 47.4794 37.5092 47.4794 41.841C47.4794 43.6183 48.063 45.293 49.1658 46.6861C49.2508 46.7946 49.2655 46.9412 49.2068 47.0644C49.1453 47.1847 49.0191 47.2638 48.8842 47.2638ZM7.56028 20.7127C7.09396 20.7127 6.71562 21.0881 6.71562 21.5515V45.7124C6.71562 46.1757 7.09396 46.5512 7.56028 46.5512H48.1833C47.2506 45.1551 46.7638 43.5391 46.7638 41.841C46.7638 37.1162 50.6293 33.2741 55.3805 33.2741C57.1109 33.2741 58.7533 33.7727 60.1669 34.7171V21.5515C60.1669 21.0881 59.7886 20.7127 59.3223 20.7127H7.56028Z" fill="#1A1351"/>
</g>
<path d="M17.1503 41.7822H16.0563C14.7131 41.7822 13.6162 40.6941 13.6162 39.3567C13.6162 39.1602 13.7775 38.9989 13.977 38.9989C14.1735 38.9989 14.3348 39.1602 14.3348 39.3567C14.3348 40.3011 15.1061 41.0695 16.0563 41.0695H17.1503C18.1005 41.0695 18.8719 40.3011 18.8719 39.3567C18.8719 38.4123 18.1005 37.6439 17.1503 37.6439H16.0563C14.7131 37.6439 13.6162 36.5558 13.6162 35.2184C13.6162 33.8811 14.7131 32.793 16.0563 32.793H17.1503C18.4965 32.793 19.5904 33.8811 19.5904 35.2184C19.5904 35.4149 19.4291 35.5763 19.2326 35.5763C19.0332 35.5763 18.8719 35.4149 18.8719 35.2184C18.8719 34.2741 18.1005 33.5057 17.1503 33.5057H16.0563C15.1061 33.5057 14.3348 34.2741 14.3348 35.2184C14.3348 36.1628 15.1061 36.9312 16.0563 36.9312H17.1503C18.4965 36.9312 19.5904 38.0193 19.5904 39.3567C19.5904 40.6941 18.4965 41.7822 17.1503 41.7822Z" fill="#1A1351"/>
<path d="M16.6049 42.9387C16.4054 42.9387 16.2441 42.7803 16.2441 42.5838V32.2543C16.2441 32.0578 16.4054 31.8965 16.6049 31.8965C16.8014 31.8965 16.9627 32.0578 16.9627 32.2543V42.5838C16.9627 42.7803 16.8014 42.9387 16.6049 42.9387Z" fill="#1A1351"/>
<path d="M63.6389 41.8419C63.6389 42.3786 63.5862 42.9124 63.4806 43.4432C63.375 43.9711 63.2166 44.4844 63.0113 44.983C62.8031 45.4816 62.5479 45.9537 62.2458 46.4025C61.9467 46.8483 61.6035 47.2647 61.2193 47.646C60.8351 48.0273 60.4187 48.3675 59.967 48.6666C59.5183 48.9658 59.0402 49.218 58.5416 49.4233C58.0401 49.6315 57.5239 49.787 56.9902 49.8926C56.4593 49.9982 55.9226 50.048 55.38 50.048C54.8374 50.048 54.3007 49.9982 53.7699 49.8926C53.2361 49.787 52.7199 49.6315 52.2184 49.4233C51.7198 49.218 51.2418 48.9658 50.793 48.6666C50.3414 48.3675 49.9249 48.0273 49.5407 47.646C49.1565 47.2647 48.8134 46.8483 48.5142 46.4025C48.2121 45.9537 47.957 45.4816 47.7487 44.983C47.5434 44.4844 47.3851 43.9711 47.2795 43.4432C47.1739 42.9124 47.1211 42.3786 47.1211 41.8419C47.1211 41.3022 47.1739 40.7685 47.2795 40.2405C47.3851 39.7097 47.5434 39.1964 47.7487 38.7008C47.957 38.2022 48.2121 37.73 48.5142 37.2813C48.8134 36.8326 49.1565 36.419 49.5407 36.0378C49.9249 35.6565 50.3414 35.3163 50.793 35.0171C51.2418 34.718 51.7198 34.4628 52.2184 34.2575C52.7199 34.0522 53.2361 33.8968 53.7699 33.7912C54.3007 33.6856 54.8374 33.6328 55.38 33.6328C55.9226 33.6328 56.4593 33.6856 56.9902 33.7912C57.5239 33.8968 58.0401 34.0522 58.5416 34.2575C59.0402 34.4628 59.5183 34.718 59.967 35.0171C60.4187 35.3163 60.8351 35.6565 61.2193 36.0378C61.6035 36.419 61.9467 36.8326 62.2458 37.2813C62.5479 37.73 62.8031 38.2022 63.0113 38.7008C63.2166 39.1964 63.375 39.7097 63.4806 40.2405C63.5862 40.7685 63.6389 41.3022 63.6389 41.8419Z" fill="#AFDDFF"/>
<mask id="mask2_1399_1194" style="mask-type:luminance" maskUnits="userSpaceOnUse" x="46" y="32" width="18" height="19">
<path d="M46.4414 32.8164H64.0004V50.4077H46.4414V32.8164Z" fill="white"/>
</mask>
<g mask="url(#mask2_1399_1194)">
<path d="M55.3804 50.4043C50.6292 50.4043 46.7637 46.5622 46.7637 41.8403C46.7637 37.1155 50.6292 33.2734 55.3804 33.2734C60.1316 33.2734 63.9971 37.1155 63.9971 41.8403C63.9971 46.5622 60.1316 50.4043 55.3804 50.4043ZM55.3804 33.9861C51.0251 33.9861 47.4793 37.5085 47.4793 41.8403C47.4793 46.1692 51.0251 49.6916 55.3804 49.6916C59.7357 49.6916 63.2815 46.1692 63.2815 41.8403C63.2815 37.5085 59.7357 33.9861 55.3804 33.9861Z" fill="#1A1351"/>
</g>
<path d="M54.3247 44.6496C54.2309 44.6496 54.14 44.6144 54.0696 44.547L51.2452 41.7373C51.1045 41.5995 51.1045 41.3736 51.2452 41.2329C51.3831 41.095 51.6118 41.095 51.7497 41.2329L54.3247 43.7903L59.0114 39.1329C59.1493 38.9921 59.378 38.9921 59.5159 39.1329C59.6567 39.2708 59.6567 39.4966 59.5159 39.6374L54.577 44.547C54.5066 44.6144 54.4157 44.6496 54.3247 44.6496Z" fill="#1A1351"/>
<path d="M18.1769 27.4256H16.6049C16.4054 27.4256 16.2441 27.2643 16.2441 27.0678C16.2441 26.8713 16.4054 26.7129 16.6049 26.7129H18.1769C18.3763 26.7129 18.5347 26.8713 18.5347 27.0678C18.5347 27.2643 18.3763 27.4256 18.1769 27.4256Z" fill="#1A1351"/>
<path d="M18.5902 28.5424C18.4436 28.5424 18.3057 28.4515 18.2529 28.3078L17.3848 25.9556L16.5196 28.3078C16.4492 28.4925 16.2439 28.5864 16.0592 28.5189C15.8715 28.4515 15.7776 28.2462 15.8451 28.0614L17.0475 24.7942C17.1003 24.6564 17.2352 24.5625 17.3848 24.5625C17.5344 24.5625 17.6693 24.6564 17.7221 24.7942L18.9246 28.0614C18.992 28.2462 18.8982 28.4515 18.7105 28.5189C18.6723 28.5336 18.6283 28.5424 18.5873 28.5424H18.5902Z" fill="#1A1351"/>
<path d="M23.9958 28.5395C23.1336 28.5395 22.4326 27.8444 22.4326 26.988V26.114C22.4326 25.2576 23.1336 24.5625 23.9958 24.5625C24.6675 24.5625 25.2628 24.9878 25.4769 25.6213C25.5385 25.809 25.4388 26.0113 25.2511 26.0729C25.0634 26.1345 24.8581 26.0348 24.7965 25.8471C24.6821 25.5039 24.3595 25.2752 23.9958 25.2752C23.5295 25.2752 23.1512 25.6506 23.1512 26.114V26.988C23.1512 27.4514 23.5295 27.8297 23.9958 27.8297C24.3038 27.8297 24.5853 27.6625 24.7349 27.3927C24.8317 27.2197 25.0487 27.1581 25.2218 27.2519C25.3948 27.3487 25.4593 27.5657 25.3625 27.7359C25.0898 28.2315 24.5648 28.5395 23.9958 28.5395Z" fill="#1A1351"/>
<path d="M35.0115 28.5395C34.1492 28.5395 33.4482 27.8444 33.4482 26.988V26.114C33.4482 25.2576 34.1492 24.5625 35.0115 24.5625C35.6831 24.5625 36.2784 24.9878 36.4925 25.6213C36.5541 25.809 36.4544 26.0113 36.2638 26.0729C36.0761 26.1345 35.8737 26.0348 35.8121 25.8471C35.6948 25.5039 35.3751 25.2752 35.0085 25.2752C34.5451 25.2752 34.1639 25.6506 34.1639 26.114V26.988C34.1639 27.4514 34.5451 27.8297 35.0085 27.8297C35.3165 27.8297 35.601 27.6625 35.7505 27.3927C35.8473 27.2197 36.0644 27.1581 36.2374 27.2519C36.4104 27.3487 36.475 27.5657 36.3782 27.7359C36.1025 28.2315 35.5804 28.5395 35.0085 28.5395H35.0115Z" fill="#1A1351"/>
<path d="M32.1407 26.9099H30.6625C30.466 26.9099 30.3047 26.7486 30.3047 26.5521C30.3047 26.3556 30.466 26.1973 30.6625 26.1973H32.1407C32.3401 26.1973 32.4985 26.3556 32.4985 26.5521C32.4985 26.7486 32.3401 26.9099 32.1407 26.9099Z" fill="#1A1351"/>
<path d="M32.6099 28.5395H30.6625C30.466 28.5395 30.3047 28.3811 30.3047 28.1846V24.9174C30.3047 24.7209 30.466 24.5625 30.6625 24.5625H32.6099C32.8064 24.5625 32.9677 24.7209 32.9677 24.9174C32.9677 25.1139 32.8064 25.2752 32.6099 25.2752H31.0203V27.8297H32.6099C32.8064 27.8297 32.9677 27.9881 32.9677 28.1846C32.9677 28.3811 32.8064 28.5395 32.6099 28.5395Z" fill="#1A1351"/>
<path d="M29.1635 28.5395C28.967 28.5395 28.8057 28.3811 28.8057 28.1846V24.9174C28.8057 24.7209 28.967 24.5625 29.1635 24.5625C29.3629 24.5625 29.5242 24.7209 29.5242 24.9174V28.1846C29.5242 28.3811 29.3629 28.5395 29.1635 28.5395Z" fill="#1A1351"/>
<path d="M29.1631 26.9099H26.7582C26.5588 26.9099 26.4004 26.7486 26.4004 26.5521C26.4004 26.3556 26.5588 26.1973 26.7582 26.1973H29.1631C29.3626 26.1973 29.5239 26.3556 29.5239 26.5521C29.5239 26.7486 29.3626 26.9099 29.1631 26.9099Z" fill="#1A1351"/>
<path d="M26.7582 28.5395C26.5588 28.5395 26.4004 28.3811 26.4004 28.1846V24.9174C26.4004 24.7209 26.5588 24.5625 26.7582 24.5625C26.9547 24.5625 27.116 24.7209 27.116 24.9174V28.1846C27.116 28.3811 26.9547 28.5395 26.7582 28.5395Z" fill="#1A1351"/>
<path d="M37.4604 26.9098C37.346 26.9098 37.2345 26.8541 37.1642 26.7543C37.0527 26.5901 37.0938 26.3701 37.258 26.2587L39.6659 24.6251C39.8272 24.5136 40.0501 24.5547 40.1645 24.7189C40.2759 24.8803 40.2319 25.1031 40.0706 25.2146L37.6627 26.8453C37.6012 26.8893 37.5308 26.9098 37.4604 26.9098Z" fill="#1A1351"/>
<path d="M37.4603 28.5395C37.2609 28.5395 37.1025 28.3811 37.1025 28.1846V24.9174C37.1025 24.7209 37.2609 24.5625 37.4603 24.5625C37.6568 24.5625 37.8182 24.7209 37.8182 24.9174V28.1846C37.8182 28.3811 37.6568 28.5395 37.4603 28.5395Z" fill="#1A1351"/>
<path d="M39.8684 28.5412C39.7569 28.5412 39.6484 28.4914 39.578 28.3975L37.9679 26.2243C37.8506 26.0659 37.8858 25.843 38.0441 25.7257C38.2025 25.6084 38.4283 25.6436 38.5457 25.802L40.1558 27.9752C40.2731 28.1336 40.2379 28.3565 40.0795 28.4738C40.015 28.5207 39.9417 28.5412 39.8684 28.5412Z" fill="#1A1351"/>
<path d="M13.4232 28.5395C13.2267 28.5395 13.0654 28.3811 13.0654 28.1846V24.9174C13.0654 24.7209 13.2267 24.5625 13.4232 24.5625C13.6227 24.5625 13.784 24.7209 13.784 24.9174V28.1846C13.784 28.3811 13.6227 28.5395 13.4232 28.5395Z" fill="#1A1351"/>
<path d="M14.9014 26.9088H13.4232C13.2267 26.9088 13.0654 26.7475 13.0654 26.551V24.9174C13.0654 24.7209 13.2267 24.5625 13.4232 24.5625H14.9014C15.3707 24.5625 15.7519 24.9408 15.7519 25.4072V26.0612C15.7519 26.5275 15.3707 26.9088 14.9014 26.9088ZM13.784 26.1961H14.9014C14.9747 26.1961 15.0334 26.1345 15.0334 26.0612V25.4072C15.0334 25.3338 14.9747 25.2752 14.9014 25.2752H13.784V26.1961Z" fill="#1A1351"/>
<path d="M20.3297 26.9108C20.2183 26.9108 20.1098 26.8551 20.0423 26.7641L18.8398 25.1305C18.7225 24.9722 18.7548 24.7493 18.9161 24.632C19.0745 24.5146 19.3003 24.5498 19.4176 24.7082L20.3297 25.9488L21.2448 24.7082C21.3621 24.5498 21.5879 24.5146 21.7463 24.632C21.9047 24.7493 21.9399 24.9722 21.8225 25.1305L20.6201 26.7641C20.5526 26.8551 20.4441 26.9108 20.3297 26.9108Z" fill="#1A1351"/>
<path d="M20.3295 28.5406C20.133 28.5406 19.9717 28.3822 19.9717 28.1857V26.5521C19.9717 26.3556 20.133 26.1973 20.3295 26.1973C20.5289 26.1973 20.6902 26.3556 20.6902 26.5521V28.1857C20.6902 28.3822 20.5289 28.5406 20.3295 28.5406Z" fill="#1A1351"/>
<path d="M43.9771 33.867H23.9633C23.7668 33.867 23.6055 33.7086 23.6055 33.5121C23.6055 33.3156 23.7668 33.1543 23.9633 33.1543H43.9771C44.1765 33.1543 44.3378 33.3156 44.3378 33.5121C44.3378 33.7086 44.1765 33.867 43.9771 33.867Z" fill="#1A1351"/>
<path d="M43.9771 36.3865H23.9633C23.7668 36.3865 23.6055 36.2252 23.6055 36.0287C23.6055 35.8322 23.7668 35.6738 23.9633 35.6738H43.9771C44.1765 35.6738 44.3378 35.8322 44.3378 36.0287C44.3378 36.2252 44.1765 36.3865 43.9771 36.3865Z" fill="#1A1351"/>
<path d="M43.9771 38.9021H23.9633C23.7668 38.9021 23.6055 38.7438 23.6055 38.5473C23.6055 38.3508 23.7668 38.1895 23.9633 38.1895H43.9771C44.1765 38.1895 44.3378 38.3508 44.3378 38.5473C44.3378 38.7438 44.1765 38.9021 43.9771 38.9021Z" fill="#1A1351"/>
<path d="M33.4423 41.4197H23.9633C23.7668 41.4197 23.6055 41.2613 23.6055 41.0648C23.6055 40.8683 23.7668 40.707 23.9633 40.707H33.4423C33.6388 40.707 33.8001 40.8683 33.8001 41.0648C33.8001 41.2613 33.6388 41.4197 33.4423 41.4197Z" fill="#1A1351"/>
<path d="M45.4111 24.918H56.1014V28.1852H45.4111V24.918Z" fill="#FED672"/>
<path d="M56.1018 28.5395H45.4115C45.2121 28.5395 45.0537 28.3811 45.0537 28.1846V24.9174C45.0537 24.7209 45.2121 24.5625 45.4115 24.5625H56.1018C56.3012 24.5625 56.4596 24.7209 56.4596 24.9174V28.1846C56.4596 28.3811 56.3012 28.5395 56.1018 28.5395ZM45.7693 27.8297H55.744V25.2752H45.7693V27.8297Z" fill="#1A1351"/>
</svg>
