<svg width="71" height="71" viewBox="0 0 71 71" fill="none" xmlns="http://www.w3.org/2000/svg">
<mask id="mask0_1399_1165" style="mask-type:luminance" maskUnits="userSpaceOnUse" x="21" y="46" width="28" height="14">
<path d="M21.4619 46.2812H48.3636V60.0007H21.4619V46.2812Z" fill="white"/>
</mask>
<g mask="url(#mask0_1399_1165)">
<path fill-rule="evenodd" clip-rule="evenodd" d="M28.9314 59.999C28.8701 59.999 28.8409 59.999 28.8117 59.9669C28.5431 59.9377 28.3621 59.7305 28.333 59.459L27.6762 53.9333L22.7751 56.2335C22.5358 56.3532 22.238 56.2948 22.06 56.0846C21.879 55.9036 21.8498 55.6059 21.9987 55.3957L26.8705 46.913C26.9581 46.7934 27.107 46.6737 27.2588 46.6416C27.4076 46.6124 27.5565 46.6416 27.7054 46.7029C28.4818 47.1816 29.3488 47.3597 30.1865 47.24C30.3062 47.2108 30.4551 47.24 30.604 47.3013C30.7528 47.421 30.9338 47.5085 31.1119 47.599C31.2315 47.6895 31.3512 47.7771 31.3804 47.9289C31.7978 49.0323 32.7845 49.87 34.0396 50.1678C34.2177 50.229 34.3987 50.3487 34.4571 50.5268C34.5184 50.7048 34.5184 50.8858 34.4279 51.0639L29.4393 59.6984C29.3488 59.8793 29.1386 59.999 28.9314 59.999ZM41.2117 59.999C41.0015 59.999 40.7913 59.8793 40.7038 59.6984L35.7122 51.0639C35.6247 50.8858 35.5926 50.7048 35.6831 50.5268C35.7414 50.3487 35.9224 50.229 36.1005 50.1678C37.3557 49.87 38.3423 49.0323 38.7597 47.9289C38.7889 47.7771 38.9086 47.6574 39.0283 47.599C39.2092 47.5085 39.3873 47.421 39.5362 47.3013C39.6558 47.2108 39.8076 47.1816 39.9565 47.2108C40.7913 47.3597 41.6583 47.1816 42.4347 46.7029C42.5836 46.6124 42.7354 46.5832 42.8843 46.6416C43.0623 46.6737 43.182 46.7613 43.2725 46.913L48.1414 55.3665C48.2903 55.6059 48.2611 55.8744 48.0831 56.0846C47.9021 56.2627 47.6043 56.324 47.365 56.2335L42.4639 53.9333L41.8072 59.459C41.778 59.6984 41.5999 59.9085 41.3314 59.9669C41.2992 59.999 41.2409 59.999 41.2117 59.999Z" fill="#D22B24"/>
</g>
<mask id="mask1_1399_1165" style="mask-type:luminance" maskUnits="userSpaceOnUse" x="11" y="9" width="49" height="37">
<path d="M11 9H59.5725V45.5345H11V9Z" fill="white"/>
</mask>
<g mask="url(#mask1_1399_1165)">
<path fill-rule="evenodd" clip-rule="evenodd" d="M56.388 44.8514H44.8871C44.7061 44.8514 44.528 44.7638 44.4083 44.6121C44.2887 44.4632 44.2595 44.2851 44.2887 44.1041C44.5864 42.9395 44.347 41.7164 43.6319 40.8786C43.5414 40.7589 43.4801 40.6101 43.4801 40.4612C43.4801 40.3707 43.4801 40.2802 43.4801 40.1605C43.4801 40.073 43.4801 39.9825 43.4801 39.8628C43.4801 39.7139 43.5122 39.5943 43.6319 39.4746C44.5864 38.3099 44.6769 36.5468 43.8391 35.1136C43.0043 33.6482 41.4484 32.8718 39.9568 33.1111C39.808 33.1403 39.6562 33.1111 39.5365 33.0206C39.3584 32.9301 39.1804 32.8105 38.9994 32.7229C38.8797 32.6616 38.7892 32.5419 38.7308 32.4222C38.1937 30.989 36.7284 30.0345 35.0558 30.0345C33.3832 30.0345 31.9178 30.989 31.3807 32.4222C31.3224 32.5419 31.2319 32.6616 31.1122 32.7229C30.9341 32.8105 30.7531 32.9301 30.5751 33.0206C30.4554 33.1111 30.3065 33.1403 30.1547 33.1111C28.6631 32.8718 27.1073 33.6482 26.2724 35.1136C25.4347 36.5468 25.5252 38.3099 26.4797 39.4746C26.5702 39.5943 26.6315 39.7431 26.6315 39.8628C26.6315 39.9825 26.6315 40.073 26.6315 40.1605C26.6315 40.2802 26.6315 40.3707 26.6315 40.4612C26.6315 40.6101 26.5994 40.7589 26.4797 40.8786C25.7937 41.7164 25.5252 42.9395 25.8229 44.1041C25.855 44.2851 25.8229 44.4924 25.7032 44.6121C25.5836 44.7638 25.4055 44.8514 25.2274 44.8514H13.7528C12.2582 44.8514 11.0352 43.6283 11.0352 42.1338V11.7176C11.0352 10.2231 12.2582 9 13.7528 9H56.388C57.8825 9 59.1085 10.2231 59.1085 11.7176V42.1338C59.1085 43.6283 57.8825 44.8514 56.388 44.8514Z" fill="#2965ED"/>
</g>
<path fill-rule="evenodd" clip-rule="evenodd" d="M50.3234 40.7583H44.0797C43.7527 40.7583 43.4813 40.4897 43.4813 40.1599C43.4813 40.0723 43.4813 39.9818 43.4813 39.8621C43.4813 39.7133 43.5134 39.5936 43.633 39.4739C44.5876 38.3092 44.6781 36.5461 43.8403 35.1129C43.0055 33.6475 41.4496 32.8711 39.958 33.1104C39.8091 33.1396 39.6573 33.1104 39.5377 33.02C39.3596 32.9295 39.1815 32.8098 39.0006 32.7222C38.8809 32.6609 38.7904 32.5412 38.732 32.4216C38.1949 30.9883 36.7296 30.0338 35.057 30.0338C33.3844 30.0338 31.919 30.9883 31.3819 32.4216C31.3235 32.5412 31.233 32.6609 31.1134 32.7222C30.9353 32.8098 30.7543 32.9295 30.5763 33.02C30.4566 33.1104 30.3077 33.1396 30.1559 33.1104C28.6643 32.8711 27.1085 33.6475 26.2736 35.1129C25.4359 36.5461 25.5264 38.3092 26.4809 39.4739C26.5714 39.5936 26.6327 39.7425 26.6327 39.8621C26.6327 39.9818 26.6327 40.0723 26.6327 40.1599C26.6327 40.4897 26.3641 40.7583 26.0343 40.7583H19.7905C19.4606 40.7583 19.1921 40.4897 19.1921 40.1599C19.1921 38.2479 17.6392 36.6658 15.6951 36.6658C15.3682 36.6658 15.0996 36.3973 15.0996 36.0674V17.7827C15.0996 17.4528 15.3682 17.1843 15.6951 17.1843C17.61 17.1843 19.1921 15.6313 19.1921 13.6902C19.1921 13.3603 19.4606 13.0918 19.7905 13.0918H50.2943C50.6241 13.0918 50.8927 13.3603 50.8927 13.6902C50.8927 15.6022 52.4748 17.1843 54.3867 17.1843C54.7166 17.1843 54.9851 17.4528 54.9851 17.7827V36.0674C54.9851 36.3973 54.7166 36.6658 54.3867 36.6658C52.4748 36.6658 50.8927 38.2479 50.8927 40.1599C50.9218 40.4897 50.6533 40.7583 50.3234 40.7583Z" fill="#DDEBFD"/>
<path fill-rule="evenodd" clip-rule="evenodd" d="M35.0542 51.4866C32.9934 51.4866 31.1106 50.319 30.3634 48.5588C30.305 48.5267 30.2145 48.4683 30.1532 48.4391C28.2412 48.6464 26.3001 47.6306 25.2551 45.8383C24.2101 44.046 24.2976 41.8363 25.4623 40.2805C25.4623 40.2513 25.4623 40.2221 25.4623 40.1608C25.4623 40.1316 25.4623 40.1024 25.4623 40.0411C24.2976 38.5174 24.2101 36.3077 25.2551 34.5154C26.3001 32.691 28.2412 31.6752 30.1532 31.9145C30.2145 31.8562 30.305 31.827 30.3634 31.7949C31.1398 30.0026 32.9934 28.8379 35.0542 28.8379C37.1472 28.8379 38.9978 30.0347 39.7743 31.7949C39.8356 31.827 39.894 31.8562 39.9844 31.9145C41.8964 31.6752 43.8376 32.7231 44.8855 34.5154C45.9013 36.3077 45.84 38.5174 44.6753 40.0411C44.6753 40.1024 44.6753 40.1316 44.6753 40.1608C44.6753 40.2221 44.6753 40.2513 44.6753 40.2805C45.84 41.8363 45.9013 44.046 44.8855 45.8383C43.8376 47.6306 41.8964 48.6756 39.9844 48.4391C39.894 48.4683 39.8356 48.5267 39.7743 48.5588C38.9978 50.319 37.1472 51.4866 35.0542 51.4866Z" fill="#F9AF44"/>
<path fill-rule="evenodd" clip-rule="evenodd" d="M35.0548 47.599C30.9624 47.599 27.6143 44.2538 27.6143 40.1584C27.6143 36.0659 30.9624 32.7207 35.0548 32.7207C39.1794 32.7207 42.4954 36.0659 42.4954 40.1584C42.4954 44.2538 39.1794 47.599 35.0548 47.599Z" fill="#FB8032"/>
<path fill-rule="evenodd" clip-rule="evenodd" d="M30.0349 20.6525H28.4236C28.0937 20.6525 27.8252 20.381 27.8252 20.0541V17.3335C27.8252 16.8256 28.2134 16.4082 28.7213 16.4082H30.0349C31.2025 16.4082 32.157 17.3656 32.157 18.5303C32.157 19.695 31.2025 20.6525 30.0349 20.6525ZM28.9899 19.4557H30.0057C30.5428 19.4557 30.934 19.0382 30.934 18.5303C30.934 18.0224 30.5136 17.605 30.0057 17.605H28.9899V19.4557Z" fill="#4D5E71"/>
<path fill-rule="evenodd" clip-rule="evenodd" d="M28.3953 22.9793C28.0654 22.9793 27.7969 22.7108 27.7969 22.3809V20.0515C27.7969 19.7217 28.0654 19.4531 28.3953 19.4531C28.7222 19.4531 28.9908 19.7217 28.9908 20.0515V22.3809C28.9908 22.7108 28.7514 22.9793 28.3953 22.9793Z" fill="#4D5E71"/>
<path fill-rule="evenodd" clip-rule="evenodd" d="M31.4999 22.9529C31.3218 22.9529 31.1408 22.8624 31.0212 22.7135L29.1997 20.4425C28.9895 20.174 29.0187 19.7857 29.2902 19.6048C29.5266 19.3975 29.9178 19.4267 30.125 19.6952L31.9494 21.9954C32.1567 22.2348 32.0983 22.623 31.8589 22.8332C31.7684 22.9208 31.6196 22.9529 31.4999 22.9529Z" fill="#4D5E71"/>
<path fill-rule="evenodd" clip-rule="evenodd" d="M38.0129 22.9818C37.7735 22.9818 37.5371 22.833 37.4466 22.6228L35.7127 18.5303L33.9817 22.6228C33.862 22.9205 33.503 23.0723 33.2024 22.9205C32.9046 22.8038 32.7557 22.4447 32.8754 22.1441L35.1756 16.7672C35.2661 16.5571 35.4733 16.4082 35.7127 16.4082C35.9521 16.4082 36.1622 16.5279 36.2498 16.7672L38.5529 22.1441C38.6726 22.4739 38.5208 22.8038 38.2231 22.9526C38.1647 22.9818 38.0742 22.9818 38.0129 22.9818Z" fill="#4D5E71"/>
<path fill-rule="evenodd" clip-rule="evenodd" d="M37.327 21.3658H34.1306C33.8008 21.3658 33.5322 21.0972 33.5322 20.7674C33.5322 20.4404 33.8008 20.1719 34.1306 20.1719H37.327C37.6568 20.1719 37.9254 20.4404 37.9254 20.7674C37.9254 21.0972 37.6568 21.3658 37.327 21.3658Z" fill="#4D5E71"/>
<path fill-rule="evenodd" clip-rule="evenodd" d="M43.3923 22.9817C43.1821 22.9817 43.004 22.8912 42.8844 22.7132L40.4937 19.0089V22.3833C40.4937 22.7132 40.2251 22.9817 39.8953 22.9817C39.5683 22.9817 39.2969 22.7132 39.2969 22.3833V17.0065C39.2969 16.7379 39.4487 16.4986 39.7172 16.4081C39.9566 16.3497 40.2543 16.4373 40.374 16.6766L42.7939 20.3809V17.0065C42.7939 16.6766 43.0624 16.4081 43.3923 16.4081C43.7192 16.4081 43.9877 16.6766 43.9877 17.0065V22.3833C43.9877 22.6519 43.8097 22.8912 43.5703 22.9525C43.5119 22.9817 43.4506 22.9817 43.3923 22.9817Z" fill="#4D5E71"/>
<path fill-rule="evenodd" clip-rule="evenodd" d="M49.0378 17.605H45.2752C44.9453 17.605 44.6768 17.3335 44.6768 17.0066C44.6768 16.6768 44.9453 16.4082 45.2752 16.4082H49.0378C49.3676 16.4082 49.6362 16.6768 49.6362 17.0066C49.6362 17.3335 49.3676 17.605 49.0378 17.605Z" fill="#4D5E71"/>
<path fill-rule="evenodd" clip-rule="evenodd" d="M47.1541 22.9818C46.8271 22.9818 46.5586 22.7133 46.5586 22.3834V17.0066C46.5586 16.6768 46.8271 16.4082 47.1541 16.4082C47.4839 16.4082 47.7525 16.6768 47.7525 17.0066V22.3834C47.7525 22.7133 47.4839 22.9818 47.1541 22.9818Z" fill="#4D5E71"/>
<path fill-rule="evenodd" clip-rule="evenodd" d="M23.8228 22.9817C21.9984 22.9817 20.5039 21.4872 20.5039 19.6657C20.5039 17.8413 21.9984 16.3789 23.8228 16.3789C24.6577 16.3789 25.4341 16.6766 26.0617 17.2459C26.3011 17.4531 26.3011 17.8413 26.0909 18.0807C25.8545 18.3201 25.4954 18.3492 25.2269 18.1128C24.8387 17.7538 24.3307 17.5728 23.7907 17.5728C22.626 17.5728 21.7007 18.501 21.7007 19.6657C21.7007 20.8304 22.626 21.7879 23.7907 21.7879C24.9554 21.7879 25.9129 20.8304 25.9129 19.6657C25.9129 19.546 25.9129 19.4264 25.8837 19.3067C25.8224 18.9768 26.0325 18.6499 26.3624 18.5886C26.6893 18.5302 26.9871 18.7696 27.0484 19.0673C27.1067 19.2775 27.1067 19.4556 27.1067 19.6657C27.1067 21.4872 25.6443 22.9817 23.8228 22.9817Z" fill="#4D5E71"/>
<path fill-rule="evenodd" clip-rule="evenodd" d="M24.1511 20.8317C23.8242 20.8317 23.5527 20.5631 23.5527 20.2333V19.1882C23.5527 18.8584 23.8242 18.5898 24.1511 18.5898H26.4805C26.8104 18.5898 27.0789 18.8584 27.0789 19.1882C27.0789 19.5181 26.8104 19.7866 26.4805 19.7866H24.7495V20.2333C24.7495 20.5631 24.481 20.8317 24.1511 20.8317Z" fill="#4D5E71"/>
<path fill-rule="evenodd" clip-rule="evenodd" d="M50.1143 25.6089H19.9959C19.6689 25.6089 19.4004 25.3404 19.4004 25.0105C19.4004 24.6807 19.6689 24.4121 19.9959 24.4121H50.1143C50.4413 24.4121 50.7098 24.6807 50.7098 25.0105C50.7098 25.3404 50.4413 25.6089 50.1143 25.6089Z" fill="#4D5E71"/>
<path fill-rule="evenodd" clip-rule="evenodd" d="M45.5723 27.9712H19.9959C19.6689 27.9712 19.4004 27.7027 19.4004 27.3757C19.4004 27.0459 19.6689 26.7773 19.9959 26.7773H45.5723C45.9022 26.7773 46.1707 27.0459 46.1707 27.3757C46.1707 27.7027 45.9022 27.9712 45.5723 27.9712Z" fill="#4D5E71"/>
<path fill-rule="evenodd" clip-rule="evenodd" d="M34.069 42.7608C33.9201 42.7608 33.7713 42.6995 33.6516 42.5798L31.6199 40.5803C31.3806 40.3409 31.3806 39.9527 31.6199 39.7133C31.8593 39.5032 32.2183 39.5032 32.4577 39.7133L34.069 41.3275L37.6565 37.7401C37.8929 37.5007 38.252 37.5007 38.4913 37.7401C38.7307 37.9794 38.7307 38.3385 38.4913 38.5778L34.4893 42.6119C34.3697 42.6995 34.2179 42.7608 34.069 42.7608Z" fill="white"/>
</svg>
