<svg width="134" height="206" viewBox="0 0 134 206" fill="none" xmlns="http://www.w3.org/2000/svg">
<path d="M66.6057 204.593C64.1486 204.593 61.6801 204.524 59.269 204.39C43.4762 203.52 28.8717 199.84 18.1579 194.014C7.14511 188.03 1.07715 180.206 1.07715 171.996V75.7402C1.07715 67.5295 7.14511 59.7097 18.1656 53.7223C28.8794 47.8997 43.4762 44.2159 59.2766 43.3496C61.6916 43.2155 64.1563 43.1465 66.6134 43.1465C83.9931 43.1465 100.346 46.4622 112.665 52.488C125.231 58.6211 132.138 66.8663 132.138 75.7325V171.984C132.138 180.839 125.219 189.096 112.654 195.24C100.346 201.278 83.9931 204.593 66.6057 204.593Z" fill="#E39935"/>
<mask id="mask0_1398_149" style="mask-type:luminance" maskUnits="userSpaceOnUse" x="0" y="42" width="134" height="164">
<path d="M0 42.0352H133.211V205.667H0V42.0352Z" fill="white"/>
</mask>
<g mask="url(#mask0_1398_149)">
<path d="M66.6057 44.2207C102.208 44.2207 131.065 58.3308 131.065 75.7335V171.989C131.065 189.396 102.205 203.506 66.6057 203.506C64.1448 203.506 61.7145 203.44 59.3303 203.306C27.1582 201.551 2.15043 188.196 2.15043 171.997V75.7412C2.15043 59.542 27.1582 46.191 59.3341 44.4277C61.7222 44.2936 64.1525 44.2284 66.6134 44.2284M66.6134 42.0703C64.1371 42.0703 61.6494 42.1393 59.2153 42.2735C43.2653 43.1474 28.5037 46.8771 17.6557 52.7879C6.27112 58.9479 0 67.1088 0 75.7335V171.985C0 180.614 6.27112 188.771 17.6557 194.958C28.5037 200.853 43.2653 204.583 59.2191 205.472C61.6494 205.606 64.1371 205.675 66.6134 205.675C84.1541 205.675 100.675 202.317 113.137 196.238C126.089 189.905 133.227 181.3 133.227 172.012V75.7603C133.227 66.4725 126.093 57.8708 113.137 51.5383C100.675 45.4435 84.1541 42.101 66.6134 42.101V42.0703Z" fill="#46140D"/>
</g>
<path d="M116.518 75.7315V171.983C116.518 187.059 94.8679 199.663 65.9425 202.768C63.7806 203.001 61.5765 203.182 59.3341 203.308C27.1582 201.549 2.15039 188.194 2.15039 171.995V75.7392C2.15039 59.5401 27.1582 46.1891 59.3341 44.4258C61.5727 44.5484 63.7768 44.7286 65.9425 44.9624C94.8679 48.052 116.518 60.6632 116.518 75.7315Z" fill="#FDC06E"/>
<path d="M116.518 75.7339V171.986C116.518 187.062 94.8677 199.665 65.9424 202.77C37.0132 199.677 15.3633 187.073 15.3633 171.997V75.7415C15.3633 60.6694 37.0132 48.0658 65.9424 44.9609C94.8677 48.0543 116.518 60.6656 116.518 75.7339Z" fill="#FBB03A"/>
<path d="M66.3179 98.1153C49.241 98.1153 33.1722 95.3669 21.067 90.3799C8.65889 85.2665 1.82812 78.3475 1.82812 70.9111C1.82812 63.6319 8.41356 56.8049 20.377 51.7221C32.0184 46.7773 47.585 43.933 64.2173 43.7107C64.9188 43.7107 65.6164 43.6992 66.3179 43.6992C83.391 43.6992 99.4636 46.4476 111.565 51.4346C123.973 56.5366 130.796 63.4517 130.796 70.9111C130.796 77.1784 126.028 83.0279 117.008 87.8347C104.742 94.3665 86.2697 98.1153 66.3179 98.1153Z" fill="#E39935"/>
<path d="M66.3169 44.756C101.341 44.756 129.718 56.4626 129.718 70.91C129.718 76.9243 124.789 82.4671 116.505 86.8829C104.917 93.0544 86.7479 97.0371 66.3169 97.0371C31.2929 97.0371 2.90043 85.3343 2.90043 70.91C2.90043 56.7616 30.1737 45.239 64.2316 44.7867C64.9255 44.7867 65.6154 44.7714 66.3169 44.7714M66.3169 42.6171C65.6729 42.6171 65.0021 42.6171 64.2086 42.6286C47.4346 42.8548 31.7108 45.7258 19.9582 50.7167C7.5731 55.9797 0.75 63.1439 0.75 70.91C0.75 78.8217 7.82226 86.0933 20.6596 91.3869C32.8876 96.4276 49.102 99.2067 66.3169 99.2067C86.4412 99.2067 105.105 95.4118 117.521 88.7919C126.912 83.7704 131.868 77.5874 131.868 70.91C131.868 62.9982 124.8 55.7228 111.963 50.433C99.7309 45.3924 83.5165 42.6133 66.3054 42.6133L66.3169 42.6171Z" fill="#46140D"/>
<path d="M116.514 75.7325V86.8718C104.918 93.0548 86.7488 97.0375 66.3179 97.0375C45.4422 97.0375 26.9202 92.8785 15.3631 86.4617C7.52037 82.111 2.90137 76.7292 2.90137 70.9104C2.90137 56.762 30.1746 45.2394 64.2326 44.7871C64.8076 44.8408 65.3749 44.8983 65.946 44.9596C94.8675 48.053 116.514 60.6642 116.514 75.7325Z" fill="#FDC06E"/>
<path d="M116.514 75.7337V86.8729C104.918 93.0559 86.749 97.0386 66.318 97.0386C45.4424 97.0386 26.9204 92.8796 15.3633 86.4628V75.7337C15.3633 60.6577 37.017 48.0541 65.9462 44.9492C94.8677 48.0541 116.514 60.6653 116.514 75.7337Z" fill="#FBB03A"/>
<path d="M34.9512 68.7422H101.423V73.0584H34.9512V68.7422Z" fill="#46140D"/>
<path d="M67.5481 70.6996C66.4058 70.7417 65.2635 70.7264 64.1212 70.6536C62.9789 70.5807 61.8405 70.4504 60.7135 70.2664C59.5827 70.0824 58.4634 69.8448 57.3594 69.5496C56.2516 69.2544 55.163 68.9056 54.0897 68.5031C53.0164 68.1045 51.9661 67.6483 50.9388 67.1423C49.9115 66.6364 48.9111 66.0844 47.9374 65.4787C46.9638 64.8731 46.0208 64.2253 45.1124 63.5276C44.2039 62.83 43.3299 62.0902 42.4905 61.3044C41.6548 60.5224 40.8575 59.6983 40.1024 58.8396C39.3434 57.9772 38.6304 57.0802 37.9634 56.1449C37.2926 55.2134 36.6717 54.2513 36.0967 53.2585C35.5217 52.2657 34.9965 51.2461 34.5212 50.1996C34.0459 49.1531 33.6243 48.0875 33.2524 47.0027C32.8806 45.9141 32.5663 44.8101 32.3018 43.6908C32.0411 42.5754 31.8342 41.4446 31.6808 40.3061C31.5275 39.1676 31.4317 38.0254 31.3895 36.8754C31.3512 35.7293 31.3665 34.5793 31.4393 33.4332C31.5083 32.2871 31.6387 31.1448 31.8227 30.0101C32.0066 28.8793 32.2443 27.7562 32.5356 26.6446C32.8308 25.533 33.1758 24.4405 33.5783 23.3634C33.9769 22.2862 34.4292 21.2321 34.9314 20.201C35.4374 19.1698 35.9893 18.1655 36.5912 17.1881C37.193 16.2106 37.8408 15.2638 38.5346 14.3515C39.2322 13.4354 39.9682 12.5614 40.7463 11.7181C41.5283 10.8786 42.3486 10.0775 43.2073 9.31851C44.0659 8.55954 44.959 7.84273 45.8867 7.17192C46.8181 6.49727 47.7764 5.87246 48.7654 5.29748C49.7544 4.71867 50.7702 4.19352 51.8128 3.71437C52.8554 3.23905 53.9172 2.81357 54.9982 2.44175C56.083 2.06993 57.1793 1.75177 58.2947 1.48728C59.4102 1.22279 60.5333 1.0158 61.668 0.862468C62.8026 0.70914 63.941 0.61331 65.0833 0.571145C66.2295 0.532813 67.3718 0.548146 68.5141 0.620977C69.6564 0.693808 70.7948 0.820303 71.9218 1.0043C73.0526 1.18829 74.1719 1.42978 75.2758 1.72494C76.3836 2.01626 77.4722 2.36508 78.5455 2.76757C79.6188 3.17006 80.6691 3.62237 81.6964 4.12836C82.7237 4.63434 83.7242 5.19015 84.6978 5.7958C85.6715 6.39761 86.6144 7.04925 87.5229 7.7469C88.4314 8.44454 89.3053 9.18435 90.1448 9.96632C90.9804 10.7521 91.7778 11.5724 92.5367 12.4349C93.2919 13.2974 94.0048 14.1943 94.6757 15.1258C95.3426 16.0611 95.9674 17.0232 96.5424 18.016C97.1174 19.0088 97.6387 20.0285 98.114 21.0749C98.5894 22.1214 99.0148 23.187 99.3828 24.2757C99.7546 25.3605 100.073 26.4644 100.333 27.5837C100.598 28.6992 100.805 29.83 100.958 30.9684C101.108 32.1069 101.207 33.253 101.246 34.3991C101.288 35.5491 101.269 36.6952 101.2 37.8414C101.127 38.9875 101 40.1298 100.816 41.2644C100.632 42.399 100.395 43.5222 100.1 44.63C99.8045 45.7416 99.4595 46.8341 99.057 47.9112C98.6584 48.9883 98.206 50.0424 97.7039 51.0736C97.1979 52.1085 96.6459 53.1128 96.0441 54.0903C95.4423 55.0678 94.7945 56.0107 94.1007 56.923C93.403 57.8392 92.6671 58.717 91.8851 59.5564C91.1069 60.3959 90.2866 61.1971 89.428 61.956C88.5694 62.715 87.6762 63.4318 86.7486 64.1026C85.8171 64.7773 84.8588 65.3982 83.8699 65.9771C82.8771 66.5559 81.8651 67.081 80.8225 67.5563C79.7798 68.0355 78.718 68.461 77.6332 68.8328C76.5523 69.2046 75.4522 69.5228 74.3405 69.7834C73.2251 70.0479 72.1019 70.2587 70.9673 70.4082C69.8327 70.5616 68.6942 70.6612 67.5481 70.6996Z" fill="#C9B62E"/>
<path d="M65.1068 1.12697C66.2299 1.08864 67.3569 1.10397 68.48 1.17297C69.607 1.2458 70.7224 1.37229 71.834 1.55245C72.9457 1.73645 74.0496 1.97027 75.1383 2.2616C76.2269 2.54909 77.2964 2.89407 78.3543 3.28889C79.4085 3.68371 80.4434 4.1322 81.4554 4.63051C82.4635 5.12883 83.4486 5.67314 84.4069 6.26729C85.3652 6.86144 86.2929 7.50541 87.1898 8.19156C88.083 8.8777 88.9455 9.60601 89.7696 10.3765C90.5937 11.147 91.3757 11.9558 92.1232 12.8067C92.8668 13.6539 93.5683 14.5355 94.2276 15.4555C94.8869 16.3716 95.4964 17.3184 96.0637 18.2997C96.631 19.2772 97.1447 20.2815 97.6123 21.3088C98.08 22.3361 98.4978 23.3864 98.8619 24.4558C99.2261 25.5291 99.5404 26.6139 99.7972 27.7141C100.054 28.8142 100.261 29.9258 100.411 31.0451C100.56 32.1682 100.656 33.2914 100.694 34.4222C100.733 35.553 100.717 36.6837 100.648 37.8107C100.575 38.9415 100.449 40.0646 100.269 41.1801C100.089 42.2956 99.8547 43.3995 99.5673 44.492C99.2759 45.5883 98.9348 46.6616 98.54 47.7234C98.1451 48.7813 97.7005 49.8201 97.206 50.8359C96.7115 51.8517 96.1672 52.8407 95.5731 53.8028C94.9827 54.765 94.3426 55.6926 93.6603 56.5934C92.9741 57.4904 92.2497 58.3567 91.483 59.1808C90.7126 60.0088 89.9076 60.7984 89.0605 61.5459C88.2172 62.2934 87.3355 62.9987 86.4232 63.658C85.5071 64.3211 84.5641 64.9344 83.5905 65.5018C82.6168 66.0691 81.6164 66.5904 80.5929 67.058C79.5656 67.5257 78.5191 67.9435 77.4535 68.3115C76.3879 68.6756 75.3069 68.99 74.2106 69.2506C73.1143 69.5113 72.0065 69.7144 70.8911 69.8639C69.7756 70.0134 68.6525 70.1093 67.5294 70.1514C66.4024 70.1898 65.2754 70.1744 64.1523 70.1016C63.0292 70.0326 61.9099 69.9061 60.7983 69.7259C59.6866 69.5419 58.5865 69.3081 57.4979 69.0168C56.4092 68.7255 55.3359 68.3843 54.2818 67.9895C53.2239 67.5947 52.1927 67.1462 51.1808 66.6479C50.1688 66.1496 49.1837 65.6052 48.2254 65.0111C47.2671 64.4131 46.3394 63.773 45.4425 63.0868C44.5493 62.4007 43.6907 61.6724 42.8665 60.9019C42.0424 60.1314 41.2566 59.3226 40.513 58.4717C39.7655 57.6245 39.064 56.7429 38.4047 55.8229C37.7492 54.9068 37.1359 53.9562 36.5686 52.9787C36.0051 52.0012 35.4876 50.9969 35.02 49.9696C34.5523 48.9385 34.1345 47.892 33.7704 46.8187C33.4062 45.7493 33.0957 44.6645 32.8351 43.5643C32.5782 42.4642 32.3751 41.3526 32.2256 40.2333C32.0722 39.1102 31.9803 37.987 31.9381 36.8562C31.8959 35.7254 31.9074 34.5947 31.9764 33.4639C32.0416 32.3331 32.1642 31.2099 32.3444 30.0906C32.5207 28.9713 32.7546 27.8674 33.0382 26.7711C33.3257 25.6748 33.6669 24.5977 34.0578 23.5359C34.4527 22.4779 34.8935 21.4353 35.3918 20.4195C35.8863 19.4037 36.4268 18.4109 37.0209 17.4487C37.6151 16.4866 38.2514 15.5551 38.9337 14.6543C39.6198 13.7535 40.3443 12.8872 41.1148 12.0593C41.8814 11.2313 42.6902 10.4455 43.5374 9.69417C44.3845 8.9467 45.2661 8.24139 46.1784 7.58208C47.0946 6.92277 48.0414 6.30562 49.0188 5.73831C49.9925 5.17483 50.9929 4.65735 52.0202 4.18586C53.0475 3.71821 54.094 3.30423 55.1635 2.94007C56.2329 2.57592 57.3139 2.26543 58.414 2.0086C59.5103 1.75178 60.6181 1.54862 61.7374 1.40296C62.8567 1.25346 63.9798 1.1653 65.1068 1.12697ZM65.0684 0.0230054C64.0641 0.057504 63.0598 0.138002 62.0632 0.256831C61.0627 0.379493 60.0738 0.54432 59.0887 0.751314C58.1035 0.954473 57.1299 1.20363 56.1678 1.49112C55.2018 1.78244 54.255 2.1121 53.3158 2.48009C52.3805 2.85191 51.4644 3.26206 50.5636 3.71055C49.6628 4.15903 48.7812 4.64585 47.9225 5.16716C47.0601 5.69231 46.2244 6.25196 45.4118 6.8461C44.5992 7.44025 43.8133 8.0689 43.0544 8.73204C42.2954 9.39135 41.5671 10.0852 40.8656 10.8096C40.1641 11.5341 39.4933 12.2854 38.857 13.0674C38.2207 13.8494 37.6189 14.6543 37.0477 15.49C36.4804 16.3218 35.9476 17.1766 35.4531 18.0544C34.9548 18.9322 34.4987 19.8292 34.077 20.7491C33.6554 21.6653 33.2759 22.5967 32.9347 23.5474C32.5936 24.498 32.2946 25.4601 32.0339 26.4338C31.7733 27.4112 31.5548 28.3964 31.3784 29.3892C31.2021 30.382 31.068 31.3824 30.976 32.3867C30.884 33.3949 30.8341 34.3992 30.8265 35.4111C30.8226 36.4193 30.8571 37.4274 30.9376 38.4355C31.0143 39.4398 31.1369 40.4441 31.2979 41.4369C31.4628 42.4335 31.6698 43.4225 31.9151 44.4C32.1604 45.3813 32.4517 46.3472 32.7776 47.3017C33.1072 48.2523 33.4752 49.1915 33.8854 50.1153C34.2917 51.0391 34.7402 51.9399 35.2231 52.8254C35.71 53.7108 36.2313 54.5733 36.7871 55.4128C37.3467 56.2522 37.937 57.0687 38.5619 57.8583C39.1905 58.648 39.8498 59.4108 40.5398 60.1429C41.2298 60.8751 41.9542 61.5804 42.7017 62.2512C43.453 62.922 44.2312 63.5622 45.0361 64.1678C45.8411 64.7734 46.6691 65.3408 47.5239 65.8774C48.3749 66.4141 49.2488 66.9085 50.1458 67.3685C51.0389 67.8323 51.9512 68.254 52.8827 68.6335C53.565 68.9133 54.255 69.174 54.9565 69.4116C55.6541 69.6493 56.3594 69.8639 57.0724 70.0556C57.7854 70.2511 58.5022 70.4198 59.2266 70.5692C59.9473 70.7149 60.6756 70.8414 61.4039 70.9449C62.136 71.0484 62.8682 71.1289 63.6042 71.1826C64.3401 71.2401 65.0761 71.2746 65.8159 71.2861C66.5519 71.2937 67.2879 71.2822 68.0277 71.2477C68.7637 71.2132 69.4996 71.1519 70.2318 71.0714C70.9639 70.9909 71.6961 70.8874 72.4205 70.7571C73.1488 70.6306 73.8695 70.4811 74.5901 70.3086C75.3069 70.1361 76.0161 69.9406 76.7214 69.7259C77.4267 69.5075 78.1282 69.2698 78.8181 69.0091C79.5081 68.7485 80.1904 68.4648 80.8612 68.162C81.5359 67.8592 82.199 67.5333 82.8507 67.1884C83.5023 66.8434 84.1463 66.4792 84.7749 66.0959C85.4074 65.7087 86.0246 65.3063 86.6302 64.8808C87.232 64.4553 87.8262 64.0145 88.4011 63.5545C88.98 63.0945 89.5434 62.6154 90.0916 62.117C90.6397 61.6226 91.1725 61.1089 91.6862 60.5799C92.2037 60.0509 92.702 59.5066 93.185 58.947C93.668 58.3835 94.1318 57.8085 94.5764 57.222C95.0249 56.6317 95.4504 56.0261 95.8605 55.4128C96.2707 54.7956 96.6579 54.167 97.0297 53.5268C97.3977 52.8829 97.7503 52.2312 98.0761 51.5681C98.4058 50.9088 98.7163 50.2341 99.0038 49.5518C99.2913 48.8695 99.5558 48.1795 99.8011 47.4819C100.046 46.7842 100.269 46.0789 100.472 45.3659C100.671 44.653 100.851 43.9323 101.009 43.2079C101.162 42.4872 101.296 41.7589 101.407 41.0268C101.518 40.2946 101.607 39.5586 101.672 38.8188C101.737 38.0829 101.779 37.3431 101.798 36.6032C101.821 35.8634 101.817 35.1236 101.791 34.3838C101.748 33.2147 101.653 32.0532 101.495 30.8994C101.342 29.7418 101.131 28.5957 100.863 27.4572C100.598 26.3226 100.276 25.2033 99.9007 24.0993C99.5213 22.9954 99.0919 21.9106 98.6128 20.8488C98.1298 19.787 97.597 18.752 97.0105 17.7439C96.4279 16.7319 95.7954 15.7545 95.1169 14.8077C94.4384 13.8609 93.714 12.9486 92.9435 12.0746C92.1768 11.1968 91.368 10.3612 90.5171 9.56768C89.6661 8.77037 88.7768 8.01906 87.853 7.30992C86.9292 6.60078 85.9747 5.94147 84.9858 5.32816C83.9968 4.71484 82.981 4.15136 81.9345 3.63771C80.8919 3.12406 79.8263 2.66025 78.7376 2.25393C77.6452 1.84378 76.5412 1.49112 75.4181 1.19213C74.295 0.893143 73.1565 0.647817 72.0104 0.463824C70.8642 0.275996 69.7105 0.145668 68.549 0.072837C67.3875 -0.00382702 66.2261 -0.0191601 65.0646 0.0230054H65.0684Z" fill="#46140D"/>
<path d="M98.3553 32.2293C98.4128 33.8967 98.3553 35.5565 98.179 37.2125C97.9989 38.8684 97.7037 40.5013 97.2897 42.1151C96.8719 43.7251 96.3467 45.3005 95.7028 46.8376C95.0626 48.3747 94.3151 49.8544 93.4603 51.2803C92.6055 52.7101 91.6511 54.067 90.6008 55.355C89.5505 56.643 88.412 57.8504 87.1892 58.9735C85.9626 60.0967 84.6631 61.1278 83.2909 62.0593C81.9186 62.9946 80.485 63.8264 78.99 64.5508C77.4989 65.2792 75.9618 65.8925 74.3787 66.3946C72.7994 66.9006 71.1894 67.2839 69.5527 67.5522C67.9121 67.8244 66.2638 67.9701 64.6078 68.0007C62.9481 68.0314 61.2959 67.9394 59.6515 67.7286C58.0032 67.5177 56.3818 67.1881 54.7833 66.7434C53.1849 66.2988 51.6286 65.7391 50.1107 65.0645C48.5927 64.3899 47.1323 63.6117 45.7255 62.7262C44.3225 61.8408 42.9847 60.8595 41.7236 59.7785C40.9608 58.9965 40.2363 58.1762 39.5502 57.3214C38.8641 56.4666 38.2201 55.5812 37.6183 54.665C37.0164 53.7527 36.4568 52.8098 35.947 51.84C35.4333 50.8702 34.9695 49.8812 34.5517 48.8654C34.13 47.8534 33.7621 46.8223 33.4439 45.772C33.1219 44.7217 32.8536 43.6599 32.6313 42.5866C32.4128 41.5133 32.2441 40.4285 32.1291 39.3399C32.0103 38.2474 31.9451 37.155 31.9336 36.0548C31.9221 34.9585 31.9605 33.8661 32.0525 32.7698C32.1406 31.6773 32.2863 30.5925 32.4779 29.5116C32.6734 28.4306 32.9188 27.365 33.2139 26.307C33.5091 25.2529 33.8541 24.2102 34.2489 23.1906C34.6437 22.1671 35.0845 21.1628 35.5752 20.1815C36.0658 19.2002 36.5986 18.2458 37.1774 17.3181C37.7601 16.3867 38.3811 15.4859 39.048 14.6157C39.715 13.7456 40.4203 12.91 41.164 12.1088C41.9076 11.3039 42.6896 10.541 43.5061 9.81274C44.3264 9.08443 45.1773 8.39828 46.059 7.75047C46.9406 7.10266 47.8529 6.50085 48.792 5.9412C49.735 5.38156 50.6971 4.86791 51.6861 4.40409C52.6751 3.93644 53.6832 3.51479 54.7143 3.1468C55.7416 2.77498 56.7843 2.45682 57.8461 2.18467C58.904 1.91251 59.9735 1.69402 61.0545 1.52536C62.1316 1.35669 63.2202 1.2417 64.3088 1.17653C65.4013 1.11137 66.4938 1.09987 67.5824 1.14203C68.6749 1.18037 69.7635 1.27236 70.8483 1.41803C71.9293 1.55985 73.0064 1.75535 74.0682 2.00451C75.1338 2.24983 76.1841 2.54499 77.2229 2.89381C78.2579 3.24263 79.2775 3.63745 80.2741 4.0821C81.2746 4.52675 82.2482 5.0174 83.2027 5.55788C84.1533 6.09453 85.081 6.67718 85.9779 7.30199C86.8749 7.93063 87.7374 8.59761 88.573 9.30675C90.0603 10.8324 91.3942 12.4768 92.5749 14.2516C93.7593 16.0225 94.7675 17.8893 95.6031 19.8481C96.4426 21.8068 97.0904 23.8308 97.5542 25.9122C98.0142 27.9936 98.2825 30.098 98.3553 32.2293Z" fill="#FFF190"/>
<path d="M98.3566 32.2293C98.3796 32.9269 98.3834 33.6208 98.3642 34.3146C98.3489 35.0084 98.3067 35.7022 98.2492 36.396C98.1917 37.0898 98.1113 37.7798 98.0078 38.4659C97.9081 39.1559 97.7854 39.8382 97.6436 40.5167C97.5018 41.199 97.3408 41.8736 97.1568 42.5444C96.9766 43.2153 96.7735 43.8784 96.5511 44.5377C96.3288 45.197 96.0873 45.8448 95.8228 46.4888C95.5622 47.1328 95.2823 47.7691 94.9834 48.3939C94.6805 49.0226 94.3624 49.6397 94.0251 50.2453C93.6916 50.8548 93.3351 51.449 92.9633 52.0354C92.5876 52.6219 92.2005 53.1969 91.7903 53.7566C91.384 54.32 90.9623 54.8682 90.5215 55.4048C90.0807 55.9415 89.6245 56.4628 89.1531 56.9726C88.6816 57.4824 88.1948 57.9769 87.6926 58.4561C87.1905 58.9352 86.6768 59.399 86.1478 59.8475C85.6189 60.296 85.0745 60.7253 84.5187 61.1431C83.9629 61.5571 83.3994 61.9558 82.8168 62.3353C82.238 62.7147 81.6477 63.0789 81.0497 63.4239C80.4479 63.7689 79.8345 64.0947 79.2174 64.4052C78.5964 64.7118 77.9639 65.0032 77.3276 65.2715C76.6913 65.5436 76.0435 65.7928 75.3919 66.0228C74.7364 66.2528 74.0771 66.4636 73.4139 66.6553C72.747 66.8469 72.0761 67.0156 71.4015 67.1689C70.723 67.3184 70.0446 67.4488 69.3622 67.5561C68.6761 67.6672 67.99 67.7554 67.3 67.8206C66.61 67.8896 65.92 67.9356 65.23 67.9624C64.5362 67.9854 63.8463 67.9931 63.1525 67.9739C62.4625 67.9586 61.7687 67.9202 61.0787 67.8627C60.3887 67.8052 59.7026 67.7286 59.0164 67.6289C58.3303 67.5254 57.6518 67.4066 56.9733 67.2648C56.2949 67.1229 55.6202 66.9619 54.9532 66.7818C54.2863 66.5978 53.6231 66.3985 52.9676 66.1761C50.2269 64.8728 47.7008 63.2399 45.3894 61.2696C44.7224 60.5797 44.0823 59.8667 43.4728 59.1269C42.8633 58.3832 42.2845 57.6204 41.7402 56.8308C41.192 56.0411 40.6784 55.2285 40.2031 54.3967C39.7239 53.5649 39.2793 52.7139 38.873 51.8438C38.4628 50.9737 38.091 50.0882 37.7575 49.1874C37.424 48.2904 37.1289 47.3743 36.8682 46.4505C36.6114 45.5228 36.3929 44.5914 36.2127 43.6446C36.0287 42.7016 35.8907 41.751 35.7872 40.7965C35.6876 39.842 35.6262 38.8837 35.6032 37.9216C35.5802 36.9595 35.5994 36.0012 35.6569 35.0429C35.7144 34.0807 35.8102 33.1263 35.9482 32.1756C36.0862 31.225 36.2625 30.282 36.4772 29.3429C36.6957 28.4076 36.9487 27.4838 37.24 26.5677C37.5352 25.6515 37.8648 24.7507 38.2328 23.8653C38.6008 22.976 39.0033 22.1058 39.4441 21.251C39.8849 20.4 40.3602 19.5644 40.8662 18.7518C41.376 17.9391 41.9204 17.1457 42.4953 16.379C43.0703 15.6085 43.676 14.8687 44.3123 14.1481C44.9486 13.4313 45.6156 12.7413 46.3094 12.082C47.0032 11.4189 47.7238 10.7864 48.4713 10.1846C49.2188 9.58275 49.9892 9.01543 50.7827 8.47879C51.5762 7.94214 52.3927 7.43999 53.2283 6.97234C54.0639 6.50085 54.9187 6.0677 55.7889 5.67288C56.6628 5.27423 57.5483 4.91391 58.4491 4.59192C59.3538 4.26993 60.2661 3.98628 61.1899 3.74095C62.1175 3.49563 63.049 3.28863 63.9919 3.11997C64.9349 2.95131 65.8855 2.82482 66.8362 2.73665C67.7906 2.64849 68.7451 2.59866 69.7034 2.59099C70.6617 2.58332 71.6162 2.61399 72.5706 2.68682C73.5251 2.75582 74.4757 2.87081 75.4225 3.02031C76.3655 3.17364 77.3046 3.36146 78.2323 3.59146C79.1637 3.82145 80.0837 4.08977 80.9883 4.39643C83.7329 5.69972 86.259 7.33649 88.5742 9.30676C90.0615 10.8324 91.3955 12.4768 92.5761 14.2516C93.7606 16.0225 94.7687 17.8893 95.6043 19.8481C96.4438 21.8068 97.0916 23.8308 97.5554 25.9122C98.0154 27.9936 98.2837 30.098 98.3566 32.2293Z" fill="#FEEA2F"/>
<path d="M67.2677 62.6689C66.3822 62.7073 65.4967 62.7034 64.6113 62.6536C63.7258 62.6038 62.8442 62.5079 61.9702 62.3699C61.0924 62.2358 60.2261 62.0556 59.3674 61.8295C58.5088 61.6071 57.6655 61.3427 56.8337 61.036C55.9981 60.7293 55.1854 60.3805 54.3881 59.9934C53.587 59.6062 52.8127 59.1807 52.0537 58.7169C51.2986 58.2493 50.5664 57.7509 49.8611 57.2143C49.1558 56.6738 48.4773 56.1065 47.8257 55.5009C47.174 54.8952 46.5531 54.2627 45.9666 53.5958C45.3763 52.9288 44.8243 52.235 44.303 51.5143C43.7816 50.7937 43.2987 50.05 42.854 49.2834C42.4055 48.5129 41.9992 47.7233 41.6274 46.9145C41.2594 46.1057 40.9297 45.2815 40.6423 44.4382C40.3548 43.5988 40.1094 42.744 39.9024 41.8777C39.6993 41.0114 39.5383 40.1374 39.4195 39.2557C39.3006 38.3741 39.2278 37.4886 39.1933 36.5993C39.1626 35.71 39.1741 34.8207 39.2316 33.9314C39.2891 33.046 39.3888 32.1605 39.5306 31.2827C39.6725 30.4049 39.8603 29.5347 40.0864 28.6761C40.3164 27.8136 40.5848 26.9703 40.8991 26.1347C41.2096 25.3029 41.5622 24.4864 41.9532 23.6891C42.3442 22.8918 42.7735 22.1137 43.2412 21.3585C43.7126 20.6034 44.2148 19.8712 44.7553 19.1659C45.2958 18.4606 45.8669 17.7822 46.4764 17.1343C47.082 16.4827 47.7183 15.8656 48.3853 15.2791C49.0523 14.6964 49.7499 14.1444 50.4706 13.627C51.1912 13.1095 51.9349 12.6303 52.7053 12.1857C53.4758 11.7449 54.2616 11.3385 55.0704 10.9744C55.8792 10.6102 56.7034 10.2844 57.5428 10.0008C58.3861 9.7171 59.2371 9.4756 60.0996 9.27628C60.9659 9.08079 61.836 8.92362 62.7177 8.81246C63.5955 8.69747 64.4771 8.62847 65.3664 8.60547L65.4009 9.70943C64.5576 9.7401 63.7143 9.80909 62.871 9.92026C62.0315 10.0314 61.1997 10.1847 60.3756 10.3802C59.5514 10.5757 58.7388 10.8096 57.9338 11.0817C57.1327 11.3577 56.3469 11.672 55.5764 12.0247C54.8059 12.3773 54.0546 12.7645 53.3187 13.19C52.5865 13.6193 51.8774 14.0793 51.1874 14.5776C50.5012 15.0721 49.8381 15.6011 49.2018 16.1645C48.5655 16.7242 47.9598 17.3183 47.381 17.9393C46.8022 18.5603 46.2579 19.2081 45.7442 19.8866C45.2268 20.5612 44.7476 21.2627 44.303 21.9833C43.8583 22.7078 43.4482 23.4515 43.0725 24.2143C42.7007 24.9771 42.3672 25.759 42.0682 26.5564C41.773 27.3498 41.5162 28.1586 41.2977 28.9828C41.0792 29.8031 40.9029 30.6349 40.7688 31.4743C40.6308 32.3138 40.5388 33.1571 40.4851 34.0081C40.4314 34.8552 40.4199 35.7062 40.4506 36.5572C40.4774 37.4043 40.5503 38.2514 40.6614 39.0948C40.7764 39.9381 40.9297 40.7737 41.1252 41.6017C41.3169 42.4296 41.5546 43.2461 41.8267 44.0511C42.1027 44.8522 42.417 45.6419 42.7658 46.4162C43.1185 47.1905 43.5095 47.9456 43.935 48.6816C44.3605 49.4137 44.8204 50.1267 45.3149 50.8167C45.8132 51.5067 46.3384 52.1698 46.9019 52.8099C47.4615 53.4463 48.0518 54.0557 48.6728 54.6345C49.2938 55.2134 49.9378 55.7615 50.6124 56.2752C51.2871 56.7926 51.9847 57.2718 52.7053 57.7203C53.426 58.1649 54.1658 58.5751 54.9286 58.9507C55.6914 59.3226 56.4657 59.6599 57.263 59.955C58.0565 60.254 58.8615 60.5108 59.6818 60.7255C60.5021 60.944 61.33 61.1203 62.1657 61.2545C63.0013 61.3886 63.8408 61.4845 64.6879 61.5381C65.5351 61.588 66.3784 61.5995 67.2255 61.5688L67.2677 62.6689Z" fill="#46140D"/>
<path d="M94.5153 34.6364L93.4152 34.6747C93.3424 32.5588 93.0127 30.4812 92.4301 28.4458C91.8512 26.4104 91.0348 24.4746 89.9806 22.6423C88.9265 20.8062 87.6692 19.1234 86.2049 17.5978C84.7407 16.0722 83.1154 14.7459 81.3291 13.6228L81.9156 12.6875C83.7785 13.8643 85.4728 15.2442 86.9984 16.835C88.524 18.4258 89.835 20.1776 90.9351 22.0903C92.0314 24.0031 92.8862 26.0232 93.4919 28.143C94.0975 30.2666 94.4387 32.4323 94.5153 34.6364Z" fill="#46140D"/>
<path d="M66.3174 47.0488L66.4132 49.7551L66.6087 55.3209" fill="#46140D"/>
<path d="M61.8381 11.1621C61.8381 11.1621 42.3233 16.7509 42.2734 35.3573C42.2734 35.3534 46.2178 21.7111 61.8381 11.1621Z" fill="#FFF190"/>
<path d="M115.44 107.248H117.591V162.162H115.44V107.248Z" fill="#46140D"/>
<path d="M78.2344 28.0469V30.4219H55.7812V28.0469H78.2344ZM78.2344 31.875V34.25H55.7812V31.875H78.2344ZM67.2656 38.0781H61.1875V35.625H67.2656C68.4427 35.625 69.3958 35.4375 70.125 35.0625C70.8542 34.6875 71.3854 34.1667 71.7188 33.5C72.0625 32.8333 72.2344 32.0729 72.2344 31.2188C72.2344 30.4375 72.0625 29.7031 71.7188 29.0156C71.3854 28.3281 70.8542 27.776 70.125 27.3594C69.3958 26.9323 68.4427 26.7188 67.2656 26.7188H61.8906V47H58.875V24.25H67.2656C68.9844 24.25 70.4375 24.5469 71.625 25.1406C72.8125 25.7344 73.7135 26.5573 74.3281 27.6094C74.9427 28.651 75.25 29.8438 75.25 31.1875C75.25 32.6458 74.9427 33.8906 74.3281 34.9219C73.7135 35.9531 72.8125 36.7396 71.625 37.2812C70.4375 37.8125 68.9844 38.0781 67.2656 38.0781Z" fill="#46140D"/>
</svg>
