<svg width="40" height="39" viewBox="0 0 40 39" fill="none" xmlns="http://www.w3.org/2000/svg">
<path d="M20.0001 38.3201H38.1565C39.5405 38.3201 40.4294 36.8504 39.7872 35.6246L21.6308 0.986334C20.9414 -0.328778 19.0592 -0.328778 18.3699 0.986334L0.212963 35.625C-0.429704 36.8508 0.45963 38.3206 1.84363 38.3206L20.0001 38.3201Z" fill="#D60000"/>
<path d="M20.0004 27.6451C19.3097 27.6451 18.7417 27.1016 18.7115 26.4113L17.5217 14.9313C17.4137 13.4891 18.5542 12.2598 20.0004 12.2598C21.4466 12.2598 22.5875 13.4895 22.4791 14.9313L21.2893 26.4113C21.2591 27.1011 20.6911 27.6451 20.0004 27.6451Z" fill="white"/>
<path d="M19.9984 34.1179C21.1339 34.1179 22.0544 33.1974 22.0544 32.0619C22.0544 30.9264 21.1339 30.0059 19.9984 30.0059C18.8629 30.0059 17.9424 30.9264 17.9424 32.0619C17.9424 33.1974 18.8629 34.1179 19.9984 34.1179Z" fill="white"/>
</svg>
