<svg xmlns="http://www.w3.org/2000/svg" xmlns:xlink="http://www.w3.org/1999/xlink" width="1920" zoomAndPan="magnify" viewBox="0 0 1440 1439.999935" height="1920" preserveAspectRatio="xMidYMid meet" version="1.0"><defs><clipPath id="df1108096a"><path d="M 633 859 L 720 859 L 720 1054.628906 L 633 1054.628906 Z M 633 859 " clip-rule="nonzero"/></clipPath><clipPath id="f3f47a818e"><path d="M 741 838 L 828 838 L 828 1054.628906 L 741 1054.628906 Z M 741 838 " clip-rule="nonzero"/></clipPath><clipPath id="b07b14ba79"><path d="M 848 816 L 935 816 L 935 1054.628906 L 848 1054.628906 Z M 848 816 " clip-rule="nonzero"/></clipPath><clipPath id="8463ab451d"><path d="M 956 795 L 1043 795 L 1043 1054.628906 L 956 1054.628906 Z M 956 795 " clip-rule="nonzero"/></clipPath><clipPath id="fcbd4275a0"><path d="M 612 1042 L 1054.628906 1042 L 1054.628906 1054.628906 L 612 1054.628906 Z M 612 1042 " clip-rule="nonzero"/></clipPath><clipPath id="d1b52f429f"><path d="M 884 537 L 1054.628906 537 L 1054.628906 667 L 884 667 Z M 884 537 " clip-rule="nonzero"/></clipPath><clipPath id="ae3ed9563c"><path d="M 956 591 L 1054.628906 591 L 1054.628906 613 L 956 613 Z M 956 591 " clip-rule="nonzero"/></clipPath></defs><path fill="#ff8756" d="M 1052.804688 601.746094 L 1052.804688 655.472656 L 895.113281 655.472656 C 905.296875 620.441406 905.386719 583.09375 895.371094 548.019531 L 1052.804688 548.019531 Z M 1052.804688 601.746094 " fill-opacity="1" fill-rule="evenodd"/><path fill="#549316" d="M 966.84375 805.957031 L 1031.296875 805.957031 L 1031.296875 1053.160156 L 966.84375 1053.160156 Z M 966.84375 805.957031 " fill-opacity="1" fill-rule="evenodd"/><path fill="#ff5b5b" d="M 859.316406 827.332031 L 923.769531 827.332031 L 923.769531 1053 L 859.316406 1053 Z M 859.316406 827.332031 " fill-opacity="1" fill-rule="evenodd"/><path fill="#59afef" d="M 895.371094 548.019531 C 905.386719 583.09375 905.296875 620.441406 895.113281 655.472656 C 886.324219 685.710938 870.011719 714.226562 846.167969 738.058594 C 775.773438 808.453125 664.621094 813.246094 588.679688 752.417969 C 583.136719 747.984375 577.78125 743.195312 572.640625 738.058594 C 567.507812 732.925781 562.714844 727.570312 558.289062 722.027344 C 497.460938 646.089844 502.246094 534.933594 572.640625 464.535156 C 648.175781 389.003906 770.636719 389.003906 846.167969 464.535156 C 870.246094 488.609375 886.644531 517.449219 895.371094 548.019531 Z M 815.777344 707.671875 C 874.527344 648.925781 874.527344 553.675781 815.777344 494.929688 C 757.035156 436.179688 661.78125 436.179688 603.039062 494.929688 C 544.289062 553.675781 544.289062 648.925781 603.039062 707.671875 C 661.78125 766.417969 757.03125 766.417969 815.777344 707.671875 Z M 815.777344 707.671875 " fill-opacity="1" fill-rule="evenodd"/><path fill="#a7eaf9" d="M 815.78125 494.929688 C 874.527344 553.675781 874.527344 648.925781 815.78125 707.671875 C 757.035156 766.421875 661.785156 766.421875 603.039062 707.671875 C 544.289062 648.925781 544.289062 553.675781 603.039062 494.929688 C 661.785156 436.183594 757.035156 436.183594 815.78125 494.929688 Z M 793.179688 620.636719 C 799.589844 592.734375 791.929688 562.253906 770.191406 540.515625 C 736.625 506.949219 682.195312 506.949219 648.625 540.515625 C 615.054688 574.085938 615.054688 628.515625 648.625 662.085938 C 682.195312 695.65625 736.625 695.65625 770.191406 662.085938 C 782.027344 650.25 789.691406 635.828125 793.179688 620.636719 Z M 793.179688 620.636719 " fill-opacity="1" fill-rule="evenodd"/><path fill="#549316" d="M 751.949219 848.871094 L 816.402344 848.871094 L 816.402344 1053 L 751.949219 1053 Z M 751.949219 848.871094 " fill-opacity="1" fill-rule="evenodd"/><path fill="#ff5b5b" d="M 770.191406 540.515625 C 791.929688 562.25 799.589844 592.730469 793.179688 620.632812 L 709.40625 601.296875 Z M 770.191406 540.515625 " fill-opacity="1" fill-rule="evenodd"/><path fill="#f4f4f7" d="M 709.40625 601.296875 L 793.179688 620.632812 C 789.691406 635.824219 782.027344 650.25 770.191406 662.082031 C 736.625 695.652344 682.195312 695.652344 648.625 662.082031 C 615.054688 628.511719 615.054688 574.085938 648.625 540.515625 C 682.195312 506.945312 736.621094 506.945312 770.191406 540.515625 Z M 709.40625 601.296875 " fill-opacity="1" fill-rule="evenodd"/><path fill="#ff5b5b" d="M 644.417969 870.410156 L 708.871094 870.410156 L 708.871094 1053 L 644.417969 1053 Z M 644.417969 870.410156 " fill-opacity="1" fill-rule="evenodd"/><path fill="#deddf4" d="M 588.679688 752.417969 L 557.449219 783.652344 L 527.058594 753.261719 L 558.289062 722.027344 C 562.71875 727.570312 567.507812 732.925781 572.644531 738.058594 C 577.785156 743.195312 583.136719 747.984375 588.679688 752.417969 Z M 588.679688 752.417969 " fill-opacity="1" fill-rule="evenodd"/><path fill="#6354b1" d="M 557.449219 783.652344 L 572.644531 798.847656 L 481.46875 890.023438 C 464.6875 906.808594 437.46875 906.808594 420.683594 890.023438 C 403.898438 873.238281 403.898438 846.023438 420.683594 829.238281 L 511.863281 738.0625 L 527.058594 753.261719 Z M 557.449219 783.652344 " fill-opacity="1" fill-rule="evenodd"/><path fill="#333333" d="M 709.378906 805.457031 C 663.042969 805.457031 618.160156 789.796875 581.964844 760.804688 C 576.125 756.136719 570.429688 751.039062 565.050781 745.664062 C 559.667969 740.277344 554.566406 734.582031 549.894531 728.734375 C 518.6875 689.777344 502.929688 640.730469 505.527344 590.648438 C 508.148438 540.1875 529.285156 492.699219 565.046875 456.9375 C 584.53125 437.453125 607.257812 422.363281 632.589844 412.09375 C 657.050781 402.171875 682.898438 397.144531 709.410156 397.144531 C 735.917969 397.144531 761.765625 402.171875 786.226562 412.09375 C 811.558594 422.363281 834.285156 437.453125 853.769531 456.9375 C 878.285156 481.449219 896.246094 511.925781 905.707031 545.070312 C 916.304688 582.1875 916.210938 621.402344 905.433594 658.472656 C 895.910156 691.238281 878.042969 721.390625 853.769531 745.660156 C 818.007812 781.421875 770.523438 802.558594 720.0625 805.179688 C 716.496094 805.363281 712.929688 805.457031 709.378906 805.457031 Z M 709.40625 418.714844 C 662.628906 418.714844 615.851562 436.523438 580.242188 472.132812 C 514.289062 538.085938 508.457031 642.628906 566.675781 715.308594 C 570.859375 720.546875 575.421875 725.644531 580.242188 730.460938 C 585.0625 735.28125 590.160156 739.84375 595.390625 744.027344 C 628.894531 770.863281 669.183594 784.089844 709.324219 784.09375 C 756.269531 784.097656 803.019531 766.015625 838.570312 730.460938 C 860.296875 708.742188 876.277344 681.773438 884.796875 652.472656 C 894.441406 619.292969 894.527344 584.191406 885.042969 550.96875 C 876.582031 521.332031 860.511719 494.070312 838.574219 472.132812 C 802.960938 436.523438 756.183594 418.71875 709.40625 418.71875 Z M 709.40625 418.714844 " fill-opacity="1" fill-rule="evenodd"/><path fill="#333333" d="M 709.410156 762.476562 C 688.480469 762.476562 668.074219 758.503906 648.761719 750.671875 C 628.761719 742.5625 610.820312 730.648438 595.441406 715.265625 C 580.058594 699.886719 568.144531 681.945312 560.035156 661.945312 C 552.203125 642.632812 548.230469 622.226562 548.230469 601.300781 C 548.230469 580.371094 552.203125 559.964844 560.035156 540.652344 C 568.144531 520.652344 580.058594 502.710938 595.441406 487.332031 C 610.820312 471.949219 628.761719 460.035156 648.761719 451.925781 C 668.074219 444.09375 688.480469 440.121094 709.410156 440.121094 C 730.335938 440.121094 750.742188 444.09375 770.054688 451.925781 C 790.054688 460.035156 807.996094 471.949219 823.378906 487.332031 C 838.761719 502.714844 850.671875 520.652344 858.78125 540.65625 C 866.613281 559.96875 870.585938 580.371094 870.585938 601.300781 C 870.585938 622.230469 866.613281 642.632812 858.78125 661.945312 C 850.671875 681.945312 838.761719 699.886719 823.375 715.269531 L 823.378906 715.269531 C 823.375 715.269531 823.375 715.269531 823.375 715.269531 C 807.996094 730.652344 790.054688 742.5625 770.054688 750.671875 C 750.742188 758.503906 730.335938 762.476562 709.410156 762.476562 Z M 709.410156 461.613281 C 672.097656 461.613281 637.019531 476.144531 610.636719 502.527344 C 584.253906 528.910156 569.722656 563.988281 569.722656 601.300781 C 569.722656 638.609375 584.253906 673.6875 610.636719 700.070312 C 637.019531 726.457031 672.097656 740.984375 709.410156 740.984375 C 746.722656 740.984375 781.800781 726.457031 808.179688 700.070312 C 808.183594 700.070312 808.183594 700.070312 808.183594 700.070312 C 834.566406 673.6875 849.097656 638.609375 849.097656 601.300781 C 849.097656 563.988281 834.566406 528.910156 808.183594 502.527344 C 781.796875 476.144531 746.722656 461.613281 709.410156 461.613281 Z M 709.410156 461.613281 " fill-opacity="1" fill-rule="evenodd"/><path fill="#333333" d="M 709.410156 698.007812 C 683.578125 698.007812 659.292969 687.945312 641.027344 669.683594 C 622.761719 651.417969 612.703125 627.132812 612.703125 601.300781 C 612.703125 575.46875 622.761719 551.183594 641.027344 532.917969 C 659.292969 514.652344 683.578125 504.59375 709.410156 504.59375 C 735.238281 504.59375 759.523438 514.652344 777.789062 532.917969 C 789.589844 544.714844 798.164062 559.402344 802.597656 575.394531 C 806.886719 590.886719 807.253906 607.359375 803.652344 623.039062 C 799.597656 640.6875 790.65625 656.816406 777.789062 669.683594 C 759.527344 687.945312 735.242188 698.007812 709.410156 698.007812 Z M 709.410156 526.117188 C 690.144531 526.117188 670.886719 533.449219 656.222656 548.113281 C 626.894531 577.441406 626.894531 625.160156 656.222656 654.484375 C 685.550781 683.8125 733.269531 683.8125 762.59375 654.484375 C 772.605469 644.476562 779.558594 631.9375 782.707031 618.230469 C 782.707031 618.230469 782.707031 618.226562 782.707031 618.226562 C 788.558594 592.769531 781.039062 566.558594 762.59375 548.113281 C 747.933594 533.453125 728.667969 526.117188 709.410156 526.117188 Z M 709.410156 526.117188 " fill-opacity="1" fill-rule="evenodd"/><path fill="#333333" d="M 793.1875 631.382812 C 792.386719 631.382812 791.574219 631.292969 790.761719 631.105469 L 706.992188 611.765625 C 703.183594 610.890625 700.15625 608.015625 699.078125 604.257812 C 698.003906 600.503906 699.046875 596.460938 701.808594 593.699219 L 762.597656 532.917969 C 766.792969 528.722656 773.597656 528.722656 777.792969 532.917969 C 781.988281 537.113281 781.988281 543.917969 777.789062 548.113281 L 730.714844 595.1875 L 795.59375 610.164062 C 801.378906 611.5 804.984375 617.269531 803.648438 623.050781 C 802.5 628.019531 798.078125 631.382812 793.1875 631.382812 Z M 793.1875 631.382812 " fill-opacity="1" fill-rule="evenodd"/><path fill="#333333" d="M 527.058594 764.003906 C 524.308594 764.003906 521.558594 762.957031 519.457031 760.859375 C 515.261719 756.664062 515.261719 749.859375 519.457031 745.664062 L 550.691406 714.429688 C 554.886719 710.234375 561.691406 710.234375 565.886719 714.429688 C 570.082031 718.625 570.082031 725.429688 565.886719 729.625 L 534.65625 760.859375 C 532.558594 762.957031 529.808594 764.003906 527.058594 764.003906 Z M 527.058594 764.003906 " fill-opacity="1" fill-rule="evenodd"/><path fill="#333333" d="M 557.449219 794.398438 C 554.699219 794.398438 551.949219 793.347656 549.847656 791.25 C 545.652344 787.054688 545.652344 780.25 549.847656 776.054688 L 581.082031 744.820312 C 585.277344 740.625 592.082031 740.625 596.277344 744.820312 C 600.472656 749.019531 600.472656 755.820312 596.277344 760.019531 L 565.046875 791.25 C 562.949219 793.347656 560.199219 794.398438 557.449219 794.398438 Z M 557.449219 794.398438 " fill-opacity="1" fill-rule="evenodd"/><path fill="#333333" d="M 451.078125 913.355469 C 436.726562 913.355469 423.234375 907.769531 413.085938 897.621094 C 392.140625 876.671875 392.140625 842.585938 413.085938 821.640625 L 504.265625 730.460938 C 506.28125 728.449219 509.011719 727.316406 511.863281 727.316406 C 514.714844 727.316406 517.445312 728.449219 519.460938 730.464844 L 565.046875 776.054688 L 580.242188 791.246094 C 584.4375 795.445312 584.4375 802.246094 580.242188 806.441406 L 489.070312 897.621094 C 478.921875 907.769531 465.429688 913.355469 451.078125 913.355469 Z M 511.859375 753.257812 L 428.28125 836.835938 C 415.714844 849.40625 415.714844 869.855469 428.28125 882.425781 C 434.371094 888.515625 442.464844 891.867188 451.078125 891.867188 C 459.6875 891.867188 467.785156 888.515625 473.871094 882.425781 L 557.445312 798.847656 L 549.847656 791.25 Z M 511.859375 753.257812 " fill-opacity="1" fill-rule="evenodd"/><g clip-path="url(#df1108096a)"><path fill="#333333" d="M 708.964844 1063.785156 C 703.027344 1063.785156 698.21875 1058.976562 698.21875 1053.042969 L 698.21875 881.121094 L 655.238281 881.121094 L 655.238281 1053.042969 C 655.238281 1058.976562 650.425781 1063.785156 644.492188 1063.785156 C 638.558594 1063.785156 633.746094 1058.976562 633.746094 1053.042969 L 633.746094 870.375 C 633.746094 864.441406 638.558594 859.628906 644.492188 859.628906 L 708.964844 859.628906 C 714.898438 859.628906 719.707031 864.441406 719.707031 870.375 L 719.707031 1053.039062 C 719.707031 1058.976562 714.898438 1063.785156 708.964844 1063.785156 Z M 708.964844 1063.785156 " fill-opacity="1" fill-rule="evenodd"/></g><g clip-path="url(#f3f47a818e)"><path fill="#333333" d="M 816.414062 1063.785156 C 810.480469 1063.785156 805.667969 1058.976562 805.667969 1053.042969 L 805.667969 859.628906 L 762.6875 859.628906 L 762.6875 1053.042969 C 762.6875 1058.976562 757.878906 1063.785156 751.945312 1063.785156 C 746.011719 1063.785156 741.199219 1058.976562 741.199219 1053.042969 L 741.199219 848.882812 C 741.199219 842.949219 746.011719 838.140625 751.945312 838.140625 L 816.414062 838.140625 C 822.347656 838.140625 827.160156 842.949219 827.160156 848.882812 L 827.160156 1053.042969 C 827.160156 1058.976562 822.347656 1063.785156 816.414062 1063.785156 Z M 816.414062 1063.785156 " fill-opacity="1" fill-rule="evenodd"/></g><g clip-path="url(#b07b14ba79)"><path fill="#333333" d="M 923.867188 1063.785156 C 917.929688 1063.785156 913.121094 1058.976562 913.121094 1053.042969 L 913.121094 838.140625 L 870.140625 838.140625 L 870.140625 1053.042969 C 870.140625 1058.976562 865.328125 1063.785156 859.394531 1063.785156 C 853.460938 1063.785156 848.652344 1058.976562 848.652344 1053.042969 L 848.652344 827.394531 C 848.652344 821.460938 853.460938 816.648438 859.394531 816.648438 L 923.867188 816.648438 C 929.800781 816.648438 934.609375 821.460938 934.609375 827.394531 L 934.609375 1053.042969 C 934.609375 1058.976562 929.800781 1063.785156 923.867188 1063.785156 Z M 923.867188 1063.785156 " fill-opacity="1" fill-rule="evenodd"/></g><g clip-path="url(#8463ab451d)"><path fill="#333333" d="M 1031.316406 1063.785156 C 1025.382812 1063.785156 1020.570312 1058.976562 1020.570312 1053.042969 L 1020.570312 816.648438 L 977.589844 816.648438 L 977.589844 1053.042969 C 977.589844 1058.976562 972.78125 1063.785156 966.847656 1063.785156 C 960.914062 1063.785156 956.101562 1058.976562 956.101562 1053.042969 L 956.101562 805.902344 C 956.101562 799.96875 960.914062 795.15625 966.847656 795.15625 L 1031.316406 795.15625 C 1037.25 795.15625 1042.0625 799.96875 1042.0625 805.902344 L 1042.0625 1053.042969 C 1042.0625 1058.976562 1037.25 1063.785156 1031.316406 1063.785156 Z M 1031.316406 1063.785156 " fill-opacity="1" fill-rule="evenodd"/></g><g clip-path="url(#fcbd4275a0)"><path fill="#333333" d="M 1052.808594 1063.785156 L 623.003906 1063.785156 C 617.070312 1063.785156 612.257812 1058.976562 612.257812 1053.042969 C 612.257812 1047.105469 617.070312 1042.296875 623.003906 1042.296875 L 1052.808594 1042.296875 C 1058.742188 1042.296875 1063.554688 1047.105469 1063.554688 1053.039062 C 1063.554688 1058.972656 1058.742188 1063.785156 1052.808594 1063.785156 Z M 1052.808594 1063.785156 " fill-opacity="1" fill-rule="evenodd"/></g><g clip-path="url(#d1b52f429f)"><path fill="#333333" d="M 1052.808594 666.21875 L 895.117188 666.21875 C 889.183594 666.21875 884.375 661.40625 884.375 655.472656 C 884.375 649.539062 889.183594 644.726562 895.117188 644.726562 L 1042.0625 644.726562 L 1042.0625 558.765625 L 895.378906 558.765625 C 889.445312 558.765625 884.632812 553.953125 884.632812 548.019531 C 884.632812 542.085938 889.445312 537.277344 895.378906 537.277344 L 1052.808594 537.277344 C 1058.742188 537.277344 1063.554688 542.085938 1063.554688 548.019531 L 1063.554688 655.472656 C 1063.554688 661.40625 1058.742188 666.21875 1052.808594 666.21875 Z M 1052.808594 666.21875 " fill-opacity="1" fill-rule="evenodd"/></g><g clip-path="url(#ae3ed9563c)"><path fill="#333333" d="M 1052.808594 612.488281 L 966.847656 612.488281 C 960.914062 612.488281 956.101562 607.679688 956.101562 601.746094 C 956.101562 595.8125 960.914062 591 966.847656 591 L 1052.808594 591 C 1058.742188 591 1063.554688 595.8125 1063.554688 601.746094 C 1063.554688 607.679688 1058.742188 612.488281 1052.808594 612.488281 Z M 1052.808594 612.488281 " fill-opacity="1" fill-rule="evenodd"/></g></svg>