<svg width="78" height="46" viewBox="0 0 78 46" fill="none" xmlns="http://www.w3.org/2000/svg">
<mask id="mask0_503_1102" style="mask-type:luminance" maskUnits="userSpaceOnUse" x="1" y="0" width="77" height="39">
<path d="M1.1543 0H77.9306V38.4844H1.1543V0Z" fill="white"/>
</mask>
<g mask="url(#mask0_503_1102)">
<path d="M77.8426 35.0263C77.9238 36.5116 76.9496 37.7744 75.7229 37.7744H2.92738C2.33508 37.7744 1.86906 37.179 1.88109 36.4665C1.86605 19.4522 11.0933 12.7385 20.6633 13.6946L31.6343 2.72353C32.3048 2.17332 33.2188 2.12822 34.0125 1.8456C49.4033 -2.39369 64.9924 2.68444 70.741 18.917C70.741 18.92 76.9586 18.7036 77.8426 35.0263Z" fill="#E24444"/>
</g>
<path d="M44.4622 19.467H40.1748C39.8802 19.467 39.6396 19.2265 39.6396 18.9288C39.7359 18.4568 39.3149 16.8904 40.1748 16.9204H44.4622C45.3161 16.8874 44.9072 18.4598 45.0004 18.9288C44.9974 19.2265 44.7569 19.467 44.4622 19.467Z" fill="#D32626"/>
<path d="M52.0408 19.467H47.7564C47.4618 19.467 47.2182 19.2265 47.2182 18.9288C47.3174 18.4568 46.8935 16.8904 47.7564 16.9204H52.0438C52.8977 16.8874 52.4888 18.4598 52.579 18.9288C52.576 19.2265 52.3354 19.467 52.0408 19.467Z" fill="#D32626"/>
<path d="M31.834 35.8893C32.0385 36.9626 31.5694 38.4539 30.2646 38.4299H11.5876C10.7157 38.4299 9.99415 37.6722 9.99415 36.7281C9.97912 21.7523 30.8028 20.8864 31.834 35.8893Z" fill="#D32626"/>
<path d="M28.6316 37.4048C28.4422 48.4059 13.4062 48.4059 13.2168 37.4048C13.4092 26.4067 28.4422 26.4067 28.6316 37.4048Z" fill="#1D2626"/>
<path d="M23.5332 33.3551C22.7665 32.7447 21.7773 32.4711 20.7822 32.5253C19.4593 32.5583 18.1544 33.1566 17.3096 34.3503C16.7233 35.129 16.3595 36.1512 16.3715 37.4049C16.3625 38.2077 16.5038 38.8932 16.7563 39.4645C18.4611 43.7038 25.286 43.2798 25.4815 37.4049C25.4664 35.5108 24.6607 34.1518 23.5332 33.3551Z" fill="#D6D6D6"/>
<path d="M72.2451 35.8893C72.4525 36.9626 71.9835 38.4539 70.6786 38.4299H52.0017C51.1298 38.4299 50.4082 37.6722 50.4082 36.7281C50.3962 21.7523 71.2168 20.8864 72.2451 35.8893Z" fill="#D32626"/>
<path d="M69.0487 37.4048C68.8592 48.4059 53.8233 48.4059 53.6309 37.4048C53.8233 26.4067 68.8592 26.4067 69.0487 37.4048Z" fill="#1D2626"/>
<path d="M63.9473 33.3551C63.1806 32.7447 62.1914 32.4711 61.1932 32.5253C59.8733 32.5583 58.5685 33.1566 57.7236 34.3503C57.1373 35.129 56.7735 36.1512 56.7856 37.4049C56.7765 38.2077 56.9179 38.8932 57.1704 39.4645C58.8751 43.7038 65.7001 43.2798 65.8955 37.4049C65.8775 35.5108 65.0747 34.1518 63.9473 33.3551Z" fill="#D6D6D6"/>
<mask id="mask1_503_1102" style="mask-type:luminance" maskUnits="userSpaceOnUse" x="0" y="31" width="9" height="6">
<path d="M0 31.5566H8.08171V36.1748H0V31.5566Z" fill="white"/>
</mask>
<g mask="url(#mask1_503_1102)">
<path d="M7.32175 33.872C7.32476 34.7829 6.74148 35.6879 5.81846 35.706H1.52806C0.620066 35.703 0.00672117 34.7649 0.0217547 33.872C0.0157411 32.9579 0.608039 32.059 1.52806 32.0439H5.81846C6.73848 32.074 7.31273 32.9219 7.32175 33.872Z" fill="#D6D6D6"/>
</g>
<path d="M6.05564 21.0695C5.81812 20.9222 5.48439 20.9913 5.09052 21.3251C4.64254 21.6798 4.14044 22.3653 3.65037 23.4567C3.47598 23.8295 3.3437 24.1933 3.25049 24.5391C3.08814 25.1073 3.03702 25.5914 3.0701 25.9612C3.15127 27.702 4.54633 28.1079 6.06767 24.8428C6.9486 22.8554 6.74114 21.3521 6.05564 21.0695Z" fill="#F5D542"/>
<path d="M32.0861 4.45807L23.5624 14.0341C22.6905 15.0473 21.3556 14.7015 20.6641 13.6703L31.6351 2.69922C32.1192 3.12615 32.6243 3.86277 32.0861 4.45807Z" fill="#D6D6D6"/>
<path d="M45.6798 2.59132V15.3723C45.5565 14.9755 23.0642 16.2172 24.5856 14.759C32.8928 6.49387 32.7063 2.16438 45.6798 2.59132Z" fill="#D6D6D6"/>
<path d="M66.0375 15.3303H46.627V2.5613C52.3455 2.39293 58.2174 4.06459 62.0297 8.19866C63.6563 9.80718 67.2131 14.9334 66.0375 15.3303Z" fill="#D6D6D6"/>
</svg>
