<svg width="56" height="52" viewBox="0 0 56 52" fill="none" xmlns="http://www.w3.org/2000/svg">
<mask id="mask0_503_1147" style="mask-type:luminance" maskUnits="userSpaceOnUse" x="2" y="0" width="54" height="52">
<path d="M2.47461 0H55.8079V52H2.47461V0Z" fill="white"/>
</mask>
<g mask="url(#mask0_503_1147)">
<path d="M19.3984 46.8675L19.3128 46.768L19.6554 46.2935L19.954 46.4138L19.8082 47.4231L19.5674 47.0851C19.5142 47.0088 19.4563 46.937 19.3984 46.8675ZM42.7156 47.0851L42.9563 47.4231L43.1045 46.4138L42.8035 46.2935L42.4609 46.768L42.5466 46.8675C42.6068 46.937 42.6623 47.0088 42.7156 47.0851ZM7.49103 0.777271C7.41001 0.756438 7.34057 0.742549 7.26881 0.73329L2.83594 0.240234L3.27112 0.596716C3.71094 0.957828 3.96325 1.49023 3.96325 2.05505C3.96325 2.53422 3.7827 2.99023 3.45168 3.34209L3.3776 3.4231L3.6276 3.99949L3.73409 4.00181C4.27575 4.02033 6.99103 4.11292 7.05122 4.11292H7.05584C7.06279 4.11292 7.07205 4.11292 7.07899 4.11292C7.14149 4.11292 7.20399 4.10829 7.27344 4.09903C7.33362 4.08977 7.39844 4.0782 7.46094 4.06431C7.82205 3.97403 8.14844 3.7657 8.38223 3.47403C8.42622 3.42079 8.46557 3.36292 8.50723 3.29579C8.55121 3.22172 8.58825 3.15227 8.61603 3.08746C8.70862 2.87449 8.75492 2.64764 8.75492 2.41616C8.75492 1.64996 8.23409 0.976346 7.49103 0.777271ZM45.5813 46.7657L44.579 48.1615L44.6207 48.2472C44.704 48.4324 44.748 48.6245 44.748 48.8236C44.748 49.5828 44.1276 50.2009 43.366 50.2009C43.2734 50.2009 43.1762 50.1916 43.0836 50.1708L42.9633 50.1453L42.9031 50.2541C42.6901 50.6476 42.3892 50.9925 42.0304 51.2541L41.8058 51.4185L42.0558 51.5388C42.4679 51.7356 42.9077 51.8375 43.366 51.8375C45.0327 51.8375 46.3869 50.4856 46.3869 48.8236C46.3869 48.1384 46.1508 47.4694 45.7179 46.9347L45.5813 46.7657ZM22.4332 46.7657L21.4308 48.1615L21.4702 48.2495C21.5558 48.4324 21.5998 48.6245 21.5998 48.8236C21.5998 49.5828 20.9795 50.2009 20.2179 50.2009C20.123 50.2009 20.0281 50.1916 19.9355 50.1708L19.8128 50.1453L19.7549 50.2541C19.542 50.6476 19.2387 50.9925 18.8822 51.2541L18.6577 51.4185L18.9077 51.5388C19.3174 51.7356 19.7595 51.8375 20.2179 51.8375C21.8845 51.8375 23.2387 50.4856 23.2387 48.8236C23.2387 48.1384 23.0003 47.4694 22.5697 46.9347L22.4332 46.7657ZM55.2549 10.3467C55.0489 10.1939 54.8035 10.106 54.5489 10.0898L50.1299 9.83283L50.4818 10.15C50.7804 10.4185 50.9355 10.7981 50.9123 11.1939C50.8915 11.5805 50.697 11.9347 50.3822 12.1685L50.0119 12.4416L54.3961 12.6963C54.4193 12.6986 54.4401 12.6986 54.4633 12.6986C54.5003 12.6986 54.5373 12.6963 54.572 12.6939C54.6438 12.6893 54.7133 12.6777 54.7758 12.6638C54.8452 12.6476 54.917 12.6222 54.9887 12.5921C55.447 12.3953 55.7503 11.9648 55.7804 11.4694C55.8058 11.0319 55.6091 10.6106 55.2549 10.3467Z" fill="#EC8F3C"/>
</g>
<path d="M16.7108 44.1089H18.6784V45.132H16.7108V44.1089ZM17.5025 48.4607L17.4099 48.1251L16.5812 49.2779C16.4724 49.4306 16.3057 49.5186 16.1228 49.5186C16.0488 49.5186 15.9747 49.5047 15.9029 49.4746C15.6529 49.3751 15.5117 49.1297 15.5511 48.8635L15.7548 47.463L15.4515 47.6505C15.0372 47.9029 14.7895 48.3427 14.7895 48.8241C14.7895 49.5834 15.4099 50.2015 16.1714 50.2015C16.5927 50.2015 16.9863 50.0116 17.2548 49.676C17.3057 49.6089 17.3543 49.5371 17.3937 49.463L17.4006 49.4515L17.4029 49.4422C17.4677 49.3172 17.5117 49.1806 17.5349 49.0371L17.5372 49.0186C17.5464 48.9468 17.5511 48.8843 17.5511 48.8241C17.5511 48.7616 17.5464 48.6991 17.5349 48.6158C17.5279 48.5626 17.5163 48.5116 17.5025 48.4607ZM21.4562 48.1251L20.6298 49.2779C20.5187 49.4306 20.352 49.5186 20.1784 49.5186L20.0441 49.5093L20.0071 49.639C19.9724 49.7547 19.9376 49.8612 19.896 49.9584L19.815 50.1575L20.0279 50.1876C20.0997 50.1968 20.1599 50.2015 20.2177 50.2015C20.9793 50.2015 21.5997 49.5834 21.5997 48.8241C21.5997 48.7038 21.5812 48.5834 21.5488 48.4607L21.4562 48.1251ZM16.3288 42.088H17.9284L17.7154 41.8195C17.6321 41.7154 17.558 41.6066 17.4955 41.4978C17.0233 40.6783 17.0233 39.7015 17.4978 38.8843L20.2663 34.1366H18.7501L16.3636 38.2316C15.6876 39.3982 15.6576 40.8056 16.2826 42.0001L16.3288 42.088ZM8.27792 3.59266C8.06727 3.81026 7.80107 3.96998 7.5094 4.051L7.32422 4.10192L8.38209 6.52785H9.81033L8.45153 3.41211L8.27792 3.59266ZM44.6066 48.1251L43.7779 49.2779C43.6691 49.4283 43.5048 49.5163 43.3242 49.5186H43.19L43.1552 49.639C43.1228 49.7547 43.0858 49.8589 43.0464 49.9584L42.9631 50.1575L43.1761 50.1876C43.2478 50.1968 43.308 50.2015 43.3659 50.2015C44.1275 50.2015 44.7478 49.5834 44.7478 48.8241C44.7478 48.7038 44.7316 48.5834 44.6969 48.463L44.6066 48.1251ZM53.6714 17.2825L53.4724 17.0765C53.5557 17.1691 53.6043 17.2917 53.6043 17.4237C53.6043 17.639 53.4747 17.8241 53.2895 17.9075L53.5557 17.8056L52.3937 23.0116L52.1992 22.7987C52.2733 22.889 52.3173 23.0047 52.3173 23.1297C52.3173 23.345 52.1876 23.5302 52.0048 23.6135L52.2872 23.4954L51.1668 28.5163L51.1599 28.5394C51.1552 28.5556 51.1506 28.5718 51.1437 28.588C51.1344 28.6112 51.1275 28.632 51.1159 28.6529C51.1066 28.6714 51.102 28.6829 51.0927 28.6968C51.0812 28.7177 51.0673 28.7385 51.0511 28.7593L51.0441 28.7709C51.0372 28.7802 51.0302 28.7871 51.0256 28.7917C51.0071 28.8126 50.9863 28.8334 50.9654 28.8519L50.9469 28.8704L50.94 28.8751C50.9099 28.9005 50.8775 28.9214 50.8474 28.9399L50.8404 28.9422L50.8196 28.9515C50.7918 28.9653 50.764 28.9769 50.7339 28.9885L50.7224 28.9908L50.6923 28.9978C50.6668 29.0047 50.639 29.0116 50.6136 29.014L50.602 29.0163L50.5835 29.0186L46.0395 29.4584L46.2224 29.1644C46.2293 29.1505 46.2363 29.139 46.2432 29.1251C46.2525 29.1042 46.2617 29.0834 46.271 29.0603C46.2756 29.0441 46.2826 29.0255 46.2872 29.0093C46.2918 28.9931 46.2941 28.9885 46.2941 28.9839L46.4909 28.1042L49.9932 27.764L50.9099 23.6598H47.4816L47.7177 22.6019H51.146L52.1807 17.9515H48.7548L48.9886 16.8959H52.4168L53.3659 12.6366L54.396 12.6968C54.4214 12.6991 54.4492 12.6991 54.4747 12.6991C54.4747 12.6991 54.4793 12.6991 54.4863 12.6991H54.6946L53.6714 17.2825ZM47.8867 42.8033H46.1738L46.3705 43.0695C46.4538 43.1829 46.5001 43.3149 46.5001 43.4561C46.5001 43.595 46.4538 43.7292 46.3705 43.8427L46.1738 44.1089H47.8867C48.2478 44.1089 48.5418 43.8149 48.5418 43.4561C48.5418 43.095 48.2478 42.8033 47.8867 42.8033ZM40.683 48.6181C40.6761 48.5626 40.6645 48.5116 40.6506 48.463L40.558 48.1251L39.7316 49.2779C39.6205 49.4306 39.4538 49.5186 39.271 49.5186C39.1969 49.5186 39.1228 49.5047 39.0511 49.4746C38.8034 49.3751 38.6599 49.1297 38.6992 48.8635L38.9029 47.463L38.5997 47.6505C38.1853 47.9029 37.9376 48.3427 37.9376 48.8241C37.9376 49.5834 38.558 50.2015 39.3196 50.2015C39.7409 50.2015 40.1367 50.0116 40.396 49.6853L40.4029 49.676C40.4492 49.6181 40.4909 49.5556 40.5279 49.4908L40.565 49.463V49.4167C40.6228 49.2987 40.6622 49.1691 40.683 49.0371V49.0302C40.6946 48.9538 40.7015 48.889 40.7015 48.8241C40.7015 48.764 40.6969 48.7015 40.6853 48.632L40.683 48.6181ZM39.8589 45.132H41.8265V44.1089H39.8589V45.132Z" fill="#145DA0"/>
<mask id="mask1_503_1147" style="mask-type:luminance" maskUnits="userSpaceOnUse" x="0" y="0" width="52" height="52">
<path d="M0.103516 0H51.0665V52H0.103516V0Z" fill="white"/>
</mask>
<g mask="url(#mask1_503_1147)">
<path d="M3.55809 3.22255L3.38448 3.44246L2.6692 1.79662C2.60438 1.65079 2.49096 1.53505 2.34512 1.46792C2.30346 1.44708 2.25948 1.4332 2.21549 1.42162C2.17151 1.41236 2.12753 1.40542 2.08355 1.40542H2.06503C1.97707 1.40542 1.88911 1.42394 1.80809 1.45866C1.64605 1.5281 1.52337 1.65542 1.45855 1.81746C1.39605 1.97949 1.39837 2.15773 1.46781 2.31746L2.1854 3.96329L1.90531 3.94014C0.935403 3.85681 0.173828 3.03042 0.173828 2.05588C0.173828 1.01421 1.02337 0.166992 2.06735 0.166992C2.08818 0.166992 2.1067 0.166992 2.12522 0.169307H2.14837C2.21087 0.173937 2.27105 0.178566 2.32892 0.185511C2.39142 0.19477 2.45392 0.206344 2.51179 0.220233C3.36596 0.426251 3.96318 1.18088 3.96318 2.05588C3.96318 2.48181 3.82198 2.88459 3.55809 3.22255ZM19.1298 48.211C19.1113 48.13 19.0905 48.0466 19.065 47.961C18.9516 47.586 18.7711 47.2411 18.5234 46.9355L18.3845 46.7665L17.3845 48.1624L17.4238 48.2503C17.5095 48.4332 17.5511 48.6253 17.5511 48.8244C17.5511 49.079 17.4794 49.329 17.3428 49.5513C17.3058 49.6068 17.2734 49.6554 17.2386 49.6971L17.234 49.7017C17.2039 49.7388 17.1669 49.7781 17.1206 49.8221C16.8613 50.0675 16.5234 50.2017 16.1715 50.2017C15.4099 50.2017 14.7896 49.5837 14.7896 48.8244C14.7896 48.2596 15.1322 47.7573 15.6599 47.5443L15.7479 47.5096L15.9979 45.8082L15.778 45.836C14.2803 46.0327 13.1507 47.3151 13.1507 48.8244C13.1507 50.4864 14.5048 51.8383 16.1715 51.8383C16.859 51.8383 17.5095 51.6114 18.0488 51.1809H18.0511C18.0905 51.1485 18.1298 51.1161 18.1669 51.0837L18.241 51.0466V51.0165C18.2641 50.9957 18.2873 50.9725 18.3081 50.9517L18.315 50.9448C18.6646 50.5929 18.9238 50.1577 19.065 49.6878C19.0905 49.6022 19.1113 49.5188 19.1298 49.4355C19.1576 49.3013 19.1761 49.16 19.1854 49.0165C19.19 48.954 19.1923 48.8892 19.1923 48.8244C19.1923 48.7596 19.19 48.6948 19.1854 48.6323C19.1761 48.4864 19.1576 48.3452 19.1298 48.211ZM42.278 48.211C42.2618 48.13 42.2386 48.0466 42.2132 47.961C42.1021 47.586 41.9192 47.2411 41.6715 46.9355L41.5349 46.7665L40.5326 48.1624L40.5743 48.248C40.6576 48.4332 40.7016 48.6253 40.7016 48.8244C40.7016 49.079 40.6298 49.329 40.491 49.5513C40.4585 49.6045 40.4261 49.6485 40.396 49.6878L40.3891 49.6925L40.3775 49.7087C40.3474 49.7434 40.3127 49.7804 40.2687 49.8221C40.0095 50.0675 39.6738 50.2017 39.3197 50.2017C38.5581 50.2017 37.9377 49.5837 37.9377 48.8244C37.9377 48.2596 38.2803 47.7573 38.8081 47.5443L38.8984 47.5096L39.146 45.8082L38.9261 45.836C37.4285 46.0327 36.2988 47.3151 36.2988 48.8244C36.2988 50.4864 37.653 51.8383 39.3197 51.8383C40.0095 51.8383 40.6576 51.6114 41.1993 51.1809C41.2456 51.1438 41.2896 51.1068 41.3335 51.0675C41.3752 51.0304 41.4169 50.9911 41.4585 50.9517L41.4632 50.9448C41.8127 50.5929 42.072 50.1577 42.2132 49.6878C42.2386 49.6022 42.2618 49.5188 42.278 49.4378C42.3058 49.3013 42.3243 49.16 42.3335 49.0165C42.3382 48.954 42.3405 48.8892 42.3405 48.8244C42.3405 48.7596 42.3382 48.6948 42.3335 48.6323C42.3243 48.4864 42.3058 48.3452 42.278 48.211ZM49.6831 9.81514L4.84975 7.20171C4.82198 7.20171 4.79651 7.1994 4.77105 7.1994C4.45161 7.1994 4.14374 7.31746 3.90299 7.53042C3.89374 7.53736 3.88679 7.54431 3.8729 7.56051C3.81735 7.61144 3.77105 7.66236 3.7317 7.7156C3.6854 7.77347 3.64374 7.8406 3.6067 7.91005C3.52337 8.0744 3.47707 8.24801 3.46549 8.42857C3.43077 9.03273 3.82892 9.59292 4.41225 9.75958C4.48401 9.78042 4.5604 9.79431 4.64142 9.80357H4.65531C4.6692 9.80588 4.68309 9.8082 4.69698 9.8082L49.5303 12.4216C49.5535 12.4239 49.5766 12.4239 49.5998 12.4239C49.6298 12.4239 49.6599 12.4239 49.69 12.4216C49.7572 12.417 49.8266 12.4077 49.896 12.3915C49.9655 12.3776 50.0373 12.3545 50.1067 12.3244C50.1854 12.292 50.2595 12.2526 50.3289 12.2063C50.6715 11.9795 50.8891 11.6022 50.9123 11.1948C50.9562 10.4772 50.403 9.85912 49.6831 9.81514Z" fill="#F6BD3B"/>
</g>
<path d="M4.76919 7.20095C4.46827 7.20095 4.18586 7.30049 3.95206 7.49031L3.78308 7.62688L1.46827 2.3167C1.39882 2.15697 1.39651 1.97873 1.45901 1.8167C1.52382 1.65466 1.64651 1.52734 1.80854 1.4579C1.88956 1.42086 1.97753 1.40234 2.0678 1.40234C2.14188 1.40234 2.21595 1.41623 2.29003 1.44401C2.37104 1.47179 2.4428 1.51577 2.5053 1.57133C2.57706 1.63614 2.63262 1.71021 2.66966 1.79586L5.02382 7.20095H4.76919ZM19.0354 45.1315H16.3896C16.2229 45.1315 16.0771 45.2565 16.0539 45.4209L15.5516 48.863C15.5053 49.1685 15.6951 49.3908 15.9035 49.4741C15.9729 49.5019 16.0493 49.5181 16.1234 49.5181C16.3085 49.5181 16.4706 49.4324 16.5817 49.2773L19.253 45.5574C19.3132 45.4741 19.3201 45.3699 19.2738 45.2773C19.2275 45.1847 19.1372 45.1315 19.0354 45.1315ZM23.0817 45.1315H20.4359C20.2692 45.1315 20.1234 45.2565 20.1002 45.4209L19.5979 48.863C19.5655 49.0783 19.6488 49.275 19.8224 49.4023C19.8641 49.4324 19.9058 49.4579 19.9497 49.4741C19.9775 49.4857 20.0076 49.4949 20.04 49.5019C20.084 49.5111 20.128 49.5158 20.172 49.5158C20.2067 49.5158 20.2414 49.5135 20.2738 49.5065C20.4173 49.481 20.54 49.4023 20.6303 49.2773L23.2993 45.5574C23.3595 45.4741 23.3687 45.3699 23.3201 45.2773C23.2738 45.1847 23.1835 45.1315 23.0817 45.1315ZM45.9058 29.4417L45.8317 29.2912L45.8942 29.4463C45.8826 29.451 45.871 29.4556 45.8618 29.4602L45.8201 29.4695C45.7947 29.4764 45.7669 29.4834 45.7391 29.4857L45.7298 29.488L45.7113 29.4903L34.091 30.6153H34.1048C34.4266 30.6361 34.6812 30.8838 34.7136 31.201C34.7298 31.3746 34.6789 31.5435 34.5678 31.6778C34.4567 31.8144 34.2993 31.8977 34.1257 31.9139L15.621 33.7287L12.6326 38.8838C12.1581 39.701 12.1558 40.6778 12.6303 41.4972C13.1025 42.3144 13.9497 42.8028 14.8965 42.8028H45.8456C46.2067 42.8028 46.5007 43.0945 46.5007 43.4556C46.5007 43.8144 46.2067 44.1084 45.8456 44.1084H14.8965C13.4775 44.1084 12.2067 43.3746 11.496 42.1477C10.7877 40.9209 10.7877 39.4556 11.4984 38.231L14.665 32.7727L14.672 32.7635C14.6766 32.7565 14.6812 32.7519 14.6882 32.7403C14.7021 32.7195 14.7136 32.7033 14.7252 32.6894C14.7368 32.6755 14.7484 32.6662 14.7576 32.657L14.7785 32.6361C14.7923 32.6223 14.8039 32.6107 14.8178 32.6014C14.8317 32.5898 14.8456 32.5806 14.8572 32.5736L14.878 32.5598C14.8965 32.5482 14.9104 32.5389 14.9243 32.532C14.9382 32.525 14.9521 32.5204 14.966 32.5135L14.996 32.5019C15.0146 32.4949 15.0285 32.4903 15.0423 32.4857C15.0585 32.481 15.0771 32.4764 15.1025 32.4718H15.1141C15.121 32.4695 15.1257 32.4695 15.1349 32.4672L15.1465 32.4625L27.5701 31.2449L15.091 32.4533C15.0747 32.4533 15.0632 32.4533 15.0493 32.4556H15.0192C14.9891 32.4556 14.9544 32.451 14.9173 32.444L14.8826 32.4371C14.8572 32.4324 14.834 32.4255 14.8109 32.4162C14.797 32.4116 14.7854 32.407 14.7761 32.4023C14.7484 32.3931 14.7252 32.3792 14.7021 32.3676L14.6859 32.3584L14.6789 32.3537C14.6488 32.3352 14.621 32.3144 14.5933 32.2912L14.5817 32.2797C14.5562 32.2542 14.5377 32.2334 14.5192 32.2102C14.5146 32.2056 14.5099 32.1986 14.5007 32.1871C14.4822 32.1616 14.4706 32.1408 14.459 32.1223C14.4521 32.1084 14.4451 32.0945 14.4382 32.0829L14.4335 32.0736L14.4266 32.0621L4.73216 9.80975L6.19743 9.8954L12.7229 24.8746L12.3896 24.1084L17.3456 23.9L15.5609 17.4996L9.47984 17.4324L9.04928 16.4417L15.2854 16.5111L13.5609 10.3236L14.6025 10.3861L16.3132 16.5227L22.9937 16.5968L22.2599 10.8306L23.2622 10.8908L23.9914 16.606L30.047 16.6732L29.9359 11.2797L30.9243 11.3375L31.0354 16.6848L36.4798 16.7449L36.9011 11.6848L37.8872 11.7426L37.4706 16.7565L42.709 16.8144L43.4984 12.069L44.4891 12.1269L43.7067 16.826L47.6558 16.8676L48.6581 12.3699L49.5308 12.4209C49.5562 12.4232 49.5817 12.4232 49.6095 12.4232C49.6164 12.4232 49.6257 12.4232 49.6349 12.4232L49.6604 12.4209C49.6951 12.4209 49.7275 12.4185 49.7622 12.4139L49.9937 12.3861L49.9405 12.6292L46.2947 28.988L46.2854 29.0111C46.2808 29.0273 46.2761 29.0435 46.2715 29.0598C46.2622 29.0829 46.253 29.1037 46.2437 29.1246C46.2345 29.1431 46.2275 29.1547 46.2206 29.1685C46.2067 29.1894 46.1928 29.2102 46.1789 29.231L46.1697 29.2403C46.1627 29.2519 46.1581 29.2588 46.1535 29.2635C46.1349 29.2843 46.1141 29.3051 46.091 29.3236L46.0747 29.3422L46.0678 29.3468C46.0377 29.3723 46.0053 29.3931 45.9752 29.4116L45.966 29.4162L45.9451 29.4232C45.9335 29.4301 45.9197 29.4348 45.9058 29.4417ZM47.4359 17.8514L43.5423 17.8098L42.7067 22.8329L46.3595 22.6801L47.4359 17.8514ZM46.1372 23.6755L42.54 23.826L41.7507 28.5621L40.9335 28.6408L45.121 28.2357L46.1372 23.6755ZM40.7345 28.6616L41.5331 23.8699L36.8618 24.0644L36.4451 29.076L35.4451 29.1709L35.8687 24.1084L31.1905 24.3028L31.2993 29.5736L40.7345 28.6616ZM24.7275 30.2079L24.0146 24.606L18.6303 24.8329L20.2507 30.6408L24.7275 30.2079ZM16.5886 17.5111L18.3595 23.856L23.8896 23.6246L23.1187 17.5829L16.5886 17.5111ZM24.1164 17.5945L24.8803 23.5829L30.1835 23.3607L30.0655 17.6593L24.1164 17.5945ZM24.8224 30.1986L30.3132 29.6685L30.2044 24.3445L25.0053 24.5644L25.7113 30.113L24.8224 30.1986ZM31.0539 17.6709L31.172 23.319L35.9497 23.1176L36.3988 17.7287L31.0539 17.6709ZM37.3896 17.7403L36.9451 23.076L41.6974 22.8769L42.5447 17.7982L37.3896 17.7403ZM12.8109 25.076L15.4382 31.106L19.6118 30.7033L19.2507 30.738L17.6164 24.8746L12.8109 25.076ZM46.2298 45.1315H43.5863C43.4173 45.1315 43.2738 45.2565 43.2484 45.4209L42.746 48.863C42.716 49.0783 42.797 49.275 42.9706 49.4023C43.0122 49.4324 43.0562 49.4579 43.1002 49.4741C43.1257 49.4857 43.1558 49.4949 43.1882 49.5019C43.2322 49.5111 43.2761 49.5158 43.3201 49.5158C43.3548 49.5158 43.3896 49.5135 43.4243 49.5065C43.5655 49.481 43.6882 49.4023 43.7785 49.2773L46.4497 45.5574C46.5099 45.4741 46.5169 45.3676 46.4706 45.2773C46.422 45.1847 46.334 45.1315 46.2298 45.1315ZM42.1835 45.1315H39.5377C39.371 45.1315 39.2275 45.2565 39.2021 45.4209L38.6997 48.863C38.6558 49.1685 38.8456 49.3908 39.0516 49.4741C39.121 49.5019 39.1974 49.5181 39.2738 49.5181C39.4567 49.5181 39.621 49.4324 39.7322 49.2773L42.4011 45.5574C42.4613 45.4741 42.4706 45.3676 42.422 45.2773C42.3757 45.1871 42.2854 45.1315 42.1835 45.1315Z" fill="#7BC9C0"/>
<mask id="mask2_503_1147" style="mask-type:luminance" maskUnits="userSpaceOnUse" x="0" y="0" width="56" height="52">
<path d="M0 0H56V52H0V0Z" fill="white"/>
</mask>
<g mask="url(#mask2_503_1147)">
<path d="M54.5587 9.92361L10.3481 7.34722L9.96383 6.46296L8.63281 3.40972C8.81568 3.12037 8.92216 2.78241 8.92216 2.41667C8.92216 1.48148 8.22078 0.6875 7.29254 0.569444C7.29022 0.569444 7.29022 0.569444 7.29022 0.569444L2.33652 0.0162037C2.33189 0.0162037 2.32726 0.0162037 2.32031 0.0162037C2.23929 0.00694444 2.15365 0 2.068 0C0.931424 0 0.0078125 0.921297 0.0078125 2.05556C0.0078125 3.18981 0.931424 4.11343 2.068 4.11343C2.07031 4.11343 2.07031 4.11343 2.07031 4.11343L3.59578 7.61806C3.41985 7.84722 3.318 8.125 3.29948 8.41898C3.25318 9.20602 3.84115 9.88657 4.61892 9.96759L14.274 32.1296C14.2786 32.1389 14.2833 32.1481 14.2879 32.1551C14.2949 32.1713 14.3041 32.1875 14.3134 32.2037C14.3273 32.2292 14.3435 32.2546 14.3643 32.2824C14.3736 32.294 14.3805 32.3056 14.3898 32.3148C14.4106 32.3449 14.4361 32.3704 14.4638 32.3958C14.4685 32.4028 14.4754 32.4074 14.4824 32.4144C14.5148 32.4444 14.5518 32.4722 14.5911 32.4954C14.5981 32.5 14.6074 32.5046 14.6189 32.5116C14.6305 32.5185 14.6421 32.5231 14.6513 32.5278L14.6467 32.5324C14.6305 32.5486 14.6143 32.5625 14.6004 32.581C14.5819 32.6019 14.5657 32.625 14.5495 32.6481L14.6837 32.7477L14.5425 32.6597C14.531 32.6736 14.5217 32.6875 14.5124 32.7014L11.355 38.1481C10.6143 39.4259 10.612 40.9537 11.3527 42.2315C12.0911 43.5116 13.4175 44.2755 14.8967 44.2755H16.5449V44.9653H16.3898C16.1398 44.9653 15.9245 45.1505 15.8898 45.3981L15.8504 45.6597C14.2439 45.8218 12.9847 47.1782 12.9847 48.8241C12.9847 50.5764 14.4129 52.0046 16.1722 52.0046C16.9384 52.0046 17.6444 51.7315 18.1953 51.2801C18.2046 51.287 18.2161 51.2963 18.2277 51.3056C18.2347 51.3102 18.2393 51.3148 18.2462 51.3194C18.2902 51.3542 18.3342 51.3866 18.3805 51.419C18.3898 51.4259 18.4013 51.4352 18.4106 51.4421C18.4638 51.4769 18.5171 51.5139 18.5726 51.5463C18.5726 51.5463 18.5726 51.5463 18.5749 51.5463C19.0541 51.8356 19.6166 52.0046 20.2185 52.0046C21.9754 52.0046 23.406 50.5764 23.406 48.8241C23.406 48.037 23.1166 47.3171 22.6421 46.7616L23.4361 45.6528C23.531 45.5208 23.5449 45.3472 23.4685 45.2014C23.3944 45.0556 23.2462 44.9653 23.0819 44.9653H22.8921V44.2755H39.693V44.9653H39.5379C39.2879 44.9653 39.0726 45.1505 39.0379 45.3981L38.9986 45.6597C37.3921 45.8218 36.1328 47.1782 36.1328 48.8241C36.1328 50.5764 37.5634 52.0046 39.3203 52.0046C40.0888 52.0046 40.7925 51.7315 41.3435 51.2801C41.355 51.287 41.3666 51.2963 41.3759 51.3056C41.3828 51.3102 41.3898 51.3148 41.3944 51.3194C41.4384 51.3542 41.4847 51.3866 41.5287 51.419C41.5402 51.4259 41.5495 51.4352 41.5611 51.4421C41.612 51.4769 41.6675 51.5139 41.7208 51.5463C41.7231 51.5463 41.7231 51.5463 41.7231 51.5463C42.2046 51.8356 42.7671 52.0046 43.3666 52.0046C45.1259 52.0046 46.5541 50.5764 46.5541 48.8241C46.5541 48.037 46.2671 47.3171 45.7902 46.7616L46.5842 45.6528C46.6814 45.5208 46.693 45.3472 46.6189 45.2014C46.5425 45.0556 46.3944 44.9653 46.23 44.9653H46.0402V44.2755H47.8874C48.3412 44.2755 48.7092 43.9074 48.7092 43.456C48.7092 43.0046 48.3412 42.6366 47.8874 42.6366H19.7624C19.6907 42.6366 19.6212 42.6319 19.5518 42.6273C19.5333 42.625 19.5171 42.6227 19.5009 42.6227C19.4337 42.6157 19.3689 42.6065 19.3064 42.5949C19.3018 42.5926 19.2972 42.5926 19.2925 42.5926C19.2208 42.5787 19.149 42.5602 19.0796 42.5417C19.0726 42.5394 19.0657 42.537 19.0587 42.5347C18.693 42.4259 18.3574 42.2338 18.0796 41.9676C18.0773 41.9676 18.0773 41.9676 18.0773 41.9676C17.9083 41.8079 17.7624 41.6227 17.6398 41.4144C17.1976 40.6481 17.1976 39.7338 17.6421 38.9676L20.4106 34.2199L20.6629 33.7847L20.9013 33.3773L34.1421 32.081C34.3597 32.0579 34.5564 31.9537 34.6976 31.7847C34.8365 31.6157 34.9013 31.4028 34.8782 31.1852C34.862 31.0093 34.7879 30.8495 34.6768 30.7245L45.737 29.6551C45.7439 29.6551 45.7486 29.6551 45.7532 29.6528L50.6097 29.1829C50.6212 29.1829 50.6328 29.1806 50.6328 29.1782C50.6699 29.1759 50.7046 29.1667 50.7486 29.1551C50.7601 29.1528 50.774 29.1505 50.7856 29.1458C50.8203 29.1343 50.855 29.1204 50.8944 29.0995C50.906 29.0972 50.9152 29.0926 50.9245 29.0856C50.9662 29.0625 51.0078 29.0347 51.0472 29.0046C51.0564 28.9977 51.0657 28.9884 51.0796 28.9745C51.105 28.9514 51.1305 28.9282 51.1537 28.8981C51.1629 28.8889 51.1699 28.8773 51.1861 28.8588C51.2046 28.8333 51.2231 28.8079 51.2393 28.7801C51.2486 28.7616 51.2578 28.7454 51.2671 28.7269C51.2787 28.6991 51.2902 28.6736 51.3018 28.6458C51.3087 28.625 51.3157 28.6019 51.3226 28.581C51.3249 28.5694 51.3296 28.5579 51.3319 28.5463L54.8388 12.8194C55.4453 12.6644 55.9083 12.1319 55.9453 11.4792C55.9939 10.669 55.3712 9.97222 54.5587 9.92361ZM54.9222 12.4398C54.8643 12.4653 54.8018 12.4861 54.737 12.5023C54.6814 12.5162 54.6212 12.5231 54.5611 12.5278C54.5101 12.5324 54.4592 12.5347 54.4083 12.5301L53.5726 12.4815L53.2347 12.463L50.4824 12.3009C50.8226 12.0509 51.0541 11.6574 51.0796 11.206C51.1074 10.7407 50.9152 10.3148 50.5935 10.0278L53.9245 10.2199L54.5402 10.2569C54.7717 10.2708 54.9824 10.3519 55.156 10.4815C55.4523 10.7037 55.6374 11.0648 55.6143 11.4606C55.5865 11.9028 55.3064 12.2731 54.9222 12.4398ZM50.9986 28.4954C50.9962 28.5069 50.9916 28.5208 50.987 28.5324C50.9824 28.5486 50.9754 28.5648 50.9662 28.581C50.9615 28.5903 50.9569 28.6019 50.9499 28.6111C50.9407 28.6273 50.9291 28.6435 50.9199 28.6574L50.9083 28.6713C50.906 28.6759 50.9037 28.6806 50.9013 28.6829C50.8874 28.6991 50.8712 28.713 50.855 28.7292L50.8365 28.7454C50.8134 28.7639 50.7902 28.7801 50.7671 28.7917C50.7601 28.7963 50.7532 28.7986 50.7462 28.8032C50.7254 28.8125 50.7046 28.8218 50.6814 28.8287L50.6537 28.8356C50.6328 28.8426 50.612 28.8472 50.5935 28.8495C50.5842 28.8495 50.5773 28.8519 50.5703 28.8542L46.3597 29.2593C46.362 29.2569 46.3643 29.2546 46.3643 29.2523C46.3759 29.2338 46.3851 29.2176 46.3921 29.1991C46.406 29.1713 46.4175 29.1458 46.4268 29.1157C46.4361 29.0949 46.443 29.0741 46.4476 29.0532C46.4523 29.0417 46.4546 29.0301 46.4592 29.0185L46.6282 28.2569L50.0101 27.9306C50.0819 27.9236 50.1421 27.8704 50.1583 27.8009L51.0449 23.8241H51.7879C51.8828 23.8241 51.9731 23.8056 52.0541 23.7731L51.0078 28.4699C51.0032 28.4769 51.0009 28.4861 50.9986 28.4954ZM41.1074 29.7685L40.7393 29.8056L36.3759 30.2269L36.0055 30.2616L35.8597 30.2778L35.4939 30.3125L34.0935 30.4468L31.3111 30.7176L30.9407 30.7523L30.8041 30.7662L30.4268 30.8032L27.5819 31.0764L25.7879 31.25L25.4129 31.287L25.2786 31.3009L24.9083 31.3356L20.4175 31.7708L20.0518 31.8056L19.906 31.8194L19.5333 31.8565L15.0749 32.287C15.0564 32.2894 15.0402 32.2894 15.0217 32.2894C15.0009 32.2894 14.9754 32.287 14.9453 32.2824L14.9199 32.2755C14.9013 32.2708 14.8851 32.2662 14.8666 32.2593C14.8574 32.2569 14.8481 32.2546 14.8388 32.25C14.8203 32.2431 14.8018 32.2338 14.7856 32.2222C14.7833 32.2222 14.7717 32.2153 14.7694 32.2153C14.7462 32.1991 14.7231 32.1829 14.7046 32.1667C14.7023 32.1644 14.6953 32.1551 14.693 32.1551C14.6768 32.1389 14.6629 32.125 14.649 32.1065C14.6444 32.1019 14.6398 32.0949 14.6328 32.0833C14.6212 32.0694 14.612 32.0556 14.605 32.0394C14.5981 32.0301 14.5935 32.0208 14.5888 32.0116C14.5865 32.0069 14.5819 32 14.5819 31.9977L11.6305 25.2245L11.48 24.8796L11.4222 24.7454L11.274 24.4097L8.27865 17.5324L8.1305 17.1898L8.07494 17.0648L7.92448 16.7176L4.99392 9.99306L6.0842 10.0556L8.79485 16.2731L8.86661 16.4398L8.94068 16.6088L9.22541 17.2639L9.29716 17.4306L9.37124 17.5972L12.1398 23.9514L12.2115 24.1157L12.281 24.2801L12.5611 24.9213L12.6328 25.0856L12.7046 25.2477L15.2856 31.1736C15.3134 31.2407 15.3828 31.2801 15.4546 31.2731L19.1282 30.919L19.2972 30.9005L19.4661 30.8843L20.1282 30.8218L20.2949 30.8056L20.4638 30.7894L24.5819 30.3912L24.9152 30.3588L25.5657 30.2963L25.899 30.2639L30.1513 29.8519L30.4847 29.8194L31.1374 29.7569L31.4708 29.7245L35.2648 29.3565L35.4314 29.3403L35.6004 29.3241L36.2624 29.2616L36.4314 29.2454L36.6004 29.2269L40.5333 28.8472L40.7046 28.831L40.8782 28.8148L41.5518 28.75L41.7231 28.7315L41.8944 28.7153L45.1374 28.4028C45.2092 28.3958 45.2694 28.3426 45.2833 28.2731L46.274 23.8356L46.3111 23.669L46.3481 23.5L46.3712 23.3912L46.4939 22.8403L46.5333 22.6736L46.5425 22.6227L46.5703 22.5046L47.5703 18.0208L47.6444 17.6875L47.649 17.6597L47.7879 17.037L47.8249 16.8704L47.862 16.706L48.7902 12.5463L49.5217 12.588C49.5518 12.5903 49.5796 12.5903 49.6097 12.5903C49.6282 12.5903 49.649 12.588 49.6675 12.588C49.7069 12.5856 49.7439 12.5833 49.781 12.5787L49.7787 12.5949L48.855 16.7292L48.818 16.8958L48.7879 17.0394L48.781 17.0625L48.7046 17.412L48.6212 17.787L48.5935 17.9051L48.5842 17.9514L48.5472 18.1181L47.5842 22.4352L47.5101 22.7685L47.4986 22.8218L47.4152 23.1921L47.3851 23.3287L47.3481 23.4931L47.3111 23.6597L47.3041 23.6875L47.274 23.8241L46.355 27.9491L46.3157 28.1204L46.2787 28.2917L46.1328 28.9421C46.1305 28.9491 46.1282 28.9583 46.1259 28.9676C46.1212 28.9792 46.1189 28.9931 46.1143 29.0046C46.1074 29.0208 46.1004 29.037 46.0935 29.0532C46.0888 29.0625 46.0819 29.0741 46.0773 29.0833C46.068 29.1019 46.0564 29.1157 46.0449 29.1319L46.0356 29.1435C46.0333 29.1481 46.0287 29.1528 46.0263 29.1551C46.0124 29.1713 45.9986 29.1852 45.98 29.2014L45.9638 29.2176C45.9407 29.2361 45.9152 29.2523 45.8944 29.2639C45.8874 29.2685 45.8782 29.2708 45.8712 29.2755C45.8597 29.2801 45.8481 29.2847 45.8342 29.2917C45.8249 29.294 45.818 29.2986 45.8087 29.3009L45.7787 29.3079C45.7601 29.3148 45.7393 29.3194 45.7185 29.3218C45.7115 29.3218 45.7023 29.3241 45.6953 29.3264L45.6537 29.3287L45.48 29.3472L41.6212 29.7199L41.2486 29.7546L41.1074 29.7685ZM3.63281 8.4375C3.64207 8.27778 3.68605 8.125 3.75781 7.98611C3.78791 7.92593 3.82263 7.87037 3.86429 7.81482C3.90133 7.76852 3.943 7.72222 3.98698 7.68056C3.99624 7.6713 4.0055 7.66204 4.01476 7.65278C4.22541 7.46759 4.49161 7.36574 4.7717 7.36574C4.79254 7.36574 4.81568 7.36574 4.83883 7.36806L4.91522 7.37269L5.10272 7.38426L5.29022 7.39352L8.66522 7.59028L8.76244 7.59722L8.85041 7.60185L9.03791 7.61343H9.05411L9.57031 7.64352L10.1282 7.67593L10.3157 7.6875L10.5009 7.69907L49.6745 9.98148C50.3018 10.0185 50.7833 10.5579 50.7486 11.1852C50.7254 11.5556 50.5263 11.875 50.237 12.0671C50.1768 12.1088 50.112 12.1435 50.0425 12.1713C49.9847 12.1968 49.9222 12.2153 49.8597 12.2292C49.8018 12.2431 49.7416 12.2523 49.6791 12.2546C49.6351 12.2569 49.5888 12.2593 49.5402 12.2569L48.8643 12.2176L48.6953 12.206L48.5263 12.1968L44.6421 11.9699L44.4662 11.9606L44.2833 11.9491L43.7254 11.9167L43.5425 11.9051L43.3666 11.8958L38.0425 11.5856L37.8689 11.5764L37.6837 11.5648L37.1259 11.5324L36.943 11.5208L36.7694 11.5116L31.0773 11.1806L30.9013 11.169L30.7185 11.1597L30.1583 11.125L29.9754 11.1157L29.8018 11.1042L23.406 10.7315L23.2347 10.7222L23.0518 10.7106L22.4916 10.6782L22.3087 10.669L22.1328 10.6574L14.73 10.2269L14.5541 10.2153L14.3712 10.206L13.8111 10.1736L13.6282 10.162L13.4523 10.1528L8.94994 9.88889L8.65133 9.87269L6.30874 9.73611L6.12355 9.72454L5.93605 9.71296L4.84578 9.65046L4.70689 9.6412C4.69068 9.6412 4.67448 9.63889 4.65828 9.63657C4.58883 9.62963 4.52402 9.61806 4.4592 9.59954C3.95689 9.45602 3.60041 8.97917 3.63281 8.4375ZM2.41985 4.08102L2.36429 3.95602L2.35041 3.92361L2.29022 3.78704L2.28096 3.7662L2.27402 3.74537L2.12587 3.40741L1.98003 3.07176L1.62124 2.25C1.57031 2.13194 1.568 2 1.61429 1.87731C1.66291 1.75694 1.7555 1.66204 1.87355 1.61111C1.93837 1.58333 2.00318 1.56944 2.068 1.56944C2.12587 1.56944 2.18142 1.58102 2.23466 1.59954C2.29253 1.62268 2.34809 1.65278 2.39439 1.69676C2.44531 1.74074 2.48698 1.7963 2.51707 1.86343L3.17679 3.37731L3.24624 3.53704L3.31337 3.69213L3.37124 3.82407L3.443 3.99306L3.51707 4.16204L4.76939 7.03472C4.43374 7.03472 4.11198 7.14815 3.84809 7.36111L2.43837 4.125L2.41985 4.08102ZM2.068 0.333333C2.09346 0.333333 2.11661 0.335648 2.14207 0.335648C2.19763 0.337963 2.25318 0.342593 2.30874 0.351852C2.36429 0.358796 2.41985 0.368056 2.47309 0.381944C3.23235 0.564815 3.79716 1.24537 3.79716 2.05556C3.79716 2.45833 3.65828 2.82639 3.42679 3.11806L2.82263 1.72917C2.73929 1.53935 2.59115 1.39815 2.41754 1.31713C2.36429 1.29167 2.31105 1.27315 2.25318 1.25926C2.19994 1.24769 2.14439 1.24074 2.08883 1.23843C1.97309 1.23611 1.85503 1.25694 1.74161 1.30556C1.54022 1.39352 1.38513 1.55324 1.30411 1.75694C1.2254 1.96065 1.22772 2.18287 1.31568 2.38194L1.92216 3.77315C1.03791 3.69676 0.341146 2.95833 0.341146 2.05556C0.341146 1.10648 1.11661 0.333333 2.068 0.333333ZM6.62587 0.828704L7.25087 0.898148C7.318 0.907407 7.38281 0.921296 7.44763 0.939815C8.10966 1.11574 8.58883 1.71759 8.58883 2.41667C8.58883 2.63194 8.54485 2.83565 8.46383 3.02083C8.43605 3.08565 8.40133 3.15046 8.3643 3.21065C8.32957 3.2662 8.29254 3.31944 8.25318 3.37037C8.04485 3.62963 7.75318 3.81944 7.41985 3.90278C7.36661 3.91667 7.31105 3.92593 7.25318 3.93287C7.19531 3.94213 7.13744 3.94676 7.07726 3.94676C7.07031 3.94676 7.06337 3.94907 7.05642 3.94907C7.01013 3.94676 5.31105 3.88889 3.73929 3.83565L3.57494 3.45833C3.91754 3.09028 4.1305 2.59722 4.1305 2.05556C4.1305 1.41667 3.83652 0.844908 3.37587 0.467593L6.62587 0.828704ZM47.3018 17.6852L43.4037 17.6412L42.5078 23.0093L46.149 22.8565L46.0032 23.5139L42.399 23.6667L41.6074 28.4097L40.9337 28.4745L41.73 23.6944L36.7092 23.9051L36.2902 28.9236L35.6282 28.9884L36.0495 23.9329L31.0217 24.1458L31.1305 29.4236L30.4777 29.4861L30.3666 24.1713L24.8157 24.4051L25.524 29.9653L24.8736 30.0278L24.1606 24.4329L18.4129 24.6759L20.0356 30.4954L19.3759 30.5602L17.7416 24.7037L12.9175 24.9051L12.6398 24.2639L17.5634 24.0579L15.6884 17.3356L9.59115 17.2685L9.30411 16.6111L15.5055 16.6806L13.7833 10.5046L14.4731 10.544L16.1861 16.6875L23.1837 16.7639L22.4499 11.0093L23.1143 11.0486L23.8435 16.7731L30.2161 16.8426L30.105 11.456L30.7601 11.4954L30.8712 16.8495L36.6328 16.9144L37.0541 11.8611L37.7069 11.9005L37.2902 16.9213L42.8481 16.9815L43.6374 12.2454L44.2949 12.2847L43.5101 16.9907L47.4476 17.0324L47.3018 17.6852ZM42.9037 22.6597L43.6837 17.9769L47.2277 18.0162L46.2254 22.5185L42.9037 22.6597ZM42.6837 23.9884L45.9268 23.8519L44.9847 28.0833L41.9523 28.375L42.6837 23.9884ZM37.0171 24.2269L41.3342 24.044L40.5911 28.5069L36.6282 28.8912L37.0171 24.2269ZM31.362 24.463L35.6861 24.2824L35.2925 29.0208L31.4638 29.3912L31.362 24.463ZM25.193 24.7222L30.0402 24.5185L30.1444 29.5185L25.8574 29.9329L25.193 24.7222ZM18.8481 24.9907L23.8689 24.7778L24.5402 30.0602L20.3736 30.463L18.8481 24.9907ZM17.4916 25.0463L19.0379 30.5926L15.5425 30.9306L13.0611 25.2338L17.4916 25.0463ZM15.4337 17.6644L17.1282 23.7431L12.4962 23.9375L9.73698 17.6019L15.4337 17.6644ZM22.112 10.9907L22.8041 16.4282L16.4407 16.3588L14.8249 10.5648L22.112 10.9907ZM29.8759 16.5069L24.1374 16.4421L23.4546 11.0694L29.7717 11.4375L29.8759 16.5069ZM36.7208 11.8426L36.3273 16.5764L31.1976 16.5208L31.0958 11.5139L36.7208 11.8426ZM43.3041 12.2269L42.568 16.6458L37.6513 16.5926L38.0402 11.919L43.3041 12.2269ZM13.4337 10.4838C13.4361 10.5 13.4407 10.5162 13.4453 10.5324L15.0657 16.3426L9.16059 16.2778L6.4592 10.0787L13.4337 10.4838ZM43.9037 16.662L44.6305 12.3032L48.4523 12.5255L47.5217 16.7014L43.9037 16.662ZM50.7023 23.8241L49.8574 27.6111L46.7046 27.9144L47.6166 23.8241H50.7023ZM47.6907 23.4931L47.8504 22.7685H51.7879C51.9893 22.7685 52.1513 22.9306 52.1513 23.1296C52.1513 23.331 51.9893 23.4931 51.7879 23.4931H47.6907ZM47.9268 22.4352L48.8874 18.1181H51.9754L51.0124 22.4352H47.9268ZM48.9615 17.787L49.1236 17.0625H53.0773C53.2763 17.0625 53.4384 17.2245 53.4384 17.4236C53.4384 17.625 53.2763 17.787 53.0773 17.787H48.9615ZM49.1976 16.7292L50.1166 12.6134L53.1629 12.7917L52.2833 16.7292H49.1976ZM8.51476 7.25L5.13976 7.05324L3.88744 4.17361C5.35041 4.22454 7.03328 4.28009 7.05411 4.28009C7.10966 4.28009 7.16291 4.27778 7.21846 4.27315L8.51476 7.25ZM8.49161 6.36343L7.55642 4.21065C7.8805 4.12037 8.16985 3.94444 8.39902 3.70833L9.55643 6.36343H8.49161ZM52.3018 22.662C52.1745 22.5231 51.9916 22.4352 51.7879 22.4352H51.3527L52.3157 18.1181H53.0773C53.1629 18.1181 53.2486 18.1019 53.3249 18.0718L52.3018 22.662ZM53.5773 16.9421C53.4499 16.8125 53.2717 16.7292 53.0773 16.7292H52.6259L53.4986 12.8125L54.3874 12.8634C54.4175 12.8657 54.4453 12.8657 54.4754 12.8657C54.4777 12.8657 54.4824 12.8657 54.487 12.8657L53.5773 16.9421ZM14.8041 32.8657C14.8111 32.8565 14.8157 32.8495 14.8273 32.8333C14.8365 32.8218 14.8435 32.8079 14.8527 32.7963C14.8597 32.7894 14.8689 32.7824 14.8759 32.7755L14.8874 32.7639L14.8944 32.7569C14.9036 32.7477 14.9129 32.7384 14.9222 32.7315C14.9314 32.7245 14.9407 32.7176 14.9499 32.713L14.9685 32.6991C14.98 32.6921 14.9916 32.6852 15.0009 32.6806C15.0124 32.6759 15.0217 32.6713 15.0333 32.6667L15.0587 32.6574C15.068 32.6528 15.0773 32.6481 15.0888 32.6458C15.1027 32.6412 15.1166 32.6389 15.1421 32.6366C15.1513 32.6343 15.1629 32.6319 15.1768 32.6273L19.7069 32.1829L19.906 32.1644L27.5958 31.4097L34.0935 30.7824C34.3273 30.7986 34.524 30.9792 34.5472 31.2176C34.5587 31.3472 34.5217 31.4722 34.4384 31.5741C34.355 31.6736 34.2393 31.7361 34.1097 31.75L20.7416 33.0602L20.6027 33.0741L19.5009 33.1806L19.2972 33.2014L19.1768 33.213L19.0911 33.2222L15.605 33.5625C15.5518 33.5694 15.5032 33.5995 15.4777 33.6458L12.487 38.8009C11.9824 39.6713 11.9824 40.7106 12.4847 41.5787C12.9893 42.4491 13.8898 42.9699 14.8967 42.9699H45.8458C46.1143 42.9699 46.3342 43.1875 46.3342 43.456C46.3342 43.7245 46.1143 43.9421 45.8458 43.9421H14.8967C13.5379 43.9421 12.3203 43.2407 11.6421 42.0648C10.9615 40.8912 10.9615 39.4884 11.6444 38.3148L14.8041 32.8657ZM17.3504 41.5787C17.4222 41.7014 17.5009 41.8148 17.5865 41.9236H16.4291C15.8296 40.7778 15.855 39.4421 16.5101 38.3148L18.8481 34.3032H19.9754L17.3527 38.8009C16.8481 39.6713 16.8481 40.7106 17.3504 41.5787ZM18.6074 34.0532L16.2208 38.1481C15.4916 39.4051 15.48 40.9028 16.1837 42.169L16.1953 42.1898C16.1999 42.1991 16.2069 42.2106 16.2115 42.2199C16.2138 42.2245 16.2161 42.2269 16.2185 42.2315C16.2185 42.2338 16.2208 42.2361 16.2231 42.2384C16.2601 42.3056 16.3018 42.3727 16.3458 42.4375C16.3643 42.4653 16.3828 42.4931 16.4013 42.5185C16.4268 42.5579 16.4546 42.5949 16.4824 42.6319C16.4847 42.6343 16.4847 42.6343 16.4847 42.6366H14.8967C14.0101 42.6366 13.2185 42.1782 12.774 41.4144C12.3319 40.6481 12.3319 39.7338 12.7763 38.9676L15.7231 33.8866L18.8851 33.5764L18.6074 34.0532ZM47.8874 42.9699C48.156 42.9699 48.3759 43.1875 48.3759 43.456C48.3759 43.7245 48.156 43.9421 47.8874 43.9421H46.5055C46.605 43.8056 46.6675 43.6389 46.6675 43.456C46.6675 43.2731 46.605 43.1065 46.5055 42.9699H47.8874ZM46.3203 45.3542C46.3296 45.3704 46.3458 45.4144 46.3134 45.4606L45.5564 46.5162L45.4592 46.6528L45.3597 46.787L44.5819 47.8704L44.4824 48.0116L44.3782 48.1551L43.6421 49.1806C43.5726 49.2801 43.4824 49.3287 43.3944 49.3449C43.3365 49.3542 43.2787 49.3519 43.2254 49.3403C43.2023 49.3356 43.1814 49.3287 43.1606 49.3218C43.1305 49.3079 43.1004 49.2894 43.0703 49.2685C42.9685 49.1944 42.8851 49.0671 42.9129 48.8866L43.0217 48.1389L43.0773 47.7593L43.0935 47.6435L43.1189 47.4699L43.1236 47.4444L43.1444 47.2963L43.3365 45.9769L43.362 45.8102L43.3851 45.6435L43.4152 45.4468C43.4268 45.3611 43.5009 45.2986 43.5865 45.2986H46.23C46.2856 45.2986 46.3134 45.338 46.3203 45.3542ZM43.3666 51.6713C42.9245 51.6713 42.5032 51.5694 42.1305 51.3889C42.5148 51.1088 42.8273 50.7454 43.0495 50.3356C43.1537 50.3565 43.2578 50.3681 43.3666 50.3681C44.2208 50.3681 44.9152 49.6759 44.9152 48.8241C44.9152 48.5926 44.862 48.375 44.7717 48.1782L45.5888 47.0394C45.9847 47.5278 46.2208 48.1481 46.2208 48.8241C46.2208 50.3935 44.9407 51.6713 43.3666 51.6713ZM41.0958 51.0509C40.6074 51.4375 39.9916 51.6713 39.3203 51.6713C37.7462 51.6713 36.4661 50.3935 36.4661 48.8241C36.4661 47.3796 37.5495 46.1829 38.9499 46.0023L38.7462 47.3912C38.1768 47.6181 37.7717 48.1736 37.7717 48.8241C37.7717 49.6759 38.4661 50.3681 39.3203 50.3681C39.7324 50.3681 40.1074 50.206 40.3828 49.9421C40.3851 49.9421 40.3851 49.9421 40.3874 49.9398C40.4314 49.8981 40.4731 49.8542 40.5124 49.8079C40.5564 49.7546 40.5958 49.6968 40.6328 49.6389C40.6328 49.6366 40.6351 49.6366 40.6351 49.6343C40.781 49.3981 40.8689 49.1227 40.8689 48.8241C40.8689 48.5926 40.8157 48.375 40.7254 48.1782L41.5425 47.0394C41.7717 47.3241 41.9476 47.6505 42.0541 48.0093C42.0773 48.0856 42.0981 48.1644 42.1143 48.2454C42.1421 48.375 42.1606 48.5069 42.1675 48.6412C42.1722 48.7014 42.1745 48.7616 42.1745 48.8241C42.1745 48.8843 42.1722 48.9444 42.1675 49.0069C42.1606 49.1412 42.1421 49.2731 42.1143 49.4028C42.0981 49.4838 42.0773 49.5602 42.0541 49.6389C41.9175 50.0926 41.6722 50.5 41.3458 50.8287H41.3435C41.3041 50.8681 41.2648 50.9074 41.2231 50.9444C41.1814 50.9815 41.1398 51.0162 41.0958 51.0509ZM39.3388 45.6435L39.3689 45.4468C39.3805 45.3611 39.4546 45.2986 39.5379 45.2986H42.1837C42.2393 45.2986 42.2671 45.338 42.274 45.3542C42.2833 45.3704 42.2995 45.4144 42.2671 45.4606L41.8643 46.0208L41.862 46.0255L41.6097 46.375V46.3773L41.5101 46.5162L41.4106 46.6528L41.3134 46.787L40.5356 47.8704L40.4731 47.9583L40.4337 48.0116L40.3319 48.1551L40.2231 48.3079L39.5958 49.1806C39.4592 49.3727 39.2509 49.375 39.1143 49.3218C38.9777 49.2662 38.8319 49.1204 38.8643 48.8866L39.0472 47.6435L39.0981 47.2963L39.2902 45.9769L39.3157 45.8102L39.3388 45.6435ZM43.7393 44.2755V44.9653H43.5865C43.3365 44.9653 43.1212 45.1505 43.0842 45.3981L43.0472 45.6597C42.8412 45.6806 42.6398 45.7199 42.4476 45.7801L42.5379 45.6528C42.6328 45.5208 42.6467 45.3472 42.5703 45.2014C42.4962 45.0556 42.3481 44.9653 42.1837 44.9653H41.9939V44.2755H43.7393ZM43.3203 49.6852C43.5495 49.6852 43.7694 49.5741 43.9129 49.375L44.5379 48.5046C44.5657 48.6065 44.5819 48.713 44.5819 48.8241C44.5819 49.4907 44.0379 50.0347 43.3666 50.0347C43.3111 50.0347 43.2555 50.0301 43.1999 50.0231C43.2462 49.912 43.2833 49.7986 43.3157 49.6852C43.318 49.6852 43.318 49.6852 43.3203 49.6852ZM40.399 49.3773C40.399 49.3796 40.399 49.3796 40.399 49.3796C40.362 49.4468 40.3203 49.5139 40.2717 49.5741C40.2717 49.5741 40.2717 49.5741 40.2694 49.5764C40.0472 49.8542 39.7046 50.0347 39.3203 50.0347C38.6513 50.0347 38.105 49.4907 38.105 48.8241C38.105 48.3866 38.3388 48.0046 38.6884 47.7917L38.5356 48.8403C38.4847 49.1829 38.6675 49.5 38.9893 49.6296C39.0842 49.6667 39.1791 49.6852 39.2717 49.6852C39.5032 49.6852 39.7231 49.5741 39.8666 49.375L40.1814 48.9352H40.1837L40.3481 48.7037H40.3504L40.4916 48.5046C40.5032 48.5509 40.5124 48.5949 40.5194 48.6412C40.5194 48.6458 40.5194 48.6481 40.5217 48.6505C40.5287 48.706 40.5356 48.7639 40.5356 48.8241C40.5356 48.8866 40.5286 48.9468 40.5194 49.0046C40.5194 49.0069 40.5194 49.0069 40.5194 49.0069C40.4986 49.1389 40.4592 49.2639 40.399 49.3773ZM42.8527 46.9884C42.7972 46.9097 42.737 46.8333 42.6745 46.7616L42.9384 46.3912L42.8527 46.9884ZM40.0263 44.2755H41.6606V44.9653H40.0263V44.2755ZM23.1722 45.3542C23.1814 45.3704 23.1976 45.4144 23.1652 45.4606L22.4083 46.5162L22.3087 46.6528L22.2115 46.7894L21.4337 47.8704L21.3319 48.0116L21.23 48.1551L20.4939 49.1806C20.4222 49.2801 20.3342 49.3264 20.2439 49.3449C20.1861 49.3542 20.1282 49.3519 20.0773 49.3403C20.0541 49.3356 20.0333 49.3287 20.0124 49.3194C19.9824 49.3079 19.9499 49.2894 19.9199 49.2685C19.8203 49.1944 19.737 49.0671 19.7624 48.8866L19.8736 48.1389L19.9268 47.7593L19.9453 47.6435L19.9708 47.4699L19.9731 47.4444L19.9962 47.2963L20.1884 45.9769L20.2115 45.8102L20.237 45.6435L20.2648 45.4468C20.2786 45.3611 20.3527 45.2986 20.4361 45.2986H23.0819C23.1374 45.2986 23.1629 45.338 23.1722 45.3542ZM20.2185 51.6713C19.7763 51.6713 19.355 51.5694 18.98 51.3889C19.3643 51.1088 19.6768 50.7454 19.9013 50.3356C20.0032 50.3565 20.1097 50.3681 20.2185 50.3681C21.0726 50.3681 21.7671 49.6759 21.7671 48.8241C21.7671 48.5926 21.7138 48.375 21.6236 48.1782L22.4407 47.0394C22.8365 47.5278 23.0726 48.1481 23.0726 48.8241C23.0726 50.3935 21.7925 51.6713 20.2185 51.6713ZM17.9453 51.0509C17.4592 51.4375 16.8411 51.6713 16.1722 51.6713C14.5981 51.6713 13.318 50.3935 13.318 48.8241C13.318 47.3796 14.4013 46.1829 15.7995 46.0023L15.5981 47.3912C15.0286 47.6181 14.6236 48.1736 14.6236 48.8241C14.6236 49.6759 15.318 50.3681 16.1722 50.3681C16.5842 50.3681 16.9569 50.206 17.2347 49.9421C17.237 49.9421 17.237 49.9421 17.237 49.9398C17.281 49.8981 17.3249 49.8542 17.3643 49.8079C17.4083 49.7546 17.4476 49.6968 17.4847 49.6389C17.4847 49.6366 17.4847 49.6366 17.487 49.6366C17.6328 49.3981 17.7208 49.1227 17.7208 48.8241C17.7208 48.5926 17.6675 48.375 17.5773 48.1782L18.3944 47.0394C18.6236 47.3241 18.7995 47.6505 18.906 48.0093C18.9291 48.0856 18.9499 48.1644 18.9661 48.2454C18.9939 48.375 19.0101 48.5069 19.0194 48.6412C19.024 48.7014 19.0263 48.7616 19.0263 48.8241C19.0263 48.8843 19.024 48.9444 19.0194 49.0069C19.0101 49.1412 18.9939 49.2731 18.9661 49.4028C18.9499 49.4815 18.9291 49.5602 18.906 49.6389C18.7694 50.0926 18.524 50.5 18.1976 50.8287C18.1953 50.8287 18.1953 50.8287 18.1953 50.8287C18.156 50.8681 18.1166 50.9074 18.0749 50.9444C18.0333 50.9815 17.9916 51.0162 17.9476 51.0509C17.9476 51.0509 17.9476 51.0509 17.9453 51.0509ZM16.1907 45.6435L16.2185 45.4468C16.23 45.3611 16.3041 45.2986 16.3898 45.2986H19.0356C19.0911 45.2986 19.1166 45.338 19.1259 45.3542C19.1351 45.3704 19.1513 45.4144 19.1189 45.4606L18.7161 46.0208L18.7115 46.0255L18.4615 46.375L18.4592 46.3773L18.3597 46.5162L18.1652 46.7894L17.3874 47.8704L17.3249 47.9583L17.2856 48.0116L17.1837 48.1551L17.0749 48.3079H17.0726L16.4476 49.1806C16.3111 49.3727 16.1027 49.375 15.9661 49.3194C15.8296 49.2662 15.6814 49.1204 15.7161 48.8866L15.899 47.6435L15.9245 47.4699L15.9476 47.2963L16.1421 45.9769L16.1652 45.8102L16.1907 45.6435ZM20.5911 44.9653H20.4361C20.1861 44.9653 19.9708 45.1505 19.9361 45.3981L19.8967 45.6597C19.6907 45.6806 19.4916 45.7199 19.2995 45.7801L19.3898 45.6528C19.4847 45.5208 19.4986 45.3472 19.4222 45.2014C19.3481 45.0556 19.1976 44.9653 19.0356 44.9653H18.8458V44.2755H20.5911V44.9653ZM20.1699 49.6852C20.4013 49.6852 20.6212 49.5741 20.7648 49.375L21.3898 48.5046C21.4175 48.6065 21.4337 48.713 21.4337 48.8241C21.4337 49.4907 20.8874 50.0347 20.2185 50.0347C20.1606 50.0347 20.1074 50.0301 20.0518 50.0231C20.0958 49.912 20.1351 49.7986 20.1675 49.6852H20.1699ZM17.2509 49.3773C17.2509 49.3796 17.2509 49.3796 17.2486 49.3796C17.2138 49.4491 17.1722 49.5139 17.1236 49.5741L17.1212 49.5764C16.899 49.8565 16.5564 50.0347 16.1722 50.0347C15.5009 50.0347 14.9569 49.4907 14.9569 48.8241C14.9569 48.3866 15.1907 48.0046 15.5402 47.7917L15.3851 48.8403C15.3365 49.1829 15.5194 49.5 15.8411 49.6296C15.9337 49.6667 16.031 49.6852 16.1236 49.6852C16.355 49.6852 16.5749 49.5741 16.7185 49.375L17.0333 48.9352L17.1999 48.7037L17.3411 48.5046C17.355 48.5509 17.3643 48.5949 17.3712 48.6412C17.3712 48.6435 17.3712 48.6481 17.3712 48.6505C17.3805 48.706 17.3851 48.7639 17.3851 48.8241C17.3851 48.8866 17.3805 48.9468 17.3712 49.0069C17.3504 49.1389 17.3087 49.2639 17.2509 49.3773ZM19.7023 46.9884C19.6467 46.9097 19.5888 46.8333 19.5263 46.7616L19.7902 46.3912L19.7023 46.9884ZM16.8782 44.2755H18.5124V44.9653H16.8782V44.2755ZM16.3689 17.3426L18.2324 24.0301L24.0773 23.7847L23.2671 17.419L16.3689 17.3426ZM18.4847 23.6852L16.8087 17.6806L22.9731 17.7477L23.6999 23.4653L18.4847 23.6852ZM31.0078 23.4931L36.105 23.2778L36.5796 17.5648L30.8851 17.5023L31.0078 23.4931ZM31.3342 23.1458L31.2254 17.8403L36.2185 17.8958L35.7972 22.9583L31.3342 23.1458ZM36.7624 23.25L41.8412 23.037L42.7416 17.6343L37.2347 17.5741L36.7624 23.25ZM42.3481 17.963L41.5564 22.7153L37.1259 22.9028L37.5425 17.9097L42.3481 17.963ZM23.9268 17.4259L24.7347 23.7569L30.355 23.5208L30.23 17.4954L23.9268 17.4259ZM29.9036 17.8241L30.0148 23.2014L25.0263 23.4097L24.3064 17.7639L29.9036 17.8241Z" fill="#19055B"/>
</g>
</svg>
