<svg width="37" height="63" viewBox="0 0 37 63" fill="none" xmlns="http://www.w3.org/2000/svg">
<mask id="mask0_503_1255" style="mask-type:luminance" maskUnits="userSpaceOnUse" x="33" y="6" width="4" height="8">
<path d="M33.1035 6.90918H36.8087V13.5159H33.1035V6.90918Z" fill="white"/>
</mask>
<g mask="url(#mask0_503_1255)">
<path d="M33.7773 12.7014V7.95281C33.7773 7.59887 34.0686 7.30762 34.4188 7.30762H35.7055C36.0558 7.30762 36.347 7.59887 36.347 7.95281V12.7014C36.347 13.0553 36.0558 13.3466 35.7055 13.3466H34.4188C34.0649 13.3466 33.7773 13.0553 33.7773 12.7014Z" fill="#CECCBE"/>
</g>
<mask id="mask1_503_1255" style="mask-type:luminance" maskUnits="userSpaceOnUse" x="33" y="5" width="4" height="10">
<path d="M33.1035 5.96582H36.8087V14.4602H33.1035V5.96582Z" fill="white"/>
</mask>
<g mask="url(#mask1_503_1255)">
<path d="M35.7055 13.7777H34.4188C33.8289 13.7777 33.3496 13.2947 33.3496 12.7011V7.95252C33.3496 7.35895 33.8289 6.87598 34.4188 6.87598H35.7055C36.2954 6.87598 36.7746 7.35895 36.7746 7.95252V12.7011C36.7746 13.2947 36.2954 13.7777 35.7055 13.7777ZM34.4188 7.73869C34.3045 7.73869 34.2049 7.83454 34.2049 7.95252V12.7011C34.2049 12.8191 34.3045 12.915 34.4188 12.915H35.7055C35.8198 12.915 35.9193 12.8191 35.9193 12.7011V7.95252C35.9193 7.83454 35.8198 7.73869 35.7055 7.73869H34.4188Z" fill="#1F212B"/>
</g>
<path d="M29.9258 62.1076H5.10264C2.75046 62.1076 0.822266 60.1646 0.822266 57.794V5.15025C0.822266 2.77595 2.75046 0.833008 5.10264 0.833008H29.9258C32.2817 0.833008 34.2062 2.77595 34.2062 5.15025V57.794C34.2062 60.1646 32.2817 62.1076 29.9258 62.1076Z" fill="#FEFDEF"/>
<mask id="mask2_503_1255" style="mask-type:luminance" maskUnits="userSpaceOnUse" x="0" y="0" width="36" height="63">
<path d="M0 0H35.9352V63H0V0Z" fill="white"/>
</mask>
<g mask="url(#mask2_503_1255)">
<path d="M29.9257 62.9707H5.10251C2.27105 62.9707 -0.0332031 60.648 -0.0332031 57.7944V5.15065C-0.0332031 2.29339 2.27105 -0.0292969 5.10251 -0.0292969H29.9257C32.7609 -0.0292969 35.0614 2.29339 35.0614 5.15065V57.7944C35.0614 60.648 32.7572 62.9707 29.9257 62.9707ZM5.10251 1.69612C3.21487 1.69612 1.68116 3.24458 1.68116 5.15065V57.7944C1.68116 59.6968 3.21487 61.2453 5.10251 61.2453H29.9257C31.817 61.2453 33.3507 59.6968 33.3507 57.7944V5.15065C33.3507 3.24458 31.817 1.69612 29.9257 1.69612H5.10251Z" fill="#1F212B"/>
</g>
<path d="M5.10352 8.60156H30.7857V51.7518H5.10352V8.60156Z" fill="#C7DFF1"/>
<path d="M4.67572 35.3524C4.43976 35.3524 4.24805 35.1607 4.24805 34.921V8.16964C4.24805 7.92999 4.43976 7.73828 4.67572 7.73828H26.9329C27.1689 7.73828 27.3606 7.92999 27.3606 8.16964C27.3606 8.40559 27.1689 8.60099 26.9329 8.60099H5.10338V34.921C5.10338 35.1607 4.91167 35.3524 4.67572 35.3524ZM30.3543 51.7513H4.67572C4.43976 51.7513 4.24805 51.5596 4.24805 51.3199V43.5518C4.24805 43.3159 4.43976 43.1205 4.67572 43.1205C4.91167 43.1205 5.10338 43.3159 5.10338 43.5518V50.8886H29.9266V15.9377C29.9266 15.6981 30.1183 15.5064 30.3543 15.5064C30.5939 15.5064 30.7856 15.6981 30.7856 15.9377V51.3199C30.7856 51.5596 30.5939 51.7513 30.3543 51.7513Z" fill="#1F212B"/>
<path d="M17.0893 53.9082C16.8054 53.9082 16.5326 53.9635 16.2708 54.0741C16.0054 54.181 15.7768 54.3396 15.574 54.5423C15.3749 54.7414 15.2201 54.9774 15.1095 55.2391C15.0026 55.5046 14.9473 55.7811 14.9473 56.065C14.9473 56.3526 15.0026 56.6291 15.1095 56.8908C15.2201 57.1563 15.3749 57.3885 15.574 57.5913C15.7768 57.7941 16.0054 57.9489 16.2708 58.0595C16.5326 58.1701 16.8054 58.2254 17.0893 58.2254C17.3732 58.2254 17.646 58.1701 17.9078 58.0595C18.1695 57.9489 18.4018 57.7941 18.6009 57.5913C18.8037 57.3885 18.9585 57.1563 19.0654 56.8908C19.1723 56.6291 19.2276 56.3526 19.2276 56.065C19.2276 55.7811 19.1723 55.5046 19.0654 55.2391C18.9585 54.9774 18.8037 54.7414 18.6009 54.5423C18.4018 54.3396 18.1695 54.181 17.9078 54.0741C17.646 53.9635 17.3732 53.9082 17.0893 53.9082Z" fill="#CECCBE"/>
<path d="M17.0891 58.6573C15.6734 58.6573 14.5194 57.496 14.5194 56.0655C14.5194 54.6387 15.6734 53.4773 17.0891 53.4773C18.5048 53.4773 19.6551 54.6387 19.6551 56.0655C19.6551 57.496 18.5048 58.6573 17.0891 58.6573ZM17.0891 54.3401C16.1453 54.3401 15.3747 55.1143 15.3747 56.0655C15.3747 57.0204 16.1453 57.7946 17.0891 57.7946C18.0329 57.7946 18.7998 57.0204 18.7998 56.0655C18.7998 55.1143 18.0329 54.3401 17.0891 54.3401ZM20.9787 5.1508H14.0512C13.8373 5.1508 13.6641 4.97383 13.6641 4.75631V4.67889C13.6641 4.46137 13.8373 4.28809 14.0512 4.28809H20.9787C21.1925 4.28809 21.3658 4.46137 21.3658 4.67889V4.75631C21.3695 4.97383 21.1925 5.1508 20.9787 5.1508Z" fill="#1F212B"/>
<path d="M11.3992 16.801H8.22483C7.68287 16.801 7.24414 16.3549 7.24414 15.8093V12.6092C7.24414 12.0672 7.68287 11.6211 8.22483 11.6211H11.3992C11.9374 11.6211 12.3798 12.0672 12.3798 12.6092V15.8093C12.3798 16.3549 11.9374 16.801 11.3992 16.801Z" fill="#A1D3A2"/>
<path d="M11.3991 17.2321H8.22476C7.44685 17.2321 6.81641 16.5943 6.81641 15.809V12.6089C6.81641 11.8273 7.44685 11.1895 8.22476 11.1895H11.3991C12.1733 11.1895 12.8075 11.8273 12.8075 12.6089V15.809C12.8075 16.5943 12.1733 17.2321 11.3991 17.2321ZM8.22476 12.0522C7.91876 12.0522 7.67174 12.3029 7.67174 12.6089V15.8127C7.67174 16.1187 7.91876 16.3694 8.22476 16.3694H11.3991C11.7014 16.3694 11.9521 16.1187 11.9521 15.8127V12.6089C11.9521 12.3029 11.7014 12.0522 11.3991 12.0522H8.22476Z" fill="#1F212B"/>
<path d="M19.1023 16.801H15.928C15.3897 16.801 14.9473 16.3549 14.9473 15.8093V12.6092C14.9473 12.0672 15.3897 11.6211 15.928 11.6211H19.1023C19.6442 11.6211 20.083 12.0672 20.083 12.6092V15.8093C20.083 16.3549 19.6442 16.801 19.1023 16.801Z" fill="#78A2D2"/>
<path d="M19.1022 17.2321H15.9279C15.1537 17.2321 14.5195 16.5943 14.5195 15.809V12.6089C14.5195 11.8273 15.1537 11.1895 15.9279 11.1895H19.1022C19.8801 11.1895 20.5106 11.8273 20.5106 12.6089V15.809C20.5106 16.5943 19.8801 17.2321 19.1022 17.2321ZM15.9279 12.0522C15.6256 12.0522 15.3749 12.3029 15.3749 12.6089V15.8127C15.3749 16.1187 15.6256 16.3694 15.9279 16.3694H19.1022C19.4082 16.3694 19.6552 16.1187 19.6552 15.8127V12.6089C19.6552 12.3029 19.4082 12.0522 19.1022 12.0522H15.9279Z" fill="#1F212B"/>
<path d="M26.8074 16.801H23.633C23.0948 16.801 22.6523 16.3549 22.6523 15.8093V12.6092C22.6523 12.0672 23.0948 11.6211 23.633 11.6211H26.8074C27.3456 11.6211 27.7881 12.0672 27.7881 12.6092V15.8093C27.7881 16.3549 27.3456 16.801 26.8074 16.801Z" fill="#FEF6AA"/>
<path d="M26.8073 17.2321H23.633C22.8551 17.2321 22.2246 16.5943 22.2246 15.809V12.6089C22.2246 11.8273 22.8551 11.1895 23.633 11.1895H26.8073C27.5852 11.1895 28.2157 11.8273 28.2157 12.6089V15.809C28.2157 16.5943 27.5815 17.2321 26.8073 17.2321ZM23.633 12.0522C23.327 12.0522 23.0799 12.3029 23.0799 12.6089V15.8127C23.0799 16.1187 23.327 16.3694 23.633 16.3694H26.8073C27.1133 16.3694 27.3603 16.1187 27.3603 15.8127V12.6089C27.3603 12.3029 27.1133 12.0522 26.8073 12.0522H23.633Z" fill="#1F212B"/>
<path d="M11.3992 24.5649H8.22483C7.68287 24.5649 7.24414 24.1225 7.24414 23.5769V20.3767C7.24414 19.8348 7.68287 19.3887 8.22483 19.3887H11.3992C11.9374 19.3887 12.3798 19.8348 12.3798 20.3767V23.5769C12.3798 24.1225 11.9374 24.5649 11.3992 24.5649Z" fill="#F69272"/>
<path d="M11.3991 24.996H8.22476C7.44685 24.996 6.81641 24.3619 6.81641 23.5766V20.3764C6.81641 19.5948 7.44685 18.957 8.22476 18.957H11.3991C12.1733 18.957 12.8075 19.5912 12.8075 20.3764V23.5766C12.8075 24.3582 12.1733 24.996 11.3991 24.996ZM8.22476 19.8197C7.91876 19.8197 7.67174 20.0704 7.67174 20.3764V23.5766C7.67174 23.8826 7.91876 24.137 8.22476 24.137H11.3991C11.7014 24.137 11.9521 23.8863 11.9521 23.5766V20.3764C11.9521 20.0704 11.7014 19.8197 11.3991 19.8197H8.22476Z" fill="#1F212B"/>
<path d="M19.1023 24.5649H15.928C15.3897 24.5649 14.9473 24.1225 14.9473 23.5769V20.3767C14.9473 19.8348 15.3897 19.3887 15.928 19.3887H19.1023C19.6442 19.3887 20.083 19.8348 20.083 20.3767V23.5769C20.083 24.1225 19.6442 24.5649 19.1023 24.5649Z" fill="#F37E98"/>
<path d="M19.1022 24.996H15.9279C15.1537 24.996 14.5195 24.3619 14.5195 23.5766V20.3764C14.5195 19.5948 15.1537 18.957 15.9279 18.957H19.1022C19.8801 18.957 20.5106 19.5912 20.5106 20.3764V23.5766C20.5106 24.3582 19.8801 24.996 19.1022 24.996ZM15.9279 19.8197C15.6256 19.8197 15.3749 20.0704 15.3749 20.3764V23.5766C15.3749 23.8826 15.6256 24.137 15.9279 24.137H19.1022C19.4082 24.137 19.6552 23.8863 19.6552 23.5766V20.3764C19.6552 20.0704 19.4082 19.8197 19.1022 19.8197H15.9279Z" fill="#1F212B"/>
<path d="M26.8074 24.5649H23.633C23.0948 24.5649 22.6523 24.1225 22.6523 23.5769V20.3767C22.6523 19.8348 23.0948 19.3887 23.633 19.3887H26.8074C27.3456 19.3887 27.7881 19.8348 27.7881 20.3767V23.5769C27.7881 24.1225 27.3456 24.5649 26.8074 24.5649Z" fill="#00A7A7"/>
<path d="M26.8076 24.9962H23.6332C22.8553 24.9962 22.2249 24.3621 22.2249 23.5768V20.3766C22.2249 19.595 22.8553 18.9572 23.6332 18.9572H26.8076C27.5855 18.9572 28.2159 19.5913 28.2159 20.3766V23.5768C28.2159 24.3584 27.5818 24.9962 26.8076 24.9962ZM23.6332 19.8199C23.3272 19.8199 23.0802 20.0706 23.0802 20.3766V23.5768C23.0802 23.8828 23.3272 24.1372 23.6332 24.1372H26.8076C27.1136 24.1372 27.3606 23.8865 27.3606 23.5768V20.3766C27.3606 20.0706 27.1136 19.8199 26.8076 19.8199H23.6332ZM30.3543 11.1891C30.1183 11.1891 29.9266 10.9974 29.9266 10.7578V8.16964C29.9266 7.92999 30.1183 7.73828 30.3543 7.73828C30.5939 7.73828 30.7856 7.92999 30.7856 8.16964V10.7578C30.7856 10.9974 30.5939 11.1891 30.3543 11.1891ZM30.3543 12.9145C30.2953 12.9145 30.2437 12.9072 30.192 12.8814C30.1404 12.8629 30.0888 12.8297 30.0556 12.7855C29.9708 12.7081 29.9266 12.5975 29.9266 12.4832C29.9266 12.3726 29.9708 12.2583 30.0556 12.1809C30.0888 12.1366 30.1404 12.1034 30.192 12.0887C30.3469 12.0187 30.546 12.0629 30.6566 12.1809C30.7414 12.2583 30.7856 12.3726 30.7856 12.4832C30.7856 12.5975 30.7414 12.7081 30.6566 12.7855C30.5792 12.874 30.4686 12.9145 30.3543 12.9145ZM4.67572 42.2578C4.43976 42.2578 4.24805 42.0661 4.24805 41.8264V40.101C4.24805 39.8613 4.43976 39.6696 4.67572 39.6696C4.91167 39.6696 5.10338 39.8613 5.10338 40.101V41.8264C5.10338 42.0661 4.91167 42.2578 4.67572 42.2578Z" fill="#1F212B"/>
</svg>
