<svg width="55" height="57" viewBox="0 0 55 57" fill="none" xmlns="http://www.w3.org/2000/svg">
<mask id="mask0_503_1288" style="mask-type:luminance" maskUnits="userSpaceOnUse" x="15" y="0" width="40" height="45">
<path d="M15.7402 0H55.0006V44.9872H15.7402V0Z" fill="white"/>
</mask>
<g mask="url(#mask0_503_1288)">
<path d="M33.813 43.7727L16.8505 33.2191C16.2371 32.8357 16.0474 32.0245 16.4308 31.407L35.4314 0.807499C35.8148 0.190021 36.6219 0.000337377 37.2394 0.383739L54.2019 10.9414C54.8154 11.3248 55.005 12.136 54.6216 12.7495L35.6211 43.353C35.2377 43.9664 34.4305 44.1561 33.813 43.7727Z" fill="#E6E7E8"/>
</g>
<path d="M33.8569 43.8007L32.9004 43.2034L53.2853 10.3721L54.2417 10.9694C54.835 11.3366 55.0166 12.1155 54.6494 12.7088L35.5923 43.3931C35.225 43.9863 34.4501 44.1679 33.8569 43.8007Z" fill="#F5CC23"/>
<path d="M25.9617 55.7909L9.56017 45.5803C8.79337 45.1 8.55525 44.087 9.03551 43.3162L14.9883 33.7271C15.4686 32.9563 16.4816 32.7182 17.2484 33.1984L33.6499 43.409C34.4207 43.8852 34.6589 44.8982 34.1786 45.6731L28.2258 55.2622C27.7455 56.033 26.7325 56.2671 25.9617 55.7909Z" fill="#E6E7E8"/>
<path d="M25.9537 55.783L25.3281 55.3955L33.0163 43.0137L33.9688 43.6029C34.5621 43.9742 34.7477 44.7571 34.3764 45.3544L28.2339 55.2502C27.7496 56.0251 26.7286 56.2673 25.9537 55.783Z" fill="#F5CC23"/>
<path d="M46.4442 10.8042C48.1432 10.0898 47.0213 9.23827 46.089 9.32706C45.3383 9.39163 44.5958 9.48042 43.8491 9.56517C43.7644 9.57728 43.7038 9.56114 43.6433 9.5006C43.5989 9.4562 43.1308 9.03648 42.5657 8.52797L42.7796 8.29793C42.929 8.1365 42.9209 7.88628 42.7595 7.73695C42.6021 7.58763 42.3478 7.5957 42.1985 7.75309L41.9765 7.99524C41.9079 7.93471 41.8433 7.87417 41.7747 7.81363L42.0048 7.57148C42.1541 7.41005 42.146 7.15983 41.9846 7.01051C41.8232 6.85714 41.5729 6.86522 41.4236 7.02665L41.1855 7.2809C40.8102 6.94593 40.5236 6.68764 40.451 6.62307C40.3097 6.49796 40.2048 6.45356 40.003 6.48181C39.9344 6.49392 39.2927 6.59482 39.0183 6.63518C39.8012 7.8217 40.5761 8.99209 41.351 10.1665C41.3267 10.1786 38.9416 10.9858 37.7591 11.3772C37.7228 11.3894 37.6582 11.3732 37.6259 11.345C37.2788 11.0342 36.9358 10.7154 36.5887 10.4046C36.5645 10.3804 36.5282 10.3522 36.4999 10.3602C36.3304 10.3925 36.1649 10.4329 36.0156 10.4692C36.4192 11.1634 36.96 12.1198 36.96 12.1198C36.96 12.1198 36.9196 13.5082 36.8954 14.2467C37.0326 14.2144 37.182 14.1821 37.3313 14.1337C37.3717 14.1216 37.4241 14.0772 37.4403 14.0328C37.6138 13.6091 37.7793 13.1813 37.9447 12.7494C37.969 12.6768 38.0053 12.6526 38.0779 12.6445C38.651 12.5678 41.129 12.2288 41.8151 12.136C41.6335 13.5485 41.4599 14.9409 41.2824 16.3494C41.6496 16.2323 41.9886 16.1193 42.3317 16.0144C42.4326 15.9861 42.485 15.9377 42.5213 15.8368C42.5738 15.6996 42.8482 15.0135 43.159 14.2386L43.6594 14.3839C43.8733 14.4485 44.0913 14.3274 44.1559 14.1135C44.2164 13.9037 44.0953 13.6817 43.8855 13.6212L43.4536 13.496C43.4899 13.4113 43.5222 13.3265 43.5545 13.2458L43.9581 13.3629C44.168 13.4234 44.3899 13.3023 44.4505 13.0925C44.515 12.8826 44.394 12.6606 44.1801 12.6001L43.8532 12.5032C44.0106 12.1077 44.1357 11.801 44.1841 11.684C44.2002 11.6396 44.2567 11.6033 44.3052 11.5871C45.0155 11.3248 45.7419 11.0947 46.4442 10.8042Z" fill="#58595B"/>
<path fill-rule="evenodd" clip-rule="evenodd" d="M42.9166 22.2331L42.1902 21.7852L32.0078 38.1826L32.7302 38.6347L42.9166 22.2331Z" fill="#58595B"/>
<path fill-rule="evenodd" clip-rule="evenodd" d="M40.9545 21.0145L40.2281 20.5625L35.7402 27.7866L36.4667 28.2386L40.9545 21.0145Z" fill="#58595B"/>
<path fill-rule="evenodd" clip-rule="evenodd" d="M31.1451 14.9081L30.4227 14.4561L22.6094 27.0397L23.3318 27.4917L31.1451 14.9081Z" fill="#58595B"/>
<path fill-rule="evenodd" clip-rule="evenodd" d="M53.7447 12.8461L52.8932 12.3174L48.373 19.598L49.2246 20.1267L53.7447 12.8461Z" fill="#24AAE1"/>
<path d="M18.5817 34.3445C18.5575 34.3445 18.5373 34.3404 18.5171 34.3243L17.71 33.8239C17.6494 33.7875 17.6333 33.7109 17.6696 33.6543C17.7059 33.5978 17.7786 33.5817 17.8391 33.618L18.6463 34.1185C18.7028 34.1548 18.7189 34.2315 18.6826 34.288C18.6584 34.3243 18.622 34.3445 18.5817 34.3445ZM20.192 35.3494C20.1718 35.3494 20.1476 35.3413 20.1314 35.3292L19.3243 34.8288C19.2637 34.7924 19.2476 34.7158 19.2839 34.6593C19.3202 34.6028 19.3929 34.5866 19.4494 34.6189L20.2566 35.1234C20.3171 35.1597 20.3332 35.2324 20.2969 35.2929C20.2727 35.3292 20.2364 35.3494 20.192 35.3494ZM21.8063 36.3543C21.7861 36.3543 21.7619 36.3462 21.7417 36.3341L20.9346 35.8337C20.8781 35.7974 20.8619 35.7207 20.8982 35.6642C20.9346 35.6077 21.0072 35.5915 21.0637 35.6238L21.8709 36.1283C21.9314 36.1646 21.9476 36.2373 21.9112 36.2978C21.887 36.3341 21.8507 36.3543 21.8063 36.3543ZM23.4206 37.3592C23.4004 37.3592 23.3762 37.3512 23.3561 37.339L22.5489 36.8386C22.4924 36.8023 22.4762 36.7256 22.5126 36.6691C22.5489 36.6126 22.6215 36.5924 22.678 36.6287L23.4852 37.1332C23.5457 37.1695 23.5619 37.2422 23.5256 37.2987C23.5013 37.339 23.461 37.3592 23.4206 37.3592ZM25.035 38.3641C25.0148 38.3641 24.9906 38.3561 24.9704 38.344L24.1632 37.8435C24.1067 37.8072 24.0906 37.7305 24.1269 37.674C24.1592 37.6175 24.2359 37.5973 24.2924 37.6337L25.0995 38.1381C25.156 38.1704 25.1762 38.2471 25.1399 38.3036C25.1157 38.344 25.0753 38.3641 25.035 38.3641ZM26.6493 39.3691C26.6291 39.3691 26.6049 39.361 26.5847 39.3489L25.7775 38.8484C25.721 38.8121 25.7049 38.7354 25.7412 38.6789C25.7735 38.6224 25.8502 38.6022 25.9067 38.6386L26.7138 39.143C26.7703 39.1753 26.7905 39.252 26.7542 39.3085C26.73 39.3489 26.6896 39.3691 26.6493 39.3691ZM28.2636 40.374C28.2434 40.374 28.2192 40.3659 28.199 40.3538L27.3919 39.8493C27.3354 39.817 27.3192 39.7403 27.3555 39.6838C27.3878 39.6273 27.4645 39.6072 27.521 39.6435L28.3282 40.1439C28.3847 40.1803 28.4049 40.2569 28.3685 40.3134C28.3443 40.3498 28.304 40.374 28.2636 40.374ZM29.8779 41.3749C29.8577 41.3749 29.8335 41.3708 29.8133 41.3587L29.0062 40.8542C28.9497 40.8219 28.9335 40.7453 28.9658 40.6888C29.0022 40.6282 29.0788 40.6121 29.1353 40.6484L29.9425 41.1488C29.999 41.1852 30.0192 41.2618 29.9829 41.3183C29.9586 41.3547 29.9183 41.3749 29.8779 41.3749ZM31.4922 42.3798C31.4721 42.3798 31.4478 42.3757 31.4277 42.3636L30.6205 41.8591C30.564 41.8228 30.5479 41.7502 30.5802 41.6937C30.6165 41.6331 30.6932 41.617 30.7497 41.6533L31.5568 42.1538C31.6133 42.1901 31.6335 42.2668 31.5972 42.3233C31.573 42.3596 31.5326 42.3798 31.4922 42.3798ZM33.1066 43.3847C33.0864 43.3847 33.0622 43.3806 33.042 43.3685L32.2348 42.8641C32.1783 42.8277 32.1622 42.7551 32.1945 42.6986C32.2308 42.6381 32.3075 42.6219 32.364 42.6582L33.1711 43.1587C33.2276 43.195 33.2478 43.2717 33.2115 43.3282C33.1873 43.3645 33.1469 43.3847 33.1066 43.3847Z" fill="#58595B"/>
<path d="M34.3279 44.1482C34.3037 44.1482 34.2835 44.1402 34.2634 44.128L33.8477 43.8698C33.7912 43.8334 33.771 43.7608 33.8073 43.7002C33.8436 43.6437 33.9203 43.6276 33.9768 43.6639L34.3925 43.9222C34.449 43.9545 34.4651 44.0312 34.4288 44.0877C34.4086 44.128 34.3683 44.1482 34.3279 44.1482Z" fill="#58595B"/>
<path fill-rule="evenodd" clip-rule="evenodd" d="M33.1184 44.7775L32.8641 44.6201L30.1602 48.9748L30.4144 49.1322L33.1184 44.7775Z" fill="#24AAE1"/>
<path fill-rule="evenodd" clip-rule="evenodd" d="M33.6751 45.1243L33.4209 44.9629L32.1133 47.0655L32.3716 47.227L33.6751 45.1243Z" fill="#24AAE1"/>
<path fill-rule="evenodd" clip-rule="evenodd" d="M32.2787 47.3763L32.0204 47.2148L30.7168 49.3215L30.9711 49.4789L32.2787 47.3763Z" fill="#24AAE1"/>
<path fill-rule="evenodd" clip-rule="evenodd" d="M30.4896 50.2496L29.6784 49.7451L26.6758 54.5841L27.487 55.0885L30.4896 50.2496Z" fill="#24AAE1"/>
<path fill-rule="evenodd" clip-rule="evenodd" d="M27.8394 42.9491L27.113 42.4971L23.4727 48.3571L24.1991 48.8091L27.8394 42.9491Z" fill="#58595B"/>
<path fill-rule="evenodd" clip-rule="evenodd" d="M25.8773 41.7264L25.1509 41.2744L19.416 50.5083L20.1425 50.9604L25.8773 41.7264Z" fill="#58595B"/>
<path fill-rule="evenodd" clip-rule="evenodd" d="M23.9164 40.5077L23.19 40.0557L17.4551 49.2856L18.1815 49.7376L23.9164 40.5077Z" fill="#58595B"/>
<path d="M39.2236 39.943L19.3836 42.2394C18.6652 42.3241 18.0114 41.8035 17.9307 41.0852L13.8021 5.29157C13.7173 4.56916 14.2339 3.9194 14.9523 3.83464L34.7963 1.54231C35.5147 1.45755 36.1645 1.97414 36.2492 2.69655L40.3779 38.4901C40.4626 39.2085 39.946 39.8623 39.2236 39.943Z" fill="#E6E7E8"/>
<path d="M39.2759 39.9387L38.154 40.0679L33.7227 1.66314L34.8446 1.53399C35.5388 1.45328 36.1643 1.94968 36.241 2.64384L40.3817 38.5383C40.4625 39.2325 39.9661 39.858 39.2759 39.9387Z" fill="#24AAE1"/>
<mask id="mask1_503_1288" style="mask-type:luminance" maskUnits="userSpaceOnUse" x="17" y="38" width="26" height="19">
<path d="M17.8066 38.7881H42.6026V56.5658H17.8066V38.7881Z" fill="white"/>
</mask>
<g mask="url(#mask1_503_1288)">
<path d="M40.5447 54.2408L21.3584 56.4564C20.4585 56.5613 19.6432 55.9156 19.5383 55.0116L18.2428 43.7961C18.1419 42.8961 18.7876 42.0809 19.6876 41.9759L38.8739 39.7562C39.7738 39.6513 40.5891 40.3011 40.694 41.2011L41.9855 52.4166C42.0904 53.3206 41.4447 54.1358 40.5447 54.2408Z" fill="#E6E7E8"/>
</g>
<path d="M40.5281 54.2414L39.8017 54.3262L38.1309 39.8417L39.2407 39.7166C39.9389 39.6358 40.5685 40.1363 40.6492 40.8304L41.9851 52.4051C42.09 53.3132 41.4362 54.1365 40.5281 54.2414Z" fill="#24AAE1"/>
<path d="M28.635 6.25995C29.5269 4.64563 28.1184 4.67791 27.4404 5.32768C26.8955 5.84426 26.3669 6.37699 25.8382 6.90971C25.7776 6.96622 25.7211 6.99447 25.6364 6.9864C25.5718 6.97832 24.9422 6.93797 24.1875 6.89357L24.2117 6.58281C24.2279 6.36084 24.0664 6.17116 23.8485 6.15098C23.6265 6.13484 23.4369 6.29627 23.4167 6.51824L23.3925 6.84111C23.3037 6.83707 23.2149 6.83303 23.1261 6.82496L23.1503 6.49403C23.1705 6.27609 23.005 6.08237 22.7871 6.06623C22.5692 6.05009 22.3754 6.21152 22.3593 6.42945L22.331 6.77653C21.8306 6.74828 21.4472 6.72407 21.3463 6.72003C21.1607 6.70792 21.0477 6.74021 20.9104 6.88954C20.862 6.93797 20.4221 7.41823 20.2324 7.62002C21.5844 8.06396 22.9162 8.49982 24.2521 8.93569C24.244 8.95991 22.8759 11.0747 22.1938 12.1199C22.1696 12.1522 22.1091 12.1764 22.0687 12.1764C21.6046 12.1482 21.1364 12.1119 20.6723 12.0836C20.64 12.0836 20.5916 12.0836 20.5755 12.1038C20.4625 12.2329 20.3575 12.3702 20.2607 12.4912C21.0073 12.7818 22.0284 13.1975 22.0284 13.1975C22.0284 13.1975 22.8597 14.3074 23.2996 14.9047C23.3844 14.7917 23.4812 14.6706 23.57 14.5455C23.5942 14.5091 23.6064 14.4405 23.5902 14.3961C23.4611 13.9562 23.3279 13.5163 23.1907 13.0805C23.1665 13.0038 23.1786 12.9634 23.227 12.911C23.6306 12.4953 25.3619 10.6872 25.8382 10.1908C26.5767 11.4056 27.3032 12.6042 28.0377 13.819C28.2516 13.4962 28.4493 13.1975 28.6552 12.9029C28.7117 12.8181 28.7238 12.7455 28.6915 12.6446C28.6471 12.5033 28.4372 11.8011 28.1951 10.998L28.6834 10.8002C28.8852 10.7155 28.9821 10.4854 28.9013 10.2796C28.8166 10.0778 28.5865 9.97693 28.3807 10.0617L27.9691 10.2312C27.9408 10.1424 27.9166 10.0576 27.8924 9.97289L28.2798 9.81146C28.4857 9.73074 28.5825 9.49667 28.4978 9.29488C28.417 9.08905 28.183 8.99219 27.9812 9.07694L27.6623 9.20609C27.5413 8.79847 27.4484 8.47964 27.4121 8.35857C27.4 8.31418 27.4202 8.2496 27.4484 8.20521C27.844 7.55544 28.2677 6.92586 28.635 6.25995Z" fill="#58595B"/>
<path fill-rule="evenodd" clip-rule="evenodd" d="M32.9725 17.4102L32.125 17.507L34.3407 36.6933L35.1882 36.5924L32.9725 17.4102Z" fill="#58595B"/>
<path fill-rule="evenodd" clip-rule="evenodd" d="M30.6796 17.6729L29.832 17.7737L30.8047 26.2247L31.6522 26.1279L30.6796 17.6729Z" fill="#58595B"/>
<path fill-rule="evenodd" clip-rule="evenodd" d="M26.0917 18.2061L25.2441 18.3029L26.6486 30.483L27.4961 30.3821L26.0917 18.2061Z" fill="#58595B"/>
<path fill-rule="evenodd" clip-rule="evenodd" d="M23.7948 18.4717L22.9473 18.5685L25.1589 37.7507L26.0064 37.6539L23.7948 18.4717Z" fill="#58595B"/>
<path fill-rule="evenodd" clip-rule="evenodd" d="M21.5019 18.7344L20.6504 18.8353L22.866 38.0175L23.7136 37.9206L21.5019 18.7344Z" fill="#58595B"/>
<path fill-rule="evenodd" clip-rule="evenodd" d="M19.2069 19.001L18.3594 19.0978L20.0585 33.8164L20.906 33.7196L19.2069 19.001Z" fill="#58595B"/>
<path fill-rule="evenodd" clip-rule="evenodd" d="M35.6238 3.31738L34.627 3.43039L35.6077 11.9459L36.6045 11.8289L35.6238 3.31738Z" fill="#F5CC23"/>
<path d="M37.4117 40.2172C37.3471 40.2172 37.2946 40.1728 37.2906 40.1083C37.2825 40.0437 37.3269 39.9791 37.3955 39.9751L38.3399 39.8661C38.4085 39.858 38.469 39.9065 38.4771 39.971C38.4812 40.0397 38.4368 40.1002 38.3681 40.1083L37.4238 40.2172C37.4197 40.2172 37.4157 40.2172 37.4117 40.2172ZM35.5229 40.4352C35.4624 40.4352 35.4059 40.3908 35.4018 40.3262C35.3938 40.2616 35.4422 40.2011 35.5068 40.193L36.4511 40.084C36.5197 40.076 36.5803 40.1244 36.5884 40.189C36.5964 40.2576 36.548 40.3181 36.4794 40.3262L35.535 40.4352C35.531 40.4352 35.5269 40.4352 35.5229 40.4352ZM33.6341 40.6531C33.5736 40.6531 33.5211 40.6087 33.5131 40.5441C33.505 40.4796 33.5534 40.419 33.618 40.4109L34.5624 40.302C34.631 40.2939 34.6915 40.3423 34.6996 40.4069C34.7077 40.4755 34.6592 40.5361 34.5906 40.5441L33.6463 40.6531C33.6422 40.6531 33.6382 40.6531 33.6341 40.6531ZM31.7454 40.871C31.6849 40.871 31.6324 40.8266 31.6243 40.7621C31.6162 40.6975 31.6647 40.637 31.7333 40.6289L32.6777 40.5199C32.7422 40.5118 32.8028 40.5603 32.8108 40.6248C32.8189 40.6935 32.7705 40.754 32.7019 40.7621L31.7615 40.871C31.7535 40.871 31.7494 40.871 31.7454 40.871ZM29.8566 41.089C29.7961 41.089 29.7436 41.0446 29.7356 40.98C29.7275 40.9154 29.7759 40.8549 29.8445 40.8468L30.7889 40.7378C30.8535 40.7298 30.914 40.7782 30.9221 40.8428C30.9302 40.9114 30.8817 40.9719 30.8172 40.98L29.8728 41.089C29.8687 41.089 29.8607 41.089 29.8566 41.089ZM27.9679 41.3069C27.9073 41.3069 27.8549 41.2625 27.8468 41.202C27.8428 41.1334 27.8872 41.0728 27.9558 41.0647L28.9001 40.9558C28.9688 40.9477 29.0293 40.9961 29.0333 41.0647C29.0414 41.1293 28.993 41.1899 28.9284 41.1979L27.984 41.3069C27.98 41.3069 27.9759 41.3069 27.9679 41.3069ZM26.0831 41.5248C26.0186 41.5248 25.9661 41.4804 25.9621 41.4199C25.954 41.3513 26.0024 41.2908 26.067 41.2827L27.0114 41.1737C27.08 41.1656 27.1405 41.2141 27.1486 41.2827C27.1567 41.3473 27.1082 41.4078 27.0396 41.4159L26.0953 41.5248C26.0912 41.5248 26.0872 41.5248 26.0831 41.5248ZM24.1944 41.7468C24.1339 41.7468 24.0814 41.6984 24.0733 41.6378C24.0652 41.5692 24.1137 41.5087 24.1782 41.5006L25.1226 41.3917C25.1912 41.3836 25.2518 41.432 25.2598 41.5006C25.2679 41.5652 25.2195 41.6257 25.1509 41.6338L24.2065 41.7428C24.2025 41.7428 24.1984 41.7468 24.1944 41.7468ZM22.3056 41.9647C22.2451 41.9647 22.1926 41.9163 22.1846 41.8558C22.1765 41.7872 22.2249 41.7266 22.2935 41.7186L23.2339 41.6096C23.3025 41.6015 23.363 41.6499 23.3711 41.7186C23.3792 41.7831 23.3307 41.8437 23.2621 41.8517L22.3218 41.9607C22.3137 41.9647 22.3097 41.9647 22.3056 41.9647ZM20.4169 42.1827C20.3563 42.1827 20.3039 42.1342 20.2958 42.0737C20.2877 42.0051 20.3362 41.9446 20.4048 41.9365L21.3491 41.8275C21.4137 41.8194 21.4743 41.8679 21.4823 41.9365C21.4904 42.0051 21.442 42.0656 21.3774 42.0697L20.433 42.1827C20.429 42.1827 20.4209 42.1827 20.4169 42.1827Z" fill="#58595B"/>
<path d="M39.2958 39.9987C39.2352 39.9987 39.1828 39.9544 39.1747 39.8898C39.1666 39.8212 39.2151 39.7606 39.2837 39.7566L39.768 39.7001C39.8366 39.692 39.8971 39.7405 39.9052 39.805C39.9133 39.8736 39.8648 39.9342 39.7962 39.9422L39.3119 39.9987C39.3079 39.9987 39.2998 39.9987 39.2958 39.9987Z" fill="#58595B"/>
<path fill-rule="evenodd" clip-rule="evenodd" d="M39.3045 41.1611L39.0059 41.1975L39.5951 46.2906L39.8937 46.2543L39.3045 41.1611Z" fill="#F5CC23"/>
<path fill-rule="evenodd" clip-rule="evenodd" d="M39.9549 41.0889L39.6562 41.1212L39.9428 43.583L40.2414 43.5467L39.9549 41.0889Z" fill="#F5CC23"/>
<path fill-rule="evenodd" clip-rule="evenodd" d="M40.2615 43.7197L39.9629 43.756L40.2454 46.2139L40.544 46.1816L40.2615 43.7197Z" fill="#F5CC23"/>
<path fill-rule="evenodd" clip-rule="evenodd" d="M40.6478 47.0859L39.6953 47.1949L40.3491 52.8531L41.3016 52.7441L40.6478 47.0859Z" fill="#F5CC23"/>
<path fill-rule="evenodd" clip-rule="evenodd" d="M34.0331 43.0176L33.1855 43.1144L33.9766 49.9713L34.8241 49.8744L34.0331 43.0176Z" fill="#58595B"/>
<path fill-rule="evenodd" clip-rule="evenodd" d="M31.7381 43.2842L30.8906 43.381L32.1377 54.1809L32.9852 54.084L31.7381 43.2842Z" fill="#58595B"/>
<path fill-rule="evenodd" clip-rule="evenodd" d="M29.4453 43.5508L28.5938 43.6476L29.8408 54.4475L30.6883 54.3466L29.4453 43.5508Z" fill="#58595B"/>
<path fill-rule="evenodd" clip-rule="evenodd" d="M27.1483 43.8125L26.3008 43.9134L27.2573 52.1989L28.1048 52.098L27.1483 43.8125Z" fill="#58595B"/>
<mask id="mask2_503_1288" style="mask-type:luminance" maskUnits="userSpaceOnUse" x="0" y="13" width="34" height="41">
<path d="M0 13.9922H33.3035V53.2525H0V13.9922Z" fill="white"/>
</mask>
<g mask="url(#mask2_503_1288)">
<path d="M27.2617 52.688L1.39217 50.2867C0.589047 50.214 -0.000182681 49.4997 0.0724624 48.6966L3.13161 15.6392C3.20829 14.8361 3.91859 14.2469 4.72171 14.3195L30.5912 16.7168C32.028 16.85 33.0854 18.1253 32.9522 19.5661L30.1069 50.323C29.9738 51.7597 28.6985 52.8211 27.2617 52.688Z" fill="#1C355B"/>
</g>
<path d="M8.41884 18.916L9.74258 19.0613C10.1663 19.1097 10.3641 19.2752 10.3318 19.5537L10.2511 20.2882C10.2188 20.5707 9.9928 20.6877 9.56501 20.6393L8.95964 20.5707L8.86681 21.4182L8.14844 21.3375L8.41884 18.916ZM9.53676 20.1348L9.60133 19.5496C9.6094 19.4851 9.56904 19.4487 9.48025 19.4366L9.09282 19.3963L9.00403 20.1712L9.3955 20.2155C9.48025 20.2236 9.52868 20.1994 9.53676 20.1348Z" fill="#F5CC23"/>
<path d="M12.0224 21.7696L11.9578 21.3216L11.2273 21.2369L11.0659 21.6646L10.3516 21.5839L11.3524 19.2432L12.2726 19.3441L12.7488 21.8503L12.0224 21.7696ZM11.3726 20.8535L11.8973 20.91L11.748 19.8566L11.3726 20.8535Z" fill="#F5CC23"/>
<path d="M14.2737 21.5187L14.3221 21.0829C14.3261 21.0506 14.318 21.0264 14.2979 21.0102C14.2777 20.9941 14.2454 20.982 14.1929 20.9739L13.749 20.9255C13.3494 20.8811 13.1678 20.7156 13.2001 20.4331L13.2607 19.8802C13.2929 19.6017 13.519 19.4847 13.9467 19.5331L14.5642 19.6017C14.988 19.6501 15.1857 19.8116 15.1535 20.09L15.1171 20.4089L14.3947 20.3282L14.423 20.086C14.427 20.0255 14.3867 19.9851 14.2938 19.977L14.1243 19.9569C14.0315 19.9488 13.9831 19.973 13.975 20.0376L13.9306 20.4654C13.9266 20.4977 13.9306 20.5219 13.9508 20.538C13.971 20.5542 14.0033 20.5663 14.0557 20.5703L14.4916 20.6187C14.7055 20.643 14.8588 20.6954 14.9436 20.7761C15.0324 20.8568 15.0647 20.9658 15.0526 21.103L14.988 21.6721C14.9557 21.9546 14.7257 22.0716 14.3019 22.0232L13.6925 21.9546C13.2607 21.9102 13.0629 21.7447 13.0952 21.4622L13.1315 21.1515L13.8539 21.2322L13.8257 21.4703C13.8176 21.5349 13.862 21.5712 13.9508 21.5793L14.1243 21.5994C14.2171 21.6115 14.2656 21.5833 14.2737 21.5187Z" fill="#F5CC23"/>
<path d="M16.6115 21.7814L16.66 21.3456C16.664 21.3092 16.6559 21.285 16.6358 21.2689C16.6196 21.2527 16.5833 21.2447 16.5349 21.2366L16.0869 21.1882C15.6914 21.1438 15.5057 20.9783 15.538 20.6958L15.5986 20.1429C15.6308 19.8644 15.8609 19.7474 16.2846 19.7958L16.9021 19.8644C17.3259 19.9128 17.5236 20.0743 17.4913 20.3527L17.455 20.6716L16.7326 20.5909L16.7609 20.3487C16.7689 20.2841 16.7245 20.2478 16.6358 20.2397L16.4622 20.2196C16.3694 20.2075 16.321 20.2357 16.3129 20.3003L16.2685 20.724C16.2645 20.7604 16.2725 20.7846 16.2887 20.8007C16.3089 20.8169 16.3411 20.8249 16.3936 20.833L16.8295 20.8814C17.0434 20.9056 17.1967 20.9581 17.2815 21.0388C17.3703 21.1195 17.4066 21.2285 17.3905 21.3657L17.3259 21.9348C17.2936 22.2173 17.0676 22.3343 16.6398 22.2859L16.0304 22.2173C15.5986 22.1689 15.4008 22.0074 15.4331 21.7249L15.4694 21.4101L16.1918 21.4908L16.1636 21.733C16.1595 21.7976 16.1999 21.8339 16.2927 21.842L16.4622 21.8621C16.555 21.8702 16.6035 21.846 16.6115 21.7814Z" fill="#F5CC23"/>
<path d="M18.0438 19.9893L19.3716 20.1386C19.7954 20.187 19.9931 20.3484 19.9608 20.631L19.8801 21.3655C19.8478 21.648 19.6178 21.765 19.194 21.7166L18.5887 21.648L18.4918 22.4955L17.7734 22.4148L18.0438 19.9893ZM19.1618 21.2121L19.2304 20.6269C19.2344 20.5623 19.194 20.526 19.1093 20.5139L18.7178 20.4695L18.6331 21.2484L19.0205 21.2928C19.1093 21.3009 19.1577 21.2767 19.1618 21.2121Z" fill="#F5CC23"/>
<path d="M21.0754 20.3287L21.7534 20.4054C22.1772 20.4538 22.375 20.6193 22.3427 20.8978L22.1691 22.4758C22.1368 22.7583 21.9068 22.8753 21.483 22.8269L20.805 22.7542C20.3772 22.7058 20.1795 22.5403 20.2077 22.2578L20.3853 20.6758C20.4176 20.3973 20.6476 20.2843 21.0754 20.3287ZM21.4508 22.3224L21.6122 20.8937C21.6203 20.8291 21.5799 20.7928 21.4911 20.7807L21.249 20.7565C21.1561 20.7444 21.1077 20.7726 21.0996 20.8332L20.9422 22.2659C20.9342 22.3305 20.9745 22.3668 21.0674 22.3789L21.3095 22.4031C21.3983 22.4152 21.4467 22.387 21.4508 22.3224Z" fill="#F5CC23"/>
<path d="M23.4755 22.1322L23.3746 23.0403L22.6562 22.9596L22.9266 20.5381L24.2504 20.6874C24.6742 20.7318 24.8719 20.8973 24.8437 21.1757L24.767 21.8538C24.7428 22.0757 24.5894 22.1968 24.315 22.2129L24.7791 23.1977L24.0042 23.1089L23.6006 22.1484L23.4755 22.1322ZM23.6006 21.0183L23.5159 21.7488L23.9074 21.7932C23.9558 21.7973 23.9881 21.7932 24.0123 21.7811C24.0325 21.769 24.0446 21.7488 24.0486 21.7165L24.1091 21.1717C24.1172 21.1071 24.0769 21.0708 23.9881 21.0627L23.6006 21.0183Z" fill="#F5CC23"/>
<path d="M27.0996 21.0028L27.0552 21.4064L26.4619 21.3378L26.2359 23.3597L25.5135 23.279L25.7395 21.2571L25.1543 21.1925L25.1987 20.793L27.0996 21.0028Z" fill="#F5CC23"/>
<path d="M16.9666 33.3395C16.9424 33.3395 16.9222 33.3354 16.902 33.3193L16.4863 33.065C16.4298 33.0287 16.4097 32.952 16.446 32.8955C16.4823 32.839 16.559 32.8188 16.6155 32.8552L17.0312 33.1135C17.0877 33.1498 17.1038 33.2265 17.0675 33.283C17.0473 33.3193 17.007 33.3395 16.9666 33.3395Z" fill="#58595B"/>
<path d="M15.9499 28.1261C15.7724 28.1261 15.5948 28.1342 15.4172 28.1463C13.1087 28.3118 10.9657 29.5629 9.6783 31.496C8.98817 32.5332 8.56441 33.74 8.44737 34.983C8.16487 38.0421 9.73883 40.9439 12.4549 42.3725C13.3267 42.8286 14.271 43.1111 15.2639 43.1999C16.5876 43.325 17.9194 43.095 19.1181 42.5421C21.5557 41.412 23.2225 39.0511 23.4727 36.3794C23.7713 33.1507 21.9875 30.1037 19.0373 28.784L19.0212 28.7759C18.7185 28.6427 18.4077 28.5257 18.0889 28.4329C17.7499 28.332 17.3948 28.2553 17.0396 28.2069C16.9105 28.1867 16.7813 28.1705 16.6562 28.1625C16.523 28.1463 16.3898 28.1382 16.2567 28.1342C16.1558 28.1302 16.0549 28.1261 15.9499 28.1261ZM15.962 43.6721C15.7159 43.6721 15.4697 43.664 15.2235 43.6398C14.1742 43.5429 13.1733 43.2483 12.2491 42.76C10.8648 42.0335 9.7348 40.9237 8.97203 39.5515C8.19312 38.143 7.86218 36.5529 8.01151 34.9426C8.13258 33.6269 8.58055 32.3476 9.31104 31.2539C9.97694 30.253 10.8769 29.4015 11.9141 28.7921C12.9675 28.1705 14.1661 27.7952 15.3849 27.7064C15.6795 27.6862 15.9782 27.6822 16.2728 27.6943C16.4141 27.6983 16.5553 27.7105 16.6966 27.7226C16.8297 27.7347 16.967 27.7508 17.1001 27.771C17.4795 27.8235 17.8508 27.9042 18.214 28.0131C18.5369 28.106 18.8598 28.223 19.1705 28.3602L19.2028 28.3764C20.7162 29.0463 21.9633 30.1602 22.8189 31.5889C23.6906 33.0498 24.066 34.7207 23.9086 36.4197C23.7754 37.8403 23.2709 39.2004 22.4395 40.3506C21.6364 41.4685 20.5508 42.3645 19.3037 42.9416C18.2584 43.4259 17.1163 43.6721 15.962 43.6721Z" fill="#F5CC23"/>
<path d="M16.2754 32.371C16.2149 32.3065 16.1221 32.2621 16.0333 32.2823C15.9001 32.3145 15.8476 32.4679 15.8154 32.5971C15.7669 32.7948 15.7185 33.0087 15.8073 33.1903C15.8719 33.3275 16.0131 33.4526 15.9808 33.602C15.9687 33.6665 15.9243 33.719 15.892 33.7795C15.8597 33.8401 15.8476 33.9208 15.892 33.9692C15.9405 34.0257 16.0373 34.0096 16.0979 33.9652C16.1584 33.9208 16.2028 33.8562 16.2633 33.8118C16.3198 33.7755 16.3925 33.7594 16.453 33.7795C16.5176 33.7957 16.5701 33.8562 16.5781 33.9208C16.5822 33.9854 16.5297 34.054 16.4651 34.062C16.4086 34.0661 16.3481 34.0298 16.2997 34.0499C16.227 34.0822 16.2351 34.1831 16.2553 34.2598C16.2835 34.3647 16.3158 34.4777 16.3925 34.5625C16.4692 34.6432 16.6023 34.6795 16.6952 34.615C16.7355 34.5867 16.7678 34.5342 16.8162 34.5302C16.8889 34.5221 16.9333 34.6271 16.8929 34.6916C16.8566 34.7562 16.7759 34.7764 16.7032 34.7804C16.6306 34.7804 16.5539 34.7683 16.4813 34.7885C16.4127 34.8046 16.344 34.8692 16.3521 34.9419C16.3602 35.0064 16.4207 35.0468 16.4772 35.071C16.5378 35.0952 16.6023 35.1114 16.6508 35.1517C16.7517 35.2405 16.7315 35.414 16.8283 35.5069C16.9292 35.6078 17.1189 35.5553 17.1996 35.4342C17.2804 35.3172 17.2844 35.1598 17.2723 35.0185C17.2481 34.7239 17.1714 34.4374 17.0987 34.1549C17.0543 33.9773 17.0059 33.7957 16.8889 33.6585C16.7839 33.5293 16.6306 33.4486 16.4934 33.3517C16.4127 33.2912 16.3319 33.2186 16.2795 33.1338C16.2068 33.0127 16.2391 32.9885 16.3077 32.8917C16.4167 32.7383 16.4046 32.5083 16.2754 32.371Z" fill="#F5CC23"/>
<path d="M15.4175 34.4298C15.3731 34.4621 15.3288 34.4904 15.2965 34.5307C15.2642 34.5751 15.248 34.6356 15.2763 34.68C15.3045 34.7325 15.3772 34.7487 15.4337 34.7285C15.4902 34.7123 15.5346 34.6679 15.5749 34.6235C15.6516 34.5348 15.7202 34.4419 15.7767 34.341C15.8252 34.2522 15.8292 34.0464 15.6879 34.1473C15.587 34.224 15.5225 34.3531 15.4175 34.4298Z" fill="#F5CC23"/>
<path d="M15.1388 35.0394C15.159 35.0072 15.1832 34.9749 15.2195 34.9749C15.2639 34.9708 15.2962 35.0152 15.3204 35.0515C15.393 35.1726 15.4657 35.2897 15.5383 35.4107C15.5747 35.4713 15.611 35.5439 15.5868 35.6125C15.5464 35.7255 15.3688 35.7296 15.3083 35.8345C15.2599 35.9192 15.3123 36.0242 15.3729 36.1049C15.4294 36.1816 15.498 36.2704 15.4818 36.3672C15.4657 36.4479 15.393 36.5085 15.3365 36.565C15.2437 36.6618 15.1751 36.7748 15.1065 36.8878C15.0258 37.0251 14.9451 37.1623 14.8805 37.3076C14.8522 37.3681 14.828 37.4286 14.7836 37.4851C14.7433 37.5376 14.6827 37.578 14.6141 37.582C14.4446 37.586 14.3599 37.352 14.1944 37.3156C14.0774 37.2874 13.9603 37.3641 13.8433 37.3358C13.7182 37.3076 13.6576 37.1663 13.6133 37.0452C13.5568 36.8919 13.5043 36.7385 13.472 36.5811C13.4437 36.456 13.4316 36.3269 13.4316 36.1977C13.4316 36.1049 13.4639 35.9919 13.5527 35.9798C13.6254 35.9757 13.6778 36.0403 13.7424 36.0645C13.8433 36.1049 13.9523 36.0524 14.0451 35.9959C14.2711 35.8627 14.489 35.7053 14.6948 35.5399C14.8765 35.3865 14.9975 35.2291 15.1388 35.0394Z" fill="#F5CC23"/>
<path d="M10.72 34.886C10.6918 34.8699 10.6595 34.8578 10.6272 34.8659C10.5909 34.878 10.5707 34.9224 10.5747 34.9587C10.5788 34.999 10.5989 35.0354 10.6191 35.0676C10.9057 35.5318 11.1882 35.9959 11.4747 36.456C11.6119 36.686 11.7532 36.912 11.8944 37.138L12.1769 37.6021C12.2173 37.6627 12.2536 37.7232 12.3061 37.7716C12.3626 37.816 12.4352 37.8443 12.5038 37.8281C12.5684 37.812 12.6209 37.7555 12.6491 37.695C12.6774 37.6344 12.6855 37.5658 12.6935 37.4972C12.7097 37.364 12.7258 37.2228 12.6653 37.1017C12.6088 36.9887 12.4917 36.916 12.4151 36.8151C12.3061 36.6779 12.2738 36.5004 12.1931 36.347C12.1285 36.2138 12.0276 36.1008 11.9267 35.9878C11.737 35.7739 11.5474 35.56 11.3577 35.3461C11.277 35.2533 11.2003 35.1403 11.0994 35.0757C10.9783 35.0031 10.8451 34.9466 10.72 34.886Z" fill="#F5CC23"/>
<path d="M12.7603 37.864C12.6675 37.8963 12.5989 38.0053 12.6311 38.0981C12.6634 38.1869 12.7603 38.2273 12.8491 38.2596C13.1114 38.3564 13.3737 38.4533 13.6361 38.5501C13.9387 38.6591 14.2495 38.7721 14.5724 38.7761C14.6168 38.7761 14.6612 38.7761 14.7015 38.756C14.7419 38.7358 14.7742 38.6954 14.7701 38.651C14.762 38.5905 14.6934 38.5582 14.6369 38.538C14.2616 38.4048 13.8903 38.2676 13.5109 38.1546C13.402 38.1223 13.2849 38.1102 13.1921 38.0457C13.0589 37.9528 12.9459 37.7995 12.7603 37.864Z" fill="#F5CC23"/>
<path d="M16.34 36.4801C16.2633 36.4398 16.1826 36.4034 16.0938 36.3994C15.9727 36.3994 15.8597 36.4721 15.7871 36.5689C15.7144 36.6658 15.6741 36.7828 15.6337 36.8999C15.5772 37.0653 15.5207 37.2308 15.4602 37.3963C15.4481 37.4326 15.4359 37.4729 15.444 37.5093C15.4602 37.5658 15.5247 37.598 15.553 37.6465C15.5853 37.707 15.5732 37.7797 15.549 37.8442C15.5288 37.9088 15.5005 37.9774 15.5126 38.042C15.5247 38.1106 15.5974 38.1711 15.6579 38.1429C15.7104 38.1187 15.7225 38.0501 15.7265 37.9936C15.7386 37.8604 15.7467 37.7232 15.7588 37.5859C15.8839 37.7151 16.0131 37.8442 16.1382 37.9734C16.2229 37.9209 16.2391 37.8039 16.2108 37.707C16.1826 37.6142 16.122 37.5294 16.0938 37.4366C16.0615 37.3438 16.0736 37.2227 16.1584 37.1703C16.1947 37.1501 16.235 37.142 16.2754 37.1299C16.3117 37.1138 16.3521 37.0855 16.3561 37.0451C16.3642 36.9886 16.2996 36.9442 16.2431 36.9483C16.1866 36.9483 16.1341 36.9846 16.0857 37.0129C16.0373 37.0411 15.9808 37.0653 15.9243 37.0532C15.8436 37.029 15.8072 36.92 15.8436 36.8434C15.8799 36.7667 15.9687 36.7223 16.0534 36.7142C16.1382 36.7061 16.2189 36.7263 16.3036 36.7465C16.3884 36.7667 16.4732 36.7828 16.5579 36.7667C16.6144 36.7546 16.9211 36.5366 16.8122 36.468C16.7879 36.4519 16.6588 36.5447 16.6265 36.5487C16.5256 36.573 16.4247 36.5245 16.34 36.4801Z" fill="#F5CC23"/>
<path d="M21.3445 39.761C21.2113 39.5754 21.0741 39.3978 20.9328 39.2202C20.844 39.1113 20.727 38.9942 20.5898 39.0185C20.4041 39.0548 20.3517 39.3333 20.166 39.3817C20.0328 39.418 19.9037 39.3131 19.8028 39.2122C19.7019 39.1153 19.5728 39.0064 19.4396 39.0427C19.3831 39.0548 19.3347 39.0951 19.2782 39.1032C19.2217 39.1153 19.145 39.075 19.1571 39.0185C19.1692 38.97 19.2217 38.9539 19.266 38.9337C19.3871 38.8812 19.4678 38.7521 19.4638 38.6189C19.4598 38.4898 19.3669 38.3647 19.2418 38.3243C19.1046 38.2759 18.9674 38.179 18.8302 38.1265C18.6647 38.066 18.4831 37.957 18.3822 37.8118C18.3257 37.731 18.2853 37.6422 18.245 37.5535C18.1925 37.4364 18.1401 37.3234 18.0876 37.2064C18.0593 37.1499 18.0351 37.0853 18.0634 37.0288C18.1037 36.94 18.2329 36.9481 18.3297 36.9763C18.4266 37.0046 18.5275 37.0328 18.6082 37.0934C18.693 37.1539 18.7575 37.2467 18.7616 37.3476C18.7616 37.4324 18.7252 37.5091 18.7091 37.5898C18.693 37.6665 18.7131 37.7674 18.7858 37.7996C18.8544 37.8319 18.9351 37.7916 18.9835 37.7351C19.036 37.6826 19.0723 37.614 19.1288 37.5656C19.258 37.4526 19.4557 37.4849 19.6212 37.5373C19.8351 37.6059 20.0409 37.7028 20.2387 37.8158C20.6665 38.062 21.0499 38.3848 21.3647 38.7602C21.401 38.8046 21.4373 38.8651 21.4091 38.9135C21.3929 38.9337 21.3727 38.9458 21.3526 38.962C21.2839 39.0144 21.2759 39.1234 21.3122 39.2041C21.3445 39.2889 21.4131 39.3494 21.4817 39.4059C21.5503 39.4664 21.6189 39.5229 21.6593 39.6037C21.6916 39.6642 21.7037 39.7328 21.6795 39.7974C21.6593 39.8579 21.5947 39.9063 21.5301 39.9063C21.4656 39.9023 21.3324 39.8256 21.3445 39.761Z" fill="#F5CC23"/>
<path d="M17.3665 36.6617C17.3503 36.7464 17.3382 36.8352 17.3261 36.92C17.3221 36.9523 17.3221 36.9926 17.3503 37.0047C17.3786 37.0168 17.4109 36.9926 17.419 36.9603C17.427 36.9321 17.419 36.9038 17.423 36.8715C17.427 36.8433 17.4432 36.811 17.4714 36.807C17.5037 36.8029 17.5239 36.8312 17.5441 36.8554C17.5602 36.8796 17.5885 36.9038 17.6167 36.8958C17.645 36.8877 17.653 36.8514 17.645 36.8271C17.6369 36.7989 17.6207 36.7787 17.6006 36.7585C17.5844 36.7384 17.5683 36.7101 17.5683 36.6859C17.5723 36.6132 17.6651 36.585 17.6853 36.5204C17.7015 36.4599 17.6732 36.3872 17.6167 36.359C17.4432 36.2702 17.3826 36.5487 17.3665 36.6617Z" fill="#F5CC23"/>
<path d="M15.1252 38.6274C15.1817 38.6314 15.2302 38.6597 15.2786 38.6879C15.323 38.7081 15.3674 38.7323 15.4077 38.7565C15.4199 38.7646 15.432 38.7686 15.44 38.7807C15.4441 38.8009 15.436 38.8211 15.4239 38.8292C15.4077 38.8413 15.3916 38.8453 15.3714 38.8493C15.323 38.8615 15.2746 38.8695 15.2221 38.8816C15.1737 38.8937 15.1212 38.9018 15.0687 38.8937C14.8629 38.8655 14.9436 38.6153 15.1252 38.6274Z" fill="#F5CC23"/>
<path d="M14.7957 38.3887C14.8239 38.4008 14.8522 38.425 14.8441 38.4533C14.836 38.4856 14.7957 38.4936 14.7634 38.4896C14.7029 38.4896 14.5132 38.4856 14.5495 38.3847C14.5818 38.2878 14.7432 38.3605 14.7957 38.3887Z" fill="#F5CC23"/>
<path d="M15.809 38.7361C15.8534 38.728 15.8978 38.7401 15.9381 38.7482C16.0431 38.7683 16.148 38.7926 16.2529 38.8127C16.2852 38.8208 16.3175 38.8289 16.3377 38.8571C16.3578 38.8894 16.3417 38.9379 16.3094 38.9621C16.2771 38.9863 16.2368 38.9903 16.1964 38.9944C16.0511 39.0024 15.9099 38.9863 15.7727 38.9419C15.6153 38.8935 15.6596 38.7562 15.809 38.7361Z" fill="#F5CC23"/>
<path d="M15.3284 39.0181C15.3002 39.0585 15.3365 39.115 15.3728 39.1513C15.3769 39.1553 15.3809 39.1594 15.3849 39.1634C15.4334 39.2078 15.4899 39.2482 15.5464 39.2845C15.6796 39.3652 15.7119 39.2522 15.6473 39.1553C15.6069 39.0908 15.4051 38.9051 15.3284 39.0181Z" fill="#F5CC23"/>
<path d="M16.5396 38.9981C16.4226 39.1232 16.2732 39.212 16.1078 39.2604C16.0835 39.2685 16.0553 39.2725 16.0311 39.2887C16.0069 39.3088 15.9907 39.3371 15.9948 39.3654C16.0028 39.3936 16.0392 39.4138 16.0714 39.4138C16.0997 39.4138 16.132 39.3976 16.1602 39.3815C16.3943 39.2685 16.6243 39.1515 16.8584 39.0344C16.9593 38.986 17.1732 38.7802 16.9634 38.7156C16.7898 38.6591 16.6365 38.8972 16.5396 38.9981Z" fill="#F5CC23"/>
<path d="M17.4062 38.8283C17.4224 38.9009 17.4991 38.9332 17.5717 38.9453C17.6605 38.9655 17.7574 38.9574 17.8462 38.9292C17.9793 38.8888 18.1327 38.6386 17.9027 38.6467C17.8542 38.6507 17.4224 38.8969 17.4062 38.8283Z" fill="#F5CC23"/>
<path d="M18.6976 38.5779C18.7016 38.5375 18.6936 38.4931 18.6774 38.4487C18.6532 38.3559 18.6048 38.2671 18.5483 38.1904C18.52 38.1501 18.4756 38.1138 18.4312 38.1299C18.3707 38.1501 18.3828 38.2389 18.3465 38.2873C18.3182 38.3196 18.2779 38.3317 18.2375 38.3398C18.2012 38.3519 18.1568 38.372 18.1447 38.4084C18.1124 38.4931 18.2173 38.5294 18.2819 38.5254C18.3546 38.5173 18.3828 38.481 18.4393 38.5416C18.4797 38.59 18.4716 38.6747 18.5442 38.703C18.625 38.7312 18.6895 38.6505 18.6976 38.5779Z" fill="#F5CC23"/>
<path d="M17.2723 37.6947C17.2481 37.723 17.2279 37.7633 17.2441 37.7996C17.2562 37.8238 17.2844 37.84 17.3167 37.84C17.345 37.84 17.3732 37.8319 17.4015 37.8279C17.5347 37.7996 17.6799 37.8279 17.793 37.9005C17.8212 37.9167 17.8495 37.9368 17.8817 37.949C17.914 37.9611 17.9503 37.9651 17.9786 37.9449C18.023 37.9167 18.023 37.8561 18.0149 37.8077C17.9302 37.4687 17.4661 37.4566 17.2723 37.6947Z" fill="#F5CC23"/>
<path d="M16.8691 37.6743C16.853 37.6985 16.849 37.7348 16.8691 37.763C16.8893 37.7873 16.9216 37.7953 16.9539 37.7994C16.9821 37.8034 17.0185 37.8115 17.0427 37.7953C17.1032 37.763 17.0911 37.6621 17.0427 37.6258C16.9942 37.5895 16.8974 37.6218 16.8691 37.6743Z" fill="#F5CC23"/>
<path d="M19.2104 42.7394C18.0117 43.2963 16.6517 43.5506 15.2432 43.4214C14.2019 43.3246 13.2253 43.0259 12.3535 42.5658C12.5553 42.469 12.7571 42.3721 12.9549 42.2672C13.4351 42.021 13.9073 41.7425 14.3351 41.3833C14.7024 41.0766 15.0817 40.6932 15.5216 40.7013C15.7557 40.7053 15.9696 40.8183 16.1795 40.9313C16.4902 41.0968 16.805 41.2623 17.1158 41.4277C17.3055 41.5286 17.4951 41.6295 17.6848 41.7345C18.2095 42.0331 18.722 42.3681 19.2104 42.7394Z" fill="#F5CC23"/>
<path d="M15.8607 29.3645C15.9091 29.6712 15.8446 29.9981 15.7154 30.2846C15.562 30.6398 15.2916 30.9425 14.9647 31.1402C14.6338 31.342 14.2383 31.4349 13.8549 31.4106C13.6652 31.3985 13.4594 31.3824 13.2939 31.2936C13.3585 31.3541 13.4271 31.4147 13.4917 31.4752C13.3545 31.4268 13.1971 31.447 13.0719 31.5317C12.9509 31.6124 12.8702 31.7496 12.8621 31.899C12.85 32.0765 12.9388 32.2501 13.0518 32.3873C13.1648 32.5245 13.306 32.6375 13.4311 32.7707C13.5482 32.8958 13.645 33.0451 13.6975 33.2106C13.7459 33.3761 13.7419 33.5617 13.6652 33.7191C13.5845 33.8846 13.4271 33.9976 13.2778 34.1066C13.1446 34.1994 13.0154 34.2922 12.8823 34.3891C12.8217 34.4335 12.745 34.4779 12.6724 34.4536C12.5877 34.4294 12.5594 34.3245 12.5392 34.2357C12.4787 34.0057 12.3657 33.7918 12.2083 33.6102C12.1114 33.5012 11.9742 33.3963 11.8289 33.4326C11.6957 33.4649 11.6191 33.6102 11.5989 33.7474C11.5626 34.0137 11.6836 34.2761 11.833 34.498C11.9823 34.72 12.1679 34.9218 12.285 35.1599C12.3899 35.3698 12.4424 35.5998 12.4908 35.8298C12.5069 35.9025 12.5231 35.9792 12.4868 36.0478C12.4545 36.1124 12.3738 36.1446 12.3011 36.1366C12.2285 36.1325 12.1599 36.0962 12.1034 36.0478C11.9137 35.8904 11.833 35.6361 11.7805 35.394C11.7321 35.1478 11.7038 34.8935 11.5787 34.6796C11.4818 34.5101 11.3325 34.377 11.2478 34.2034C11.1227 33.9653 11.1348 33.6788 11.1711 33.4084C11.2074 33.142 11.2679 32.8716 11.2357 32.6012C11.2276 32.5366 11.2114 32.468 11.1711 32.4196C11.1307 32.3671 11.0581 32.3348 10.9975 32.3591C10.9451 32.3792 10.9168 32.4317 10.8724 32.464C10.7514 32.5487 10.5697 32.4559 10.5132 32.3187C10.4527 32.1815 10.481 32.0241 10.5092 31.8788C10.5415 31.7254 10.4164 31.5519 10.3357 31.4147C10.255 31.2775 10.1016 31.1725 9.9442 31.1967C9.83927 31.2088 9.75048 31.2775 9.65362 31.3259C9.60519 31.3501 9.54869 31.3703 9.49219 31.3743C10.7998 29.4129 12.967 28.1013 15.4006 27.9277C15.3966 27.9277 15.3966 27.9277 15.3925 27.9318C15.3199 27.9681 15.2392 28.0004 15.1988 28.069C15.1464 28.1497 15.1665 28.2627 15.223 28.3434C15.2755 28.4282 15.3562 28.4887 15.4248 28.5533C15.6549 28.7672 15.8123 29.0578 15.8607 29.3645Z" fill="#F5CC23"/>
<path d="M17.0668 28.5496C16.9982 28.6546 16.865 28.7191 16.7439 28.6869C16.6067 28.6465 16.5341 28.5012 16.4897 28.368C16.4493 28.2308 16.4251 28.0815 16.3323 27.9766C16.3121 27.9523 16.2879 27.9322 16.2637 27.916C16.4009 27.9201 16.5381 27.9281 16.6753 27.9402C16.8085 27.9523 16.9377 27.9685 17.0708 27.9887C17.095 28.0532 17.1152 28.1218 17.1273 28.1905C17.1475 28.3156 17.1354 28.4487 17.0668 28.5496Z" fill="#F5CC23"/>
<path d="M13.3552 32.0205C13.331 32.1295 13.3875 32.2506 13.4803 32.3111C13.5772 32.3716 13.7063 32.3676 13.7992 32.3111C13.896 32.2506 13.9525 32.1376 13.9525 32.0286C13.9525 31.9035 13.8678 31.7138 13.7225 31.7178C13.5691 31.7259 13.3875 31.8752 13.3552 32.0205Z" fill="#F5CC23"/>
<path d="M16.0501 31.2169C16.046 31.2734 16.046 31.3299 16.0258 31.3824C16.0097 31.4349 15.9814 31.4833 15.933 31.5116C15.8563 31.5559 15.7514 31.5277 15.6949 31.4591C15.6384 31.3945 15.6182 31.3017 15.6303 31.2129C15.6465 31.1281 15.6828 31.0474 15.7272 30.9708C15.7716 30.89 15.9209 30.5833 16.0379 30.6842C16.1267 30.7649 16.0541 31.108 16.0501 31.2169Z" fill="#F5CC23"/>
<path d="M19.1142 28.5738C19.0859 28.6182 19.0415 28.6545 18.9971 28.6787C18.9043 28.7312 18.7953 28.7392 18.6864 28.7513C18.2787 28.8159 17.8913 29.0137 17.6048 29.3123C17.4272 29.2841 17.2658 29.167 17.2496 28.9895C17.2294 28.7554 17.407 28.5496 17.6128 28.4406C17.7823 28.3437 17.972 28.2953 18.1536 28.2227C18.4805 28.3195 18.8034 28.4366 19.1142 28.5738Z" fill="#F5CC23"/>
<path d="M17.1521 30.3653C17.1441 30.4097 17.1642 30.4622 17.2086 30.4823C17.249 30.4985 17.2934 30.4823 17.3257 30.45C17.362 30.4218 17.3822 30.3855 17.4104 30.3492C17.4831 30.2644 17.5719 30.2483 17.6566 30.1918C17.7373 30.1393 17.7494 30.0101 17.6324 29.998C17.5436 29.9859 17.4589 30.0909 17.3983 30.1393C17.3176 30.2039 17.1763 30.2523 17.1521 30.3653Z" fill="#F5CC23"/>
<path d="M19.2998 29.0658C19.2877 29.0779 19.2796 29.094 19.2756 29.1142C19.2675 29.1384 19.2675 29.1667 19.2756 29.1949C19.2837 29.2232 19.2998 29.2474 19.3281 29.2554C19.3523 29.2676 19.3765 29.2635 19.4007 29.2514C19.4209 29.2433 19.4411 29.2232 19.4572 29.203C19.4774 29.1788 19.4935 29.1465 19.4895 29.1102C19.4854 29.0819 19.4653 29.0537 19.4411 29.0416C19.4128 29.0294 19.3886 29.0375 19.3603 29.0416C19.3361 29.0456 19.3159 29.0456 19.2998 29.0658Z" fill="#F5CC23"/>
</svg>
