<svg width="50" height="54" viewBox="0 0 50 54" fill="none" xmlns="http://www.w3.org/2000/svg">
<path fill-rule="evenodd" clip-rule="evenodd" d="M20.0191 13.9425C20.4236 14.4102 19.9117 14.3343 19.7284 14.3881C17.8576 14.9442 15.9837 15.4878 14.1097 16.0313C14.0181 16.0629 13.9201 16.0882 13.8222 16.1135C12.2737 16.6033 12.1884 16.7234 12.1852 18.3129C12.1821 20.8631 12.1757 23.4165 12.1694 25.9699C12.0146 26.1184 11.8281 26.1942 11.6196 26.1563C10.4377 25.9699 9.23368 25.8751 8.11184 25.4011C7.35342 24.2002 6.52863 23.0436 5.6754 21.906C4.30707 20.0952 3.17575 18.1107 1.63361 16.4263C1.46613 16.2367 1.30496 16.025 1.38396 15.7532C1.47245 15.4151 1.79794 15.5067 2.01915 15.4878C3.0999 15.3709 4.16802 15.1212 5.25194 14.9948C7.29337 14.6725 17.2509 13.696 19.1849 13.6865C19.4851 13.6865 19.7979 13.6865 20.0191 13.9425Z" fill="#FFD45A"/>
<path fill-rule="evenodd" clip-rule="evenodd" d="M12.2147 50.8996C9.09878 50.1854 5.97659 49.4744 2.85756 48.7697C2.66163 48.7223 2.10229 25.7925 2.39618 25.3722C2.66163 25.2237 2.9334 25.2964 3.20201 25.3501C5.88811 25.9 8.58052 26.4087 11.2761 26.9396C11.6616 27.0155 12.0788 27.0408 12.3253 27.4294C12.4991 27.8087 12.4706 28.2132 12.4706 28.6113C12.4706 35.6078 12.4738 42.6075 12.4675 49.6103C12.4675 50.0495 12.5465 50.5172 12.2147 50.8996Z" fill="#FFD45A"/>
<mask id="mask0_503_1165" style="mask-type:luminance" maskUnits="userSpaceOnUse" x="37" y="15" width="13" height="37">
<path d="M37.2734 15.2637H49.146V51.6682H37.2734V15.2637Z" fill="white"/>
</mask>
<g mask="url(#mask0_503_1165)">
<path fill-rule="evenodd" clip-rule="evenodd" d="M47.8695 15.6023C49.0957 15.6245 49.0988 15.6245 49.0988 16.7906C49.102 18.8193 49.0799 20.8481 49.1146 22.8738C49.1273 23.4584 48.9629 23.6954 48.3688 23.806C46.9499 24.0746 46.9721 24.1062 46.9626 25.5441C46.931 30.3506 46.8646 35.154 46.8488 39.9573C46.8457 42.6371 46.9057 45.3137 46.9626 47.9903C46.9721 48.5212 46.8362 48.7772 46.2705 48.9068C43.6634 49.5009 41.0658 50.1455 38.465 50.7681C38.2533 50.8155 38.0353 50.9293 37.8046 50.8155C37.5202 50.5943 37.5739 50.2783 37.5707 49.9844C37.5676 42.6182 37.5676 35.2488 37.5707 27.8825C37.5739 27.0198 37.6561 26.8998 38.5093 26.707C40.8857 26.1698 43.2747 25.7084 45.6606 25.2154C46.4822 25.0448 46.5486 24.9247 46.4001 24.1789C46.1947 23.806 46.4601 23.5658 46.6719 23.332C47.1396 22.8074 47.4461 22.2386 47.3797 21.5054C47.3418 21.0883 47.563 20.747 47.7747 20.3994C48.2677 19.6031 48.2077 19.3123 47.4492 18.832C46.9594 18.516 46.7919 18.042 46.6845 17.5142C46.5834 16.9928 46.5802 16.4745 46.6497 15.9468C46.9152 15.3464 47.405 15.5139 47.8695 15.6023Z" fill="#FFC402"/>
</g>
<mask id="mask1_503_1165" style="mask-type:luminance" maskUnits="userSpaceOnUse" x="15" y="27" width="11" height="27">
<path d="M15.4316 27.3984H25.9485V54.0003H15.4316V27.3984Z" fill="white"/>
</mask>
<g mask="url(#mask1_503_1165)">
<path fill-rule="evenodd" clip-rule="evenodd" d="M25.6046 53.8202C25.3297 54.0098 25.0137 53.9687 24.7324 53.9055C21.9452 53.2956 19.1517 52.6668 16.3676 52.0379C16.2696 52.0158 16.1843 51.9589 16.0927 51.9178C15.8019 51.6461 15.8146 51.2858 15.8146 50.9382C15.8083 43.6763 15.8051 36.4112 15.8146 29.1492C15.8146 28.8743 15.8335 28.5994 15.9505 28.3402C16.2064 27.9484 16.5983 27.9989 16.9617 28.0843C19.3887 28.6562 21.8472 29.0955 24.2774 29.6706C24.587 29.7496 24.9189 29.8065 25.1179 30.1067C25.3297 30.5618 25.2728 31.0421 25.2728 31.5161C25.276 38.421 25.276 45.3321 25.276 52.237C25.276 52.7869 25.2475 53.3399 25.6046 53.8202Z" fill="#FFD45A"/>
</g>
<mask id="mask2_503_1165" style="mask-type:luminance" maskUnits="userSpaceOnUse" x="24" y="27" width="11" height="27">
<path d="M24.3301 27.3984H34.0379V54.0003H24.3301V27.3984Z" fill="white"/>
</mask>
<g mask="url(#mask2_503_1165)">
<path fill-rule="evenodd" clip-rule="evenodd" d="M25.6031 53.8196C24.9584 53.8639 24.9806 53.4404 24.9806 52.9885C24.9837 45.3411 24.9806 37.6936 24.9806 30.0461C25.1322 29.8154 25.404 29.7965 25.6284 29.6953C28.0395 29.0475 30.495 28.6209 32.9219 28.0426C33.2443 27.9668 33.6171 27.834 33.8763 28.2227C34.0438 28.6051 34.0058 29.0096 34.0058 29.4046C34.0122 36.5054 34.0122 43.603 34.0122 50.7038C34.0122 51.1083 34.0185 51.5064 33.8257 51.8762C31.1017 52.6062 28.384 53.3361 25.6031 53.8196Z" fill="#FFC402"/>
</g>
<mask id="mask3_503_1165" style="mask-type:luminance" maskUnits="userSpaceOnUse" x="0" y="12" width="50" height="9">
<path d="M0.0605469 12.8359H49.1466V20.9258H0.0605469V12.8359Z" fill="white"/>
</mask>
<g mask="url(#mask3_503_1165)">
<path fill-rule="evenodd" clip-rule="evenodd" d="M0.263672 15.6734L24.9757 20.4135L49.1158 15.6734L34.5446 13.0947L17.7359 13.5624C17.7359 13.5624 1.95749 14.8454 0.263672 15.6734Z" fill="#FFE65B"/>
</g>
<path fill-rule="evenodd" clip-rule="evenodd" d="M35.6625 15.7502C35.0684 15.5511 34.4649 15.3773 33.8676 15.1972C32.2907 14.7169 30.6696 14.385 29.1211 13.8036C28.7514 13.6487 28.35 13.6266 27.9677 13.5255C27.2377 13.3327 26.4319 13.3327 25.8125 12.8018C25.6797 12.5838 25.566 12.3499 25.2847 12.293C24.9877 12.2456 24.6875 12.2204 24.3904 12.2962C24.1408 12.4827 24.0934 12.8713 23.7426 12.9598C23.1927 13.2948 22.5765 13.4054 21.9571 13.5129C21.3694 13.6171 20.7531 13.4623 20.1717 13.6487C20.0516 13.7025 19.9663 13.7878 19.8967 13.8952C19.7861 14.2144 19.4764 14.2049 19.2236 14.2871C17.2486 14.9286 15.2135 15.3584 13.251 16.0504C12.4484 16.338 11.9206 16.8057 11.9269 17.7316C11.9396 20.5062 11.9017 23.2776 11.9459 26.0459C11.889 26.5104 11.8606 26.9749 12.1766 27.3763C12.1797 27.5722 12.1892 27.7744 12.1892 27.9735C12.1987 35.6178 12.2082 43.259 12.2145 50.9033C13.1973 51.3078 14.2338 51.5006 15.2703 51.6902C15.7823 51.3268 15.599 50.7832 15.599 50.3155C15.6116 40.023 15.6053 29.7305 15.6085 19.4349C15.6085 19.1379 15.6116 18.8345 15.6179 18.5343C15.6274 18.1203 15.8518 17.8643 16.2373 17.7948C17.9754 17.4851 19.5902 16.7836 21.2303 16.1926C22.3585 15.785 23.534 15.4374 24.4915 14.6916C24.8486 14.4103 25.0698 14.4324 25.4048 14.6315C27.6864 15.9746 30.1797 16.7994 32.6889 17.5799C33.1187 17.5989 33.3557 17.2923 33.6116 17.0269C34.1741 16.4454 34.8472 16.24 35.6436 16.4328C35.9312 16.4992 37.1194 17.0459 37.3595 16.7551C37.2616 16.3348 35.9754 15.8577 35.6625 15.7502Z" fill="#FE1C37"/>
<path fill-rule="evenodd" clip-rule="evenodd" d="M32.7949 17.4118C33.1267 17.3929 33.2121 17.08 33.3922 16.8936C34.0937 16.1762 34.8806 15.876 35.8634 16.271C36.0372 16.3405 36.2521 16.3121 36.448 16.3311C36.862 16.1288 36.9031 16.4006 37.2254 16.587C37.475 16.8177 37.8637 17.099 37.8543 17.4403C37.8985 20.395 37.9996 23.3528 37.8732 26.2949C37.5256 34.3121 37.8448 42.3325 37.7152 50.3497C37.7057 50.5424 37.7595 50.751 37.6362 50.9311C36.6503 51.3641 35.5916 51.5063 34.5425 51.699C34.1949 51.3419 34.2075 50.8743 34.2012 50.4318C34.1791 49.1046 34.1949 47.7742 34.1949 46.4501C34.1885 44.4971 34.1949 42.5474 34.059 40.5976C33.9136 38.4993 34.2265 36.4009 34.2043 34.2995C34.1633 29.692 34.1949 25.0846 34.1949 20.4803C34.1949 20.1042 34.1949 19.7282 34.1791 19.3521C34.1538 18.6443 34.021 18.0091 33.1836 17.8132C32.994 17.7689 32.8012 17.6615 32.7949 17.4118Z" fill="#EC0017"/>
<path fill-rule="evenodd" clip-rule="evenodd" d="M32.7955 17.4124C32.903 17.4661 33.0104 17.5357 33.1242 17.5799C34.4419 18.0444 34.4609 18.0413 34.4609 19.4823C34.4672 25.2969 34.5652 31.1147 34.4293 36.9261C34.3218 41.5114 34.6221 46.0841 34.483 50.6631C34.4704 51.0044 34.5241 51.3552 34.5431 51.6996C34.306 51.7597 34.0659 51.8197 33.8257 51.8766C33.6298 51.5511 33.7246 51.1909 33.7246 50.8496C33.7214 43.673 33.7214 36.4963 33.7214 29.3166C33.7214 28.9152 33.7056 28.517 33.6993 28.1157C33.358 27.7618 33.4907 27.3257 33.4939 26.9117C33.4117 24.7123 33.4813 22.5128 33.456 20.3134C33.4339 18.1234 33.6519 18.5185 31.6832 17.681C29.6291 16.8246 27.4928 16.1705 25.5115 15.1466C25.1512 14.9602 24.7878 14.9791 24.4275 15.1435C21.9942 16.259 19.4504 17.0996 16.9318 17.9939C16.344 18.2024 16.2839 18.6164 16.3534 19.1284C16.3787 21.7512 16.4261 24.3678 16.3376 26.9876C16.3598 27.4268 16.4356 27.8724 16.1164 28.2484C16.107 36.1392 16.1006 44.03 16.0943 51.9177C15.7909 51.9335 15.5129 51.8703 15.2695 51.6902C15.2948 51.3425 15.3391 50.9949 15.3391 50.6442C15.3422 39.9567 15.3454 29.266 15.3327 18.5785C15.3327 18.0413 15.3896 17.6968 16.0311 17.5989C17.8735 17.3176 19.5704 16.5497 21.3085 15.9177C22.1775 15.5985 23.0244 15.2225 23.8745 14.8527C24.1273 14.7421 24.4339 14.6916 24.5002 14.2997C24.5634 13.9173 24.8194 13.9837 25.088 14.1607C27.4518 15.7249 30.16 16.4833 32.7955 17.4124Z" fill="#D30417"/>
<path fill-rule="evenodd" clip-rule="evenodd" d="M36.8745 8.04528C36.9093 8.03896 36.9472 8.03264 36.9883 8.02632C36.9883 8.02316 36.9914 8.02 36.9914 8.01368C37.3454 6.72435 37.2727 5.38762 37.4212 4.07618C37.4907 3.441 37.3043 2.83425 37.0862 2.24331C36.8555 1.62077 36.5838 1.53229 35.9897 1.83566C35.5694 2.04739 35.266 2.46768 34.7509 2.48664C33.4711 3.26087 32.4282 4.30055 31.4739 5.41923C29.6726 7.52702 27.9219 9.67906 26.1586 11.8185C25.9247 12.1029 25.6719 12.3114 25.2832 12.2925C25.3843 12.441 25.4855 12.5895 25.5866 12.738C26.0638 12.8107 26.5283 12.7444 26.9802 12.5958C28.5444 12.0586 30.0897 11.4803 31.5497 10.6935C31.7994 10.5544 32.0458 10.4975 32.3018 10.5544C32.3366 10.5291 32.3745 10.5038 32.4093 10.4786C33.8661 9.60637 35.2755 8.65518 36.8745 8.04528Z" fill="#F1001A"/>
<path fill-rule="evenodd" clip-rule="evenodd" d="M23.6917 11.5246C22.2917 9.58111 20.9013 7.63448 19.3655 5.79529C18.1172 4.30372 16.8026 2.86271 15.0551 1.91784C14.9318 1.91784 14.8086 1.89255 14.6885 1.84831C13.6994 1.46594 13.3012 1.78195 13.3992 2.85007C13.4719 3.61482 13.5193 4.38272 13.5667 5.15063C13.6141 6.05758 13.7026 6.97402 13.6141 7.89361C13.6172 7.91889 13.6236 7.93785 13.6299 7.95997C13.6457 7.96313 13.6646 7.96945 13.6773 7.97261C15.0962 8.58883 16.455 9.30934 17.7349 10.1784C17.7538 10.1973 17.7728 10.21 17.7981 10.2289C17.9592 10.1341 18.1046 10.1246 18.3353 10.2479C19.7984 11.0474 21.3058 11.79 22.8637 12.3999C23.2651 12.5548 23.6411 12.7286 23.9445 13.0383C24.4248 12.9909 24.3743 12.6211 24.3901 12.2956C24.0804 12.1092 23.8939 11.809 23.6917 11.5246Z" fill="#F1001A"/>
<mask id="mask4_503_1165" style="mask-type:luminance" maskUnits="userSpaceOnUse" x="4" y="0" width="10" height="10">
<path d="M4.10547 0H13.0043V9.60042H4.10547V0Z" fill="white"/>
</mask>
<g mask="url(#mask4_503_1165)">
<path fill-rule="evenodd" clip-rule="evenodd" d="M9.40487 8.23808C9.83464 8.09588 10.2644 7.95367 10.6942 7.80515C10.8269 7.79883 10.9565 7.78935 11.0892 7.77987C11.3136 7.60606 11.4747 7.39117 11.4115 7.04988C11.0955 5.3687 11.2662 3.65592 11.0671 1.96842C10.9691 1.14679 11.026 1.14047 11.8698 1.18471C12.2142 1.20683 12.6377 1.37116 12.7957 0.8529C11.3957 0.189276 9.9168 0.0217904 8.39995 0.176636C7.36975 0.28092 6.64609 0.840259 6.17523 1.75669C5.41365 3.23562 4.92383 4.80304 4.64258 6.43682C4.50985 7.21737 4.27916 7.99475 4.49405 8.80058C4.80374 8.99651 5.06603 8.77214 5.34412 8.70262C6.64609 8.38029 7.93857 7.92523 9.30374 8.38029C9.33218 8.38661 9.36379 8.38345 9.39223 8.38661C9.39223 8.33921 9.39539 8.28864 9.40487 8.23808Z" fill="#F1001A"/>
</g>
<mask id="mask5_503_1165" style="mask-type:luminance" maskUnits="userSpaceOnUse" x="37" y="0" width="10" height="10">
<path d="M37.2734 0H46.1723V9.60042H37.2734V0Z" fill="white"/>
</mask>
<g mask="url(#mask5_503_1165)">
<path fill-rule="evenodd" clip-rule="evenodd" d="M43.4069 1.2132C43.0751 0.634903 42.4746 0.318892 41.7952 0.227248C40.2183 0.0155212 38.7204 0.262009 37.3047 1.00148C37.6049 1.52289 38.0536 1.26693 38.4486 1.19424C38.9227 1.10576 39.2166 1.25112 39.1723 1.75042C39.008 3.75709 39.422 5.82697 38.5213 7.75464C38.5245 7.75464 38.5308 7.75464 38.534 7.75148C39.2545 7.77044 39.9307 7.9632 40.588 8.23181C40.588 8.27605 40.5849 8.3203 40.5817 8.36454C40.6007 8.3677 40.6228 8.3677 40.6386 8.37086C40.9767 8.28869 41.2991 8.14017 41.6625 8.18125C42.699 8.30133 43.7387 8.40562 44.7025 8.86067C44.9522 8.9776 45.2429 9.20829 45.4704 8.80695C45.6031 6.0545 44.7657 3.55485 43.4069 1.2132Z" fill="#F1001A"/>
</g>
<mask id="mask6_503_1165" style="mask-type:luminance" maskUnits="userSpaceOnUse" x="0" y="14" width="9" height="12">
<path d="M0 14.4541H8.14993V25.7799H0V14.4541Z" fill="white"/>
</mask>
<g mask="url(#mask6_503_1165)">
<path fill-rule="evenodd" clip-rule="evenodd" d="M5.25113 14.9939C4.23042 15.3289 3.1623 15.3921 2.12262 15.607C1.91721 15.6512 1.62648 15.5185 1.53168 15.7998C1.459 16.0147 1.68653 16.1442 1.81609 16.2927C2.88421 17.5062 3.8196 18.8177 4.70443 20.167C5.49762 21.3742 6.36981 22.5276 7.2578 23.6684C7.63386 24.1519 7.86139 24.686 8.11103 25.2201C7.86771 25.4792 7.56118 25.4128 7.27044 25.3496C5.90212 25.0652 4.52115 24.8819 3.15282 24.6038C2.85577 24.5406 2.55556 24.4964 2.40071 24.1804C0.096989 23.7696 0.109629 23.7664 0.0969889 21.4248C0.0875084 19.7246 0.052748 18.0213 -0.000974569 16.3212C-0.013615 15.8314 0.0906681 15.6386 0.637368 15.588C1.78449 15.4774 2.91897 15.2499 4.05345 15.0698C4.45162 15.0003 4.84348 14.9434 5.25113 14.9939Z" fill="#FFD45A"/>
</g>
<path fill-rule="evenodd" clip-rule="evenodd" d="M13.6765 7.97325C13.8092 7.82156 14.3054 7.90373 13.9862 7.46763C13.7903 7.18954 13.8345 6.84825 13.8377 6.52592C13.8598 5.18919 13.7271 3.86194 13.5691 2.53786C13.5059 1.99748 13.8661 1.72887 14.4033 1.88687C14.6056 1.94059 14.8205 2.36721 15.0543 1.91847C14.3623 1.43182 13.6386 1.01468 12.7948 0.853516C12.3682 1.21693 11.9353 0.872477 11.5055 0.862996C11.0631 0.853515 10.6144 0.815594 10.7092 1.5045C10.9051 2.96131 11.0157 4.42444 10.9778 5.8939C10.9746 6.16566 10.9398 6.49432 11.0694 6.69972C11.4233 7.26538 11.1358 7.54663 10.6934 7.80576C11.6951 7.73624 12.7 7.69516 13.6765 7.97325Z" fill="#F1001A"/>
<path fill-rule="evenodd" clip-rule="evenodd" d="M38.5346 7.75213C38.9454 7.48668 39.3215 7.16751 39.2899 6.63345C39.1951 4.98387 39.5048 3.35325 39.4542 1.70367C39.4258 0.878881 39.2046 0.711396 38.3766 0.945243C38.0227 1.04005 37.6782 1.25809 37.3053 1.00213C36.3541 1.32446 35.5357 1.87748 34.752 2.48738C34.8215 2.82551 35.0174 2.70543 35.188 2.59798C35.5262 2.38942 35.8612 2.17453 36.193 1.95648C36.5216 1.74791 36.7428 1.79531 36.8566 2.19349C37.122 3.12888 37.2832 4.04847 37.0999 5.04707C36.9198 6.0267 36.9388 7.04426 36.8755 8.04602C37.4286 7.95121 37.9784 7.85325 38.5346 7.75213Z" fill="#F1001A"/>
<path fill-rule="evenodd" clip-rule="evenodd" d="M37.6367 50.9311C37.6367 40.0003 37.6399 29.0631 37.6462 18.1291C37.6462 17.8289 37.6588 17.5287 37.6652 17.2285C38.1518 17.4371 38.0412 17.889 38.0444 18.2587C38.0633 20.3286 38.0539 22.3985 38.057 24.4652C38.0602 25.4353 38.0949 25.4606 39.0272 25.2868C39.7382 25.1572 40.4461 24.9961 41.1571 24.8728C42.5665 24.6516 43.9443 24.2977 45.3442 24.0449C45.6918 23.9817 46.0331 23.8837 46.3776 24.0354C46.9085 23.9943 46.8042 24.3735 46.8326 24.6895C46.8674 25.0909 46.6715 25.2836 46.2954 25.3595C45.0472 25.606 43.8021 25.8619 42.557 26.1179C41.0907 26.4213 39.6276 26.7341 38.1581 27.0217C37.8706 27.0786 37.7789 27.2208 37.7884 27.4799C37.7916 27.7043 37.7852 27.9287 37.7852 28.153C37.7852 35.2317 37.7789 42.3103 37.7789 49.389C37.7789 49.863 37.7979 50.3402 37.8042 50.8142C37.7505 50.8553 37.6936 50.8932 37.6367 50.9311Z" fill="#FF8606"/>
<path fill-rule="evenodd" clip-rule="evenodd" d="M9.77153 8.99676C9.56612 8.80084 9.32911 8.58595 9.40496 8.23834C9.11107 7.97605 8.76977 7.9002 8.37792 7.92548C7.03803 8.01397 5.72026 8.20041 4.49414 8.80084C4.66795 10.2798 5.80875 10.9086 6.92743 11.5565C7.34772 11.6513 7.73642 12.0178 8.19779 11.6671C8.87406 11.152 9.67673 10.9466 10.4794 10.738C10.767 10.659 11.083 10.6242 11.1841 10.2671C11.1841 10.2671 11.1841 10.2671 11.1841 10.264C11.1746 10.2576 11.1651 10.2513 11.1525 10.245C10.6943 9.83103 10.2171 9.42654 9.77153 8.99676Z" fill="#A70417"/>
<path fill-rule="evenodd" clip-rule="evenodd" d="M45.1301 8.85752C44.1252 8.13701 42.9244 8.12753 41.7709 7.94108C41.3601 7.87472 40.9208 7.86524 40.589 8.23181C40.5985 8.81011 40.1087 9.05344 39.7832 9.3979C39.4798 9.71707 39.1354 9.99832 38.8099 10.2954C38.7846 10.3112 38.7562 10.3238 38.7309 10.3396C38.7277 10.3807 38.7277 10.4249 38.7309 10.4723C38.7909 10.6935 38.9647 10.7915 39.167 10.8294C40.3425 11.0443 41.4359 11.5721 42.6241 11.7585C43.1203 11.5815 43.5722 11.3161 43.964 10.9874C44.6529 10.3997 45.4082 9.83083 45.4714 8.80695C45.364 8.86384 45.2565 8.946 45.1301 8.85752Z" fill="#A70417"/>
<path fill-rule="evenodd" clip-rule="evenodd" d="M30.0809 12.4794C29.5816 12.4794 29.3731 12.5552 29.0539 12.6058C28.9085 12.6248 28.7347 12.6437 28.504 12.6437C28.5862 12.6058 28.6715 12.5647 28.7505 12.5236C28.6652 12.5331 28.583 12.5426 28.4977 12.5552C28.3523 12.5837 28.1785 12.6374 28.1722 12.8112C28.1627 12.9819 28.3492 13.0735 28.4819 13.064C29.1171 13.0293 29.1898 13.5286 29.3604 13.9394C32.1856 14.05 34.9728 13.7434 37.741 13.2347C38.2056 13.1209 38.6638 13.0103 39.1252 12.8934C38.7491 11.9927 37.9844 11.4366 37.128 11.5219C36.9826 11.5345 36.8404 11.5156 36.7014 11.5029C36.5939 11.563 36.4865 11.6262 36.3822 11.6894C34.5177 12.1602 32.0023 12.3656 30.0809 12.4794Z" fill="#A70417"/>
<path fill-rule="evenodd" clip-rule="evenodd" d="M21.046 12.7129C18.9256 12.6561 16.8115 12.5296 14.7447 11.9987C14.2391 11.8723 13.743 11.7017 13.2437 11.55C13.1489 11.49 13.0572 11.4331 12.9656 11.373C11.9291 11.5279 11.5341 12.024 11.5751 13.0605C11.8817 13.1554 12.1914 13.2565 12.4947 13.3513C14.9881 13.74 17.4877 13.9991 20.019 13.9391C20.0664 13.8917 20.1106 13.8411 20.1549 13.7937C20.3729 13.4935 20.4645 13.0858 20.9228 12.991C21.0744 12.9594 21.144 12.8362 21.0555 12.7098C21.0555 12.7098 21.0492 12.7129 21.046 12.7129Z" fill="#A70417"/>
<path fill-rule="evenodd" clip-rule="evenodd" d="M2.40085 24.1807C4.3064 24.5283 6.20879 24.8759 8.11118 25.2203C9.45422 25.5522 10.7941 25.8587 12.1688 25.9693C12.1688 26.437 12.1719 26.9047 12.1751 27.3724C9.07817 26.7562 5.98758 26.1431 2.89383 25.5269C2.72318 25.4921 2.56202 25.4226 2.39453 25.372C2.39769 24.9739 2.40085 24.5788 2.40085 24.1807Z" fill="#FF8606"/>
<path fill-rule="evenodd" clip-rule="evenodd" d="M11.156 10.2451C10.9853 10.4126 10.7736 10.4442 10.5492 10.4979C9.89824 10.6496 9.20618 10.7476 8.64368 11.1331C8.10962 11.5028 7.59136 11.7904 6.92773 11.5566C8.36559 12.3972 9.9646 12.7574 11.5763 13.0608C11.9112 12.315 12.1261 11.4333 13.2448 11.5471C12.5464 11.1141 11.848 10.6812 11.156 10.2451Z" fill="#A70417"/>
<path fill-rule="evenodd" clip-rule="evenodd" d="M41.9478 11.3577C40.9745 11.2629 40.1591 10.5929 39.1574 10.6214C38.9457 10.6277 38.8603 10.4729 38.8098 10.2959C37.9976 10.7604 37.1886 11.2218 36.3828 11.6895C36.5945 11.7116 36.8284 11.8033 37.0243 11.7464C37.6785 11.5631 38.1462 11.8412 38.4685 12.35C38.6423 12.6249 38.9362 12.6818 39.1258 12.8935C40.3551 12.7134 41.518 12.3184 42.624 11.759C42.4945 11.4683 42.2101 11.383 41.9478 11.3577Z" fill="#A70417"/>
<path fill-rule="evenodd" clip-rule="evenodd" d="M46.3775 24.0361C44.6837 24.4564 42.9804 24.8166 41.2613 25.0789C40.8852 24.5986 41.1949 24.1688 41.3877 23.758C42.1714 22.0547 43.2459 20.5221 44.3108 18.9894C44.8638 18.1931 45.4706 17.4283 46.0362 16.6414C46.2069 16.4044 46.3491 16.1263 46.6746 16.041C46.7283 16.0442 46.7757 16.0442 46.8263 16.0442C46.8105 16.6414 46.8357 17.2355 46.9748 17.8233C47.0696 18.2089 47.2529 18.5154 47.6131 18.686C48.34 19.0305 48.6054 19.6593 48.1472 20.2756C47.7364 20.8286 47.5468 21.3532 47.6068 22.0547C47.6479 22.535 47.3256 22.9933 46.9653 23.363C46.7567 23.5716 46.5703 23.8117 46.3775 24.0361Z" fill="#FFC402"/>
<path fill-rule="evenodd" clip-rule="evenodd" d="M16.1172 28.2483C16.1203 27.8343 16.1235 27.4172 16.1298 27.0032C16.2973 26.8515 16.4996 26.8578 16.6986 26.8926C19.4258 27.3887 22.1435 27.9544 24.8612 28.5106C24.9307 28.5453 24.9939 28.5927 25.0477 28.6528C25.2499 29.0573 25.1994 29.5755 25.6038 29.8947C25.4269 30.0843 25.1899 30.0148 24.9813 30.0464C22.2952 29.4744 19.6123 28.9119 16.9325 28.3304C16.6576 28.2704 16.3921 28.2167 16.1172 28.2483Z" fill="#FF8606"/>
<path fill-rule="evenodd" clip-rule="evenodd" d="M25.6024 29.8945C24.5722 29.904 25.1252 29.1266 24.9956 28.6873C25.1315 28.3997 25.4096 28.346 25.6814 28.2923C28.0641 27.8056 30.4373 27.2747 32.8264 26.8197C33.1171 26.7628 33.4205 26.6554 33.6986 26.8544C33.6986 27.2747 33.6986 27.695 33.6986 28.1153C30.9998 28.7094 28.2979 29.3004 25.6024 29.8945Z" fill="#FF8606"/>
<path fill-rule="evenodd" clip-rule="evenodd" d="M23.451 12.369C21.5866 11.7307 19.839 10.8522 18.1389 9.87571C17.6111 9.5755 17.7691 9.94839 17.7344 10.1791C18.9542 11.2156 20.4268 11.8129 21.8931 12.5397C21.5739 12.6029 21.3085 12.6566 21.0462 12.7135C20.5722 12.9252 19.8074 12.8999 20.155 13.7942C20.6543 13.7942 21.1663 13.8511 21.6561 13.7816C22.4524 13.671 23.3151 13.6963 23.944 13.039C24.1178 12.5713 23.7291 12.4638 23.451 12.369Z" fill="#F1001A"/>
<path fill-rule="evenodd" clip-rule="evenodd" d="M28.8049 12.5015C28.7354 12.5141 28.6722 12.5236 28.5995 12.5331C28.6753 12.5267 28.7448 12.5109 28.8175 12.4983C30.0847 11.9042 31.3172 11.3196 32.4106 10.479C32.221 10.1187 31.9776 10.2135 31.6964 10.3684C30.2301 11.1742 28.6627 11.7399 27.1111 12.3371C26.5991 12.5331 25.9987 12.2708 25.5879 12.7385C25.6448 13.105 25.8755 13.2599 26.2262 13.3547C27.1585 13.6138 28.1065 13.7908 29.0545 13.9583C29.1557 13.9551 29.2599 13.9456 29.3611 13.9393C29.5222 12.9439 29.5222 12.9439 28.4225 12.8743C28.3972 12.868 28.3751 12.8238 28.3403 12.7859C29.1304 12.6437 29.241 12.6437 28.5047 12.6437C28.6058 12.5963 28.7038 12.5489 28.8049 12.5015Z" fill="#F1001A"/>
<path fill-rule="evenodd" clip-rule="evenodd" d="M46.6744 16.0405C45.6569 17.4878 44.6172 18.9193 43.6281 20.3825C42.838 21.5359 42.0765 22.7115 41.5013 23.9945C41.3528 24.3358 41.2169 24.6865 41.2611 25.0784C40.3321 25.2712 39.4062 25.4608 38.4866 25.6725C37.9525 25.7957 37.7566 25.6788 37.7661 25.0721C37.804 22.721 37.785 20.373 37.7787 18.0282C37.7787 17.7596 37.8387 17.472 37.6649 17.2287C37.6333 16.9885 37.4216 16.8653 37.3047 16.6788C38.7773 16.9095 40.2215 16.6125 41.6688 16.4639C42.7748 16.3438 43.8967 16.3154 44.9901 16.0626C45.2808 15.9962 45.6158 15.9931 45.8433 15.8287C46.2478 15.5412 46.4753 15.6707 46.6744 16.0405Z" fill="#FFC402"/>
<path fill-rule="evenodd" clip-rule="evenodd" d="M33.6995 26.8547C31.3136 27.3603 28.9246 27.8691 26.5355 28.3716C26.0204 28.479 25.5116 28.5833 24.9965 28.6876L24.9871 28.6339C24.709 28.3968 24.7121 28.0619 24.709 27.7427C24.709 25.3568 24.671 22.9741 24.7216 20.5882C24.8417 19.5359 24.9649 19.4032 26.0489 19.2768C26.6714 19.2009 27.2845 19.0935 27.9038 19.0271C29.1205 18.8849 32.7167 17.8263 33.2823 18.0285C33.6963 18.177 33.7153 18.5183 33.7153 18.8881C33.7058 21.5426 33.7026 24.2002 33.6995 26.8547Z" fill="#FFC402"/>
<path fill-rule="evenodd" clip-rule="evenodd" d="M24.9745 20.4139C24.9808 23.1537 24.984 25.8935 24.9872 28.6334C23.5398 28.5986 22.1462 28.1973 20.7368 27.9287C19.1947 27.6348 17.6652 27.3124 16.1294 27.0059C16.1294 24.304 16.1294 21.6021 16.123 18.9065C16.4991 18.5526 16.97 18.6411 17.4092 18.6537C19.3811 18.7169 21.3404 18.9634 23.2839 19.311C23.9949 19.4406 24.6111 19.7376 24.9745 20.4139Z" fill="#FFD45A"/>
<path fill-rule="evenodd" clip-rule="evenodd" d="M5.85938 8.29486C5.85938 8.29486 14.4517 3.9971 21.7769 12.4788C21.7769 12.4788 18.0795 10.8609 15.0553 9.53046C15.0553 9.53046 6.66836 7.7134 5.85938 8.29486Z" fill="#A70417"/>
<path fill-rule="evenodd" clip-rule="evenodd" d="M44.917 8.29563C44.917 8.29563 35.6611 4.3044 28.3359 12.7861C28.3359 12.7861 28.4971 13.0074 28.9996 12.7861C30.3963 12.1699 33.4901 10.514 35.7211 9.53123C35.7211 9.53123 44.1081 7.71416 44.917 8.29563Z" fill="#A70417"/>
<path fill-rule="evenodd" clip-rule="evenodd" d="M44.6171 8.17806C44.6171 8.17806 45.6726 8.27919 45.4703 9.17982L43.7386 9.95721L42.623 8.68052L43.3404 7.97266L44.6171 8.17806Z" fill="#A70417"/>
</svg>
