<svg width="59" height="62" viewBox="0 0 59 62" fill="none" xmlns="http://www.w3.org/2000/svg">
<mask id="mask0_503_1229" style="mask-type:luminance" maskUnits="userSpaceOnUse" x="4" y="4" width="51" height="58">
<path d="M4.3457 4.34668H54.327V61.8546H4.3457V4.34668Z" fill="white"/>
</mask>
<g mask="url(#mask0_503_1229)">
<path d="M53.3882 28.3723C53.3853 28.3638 53.3825 28.3582 53.3797 28.3554L34.3735 8.38716C31.7618 5.80943 31.411 4.86719 29.286 4.86719C27.6335 4.86719 26.4847 5.95091 23.6778 8.68992L5.30262 28.3497C4.74237 28.91 4.38867 29.6994 4.38867 30.5851V58.7703C4.38867 60.4652 5.68461 61.8432 7.28048 61.8432H51.3848C52.9807 61.8432 54.2766 60.4652 54.2766 58.7703V30.5851C54.2766 29.7135 53.9371 28.9326 53.3882 28.3723Z" fill="#F7E3B5"/>
</g>
<path d="M30.6467 53.9291C29.9507 53.9291 29.3848 53.2104 29.3848 52.3162V40.2906C29.3848 39.3993 29.9507 38.6777 30.6467 38.6777H48.5098C49.2058 38.6777 49.7717 39.3993 49.7717 40.2906V52.3162C49.7717 53.2104 49.2058 53.9291 48.5098 53.9291H30.6467Z" fill="#EA8342"/>
<mask id="mask1_503_1229" style="mask-type:luminance" maskUnits="userSpaceOnUse" x="0" y="0" width="59" height="32">
<path d="M0 0H58.5464V31.8722H0V0Z" fill="white"/>
</mask>
<g mask="url(#mask1_503_1229)">
<path d="M57.4759 27.8686L30.6064 0.951005C29.9387 0.283229 29.2284 -0.0874431 28.654 0.489787C28.654 0.489787 27.0299 1.73762 26.6818 2.08566L0.898885 27.9167C0.259405 28.559 -0.0886309 29.2494 0.488599 29.8238L2.09862 31.4367C2.67302 32.0139 3.36343 31.6659 4.00291 31.0264L29.2115 5.76975L54.3719 30.9783C55.0368 31.6432 55.7471 32.0139 56.3243 31.4367L57.9343 29.8238C58.5087 29.2494 58.1409 28.5364 57.4759 27.8686Z" fill="#E0464C"/>
</g>
<mask id="mask2_503_1229" style="mask-type:luminance" maskUnits="userSpaceOnUse" x="10" y="38" width="17" height="24">
<path d="M10.8652 38.3916H26.8013V61.8543H10.8652V38.3916Z" fill="white"/>
</mask>
<g mask="url(#mask2_503_1229)">
<path d="M26.1826 61.8009V40.2255C26.1826 39.371 25.4893 38.6777 24.6348 38.6777H13.127C12.2753 38.6777 11.582 39.371 11.582 40.2255V61.8009H26.1826Z" fill="#EA8342"/>
</g>
<path d="M31.7782 52.477C31.167 52.477 30.6719 51.8941 30.6719 51.1726V41.4332C30.6719 40.7145 31.167 40.126 31.7782 40.126H47.3804C47.9916 40.126 48.484 40.7145 48.484 41.4332V51.1726C48.484 51.8941 47.9916 52.477 47.3804 52.477H31.7782Z" fill="#A6D1EE"/>
<path d="M48.484 43.9148V41.4332C48.484 40.7145 47.9916 40.126 47.3804 40.126H31.7782C31.167 40.126 30.6719 40.7145 30.6719 41.4332V43.9148H48.484Z" fill="#F8A64B"/>
<path d="M33.8904 25.0703C33.8904 27.6594 31.7937 29.7589 29.2103 29.7589C26.6212 29.7589 24.5273 27.6594 24.5273 25.0703C24.5273 22.4784 26.6212 20.3789 29.2103 20.3789C31.7937 20.3789 33.8904 22.4784 33.8904 25.0703Z" fill="#EA8342"/>
<path d="M32.7696 25.0701C32.7696 27.0367 31.1737 28.6354 29.21 28.6354C27.2463 28.6354 25.6504 27.0367 25.6504 25.0701C25.6504 23.0979 27.2463 21.5049 29.21 21.5049C31.1737 21.5049 32.7696 23.0979 32.7696 25.0701Z" fill="#A6D1EE"/>
<mask id="mask3_503_1229" style="mask-type:luminance" maskUnits="userSpaceOnUse" x="29" y="52" width="29" height="10">
<path d="M29.6992 52.1543H57.2252V61.854H29.6992V52.1543Z" fill="white"/>
</mask>
<g mask="url(#mask3_503_1229)">
<path d="M54.4417 56.427C53.8644 56.427 53.3325 56.6109 52.8967 56.9222C52.9363 56.7637 52.9618 56.5996 52.9618 56.427C52.9618 55.281 52.0337 54.3501 50.8877 54.3501C50.1577 54.3501 49.5154 54.7293 49.1476 55.3008C48.7797 54.7293 48.1402 54.3501 47.4074 54.3501C47.0197 54.3501 46.6575 54.4605 46.3491 54.6444C46.0775 53.4588 45.0192 52.5703 43.7516 52.5703C42.4528 52.5703 41.3691 53.5069 41.1342 54.7378C40.7947 54.4944 40.3816 54.3501 39.9289 54.3501C39.3375 54.3501 38.8027 54.6048 38.4235 55.0066C37.951 54.2567 37.1219 53.7587 36.174 53.7587C34.6998 53.7587 33.5058 54.9528 33.5058 56.427C33.5058 56.4977 33.5114 56.5713 33.5171 56.642C33.1973 56.5034 32.8436 56.427 32.473 56.427C31.0016 56.427 29.8047 57.6239 29.8047 59.1009C29.8047 60.5751 31.0016 61.7692 32.473 61.7692H54.4417C55.913 61.7692 57.1043 60.5751 57.1043 59.1009C57.1043 57.6239 55.913 56.427 54.4417 56.427Z" fill="#53C285"/>
</g>
</svg>
