<svg width="65" height="57" viewBox="0 0 65 57" fill="none" xmlns="http://www.w3.org/2000/svg">
<mask id="mask0_252_60" style="mask-type:luminance" maskUnits="userSpaceOnUse" x="52" y="22" width="13" height="13">
<path d="M52.8281 22.6387H64.6706V34.0256H52.8281V22.6387Z" fill="white"/>
</mask>
<g mask="url(#mask0_252_60)">
<path d="M53.9503 33.6934C54.2717 33.0995 54.625 32.5228 55.0166 31.9736C55.1273 31.8161 55.2422 31.6629 55.3593 31.5096C55.3316 31.5479 55.3018 31.5841 55.2742 31.6203C55.7275 31.0371 56.2277 30.488 56.7853 29.9985C56.9407 29.8601 57.1003 29.7282 57.2664 29.6004C57.228 29.6302 57.1919 29.6579 57.1557 29.6856C57.5963 29.3472 58.0666 29.0471 58.5647 28.798C58.7073 28.7278 58.852 28.6618 58.9989 28.6001C58.9563 28.6193 58.9116 28.6363 58.869 28.6554C59.3692 28.4447 59.8949 28.2872 60.4356 28.2127C60.3866 28.2191 60.3376 28.2255 60.2887 28.2319C60.6867 28.1787 61.089 28.1723 61.4891 28.2234C61.4402 28.217 61.3912 28.2106 61.3423 28.2042C61.6466 28.2468 61.9467 28.3234 62.2319 28.4405C62.1872 28.4234 62.1447 28.4043 62.1 28.3851C62.3383 28.4852 62.5597 28.6171 62.764 28.7725C62.7257 28.7448 62.6895 28.715 62.6534 28.6874C62.8555 28.8449 63.0386 29.0258 63.1961 29.228C63.1684 29.1918 63.1386 29.1535 63.111 29.1173C63.2536 29.3025 63.3728 29.5025 63.4643 29.7154C63.4451 29.6728 63.4281 29.6281 63.4089 29.5855C63.4898 29.7771 63.5473 29.9793 63.575 30.1858C63.5686 30.1368 63.5622 30.09 63.5558 30.041C63.5813 30.2241 63.5813 30.4092 63.5579 30.5944C63.5643 30.5455 63.5707 30.4965 63.5771 30.4497C63.5537 30.6136 63.5111 30.7753 63.4472 30.9286C63.4664 30.8839 63.4856 30.8413 63.5026 30.7987C63.4472 30.9307 63.377 31.0563 63.2897 31.1712C63.3174 31.1329 63.3472 31.0967 63.3749 31.0605C63.3004 31.1563 63.2153 31.2414 63.1195 31.3159C63.1557 31.2883 63.194 31.2606 63.2302 31.2308C63.1429 31.2968 63.0492 31.3521 62.9471 31.3947C62.9918 31.3777 63.0343 31.3585 63.079 31.3394C62.9705 31.3862 62.8556 31.4139 62.7406 31.4309C62.7874 31.4245 62.8364 31.4181 62.8853 31.4117C62.7406 31.4309 62.5938 31.4309 62.4469 31.4117C62.4959 31.4181 62.5448 31.4245 62.5916 31.4309C62.4341 31.4075 62.2788 31.367 62.1319 31.3053C62.1745 31.3223 62.2192 31.3415 62.2617 31.3606C62.1 31.2904 61.9488 31.1989 61.8084 31.0903C61.8467 31.1201 61.8829 31.1478 61.9191 31.1755C61.7339 31.0329 61.5742 30.8626 61.4295 30.6774C61.4593 30.7136 61.487 30.7519 61.5168 30.7881C61.2848 30.488 61.0996 30.1517 60.9528 29.8026C60.9698 29.8473 60.9889 29.8899 61.0081 29.9346C60.8208 29.494 60.6995 29.0322 60.6356 28.5597C60.642 28.6086 60.6484 28.6554 60.6548 28.7044C60.5867 28.1893 60.5888 27.6636 60.659 27.1485C60.6527 27.1953 60.6463 27.2443 60.6378 27.2933C60.7101 26.7612 60.8527 26.2397 61.0613 25.7459C61.0421 25.7885 61.0251 25.831 61.006 25.8757C61.1996 25.4181 61.4487 24.9861 61.753 24.5923C61.7232 24.6285 61.6956 24.6668 61.6658 24.703C61.9382 24.3539 62.2532 24.0368 62.6023 23.7644C62.5661 23.7942 62.5299 23.8218 62.4916 23.8495C62.5384 23.8154 62.5852 23.7793 62.6321 23.7452C62.7513 23.6601 62.8428 23.5643 62.8832 23.4196C62.9194 23.2897 62.9045 23.1152 62.8279 22.9981C62.7534 22.8832 62.6406 22.7789 62.5022 22.747C62.366 22.7172 62.1979 22.7193 62.0787 22.8023C61.7083 23.0705 61.3635 23.3706 61.0656 23.7175C60.7718 24.0602 60.51 24.4305 60.2972 24.8286C59.863 25.6374 59.6097 26.5228 59.531 27.4359C59.4969 27.8488 59.5033 28.2659 59.5565 28.6767C59.614 29.1279 59.7034 29.5685 59.8609 29.9963C60.029 30.4518 60.244 30.9009 60.5335 31.2904C60.7037 31.5181 60.8846 31.7374 61.106 31.9162C61.2337 32.0204 61.3657 32.1226 61.5104 32.2056C61.6509 32.2844 61.802 32.3482 61.9531 32.4014C62.5171 32.5951 63.2067 32.5611 63.7112 32.2248C63.9708 32.0524 64.1837 31.831 64.3412 31.5628C64.4221 31.4287 64.4838 31.2819 64.537 31.1372C64.5753 31.0286 64.6051 30.9158 64.6243 30.803C64.6498 30.6519 64.669 30.4986 64.6711 30.3454C64.6711 30.1879 64.6519 30.0346 64.6306 29.8814C64.5923 29.6239 64.5072 29.3876 64.4029 29.1492C64.3156 28.947 64.2007 28.7555 64.0666 28.5788C63.9027 28.366 63.7303 28.1659 63.526 27.9935C63.3238 27.8232 63.1067 27.6679 62.8726 27.5465C62.6193 27.4146 62.349 27.3082 62.0723 27.2379C61.5125 27.0911 60.9187 27.0613 60.3462 27.1336C59.7736 27.206 59.2202 27.3422 58.6839 27.5572C58.2071 27.7487 57.7474 27.9743 57.3132 28.2468C56.4852 28.764 55.7403 29.4153 55.0911 30.1389C54.4292 30.8775 53.8503 31.6905 53.3437 32.5419C53.2266 32.7398 53.1138 32.9399 53.0053 33.1421C52.935 33.2677 52.9116 33.4209 52.9499 33.5614C52.984 33.6891 53.0819 33.8253 53.2011 33.8892C53.3288 33.9552 53.482 33.9892 53.6225 33.9424C53.7566 33.8998 53.8822 33.819 53.9503 33.6934Z" fill="#F79C9C"/>
</g>
<mask id="mask1_252_60" style="mask-type:luminance" maskUnits="userSpaceOnUse" x="17" y="47" width="10" height="10">
<path d="M17.0859 47.1748H26.4637V56.9165H17.0859V47.1748Z" fill="white"/>
</mask>
<g mask="url(#mask1_252_60)">
<path d="M23.1366 56.8697C22.6023 56.9208 22.0596 56.9208 21.519 56.9102C20.0376 56.8868 18.3178 56.6995 17.5537 55.6672C17.1281 55.0925 17.111 54.3859 17.1089 53.7176C17.1025 52.7066 17.0961 51.6956 17.0919 50.6846C17.077 47.9985 19.0287 47.2472 22.0979 47.2962C23.1876 47.3153 24.3689 47.3579 25.2139 47.9177C26.3568 48.6775 26.4292 50.0503 26.4058 51.2507C26.3888 52.1127 26.3717 52.9769 26.3547 53.841C26.3441 54.4008 26.327 54.984 26.0227 55.4863C25.6481 56.1078 24.8755 56.5228 24.0582 56.7229C23.7559 56.7952 23.4494 56.8421 23.1366 56.8697Z" fill="#F49090"/>
</g>
<mask id="mask2_252_60" style="mask-type:luminance" maskUnits="userSpaceOnUse" x="36" y="47" width="11" height="10">
<path d="M36.6113 47.1748H46.0317V56.9165H36.6113V47.1748Z" fill="white"/>
</mask>
<g mask="url(#mask2_252_60)">
<path d="M42.6777 56.8697C42.1435 56.9208 41.5986 56.9208 41.0602 56.9102C39.5788 56.8868 37.859 56.6995 37.0928 55.6672C36.6693 55.0925 36.6522 54.3859 36.648 53.7176C36.6437 52.7066 36.6373 51.6956 36.6309 50.6846C36.616 47.9985 38.5699 47.2472 41.6391 47.2962C42.7288 47.3153 43.9101 47.3579 44.7551 47.9177C45.898 48.6775 45.9683 50.0503 45.9448 51.2507C45.9278 52.1127 45.9108 52.9769 45.8959 53.841C45.8853 54.4008 45.8682 54.984 45.5639 55.4863C45.1893 56.1078 44.4167 56.5228 43.5993 56.7229C43.2971 56.7952 42.9885 56.8421 42.6777 56.8697Z" fill="#F49090"/>
</g>
<path d="M15.8317 19.3305C15.8402 20.0009 15.8529 20.6948 16.1339 21.3056C16.5042 22.1102 17.3003 22.6572 18.1452 22.9296C18.9923 23.202 19.8927 23.2382 20.7802 23.2701C21.5975 23.2999 22.4638 23.3212 23.1789 22.9253C23.9877 22.4784 24.4517 21.5759 24.6305 20.6714C25.0626 18.5089 24.1005 16.2464 22.5851 14.6416C21.4847 13.4752 16.9384 9.75688 15.489 11.3787C14.7057 12.2556 15.4975 13.4135 15.6529 14.3032C15.9402 15.9378 15.8125 17.6724 15.8317 19.3305Z" fill="#F49090"/>
<path d="M11.9246 20.1945C12.0927 20.8458 12.2715 21.5163 12.6908 22.042C13.2421 22.7358 14.1488 23.0764 15.0342 23.1402C15.9196 23.2041 16.8029 23.0232 17.6734 22.8423C18.4758 22.6784 19.3187 22.4911 19.921 21.9355C20.6 21.3098 20.832 20.3222 20.7915 19.4027C20.6915 17.1998 19.2165 15.2311 17.3605 14.0328C16.0133 13.1623 10.7071 10.6358 9.68763 12.5557C9.1385 13.5943 10.1836 14.5287 10.5475 15.3566C11.218 16.8763 11.5095 18.5876 11.9246 20.1945Z" fill="#F79C9C"/>
<mask id="mask3_252_60" style="mask-type:luminance" maskUnits="userSpaceOnUse" x="0" y="15" width="58" height="38">
<path d="M0.521484 15.1758H57.8629V52.2271H0.521484V15.1758Z" fill="white"/>
</mask>
<g mask="url(#mask3_252_60)">
<path d="M49.1257 48.47C43.694 51.7116 37.0044 51.784 30.6724 51.7414C26.654 51.7137 22.593 51.6733 18.6938 50.707C14.7967 49.7407 11.0166 47.7464 8.66258 44.4984C8.6115 44.4303 8.56255 44.3579 8.5136 44.2877C7.44726 42.7638 6.57249 40.9823 4.91446 40.1607C3.90559 39.6584 2.66899 39.5584 1.83466 38.8071C1.81976 38.7943 1.80486 38.7794 1.78783 38.7645C0.923698 37.9451 0.791736 36.6403 0.712986 35.4527C0.608694 33.8628 0.515044 32.1047 1.2536 30.6361C1.42387 30.3019 1.63884 30.0444 1.88787 29.8358C2.81159 29.0568 4.18229 28.9568 5.20392 28.0948C6.43201 27.0604 7.00243 25.4705 7.79632 24.0742C10.0801 20.0494 14.3986 17.4975 18.8853 16.3311C23.3699 15.1626 28.0715 15.2158 32.7072 15.2946C37.9537 15.3839 43.4067 15.5457 48.0828 17.921C48.1999 17.9806 48.3169 18.0423 48.4319 18.1041C48.9682 18.3935 49.4875 18.7106 49.9856 19.0554C54.4787 22.1587 57.4478 27.4265 57.6351 32.888C57.8458 39.088 54.4638 45.2838 49.1257 48.47Z" fill="#F79C9C"/>
</g>
<mask id="mask4_252_60" style="mask-type:luminance" maskUnits="userSpaceOnUse" x="0" y="32" width="58" height="21">
<path d="M0.521484 32.0674H57.8629V52.2276H0.521484V32.0674Z" fill="white"/>
</mask>
<g mask="url(#mask4_252_60)">
<path d="M57.5921 32.1572C57.1558 37.7145 53.9334 43.0291 49.1253 45.8982C43.6937 49.1398 37.0041 49.2121 30.6721 49.1696C26.6536 49.144 22.5926 49.1015 18.6934 48.1352C14.7963 47.1689 11.0162 45.1767 8.66221 41.9266C8.61113 41.8585 8.56217 41.7861 8.51322 41.7159C7.44689 40.192 6.57211 38.4105 4.91409 37.5889C3.90522 37.0866 2.66862 36.9866 1.83428 36.2353C1.81938 36.2225 1.80448 36.2076 1.78746 36.1927C0.923323 35.3732 0.791362 34.0685 0.712611 32.8809C0.708355 32.8043 0.704097 32.7255 0.697712 32.6489C0.597677 33.5811 0.653016 34.5453 0.712611 35.4541C0.791362 36.6418 0.923323 37.9465 1.78746 38.7659C1.80448 38.7808 1.81938 38.7957 1.83428 38.8085C2.66862 39.5598 3.90522 39.6599 4.91409 40.1622C6.57211 40.9837 7.44689 42.7652 8.51322 44.2891C8.56217 44.3594 8.61113 44.4317 8.66221 44.4999C11.0162 47.7478 14.7963 49.7421 18.6934 50.7084C22.5926 51.6747 26.6536 51.7152 30.6721 51.7428C37.0041 51.7854 43.6937 51.713 49.1253 48.4715C54.4634 45.2852 57.8454 39.0894 57.6347 32.8894C57.6262 32.6446 57.6113 32.3999 57.5921 32.1572Z" fill="#F49090"/>
</g>
<path d="M12.67 27.4871C12.67 28.2789 12.0273 28.9195 11.2355 28.9195C10.4416 28.9195 9.79883 28.2789 9.79883 27.4871C9.79883 26.6975 10.4416 26.0547 11.2355 26.0547C12.0273 26.0547 12.67 26.6975 12.67 27.4871Z" fill="#4D4D4D"/>
<mask id="mask5_252_60" style="mask-type:luminance" maskUnits="userSpaceOnUse" x="0" y="29" width="4" height="11">
<path d="M0.521484 29.3428H3.37568V39.1505H0.521484V29.3428Z" fill="white"/>
</mask>
<g mask="url(#mask5_252_60)">
<path d="M2.69453 36.4158C2.58811 37.1863 2.43061 37.9781 1.98364 38.6166C1.93682 38.6826 1.88787 38.7464 1.83466 38.8081C1.81976 38.7954 1.80486 38.7805 1.78783 38.7656C0.923698 37.9461 0.791736 36.6414 0.712986 35.4538C0.608694 33.8639 0.515044 32.1058 1.2536 30.6372C1.42387 30.303 1.63884 30.0455 1.88787 29.8369C2.21138 30.4839 2.43061 31.1842 2.52852 31.5567C2.94356 33.1359 2.91589 34.8089 2.69453 36.4158Z" fill="#FFBDBD"/>
</g>
<path d="M49.6263 21.5701C49.5604 21.0806 49.2411 20.6442 48.8984 20.2739C48.2195 19.5396 47.3575 18.9117 46.3656 18.7691C44.4479 18.4924 42.9857 20.4016 44.1755 22.083C44.5948 22.6769 45.2482 23.0727 45.9357 23.3133C46.9062 23.6517 48.0577 23.6793 48.8899 23.0749C49.3199 22.7641 49.6434 22.2682 49.637 21.7361C49.637 21.6808 49.6327 21.6254 49.6263 21.5701Z" fill="#FFBDBD"/>
<path d="M50.2491 24.9217C50.4087 25.3282 50.7726 25.6326 51.177 25.7965C51.6687 25.9944 52.3136 25.9689 52.6286 25.5453C53.9908 23.7255 49.2742 22.44 50.2491 24.9217Z" fill="#FFBDBD"/>
<path d="M37.0295 17.3643C37.0231 17.3643 37.0167 17.3643 37.0103 17.3643C32.6939 17.1961 31.8787 17.194 27.3111 17.3408C27.0408 17.3494 26.8174 17.1386 26.8088 16.8705C26.8003 16.6023 27.011 16.3788 27.2792 16.3703C31.8787 16.2234 32.7003 16.2256 37.0465 16.3937C37.3168 16.4043 37.5254 16.6321 37.5147 16.8981C37.5041 17.1599 37.2891 17.3643 37.0295 17.3643Z" fill="#4D4D4D"/>
<mask id="mask6_252_60" style="mask-type:luminance" maskUnits="userSpaceOnUse" x="27" y="0" width="11" height="10">
<path d="M27.3496 0.120117H37.1573V9.72774H27.3496V0.120117Z" fill="white"/>
</mask>
<g mask="url(#mask6_252_60)">
<path d="M36.8697 4.83411C36.8697 7.42864 34.7605 9.53363 32.1574 9.53363C29.5565 9.53363 27.4473 7.42864 27.4473 4.83411C27.4473 2.23958 29.5565 0.136719 32.1574 0.136719C34.7605 0.136719 36.8697 2.23958 36.8697 4.83411Z" fill="#DDAD43"/>
</g>
<path d="M32.1583 8.55056C30.1044 8.55056 28.4336 6.88402 28.4336 4.83436C28.4336 2.78471 30.1044 1.11816 32.1583 1.11816C34.2143 1.11816 35.8851 2.78471 35.8851 4.83436C35.8851 6.88402 34.2143 8.55056 32.1583 8.55056Z" fill="#F2C964"/>
</svg>
