<svg width="71" height="71" viewBox="0 0 71 71" fill="none" xmlns="http://www.w3.org/2000/svg">
<mask id="mask0_1399_739" style="mask-type:luminance" maskUnits="userSpaceOnUse" x="3" y="16" width="65" height="32">
<path d="M3.95215 16H67.2753V47.7409H3.95215V16Z" fill="white"/>
</mask>
<g mask="url(#mask0_1399_739)">
<path d="M67.2031 44.8882C67.27 46.1132 66.4666 47.1547 65.4548 47.1547H5.4149C4.92639 47.1547 4.54203 46.6637 4.55195 46.076C4.53955 32.043 12.1499 26.5057 20.043 27.2943L29.0917 18.2457C29.6446 17.7919 30.3985 17.7547 31.0531 17.5216C43.747 14.0251 56.6046 18.2134 61.3459 31.6016C61.3459 31.6041 66.474 31.4256 67.2031 44.8882Z" fill="#E24444"/>
</g>
<path d="M39.6702 32.0578H36.1341C35.8911 32.0578 35.6927 31.8594 35.6927 31.6139C35.772 31.2246 35.4249 29.9327 36.1341 29.9575H39.6702C40.3745 29.9302 40.0372 31.2271 40.1141 31.6139C40.1116 31.8594 39.9132 32.0578 39.6702 32.0578Z" fill="#D32626"/>
<path d="M45.9219 32.0578H42.3883C42.1452 32.0578 41.9444 31.8594 41.9444 31.6139C42.0262 31.2246 41.6766 29.9327 42.3883 29.9575H45.9244C46.6286 29.9302 46.2914 31.2271 46.3658 31.6139C46.3633 31.8594 46.1649 32.0578 45.9219 32.0578Z" fill="#D32626"/>
<path d="M29.2561 45.6017C29.4248 46.4869 29.0379 47.7169 27.9617 47.6971H12.5574C11.8383 47.6971 11.2432 47.0722 11.2432 46.2935C11.2308 33.9418 28.4056 33.2277 29.2561 45.6017Z" fill="#D32626"/>
<path d="M26.6151 46.8501C26.4589 55.9235 14.0576 55.9235 13.9014 46.8501C14.0601 37.7791 26.4589 37.7791 26.6151 46.8501Z" fill="#1D2626"/>
<path d="M22.4091 43.5122C21.7767 43.0088 20.9609 42.7832 20.1401 42.8278C19.049 42.8551 17.9728 43.3485 17.276 44.333C16.7924 44.9753 16.4924 45.8184 16.5023 46.8524C16.4948 47.5145 16.6114 48.0799 16.8197 48.5511C18.2257 52.0475 23.8548 51.6979 24.016 46.8524C24.0036 45.2902 23.339 44.1693 22.4091 43.5122Z" fill="#D6D6D6"/>
<path d="M62.5857 45.6017C62.7568 46.4869 62.37 47.7169 61.2937 47.6971H45.8895C45.1703 47.6971 44.5752 47.0722 44.5752 46.2935C44.5653 33.9418 61.7376 33.2277 62.5857 45.6017Z" fill="#D32626"/>
<path d="M59.9506 46.8501C59.7944 55.9235 47.3931 55.9235 47.2344 46.8501C47.3931 37.7791 59.7944 37.7791 59.9506 46.8501Z" fill="#1D2626"/>
<path d="M55.7421 43.5122C55.1097 43.0088 54.2939 42.7832 53.4706 42.8278C52.382 42.8551 51.3058 43.3485 50.609 44.333C50.1254 44.9753 49.8254 45.8184 49.8353 46.8524C49.8279 47.5145 49.9444 48.0799 50.1527 48.5511C51.5587 52.0475 57.1878 51.6979 57.349 46.8524C57.3341 45.2902 56.672 44.1693 55.7421 43.5122Z" fill="#D6D6D6"/>
<mask id="mask1_1399_739" style="mask-type:luminance" maskUnits="userSpaceOnUse" x="3" y="42" width="7" height="4">
<path d="M3 42.0273H9.66559V45.8363H3V42.0273Z" fill="white"/>
</mask>
<g mask="url(#mask1_1399_739)">
<path d="M9.03866 43.9374C9.04114 44.6887 8.56006 45.4352 7.79878 45.45H4.26016C3.51127 45.4476 3.0054 44.6739 3.0178 43.9374C3.01284 43.1835 3.50135 42.4421 4.26016 42.4297H7.79878C8.55758 42.4545 9.03122 43.1538 9.03866 43.9374Z" fill="#D6D6D6"/>
</g>
<path d="M7.99469 33.3809C7.79879 33.2593 7.52354 33.3164 7.19869 33.5916C6.8292 33.8842 6.41508 34.4496 6.01088 35.3498C5.86706 35.6573 5.75795 35.9573 5.68108 36.2425C5.54717 36.7112 5.50501 37.1104 5.53229 37.4154C5.59924 38.8512 6.74985 39.186 8.00461 36.4929C8.73118 34.8538 8.56008 33.6139 7.99469 33.3809Z" fill="#F5D542"/>
<path d="M29.4646 19.6792L22.4344 27.5772C21.7153 28.4129 20.6143 28.1277 20.0439 27.2772L29.0926 18.2285C29.4918 18.5806 29.9084 19.1882 29.4646 19.6792Z" fill="#D6D6D6"/>
<path d="M40.6747 18.139V28.6805C40.573 28.3531 22.022 29.3773 23.2767 28.1746C30.1283 21.3577 29.9745 17.7869 40.6747 18.139Z" fill="#D6D6D6"/>
<path d="M57.4654 28.6445H41.4561V18.113C46.1726 17.9741 51.0155 19.3529 54.1599 22.7625C55.5014 24.0892 58.435 28.3172 57.4654 28.6445Z" fill="#D6D6D6"/>
</svg>
