<svg width="71" height="71" viewBox="0 0 71 71" fill="none" xmlns="http://www.w3.org/2000/svg">
<mask id="mask0_1399_2684" style="mask-type:luminance" maskUnits="userSpaceOnUse" x="8" y="8" width="54" height="54">
<path d="M8.39551 8.19141H61.5219V62.0005H8.39551V8.19141Z" fill="white"/>
</mask>
<g mask="url(#mask0_1399_2684)">
<path d="M61.4879 19.3822L58.2193 17.5554L56.4308 16.5533L50.7184 13.353L47.0812 11.3214L45.2927 10.3193L41.9941 8.4707L38.043 15.9088L36.3063 19.1828C35.7029 18.5384 34.8864 18.1425 33.9962 18.0687L26.64 17.4871C26.2004 16.4905 24.9116 15.9689 24.9116 15.9689L17.8393 18.036C17.8393 18.036 17.0392 19.1692 17.2058 20.2423L11.335 24.6959C10.5568 25.2884 10.0544 26.1731 9.95336 27.1452L8.66998 39.3838L8.42969 41.6802C10.7616 43.1656 13.6151 43.3622 16.9328 42.4065L21.7468 60.3793C21.7468 60.3793 22.3393 60.3875 23.4398 60.2946L22.8827 55.5216L25.5287 60.0625C27.4701 59.7922 30.1079 59.2925 33.289 58.3778L39.1188 61.5289L42.7369 54.7133C43.8291 54.1453 44.5964 53.7003 44.5964 53.7003L44.0994 52.152L46.4232 47.7721L50.0467 50.3416L54.5276 43.5151L50.3197 40.4296L57.7661 26.3971L61.4879 19.3822ZM46.1365 25.1028L44.4025 29.2369L44.2059 28.9938L42.6823 27.0988L45.5248 24.1743C45.6231 24.5348 45.8306 24.8652 46.1392 25.1L46.1365 25.1028Z" fill="#F4999A"/>
</g>
<path d="M53 16.9985C53 17.1316 52.9639 17.2587 52.887 17.3828C52.8102 17.5038 52.7018 17.6127 52.5617 17.7065C52.4217 17.8003 52.259 17.8729 52.0738 17.9244C51.8931 17.9758 51.6988 18 51.5 18C51.3012 18 51.1114 17.9758 50.9262 17.9244C50.741 17.8729 50.5783 17.8003 50.4383 17.7065C50.2982 17.6127 50.1898 17.5038 50.113 17.3828C50.0361 17.2587 50 17.1316 50 16.9985C50 16.8684 50.0361 16.7383 50.113 16.6172C50.1898 16.4932 50.2982 16.3873 50.4383 16.2935C50.5783 16.1997 50.741 16.1271 50.9262 16.0756C51.1114 16.0242 51.3012 16 51.5 16C51.6988 16 51.8931 16.0242 52.0738 16.0756C52.259 16.1271 52.4217 16.1997 52.5617 16.2935C52.7018 16.3873 52.8102 16.4932 52.887 16.6172C52.9639 16.7383 53 16.8684 53 16.9985Z" fill="#56A1BF"/>
<path d="M45.4779 10L47 10.9993L45.5151 14L44 12.9843L45.4779 10Z" fill="#56A1BF"/>
<path d="M56.4334 17L59 17.7635L56.5549 20L54 19.224L56.4334 17Z" fill="#56A1BF"/>
<mask id="mask1_1399_2684" style="mask-type:luminance" maskUnits="userSpaceOnUse" x="32" y="50" width="12" height="13">
<path d="M32.8623 50.1348H43.3478V62.0019H32.8623V50.1348Z" fill="white"/>
</mask>
<g mask="url(#mask1_1399_2684)">
<path d="M40.5132 50.1445L42.7359 54.7128L39.1179 61.5284L33.2881 58.3773C33.37 58.35 33.4574 58.3281 33.542 58.3035C36.5402 57.427 38.6674 56.5532 40.4559 55.7586L40.5132 50.1445Z" fill="#1A608C"/>
</g>
<path d="M43 35L40.4281 40L39 36.3998C40.505 36.0321 41.8462 35.5664 43 35Z" fill="#083A59"/>
<path d="M54 43.1129L49.5768 50L46 47.4077L49.8464 40L54 43.1129Z" fill="#083A59"/>
<path d="M37.687 16.1873L41.5252 9L44.7294 10.7863L43.0424 13.6781L44.7719 14.6623L46.4668 11.7546L50 13.7177L45.0955 22.9103C44.878 23.314 44.8408 23.7652 44.9549 24.1741L42.1936 27L36.1751 19.5488C36.122 19.4776 36.0637 19.4116 36 19.3509L37.687 16.1873Z" fill="#1A608C"/>
<path d="M57.3524 26.1116L50.0544 40.2168L46.2355 47.5974L43.9581 52L40 39.3824L42.058 34.3431C43.6182 33.3742 44.7716 32.1144 45.4835 30.5361L44.2551 28.9661L45.9545 24.8106L45.9572 24.8079C45.6548 24.5718 45.4514 24.2397 45.355 23.8774C45.24 23.452 45.2774 22.9826 45.4969 22.5627L50.4451 13L56.0437 16.2168L54.3818 19.151L56.1267 20.1747L57.7966 17.2242L61 19.0604L57.3524 26.1116ZM52.4068 16.3458C52.4068 15.8436 52.008 15.4401 51.5183 15.4401C51.0285 15.4401 50.6298 15.8436 50.6298 16.3458C50.6298 16.8454 51.0285 17.2543 51.5183 17.2543C52.008 17.2543 52.4068 16.8454 52.4068 16.3458Z" fill="#1A608C"/>
<path d="M25.5844 24.0288L29 34.089L27.2063 34.5445L25.4096 35L22 24.9398C22.618 23.7644 22.9496 22 22.9496 22C22.9496 22 24.3333 23.3298 25.5844 24.0288ZM26.8114 33.3822C27.2063 33.2801 27.4324 32.9241 27.3148 32.5838C27.2003 32.2435 26.7842 32.0445 26.3923 32.1492C25.9944 32.2461 25.7683 32.6047 25.8859 32.945C26.0004 33.288 26.4165 33.4817 26.8114 33.3822ZM25.6598 29.9948C26.0577 29.8953 26.2838 29.5393 26.1662 29.199C26.0517 28.8534 25.6357 28.6623 25.2438 28.7592C24.8488 28.8613 24.6197 29.2199 24.7403 29.5602C24.8519 29.9005 25.2679 30.0969 25.6598 29.9948ZM24.5112 26.6099C24.9091 26.5131 25.1352 26.1518 25.0177 25.8115C24.9031 25.4712 24.4871 25.2723 24.0922 25.3743C23.7003 25.4738 23.4742 25.8298 23.5917 26.1754C23.7033 26.5157 24.1193 26.7094 24.5112 26.6099Z" fill="#F27889"/>
<path d="M25.9791 33.3594C26.058 33.6238 25.9064 33.9004 25.6415 33.9797C25.3767 34.057 25.0977 33.9065 25.0208 33.6401C24.942 33.3757 25.0936 33.097 25.3605 33.0217C25.6233 32.9404 25.9023 33.095 25.9791 33.3594Z" fill="#EAEBEC"/>
<path d="M26.4822 17.6203C26.8837 18.6666 27.4066 24.1513 26.4946 24.8944C26.1872 25.1421 25.6916 24.9265 25.1661 24.533C24.1376 23.7549 23 22.2745 23 22.2745L24.9133 16C24.9133 16 26.0831 16.5566 26.4822 17.6203Z" fill="#F1666F"/>
<path d="M24.9582 25.3601C25.1162 25.6242 24.8124 25.9046 24.2776 25.9798C23.7509 26.057 23.1917 25.9066 23.0418 25.6425C22.8838 25.3743 23.1877 25.098 23.7144 25.0208C24.2451 24.9416 24.8043 25.096 24.9582 25.3601Z" fill="#EAEBEC"/>
<path d="M17.7006 18L23 21.3568C23 21.3568 22.6794 22.9775 22.0818 24.0571C21.7757 24.6054 21.3997 25.0118 20.9625 24.9997C19.6566 24.9613 17.1993 20.8783 17.0244 19.9429C16.8465 18.9979 17.7006 18 17.7006 18Z" fill="#F1666F"/>
<path d="M37.8093 33.9843L35.0183 24.5257C34.9501 24.3 35.0793 24.0584 35.2938 24.0079C35.4741 23.9681 35.6545 24.0823 35.7155 24.2734C36.9269 28.0016 39.4424 30.3225 41 32.091C40.5515 33.2726 39.3279 34.1277 37.8093 33.9843Z" fill="#F49095"/>
<path d="M16 39.927L13.0562 30.3484C12.9701 30.0727 12.626 29.9256 12.3248 30.038C12.1036 30.1209 11.9714 30.3243 12.0052 30.5331C12.6014 34.4245 12.8933 37.9546 12.165 40.2723C13.5663 41.2839 14.8569 41.3053 16 39.927Z" fill="#F49095"/>
<path d="M44.651 30.2084L46 31.548C45.2182 32.8946 43.9515 33.9696 42.2381 34.7963C41.2241 35.2834 40.0456 35.6838 38.723 36L38 34.2061C40.939 33.3396 43.0845 31.9368 44.4394 30L44.651 30.2084Z" fill="#F1666F"/>
<path d="M16.396 40.2488L17 43.1891C13.4884 44.5136 10.4682 44.2412 8 42.1825L8.25434 39C10.6734 40.6953 13.3844 41.1154 16.396 40.2488Z" fill="#F1666F"/>
<path d="M24.96 25.3596C24.8061 25.0953 24.2471 24.9428 23.7165 25.0201C23.1899 25.0973 22.8861 25.3759 23.04 25.6402C23.198 25.9066 23.7529 26.057 24.2835 25.9798C24.8101 25.9025 25.1139 25.6239 24.96 25.3596Z" fill="#3A322B"/>
<path d="M25.02 33.6403C25.0989 33.9066 25.3761 34.057 25.6412 33.9798C25.9063 33.9025 26.058 33.624 25.9791 33.3597C25.9022 33.0934 25.623 32.943 25.3599 33.0202C25.0948 33.0975 24.9431 33.376 25.02 33.6403Z" fill="#3A322B"/>
<mask id="mask2_1399_2684" style="mask-type:luminance" maskUnits="userSpaceOnUse" x="8" y="8" width="54" height="54">
<path d="M8 8H62.0002V62.0002H8V8Z" fill="white"/>
</mask>
<g mask="url(#mask2_1399_2684)">
<path d="M61.6976 19.0102L56.6432 16.1813L42.2011 8.09606C42.1001 8.04145 41.9827 8.0278 41.8707 8.06056C41.7615 8.09333 41.6687 8.16706 41.614 8.27082L36.1856 18.4942C35.5712 18.0108 34.8203 17.7078 34.0312 17.6449L26.9098 17.077C26.3309 16.094 25.1267 15.5915 25.0721 15.5697C25.0557 15.5615 25.0366 15.5642 25.0202 15.5588C24.9902 15.5506 24.9629 15.5451 24.9301 15.5424C24.9028 15.5424 24.8755 15.5451 24.8482 15.5506C24.8291 15.5533 24.81 15.5479 24.7909 15.5533L17.7159 17.6231C17.6968 17.6286 17.6831 17.6422 17.664 17.6504C17.6394 17.6613 17.6149 17.6723 17.5903 17.6886C17.5657 17.7078 17.5466 17.7269 17.5275 17.7487C17.5138 17.7624 17.4974 17.7733 17.4865 17.7869C17.4538 17.8361 16.711 18.9065 16.7575 20.0451L11.0751 24.354C10.204 25.0148 9.64152 26.0142 9.52684 27.0983L8.24346 39.3395C8.24346 39.3395 8.24346 39.3395 8.24346 39.3422L8.00317 41.6359C7.98678 41.7971 8.06324 41.9554 8.19977 42.0428C9.63606 42.9548 11.2908 43.4136 13.1449 43.4136C14.2371 43.4136 15.4003 43.247 16.6291 42.9275L21.3339 60.4907C21.3831 60.6764 21.5496 60.8074 21.7408 60.8074C21.7435 60.8074 21.7572 60.8074 21.779 60.8074C21.9319 60.8074 22.5108 60.802 23.4747 60.7201C23.5894 60.7119 23.6959 60.6545 23.7696 60.5672C23.8433 60.477 23.8761 60.3596 23.8625 60.2449L23.5457 57.5089L25.1568 60.275C25.2414 60.4252 25.4107 60.5071 25.5855 60.4852C28.0075 60.1466 30.5797 59.5869 33.2311 58.8305L38.9162 61.9051C38.979 61.9406 39.0473 61.957 39.1183 61.957C39.1592 61.957 39.2029 61.9516 39.2439 61.9406C39.3531 61.9079 39.4432 61.8314 39.4978 61.7304L43.0531 55.0322C44.0798 54.4943 44.8034 54.0765 44.8088 54.0711C44.9836 53.97 45.0628 53.7625 45.0027 53.5714L44.5604 52.1924L46.5701 48.4024L49.7976 50.6879C49.8714 50.7397 49.9587 50.767 50.0461 50.767C50.0707 50.767 50.098 50.7643 50.1253 50.7589C50.24 50.737 50.3383 50.6715 50.4038 50.5732L54.882 43.7522C55.0076 43.561 54.9612 43.3071 54.7782 43.1733L50.8708 40.3034L61.8669 19.5837C61.9734 19.3789 61.8996 19.1249 61.6976 19.0102ZM57.629 17.7132L56.3565 19.9086L55.3216 19.3133L56.5859 17.1316L57.629 17.7132ZM46.4909 11.4793L45.1775 13.7457L44.1426 13.1504L45.4505 10.8949L46.4909 11.4793ZM42.1656 9.05723L44.7024 10.4771L43.1869 13.093C43.1295 13.1913 43.1131 13.3088 43.1432 13.4207C43.1732 13.5299 43.2442 13.6228 43.3425 13.6801L45.1201 14.7014C45.1857 14.7396 45.2594 14.7587 45.3331 14.7587C45.4806 14.7587 45.6253 14.6823 45.7045 14.5457L47.2391 11.897L50.1417 13.5245L45.2922 22.6638C45.0573 23.1034 44.9945 23.5813 45.0628 24.0345L42.7145 26.4538L36.8246 19.1222L38.3619 16.2223L42.2284 14.1061C42.436 13.9941 42.5124 13.7347 42.3977 13.5272C42.2858 13.3197 42.0264 13.2432 41.8188 13.3552L39.0937 14.8461L42.1656 9.05723ZM39.435 36.2649C40.1013 36.0491 40.7239 35.8034 41.3028 35.5276L40.1122 38.3674L39.435 36.2649ZM39.1702 35.443L38.7497 34.1405C41.158 33.1766 43.0039 31.6966 44.2491 29.7333L45.1529 30.8556C44.088 32.9608 42.0728 34.4982 39.1702 35.443ZM44.2846 28.4089L43.2524 27.1256L45.4014 24.9138C45.4669 25.0176 45.5434 25.1131 45.628 25.2032L44.2846 28.4089ZM26.2517 17.6586C26.7514 18.7809 27.0709 23.4911 26.4074 23.9499C26.066 24.1902 24.5861 23.1307 23.2918 21.7463L25.1486 16.5664C25.5363 16.7957 26.036 17.178 26.2517 17.6586ZM22.5955 21.1483L18.7672 18.2075L24.2229 16.6128L22.5955 21.1483ZM17.6258 20.1789C17.5439 19.6328 17.7705 19.043 17.9616 18.6689L22.3361 22.0276C22.0002 23.8816 21.3339 25.5582 20.9161 25.5582C20.9134 25.5582 20.9134 25.5582 20.9107 25.5582C20.1024 25.5282 17.8142 21.3913 17.6258 20.1789ZM23.0651 22.7457C23.543 23.2236 24.1765 23.8052 24.8236 24.2339L27.7508 34.1678L25.3206 34.8777L22.3961 24.9438C22.7074 24.2366 22.9259 23.4038 23.0651 22.7457ZM8.88242 41.4557L9.02987 40.0385C10.447 40.6966 11.9735 41.027 13.5927 41.027C14.39 41.027 15.2119 40.9396 16.053 40.7813L16.4079 42.1056C13.4507 42.8756 10.9222 42.6572 8.88242 41.4557ZM38.9435 60.9494L34.3998 58.4892C37.0949 57.6645 39.0582 56.8481 40.631 56.1463C40.7839 56.0808 40.8822 55.9279 40.885 55.7613L40.9232 51.9658L42.2557 54.7046L38.9435 60.9494ZM42.9275 54.1284L40.8959 49.9588C40.8113 49.7786 40.6119 49.683 40.418 49.7267C40.2242 49.7704 40.0876 49.9424 40.0849 50.1417L40.033 55.4773C38.3838 56.2037 36.314 57.0474 33.4223 57.8912C30.7599 58.6694 28.1823 59.2428 25.7493 59.5951L23.2535 55.3053C23.1525 55.1305 22.9422 55.0513 22.7484 55.1142C22.5572 55.1797 22.4344 55.3681 22.4589 55.5702L22.9641 59.9036C22.5763 59.9282 22.2787 59.9418 22.0739 59.9473L14.0159 29.8644C13.9531 29.635 13.721 29.5012 13.4917 29.5613C13.2623 29.6241 13.1258 29.8589 13.1886 30.0855L15.829 39.9484C13.377 40.4017 11.127 40.1259 9.12817 39.1238L10.3788 27.1884C10.4662 26.3392 10.9085 25.5527 11.5912 25.0367L16.9704 20.9572C17.5876 22.6556 19.5126 26.361 20.8806 26.4129C20.8916 26.4129 20.9025 26.4129 20.9134 26.4129C21.2465 26.4129 21.5387 26.2272 21.7954 25.935L24.6216 35.5276C24.6762 35.7133 24.8455 35.8362 25.0312 35.8362C25.0721 35.8362 25.1131 35.8307 25.1513 35.817L28.4034 34.8668C28.5127 34.834 28.6028 34.7603 28.6574 34.662C28.712 34.561 28.7256 34.4436 28.6929 34.3371L25.8667 24.7472C26.0251 24.7936 26.178 24.8209 26.3227 24.8209C26.533 24.8209 26.7241 24.7691 26.8934 24.6517C28.0184 23.8762 27.6307 19.7229 27.2265 17.959L33.9629 18.4969C34.8176 18.5652 35.6177 18.9857 36.1529 19.6547L43.6811 29.0261C42.5424 30.9429 40.7976 32.3847 38.4875 33.324L35.361 23.6031C35.2873 23.3765 35.047 23.2536 34.8203 23.3246C34.5964 23.3983 34.4735 23.6386 34.5445 23.8652L43.6866 52.2743C43.6866 52.2771 43.6866 52.2771 43.6866 52.2771L44.0825 53.5004C43.8258 53.6451 43.4244 53.8663 42.9275 54.1284ZM53.9454 43.6211L49.9314 49.7322L46.9742 47.6405L50.4639 41.068L53.9454 43.6211ZM57.9949 25.0503L57.5634 22.1887C57.5279 21.9566 57.3095 21.7955 57.0747 21.8309C56.8426 21.8664 56.6815 22.0822 56.717 22.317L57.3232 26.32L44.1945 51.0565L40.5136 39.618L42.5015 34.8723C44.1235 33.8647 45.3113 32.5622 46.0431 30.9784C46.1113 30.831 46.0895 30.6562 45.9885 30.5306L44.8935 29.1681L46.3325 25.733L46.5728 25.8695C46.6383 25.9077 46.7121 25.9241 46.7831 25.9241C46.9332 25.9241 47.078 25.8477 47.1572 25.7084C47.2718 25.5036 47.2008 25.2415 46.996 25.124L46.581 24.8892C45.9338 24.5233 45.699 23.7205 46.0485 23.0652L50.8899 13.9423L55.8404 16.7138L54.3659 19.256C54.3086 19.3543 54.2922 19.4717 54.3222 19.5809C54.3523 19.6902 54.4233 19.7857 54.5243 19.8403L56.2992 20.8643C56.3674 20.9025 56.4412 20.9189 56.5122 20.9189C56.6596 20.9189 56.8043 20.8425 56.8835 20.7059L58.3744 18.131L60.9112 19.5536L57.9949 25.0503Z" fill="#3A322B"/>
</g>
<path d="M51.5015 16C50.6725 16 50 16.4492 50 17.001C50 17.5528 50.6725 18 51.5015 18C52.3275 18 53 17.5528 53 17.001C53 16.4492 52.3275 16 51.5015 16ZM51.5015 17.3579C51.2037 17.3579 50.9611 17.1979 50.9611 17.001C50.9611 16.8041 51.2037 16.6441 51.5015 16.6441C51.7963 16.6441 52.0389 16.8041 52.0389 17.001C52.0389 17.1979 51.7994 17.3579 51.5015 17.3579Z" fill="#3A322B"/>
</svg>
