<svg width="71" height="71" viewBox="0 0 71 71" fill="none" xmlns="http://www.w3.org/2000/svg">
<path d="M31.0121 13.6049C31.3 11.706 32.9525 10.4411 32.9813 10.4221L32.8374 10.1811L32.6905 9.94336C32.6128 10.0004 30.8278 11.3573 30.4996 13.5066C30.3154 14.6986 30.6177 15.8906 31.4008 17.0477C33.8133 20.6268 30.6724 23.7209 30.5371 23.8477L30.8768 24.2821C30.9142 24.2472 34.5216 20.7156 31.8182 16.7053C31.1244 15.6782 30.8538 14.6352 31.0121 13.6049ZM36.4764 13.6049C36.7672 11.6996 38.4341 10.4347 38.4485 10.4221L38.3016 10.1811L38.1577 9.94336C38.08 10.0004 36.295 11.3573 35.9639 13.5066C35.7825 14.6986 36.0848 15.8906 36.865 17.0477C39.2805 20.6268 36.1367 23.7209 36.0042 23.8477L36.3439 24.2821C36.3814 24.2472 39.9887 20.7156 37.2825 16.7053C36.5915 15.6782 36.3209 14.6352 36.4764 13.6049ZM41.9435 13.6049C42.2343 11.6996 43.8984 10.4347 43.9156 10.4221L43.7688 10.1811L43.6249 9.94336C43.55 10.0004 41.7622 11.3573 41.4311 13.5066C41.2497 14.6986 41.552 15.8906 42.3322 17.0477C44.7477 20.6268 41.6038 23.7209 41.4685 23.8477L41.8111 24.2821C41.8485 24.2472 45.4559 20.7156 42.7525 16.7053C42.0587 15.6782 41.7881 14.6352 41.9435 13.6049ZM50.235 47.3229C54.2022 40.9825 53.7387 32.4706 53.7156 32.0997C53.7012 28.4762 46.3109 25.6389 36.8794 25.6389C27.9287 25.6389 20.8177 28.1941 20.1066 31.5544H17.694C16.0559 31.5544 14.5761 32.5213 13.7354 34.1445C12.8919 35.7676 12.8487 37.7395 13.6174 39.4165C14.9734 42.3774 17.6825 45.8551 22.9884 46.4004C23.1583 46.7142 23.3397 47.0186 23.5268 47.3229C18.7276 48.6956 15.7046 50.8101 15.7046 53.2226C15.7046 57.4579 25.0037 60.7739 36.8794 60.7739C48.7552 60.7739 58.06 57.4579 58.06 53.2226C58.06 50.8101 55.0342 48.6956 50.235 47.3229Z" fill="white"/>
<path d="M57.5388 53.2247C57.5388 55.0032 55.3709 56.7753 51.5937 58.0878C47.6668 59.451 42.4415 60.1991 36.8794 60.1991C31.3201 60.1991 26.0947 59.451 22.1678 58.0878C18.3906 56.7753 16.2228 55.0032 16.2228 53.2247C16.2228 51.4494 18.3906 49.6773 22.1678 48.3649C22.7091 48.1778 23.2734 48.0035 23.8607 47.8386C24.1572 48.2761 24.4739 48.7009 24.8165 49.1098C25.0209 49.3508 25.2311 49.5854 25.447 49.8136C23.9355 50.4794 22.9596 51.2878 22.7551 52.1786C22.1563 54.8066 28.4584 57.1082 36.8794 57.1082C45.3032 57.1082 51.6053 54.8066 51.0064 52.1786C50.802 51.2878 49.8261 50.4794 48.3117 49.8136C48.5305 49.5854 48.7407 49.3508 48.9451 49.1098C49.2877 48.7009 49.6044 48.2729 49.9009 47.8386C50.4882 48.0003 51.0525 48.1778 51.5937 48.3649C55.3709 49.6773 57.5388 51.4494 57.5388 53.2247ZM22.6688 45.7875C22.1678 44.7826 21.759 43.7459 21.4279 42.7156C19.0816 41.996 17.3168 40.3697 16.1623 37.8526C15.7449 36.9395 16.0529 36.1597 16.2055 35.868C16.2544 35.7729 16.3351 35.6398 16.4502 35.5003C15.837 35.6208 15.3332 36.1248 15.172 36.8096L14.6681 36.6637C14.91 35.6239 15.7593 34.898 16.7324 34.898H20.0633C19.9856 33.3826 20.0316 32.346 20.046 32.1304H17.6939C16.2458 32.1304 14.933 32.9927 14.1873 34.4319C13.4331 35.887 13.3927 37.656 14.0808 39.1587C15.3447 41.9135 17.8379 45.144 22.6688 45.7875ZM25.2023 48.7199C19.9222 42.4239 20.5585 32.2382 20.5671 32.1336C20.5671 32.1272 20.5671 32.1209 20.5671 32.1114C20.5671 28.9158 28.0381 26.2148 36.8794 26.2148C45.7235 26.2148 53.1945 28.9158 53.1945 32.1114C53.1945 32.1209 53.1945 32.1272 53.1945 32.1336C53.2031 32.235 53.8393 42.4239 48.5593 48.7199C45.7811 52.0327 41.8513 53.7161 36.8794 53.7161C31.9103 53.7161 27.9805 52.0327 25.2023 48.7199ZM23.5469 33.6552C25.4268 35.5827 30.7846 36.8761 36.8794 36.8761C42.977 36.8761 48.3348 35.5827 50.2118 33.6552C50.7013 33.1575 50.9489 32.6218 50.9489 32.067C50.9489 30.7228 49.446 29.4896 46.7197 28.5956C44.0883 27.7334 40.5932 27.2578 36.8794 27.2578C33.1684 27.2578 29.6733 27.7334 27.0419 28.5956C24.3155 29.4896 22.8127 30.7228 22.8127 32.067C22.8127 32.6218 23.0603 33.1575 23.5469 33.6552ZM23.472 37.32C24.353 41.7107 26.9354 49.3381 34.3257 51.0944L34.4351 50.5301C27.3298 48.8435 24.8338 41.4507 23.9787 37.1932L23.472 37.32ZM36.8794 30.0127C42.7812 30.0127 47.9922 31.2237 50.0218 33.0497C50.2925 32.7232 50.4278 32.3935 50.4278 32.067C50.4278 30.0222 44.9836 27.8348 36.8794 27.8348C28.7751 27.8348 23.3309 30.0222 23.3309 32.067C23.3309 32.3935 23.4691 32.7232 23.7398 33.0497C25.7694 31.2237 30.9804 30.0127 36.8794 30.0127Z" fill="#EFE9CE"/>
<path d="M49.6327 33.4423C47.675 35.1351 42.5274 36.2986 36.8789 36.2986C36.329 36.2986 35.782 36.2891 35.2436 36.2669C35.0536 36.2606 34.8665 36.251 34.6765 36.2415C29.929 35.9847 25.8294 34.9132 24.1279 33.4423C26.0856 31.7494 31.2332 30.5859 36.8789 30.5859C42.5274 30.5859 47.675 31.7494 49.6327 33.4423Z" fill="#A6744C"/>
<path d="M50.235 47.3229C54.2022 40.9825 53.7387 32.4706 53.7156 32.0997C53.7012 28.4762 46.3109 25.6389 36.8794 25.6389C27.9287 25.6389 20.8177 28.1941 20.1066 31.5544H17.694C16.0559 31.5544 14.5761 32.5213 13.7354 34.1445C12.8919 35.7676 12.8487 37.7395 13.6174 39.4165C14.9734 42.3774 17.6825 45.8551 22.9884 46.4004C23.1583 46.7142 23.3397 47.0186 23.5268 47.3229C18.7276 48.6956 15.7046 50.8101 15.7046 53.2226C15.7046 57.4579 25.0066 60.7739 36.8794 60.7739C48.7552 60.7739 58.06 57.4579 58.06 53.2226C58.06 50.8101 55.0342 48.6956 50.235 47.3229ZM21.2236 42.0382C19.1911 41.3122 17.6508 39.8254 16.6259 37.5905C16.3236 36.9279 16.5453 36.3636 16.6576 36.1512C16.7641 35.9451 17.0779 35.4696 17.694 35.4696H20.0951C20.2189 37.2798 20.5211 39.6225 21.2236 42.0382ZM14.0809 39.1565C13.3928 37.6539 13.4303 35.8849 14.1874 34.4298C14.9331 32.9905 16.2459 32.1314 17.694 32.1314H20.0461C20.0346 32.3438 19.9857 33.3805 20.0634 34.8958H16.7324C15.7593 34.8958 14.91 35.6218 14.6682 36.6616L15.1749 36.8074C15.3333 36.1227 15.8371 35.6186 16.4503 35.4981C16.3351 35.6376 16.2545 35.7708 16.2056 35.8659C16.053 36.1575 15.7449 36.9374 16.1624 37.8504C17.3169 40.3675 19.0817 41.9938 21.428 42.7135C21.7591 43.7438 22.1679 44.7804 22.6689 45.7854C17.838 45.1418 15.3419 41.9114 14.0809 39.1565ZM20.5672 32.1314V32.1092C20.5672 28.9137 28.0381 26.2127 36.8794 26.2127C45.7236 26.2127 53.1945 28.9137 53.1945 32.1092C53.1945 32.1187 53.1945 32.1251 53.1945 32.1314C53.2032 32.2329 53.8394 42.4218 48.5594 48.7178C45.7812 52.0306 41.8514 53.714 36.8794 53.714C31.9075 53.714 27.9806 52.0306 25.2023 48.7178C19.9223 42.4218 20.5586 32.2329 20.5672 32.1314ZM51.5938 58.0856C47.6669 59.4488 42.4416 60.197 36.8794 60.197C31.3202 60.197 26.0948 59.4488 22.1679 58.0856C18.3907 56.7732 16.2229 55.0011 16.2229 53.2226C16.2229 51.4473 18.3907 49.6752 22.1679 48.3627C22.7092 48.1757 23.2734 48.0013 23.8608 47.8365C24.1573 48.2739 24.474 48.6987 24.8166 49.1045C25.021 49.3486 25.234 49.5832 25.4499 49.8115C23.9356 50.4804 22.9596 51.2856 22.7552 52.1764C22.1535 54.8045 28.4556 57.106 36.8794 57.106C45.3033 57.106 51.6054 54.8045 51.0065 52.1764C50.8021 51.2856 49.8261 50.4804 48.3147 49.8115C48.5306 49.5832 48.7408 49.3486 48.9452 49.1045C49.2878 48.6987 49.6045 48.2739 49.901 47.8365C50.4883 48.0013 51.0526 48.1757 51.5938 48.3627C55.371 49.6752 57.5389 51.4473 57.5389 53.2226C57.5389 55.0011 55.371 56.7732 51.5938 58.0856ZM23.4721 37.3178L23.9788 37.191C24.8338 41.4486 27.3299 48.8414 34.4352 50.5279L34.3258 51.0922C26.9355 49.336 24.3531 41.7085 23.4721 37.3178ZM36.8794 36.874C42.9771 36.874 48.3348 35.5806 50.2119 33.6531C50.7014 33.1554 50.9489 32.6196 50.9489 32.0648C50.9489 30.7207 49.4461 29.4875 46.7197 28.5935C44.0884 27.7312 40.5933 27.2557 36.8794 27.2557C33.1684 27.2557 29.6734 27.7312 27.042 28.5935C24.3156 29.4875 22.8128 30.7207 22.8128 32.0648C22.8128 32.6196 23.0604 33.1554 23.5469 33.6531C25.4269 35.5806 30.7847 36.874 36.8794 36.874ZM36.8794 36.297C36.3296 36.297 35.7825 36.2875 35.2442 36.2653C35.0542 36.259 34.867 36.2495 34.677 36.24C29.9296 35.9832 25.83 34.9117 24.1285 33.4407C26.0862 31.7478 31.2338 30.5844 36.8794 30.5844C42.528 30.5844 47.6756 31.7478 49.6333 33.4407C47.6756 35.1336 42.528 36.297 36.8794 36.297ZM23.331 32.0648C23.331 30.0201 28.7751 27.8327 36.8794 27.8327C44.9866 27.8327 50.4307 30.0201 50.4307 32.0648C50.4307 32.3914 50.2925 32.7211 50.0219 33.0476C47.9922 31.2216 42.7813 30.0106 36.8794 30.0106C30.9804 30.0106 25.7695 31.2216 23.7398 33.0476C23.4692 32.7211 23.331 32.3914 23.331 32.0648ZM31.4008 17.0477C30.6177 15.8906 30.3154 14.6986 30.4996 13.5066C30.8278 11.3573 32.6128 10.0004 32.6905 9.94336L32.8374 10.1811L32.9813 10.4221C32.9525 10.4411 31.3 11.706 31.0121 13.6049C30.8538 14.6352 31.1244 15.6782 31.8182 16.7053C34.5216 20.7156 30.9142 24.2472 30.8768 24.2821L30.5371 23.8477C30.6724 23.7209 33.8133 20.6268 31.4008 17.0477ZM36.865 17.0477C36.0848 15.8906 35.7825 14.6986 35.9639 13.5066C36.295 11.3573 38.08 10.0004 38.1577 9.94336L38.3016 10.1811L38.4485 10.4221C38.4341 10.4347 36.7672 11.6996 36.4764 13.6049C36.3209 14.6352 36.5915 15.6782 37.2825 16.7053C39.9887 20.7156 36.3814 24.2472 36.3439 24.2821L36.0042 23.8477C36.1367 23.7209 39.2805 20.6268 36.865 17.0477ZM42.3322 17.0477C41.552 15.8906 41.2497 14.6986 41.4311 13.5066C41.7622 11.3573 43.55 10.0004 43.6249 9.94336L43.7688 10.1811L43.9156 10.4221C43.8984 10.4347 42.2343 11.6996 41.9435 13.6049C41.7881 14.6352 42.0587 15.6782 42.7525 16.7053C45.4559 20.7156 41.8485 24.2472 41.8111 24.2821L41.4685 23.8477C41.6038 23.7209 44.7477 20.6268 42.3322 17.0477Z" fill="black"/>
</svg>
