<svg width="71" height="71" viewBox="0 0 71 71" fill="none" xmlns="http://www.w3.org/2000/svg">
<path d="M22.2236 19.3371L25.5465 13.0819C26.0674 12.0975 25.6976 10.8736 24.7132 10.3475C23.7288 9.82149 22.5049 10.1965 21.9788 11.1809L18.6611 17.4309L19.5518 19.4569L22.2236 19.3371Z" fill="#C5D1D6"/>
<mask id="mask0_1399_1333" style="mask-type:luminance" maskUnits="userSpaceOnUse" x="10" y="6" width="9" height="11">
<path d="M10.7344 6H18.7344V16.2812H10.7344V6Z" fill="white"/>
</mask>
<g mask="url(#mask0_1399_1333)">
<path d="M15.0986 15.5305L18.4163 9.28047C18.9424 8.29089 18.5674 7.06693 17.583 6.54089C16.6038 6.01485 15.3799 6.38985 14.8538 7.37422L11.5361 13.6294L12.4893 15.4107L15.0986 15.5305Z" fill="#C5D1D6"/>
</g>
<mask id="mask1_1399_1333" style="mask-type:luminance" maskUnits="userSpaceOnUse" x="6" y="6" width="59" height="59">
<path d="M6.73438 6.94727H65V64.9994H6.73438V6.94727Z" fill="white"/>
</mask>
<g mask="url(#mask1_1399_1333)">
<path d="M8.88509 27.1198C7.94759 29.9635 7.44238 33 7.44238 36.1562C7.44238 52.0833 20.3174 65 36.208 65C52.0934 65 64.9736 52.0833 64.9736 36.1562C64.9736 20.2292 52.0934 7.3125 36.208 7.3125H35.7028C34.5934 7.3125 33.682 8.22396 33.682 9.33854C33.682 10.4531 34.5934 11.3646 35.7028 11.3646H36.208C49.8434 11.3646 60.9372 22.4844 60.9372 36.1562C60.9372 49.8281 49.8434 60.9531 36.208 60.9531C22.5726 60.9531 11.4788 49.8281 11.4788 36.1562C11.4788 33.6875 11.8434 31.2969 12.5153 29.0521L11.4788 26.5417L8.88509 27.1198Z" fill="#85DD31"/>
</g>
<mask id="mask2_1399_1333" style="mask-type:luminance" maskUnits="userSpaceOnUse" x="6" y="16" width="16" height="15">
<path d="M6 16.2812H21.401V30.9479H6V16.2812Z" fill="white"/>
</mask>
<g mask="url(#mask2_1399_1333)">
<path d="M6.78686 22.5573L9.63582 17.2031L10.4692 16.4219L20.5629 21.4844L20.3233 22.9115L17.4796 28.2708C16.6931 29.75 14.8598 30.3073 13.3806 29.5208L8.03686 26.6667C6.56291 25.8802 6.00561 24.0365 6.78686 22.5573Z" fill="#6FB51F"/>
</g>
<path d="M27.6775 38.6863C26.8546 38.6863 26.3494 37.7852 26.7713 37.0769L39.0785 20.7488C39.3963 20.2175 40.214 20.4988 40.1358 21.1186L37.7192 33.6238H43.7244C44.5473 33.6238 45.0577 34.5248 44.6358 35.2332L32.3285 51.5613C32.0108 52.0925 31.1879 51.8113 31.266 51.1915L33.6827 38.6863H27.6775Z" fill="#F4CF19"/>
<path d="M22.6404 20.7081L21.6924 22.4945C21.557 22.7393 21.3591 22.9008 21.0935 22.9841C20.8279 23.0674 20.5727 23.0414 20.3227 22.9112L9.63515 17.1977C9.39036 17.0674 9.22369 16.8695 9.14557 16.6039C9.06223 16.3331 9.08828 16.0779 9.21848 15.8331L10.1664 14.0466C10.2966 13.7966 10.4997 13.6352 10.7654 13.5518C11.031 13.4685 11.2862 13.4945 11.531 13.6247L22.2237 19.3383C22.4685 19.4685 22.6352 19.6664 22.7133 19.9372C22.7966 20.2029 22.7706 20.4581 22.6404 20.7081Z" fill="#7AC927"/>
</svg>
