<svg width="71" height="71" viewBox="0 0 71 71" fill="none" xmlns="http://www.w3.org/2000/svg">
<path d="M38.9631 20.194L36.3017 15.5117H36.2965C33.5621 15.9909 31.0465 16.9857 28.7235 18.5065C25.9475 24.5326 26.2704 30.8398 28.7235 37.3398C29.7652 38.9336 31.359 38.5898 33.2079 37.3398L40.5413 29.8398L38.9631 20.194Z" fill="#D6EAE8"/>
<path d="M40.8232 25.7559L39.443 21.2611L38.9639 17.5527L46.8128 16.6934V35.9277C46.1097 36.1777 45.4535 36.2871 45.2191 35.0111L40.8232 25.7559Z" fill="#D6EAE8"/>
<path d="M10.6357 15.9642V46.6621L27.1462 37.3392C27.6982 38.5371 28.2191 38.4798 28.7243 37.3392V18.5059C23.6774 15.2038 17.6514 14.3548 10.6357 15.9642Z" fill="#E7F2F1"/>
<mask id="mask0_1399_1059" style="mask-type:luminance" maskUnits="userSpaceOnUse" x="31" y="8" width="31" height="35">
<path d="M31.8857 8H62.0003V42.2708H31.8857V8Z" fill="white"/>
</mask>
<g mask="url(#mask0_1399_1059)">
<path d="M52.8753 8.46875L35.9535 14.3438L36.2972 15.5104H36.3024L37.7555 20.4219L40.542 29.8385C39.9795 29.7292 39.391 29.6667 38.7868 29.6667C35.068 29.6667 32.0576 31.8698 32.0576 34.5885C32.0576 35.6042 32.4795 36.5521 33.2087 37.3385C33.8962 39.0365 35.1878 38.9479 36.9951 37.3385L45.2191 35.0104L42.2555 25.0052L40.8962 20.401L40.4535 18.901L46.8128 16.6927L51.6618 15.0104L56.7243 32.125C56.1618 32.0156 55.5732 31.9531 54.9691 31.9531C51.2555 31.9531 48.2399 34.1562 48.2399 36.875C48.2399 36.9844 48.2451 37.0938 48.2555 37.2031C47.5576 39.4062 48.568 40.599 50.9691 40.8281C52.0837 41.4323 53.4691 41.7917 54.9691 41.7917C58.2295 41.7917 60.9482 40.0938 61.5628 37.8385L52.8753 8.46875Z" fill="#6FCEAE"/>
</g>
<mask id="mask1_1399_1059" style="mask-type:luminance" maskUnits="userSpaceOnUse" x="8" y="34" width="48" height="28">
<path d="M8 34.2715H55.8854V62.0007H8V34.2715Z" fill="white"/>
</mask>
<g mask="url(#mask1_1399_1059)">
<path d="M46.8123 35.9284C47.3071 36.2982 47.7914 36.7253 48.255 37.2044C49.2602 38.2357 50.1768 39.4961 50.9685 40.8294C51.9477 42.4805 52.7341 44.2513 53.255 45.8555C54.1612 48.6419 54.9737 52.9857 55.5102 56.2096C55.5518 56.4544 55.5727 56.6992 55.5727 56.9388C55.5727 59.0013 54.1196 60.8294 52.0414 61.2357C50.5779 61.5169 49.0779 61.0221 48.0518 59.9336C45.4789 57.1888 42.1248 54.6263 38.9321 54.6263H25.2029C22.0154 54.6263 18.6612 57.1888 16.0831 59.9336C15.2498 60.819 14.1039 61.3138 12.9164 61.3138C12.6404 61.3138 12.3696 61.2878 12.0935 61.2357C9.77581 60.7826 8.23935 58.5534 8.62997 56.2096C9.11435 53.2826 9.8331 49.4284 10.6352 46.6628C10.7185 46.3815 10.8018 46.1107 10.8852 45.8555C12.4685 40.9753 16.5102 34.5898 20.9112 34.5898C25.3123 34.5898 27.1456 37.3398 27.1456 37.3398H36.9946C36.9946 37.3398 38.8227 34.5898 43.2237 34.5898C43.9008 34.5898 44.5675 34.7357 45.2185 35.0117C45.7602 35.2357 46.2914 35.5482 46.8123 35.9284Z" fill="#FFC05A"/>
</g>
<path d="M36.9951 48.6562C38.0837 48.6562 38.9639 49.5469 38.9639 50.6406C38.9639 51.7344 38.0837 52.625 36.9951 52.625C35.9066 52.625 35.0264 51.7344 35.0264 50.6406C35.0264 49.5469 35.9066 48.6562 36.9951 48.6562Z" fill="#E15C63"/>
<path d="M27.1455 48.6562C28.2341 48.6562 29.1143 49.5469 29.1143 50.6406C29.1143 51.7344 28.2341 52.625 27.1455 52.625C26.057 52.625 25.1768 51.7344 25.1768 50.6406C25.1768 49.5469 26.057 48.6562 27.1455 48.6562Z" fill="#E15C63"/>
<path d="M43.708 39.2031C46.4632 39.2031 48.7028 41.4531 48.7028 44.2292C48.7028 47.0052 46.4632 49.2604 43.708 49.2604C40.9476 49.2604 38.708 47.0052 38.708 44.2292C38.708 41.4531 40.9476 39.2031 43.708 39.2031Z" fill="#655F68"/>
<path d="M33.0361 41.793C33.6351 41.793 34.1195 42.2826 34.1195 42.8867C34.1195 43.1888 33.9997 43.4596 33.8018 43.6576C33.6038 43.8555 33.333 43.9805 33.0361 43.9805H31.1038C30.5049 43.9805 30.0205 43.4909 30.0205 42.8867C30.0205 42.5846 30.1403 42.3138 30.3382 42.1159C30.5309 41.918 30.807 41.793 31.1038 41.793H33.0361Z" fill="#655F68"/>
<path d="M33.0361 46.2461C33.6351 46.2461 34.1195 46.7357 34.1195 47.3346C34.1195 47.6367 33.9997 47.9128 33.8018 48.1107C33.6038 48.3086 33.333 48.4284 33.0361 48.4284H31.1038C30.5049 48.4284 30.0205 47.9388 30.0205 47.3346C30.0205 47.0326 30.1403 46.7617 30.3382 46.5638C30.5309 46.3659 30.807 46.2461 31.1038 46.2461H33.0361Z" fill="#655F68"/>
<path d="M25.4482 43.1406C26.0472 43.1406 26.5316 43.625 26.5316 44.2292C26.5316 44.5312 26.4118 44.8073 26.2139 45.0052C26.0159 45.2031 25.7451 45.3229 25.4482 45.3229H23.516C22.917 45.3229 22.4326 44.8333 22.4326 44.2292C22.4326 43.9271 22.5524 43.6562 22.7503 43.4583C22.943 43.2604 23.2191 43.1406 23.516 43.1406H25.4482Z" fill="#655F68"/>
<path d="M21.5153 47.3346V49.2773C21.5153 49.8815 21.0309 50.3711 20.432 50.3711C20.1351 50.3711 19.859 50.2513 19.6663 50.0534C19.4684 49.8555 19.3486 49.5794 19.3486 49.2773V47.3346C19.3486 46.7357 19.833 46.2461 20.432 46.2461C20.7288 46.2461 21.0049 46.3659 21.1976 46.5638C21.3955 46.7617 21.5153 47.0326 21.5153 47.3346Z" fill="#655F68"/>
<path d="M17.3486 43.1406C17.9476 43.1406 18.432 43.625 18.432 44.2292C18.432 44.5312 18.3122 44.8073 18.1143 45.0052C17.9163 45.2031 17.6455 45.3229 17.3486 45.3229H15.4163C14.8174 45.3229 14.333 44.8333 14.333 44.2292C14.333 43.9271 14.4528 43.6562 14.6507 43.4583C14.8434 43.2604 15.1195 43.1406 15.4163 43.1406H17.3486Z" fill="#655F68"/>
<path d="M21.5153 39.1823V41.125C21.5153 41.7292 21.0309 42.2188 20.432 42.2188C20.1351 42.2188 19.859 42.0938 19.6663 41.8958C19.4684 41.7031 19.3486 41.4271 19.3486 41.125V39.1823C19.3486 38.5833 19.833 38.0938 20.432 38.0938C20.7288 38.0938 21.0049 38.2135 21.1976 38.4115C21.3955 38.6094 21.5153 38.8802 21.5153 39.1823Z" fill="#655F68"/>
<path d="M43.7087 41.3281C45.2972 41.3281 46.5889 42.6302 46.5889 44.2292C46.5889 45.8333 45.2972 47.1302 43.7087 47.1302C42.1149 47.1302 40.8232 45.8333 40.8232 44.2292C40.8232 42.6302 42.1149 41.3281 43.7087 41.3281Z" fill="#E15C63"/>
<path d="M44.3434 32.0527L45.2184 35.0111C44.5674 34.735 43.9007 34.5892 43.2236 34.5892C38.8226 34.5892 36.9945 37.3392 36.9945 37.3392H35.3486C35.3486 37.3392 35.557 32.0632 44.3434 32.0527Z" fill="#53B79A"/>
<path d="M33.0368 45.8125H31.1045C30.2712 45.8125 29.5889 46.4948 29.5889 47.3333C29.5889 48.1771 30.2712 48.8594 31.1045 48.8594H33.0368C33.8701 48.8594 34.5472 48.1771 34.5472 47.3333C34.5472 46.4948 33.8701 45.8125 33.0368 45.8125ZM33.0368 48H31.1045C30.7399 48 30.4482 47.6979 30.4482 47.3333C30.4482 46.9688 30.7399 46.6719 31.1045 46.6719H33.0368C33.3962 46.6719 33.693 46.9688 33.693 47.3333C33.693 47.6979 33.3962 48 33.0368 48Z" fill="#3A322B"/>
<path d="M33.0368 41.3652H31.1045C30.2712 41.3652 29.5889 42.0475 29.5889 42.8861C29.5889 43.7246 30.2712 44.4121 31.1045 44.4121H33.0368C33.8701 44.4121 34.5472 43.7246 34.5472 42.8861C34.5472 42.0475 33.8701 41.3652 33.0368 41.3652ZM33.0368 43.5475H31.1045C30.7399 43.5475 30.4482 43.2507 30.4482 42.8861C30.4482 42.5215 30.7399 42.2246 31.1045 42.2246H33.0368C33.3962 42.2246 33.693 42.5215 33.693 42.8861C33.693 43.2507 33.3962 43.5475 33.0368 43.5475Z" fill="#3A322B"/>
<path d="M20.4326 45.8125C19.5993 45.8125 18.917 46.4948 18.917 47.3333V49.276C18.917 50.1146 19.5993 50.8021 20.4326 50.8021C21.266 50.8021 21.9482 50.1146 21.9482 49.276V47.3333C21.9482 46.4948 21.266 45.8125 20.4326 45.8125ZM21.0889 49.276C21.0889 49.6406 20.7972 49.9375 20.4326 49.9375C20.068 49.9375 19.7764 49.6406 19.7764 49.276V47.3333C19.7764 46.9688 20.068 46.6719 20.4326 46.6719C20.7972 46.6719 21.0889 46.9688 21.0889 47.3333V49.276Z" fill="#3A322B"/>
<path d="M26.958 44.2298C26.958 43.3913 26.2809 42.709 25.4476 42.709H23.5153C22.682 42.709 22.0049 43.3913 22.0049 44.2298C22.0049 45.0736 22.682 45.7559 23.5153 45.7559H25.4476C26.2809 45.7559 26.958 45.0736 26.958 44.2298ZM22.859 44.2298C22.859 43.8652 23.1559 43.5684 23.5153 43.5684H25.4476C25.807 43.5684 26.1038 43.8652 26.1038 44.2298C26.1038 44.5944 25.807 44.8965 25.4476 44.8965H23.5153C23.1559 44.8965 22.859 44.5944 22.859 44.2298Z" fill="#3A322B"/>
<path d="M20.4326 37.6621C19.5993 37.6621 18.917 38.3444 18.917 39.1829V41.1257C18.917 41.9694 19.5993 42.6517 20.4326 42.6517C21.266 42.6517 21.9482 41.9642 21.9482 41.1257V39.1829C21.9482 38.3444 21.266 37.6621 20.4326 37.6621ZM21.0889 41.1257C21.0889 41.4902 20.7972 41.7871 20.4326 41.7871C20.068 41.7871 19.7764 41.4902 19.7764 41.1257V39.1829C19.7764 38.8184 20.068 38.5215 20.4326 38.5215C20.7972 38.5215 21.0889 38.8184 21.0889 39.1829V41.1257Z" fill="#3A322B"/>
<path d="M17.349 42.709H15.4167C14.5833 42.709 13.9062 43.3913 13.9062 44.2298C13.9062 45.0736 14.5833 45.7559 15.4167 45.7559H17.349C18.1823 45.7559 18.8594 45.0736 18.8594 44.2298C18.8594 43.3913 18.1823 42.709 17.349 42.709ZM17.349 44.8965H15.4167C15.0521 44.8965 14.7604 44.5944 14.7604 44.2298C14.7604 43.8652 15.0521 43.5684 15.4167 43.5684H17.349C17.7083 43.5684 18.0052 43.8652 18.0052 44.2298C18.0052 44.5944 17.7083 44.8965 17.349 44.8965Z" fill="#3A322B"/>
<path d="M36.9948 48.2305C35.6719 48.2305 34.5938 49.3138 34.5938 50.6419C34.5938 51.9753 35.6719 53.0534 36.9948 53.0534C38.3177 53.0534 39.3906 51.9753 39.3906 50.6419C39.3906 49.3138 38.3177 48.2305 36.9948 48.2305ZM36.9948 52.194C36.1406 52.194 35.4531 51.4961 35.4531 50.6419C35.4531 49.7878 36.1406 49.0898 36.9948 49.0898C37.8438 49.0898 38.5365 49.7878 38.5365 50.6419C38.5365 51.4961 37.8438 52.194 36.9948 52.194Z" fill="#3A322B"/>
<path d="M27.1458 48.2305C25.8229 48.2305 24.75 49.3138 24.75 50.6419C24.75 51.9753 25.8229 53.0534 27.1458 53.0534C28.4688 53.0534 29.5417 51.9753 29.5417 50.6419C29.5417 49.3138 28.4688 48.2305 27.1458 48.2305ZM27.1458 52.194C26.2969 52.194 25.6042 51.4961 25.6042 50.6419C25.6042 49.7878 26.2969 49.0898 27.1458 49.0898C27.9948 49.0898 28.6875 49.7878 28.6875 50.6419C28.6875 51.4961 27.9948 52.194 27.1458 52.194Z" fill="#3A322B"/>
<path d="M43.708 40.9023C41.8799 40.9023 40.3955 42.3971 40.3955 44.2305C40.3955 46.069 41.8799 47.5638 43.708 47.5638C45.5309 47.5638 47.0153 46.069 47.0153 44.2305C47.0153 42.3971 45.5309 40.9023 43.708 40.9023ZM43.708 46.7044C42.3538 46.7044 41.2497 45.5951 41.2497 44.2305C41.2497 42.8711 42.3538 41.7617 43.708 41.7617C45.057 41.7617 46.1611 42.8711 46.1611 44.2305C46.1611 45.5951 45.057 46.7044 43.708 46.7044Z" fill="#3A322B"/>
<path d="M43.7083 38.7715C40.7135 38.7715 38.2812 41.2194 38.2812 44.2298C38.2812 47.2402 40.7135 49.6882 43.7083 49.6882C46.6979 49.6882 49.1302 47.2402 49.1302 44.2298C49.1302 41.2194 46.6979 38.7715 43.7083 38.7715ZM43.7083 48.8288C41.1875 48.8288 39.1354 46.7663 39.1354 44.2298C39.1354 41.6986 41.1875 39.6361 43.7083 39.6361C46.224 39.6361 48.276 41.6986 48.276 44.2298C48.276 46.7663 46.224 48.8288 43.7083 48.8288Z" fill="#3A322B"/>
<path d="M13.2138 21.4425C17.8961 20.1769 22.0471 20.6977 25.5576 22.9894C25.6305 23.0362 25.7086 23.0571 25.7867 23.0571C25.9274 23.0571 26.068 22.9894 26.1461 22.8644C26.2763 22.6612 26.219 22.3956 26.0211 22.2654C22.3024 19.8383 17.9169 19.281 12.9951 20.6144C12.7659 20.6769 12.6305 20.9112 12.693 21.1404C12.7555 21.3696 12.9898 21.505 13.2138 21.4425Z" fill="#3A322B"/>
<path d="M13.2138 25.8758C17.8961 24.6102 22.0471 25.1311 25.5576 27.4227C25.6305 27.4696 25.7086 27.4956 25.7867 27.4956C25.9274 27.4956 26.068 27.4227 26.1461 27.2977C26.2763 27.0998 26.219 26.8342 26.0211 26.704C22.3024 24.2717 17.9169 23.7144 12.9951 25.0477C12.7659 25.1102 12.6305 25.3446 12.693 25.5738C12.7555 25.8029 12.9898 25.9383 13.2138 25.8758Z" fill="#3A322B"/>
<path d="M25.5576 31.8544C25.6305 31.9064 25.7086 31.9273 25.7867 31.9273C25.9274 31.9273 26.068 31.8596 26.1461 31.7294C26.2763 31.5314 26.219 31.2658 26.0211 31.1356C22.3024 28.7033 17.9169 28.146 12.9951 29.4794C12.7659 29.5419 12.6305 29.7762 12.693 30.0054C12.7555 30.2346 12.9898 30.3752 13.2138 30.3127C17.8961 29.0419 22.0471 29.5627 25.5576 31.8544Z" fill="#3A322B"/>
</svg>
