<svg width="71" height="71" viewBox="0 0 71 71" fill="none" xmlns="http://www.w3.org/2000/svg">
<path fill-rule="evenodd" clip-rule="evenodd" d="M31.1658 22.6502C31.5328 23.0746 31.0683 23.0058 30.902 23.0546C29.2044 23.5592 27.504 24.0524 25.8035 24.5457C25.7204 24.5743 25.6315 24.5973 25.5426 24.6202C24.1375 25.0647 24.0601 25.1736 24.0572 26.616C24.0544 28.9301 24.0486 31.247 24.0429 33.564C23.9024 33.6988 23.7332 33.7676 23.5439 33.7332C22.4715 33.564 21.379 33.478 20.361 33.0478C19.6728 31.9582 18.9244 30.9087 18.1502 29.8764C16.9085 28.2333 15.8819 26.4325 14.4826 24.9041C14.3306 24.732 14.1844 24.5399 14.2561 24.2933C14.3364 23.9865 14.6317 24.0697 14.8324 24.0524C15.8131 23.9464 16.7823 23.7198 17.7659 23.6051C19.6183 23.3126 28.6538 22.4266 30.4088 22.418C30.6812 22.418 30.9651 22.418 31.1658 22.6502Z" fill="#FFD45A"/>
<path fill-rule="evenodd" clip-rule="evenodd" d="M24.0829 56.187C21.2556 55.5389 18.4225 54.8937 15.5922 54.2543C15.4145 54.2113 14.9069 33.4046 15.1736 33.0232C15.4145 32.8885 15.6611 32.9544 15.9048 33.0032C18.3422 33.5021 20.7853 33.9638 23.2313 34.4455C23.5811 34.5143 23.9596 34.5373 24.1833 34.89C24.341 35.2341 24.3152 35.6011 24.3152 35.9624C24.3152 42.3111 24.3181 48.6626 24.3123 55.0171C24.3123 55.4156 24.384 55.84 24.0829 56.187Z" fill="#FFD45A"/>
<mask id="mask0_1399_801" style="mask-type:luminance" maskUnits="userSpaceOnUse" x="46" y="23" width="12" height="34">
<path d="M46.8223 23.8496H57.5955V56.8833H46.8223V23.8496Z" fill="white"/>
</mask>
<g mask="url(#mask0_1399_801)">
<path fill-rule="evenodd" clip-rule="evenodd" d="M56.4372 24.1584C57.5498 24.1785 57.5527 24.1785 57.5527 25.2366C57.5555 27.0775 57.5355 28.9185 57.567 30.7566C57.5785 31.287 57.4294 31.5021 56.8903 31.6025C55.6028 31.8462 55.6228 31.8749 55.6142 33.1796C55.5856 37.5411 55.5253 41.8997 55.511 46.2583C55.5081 48.69 55.5626 51.1188 55.6142 53.5475C55.6228 54.0293 55.4995 54.2615 54.9863 54.3791C52.6206 54.9182 50.2635 55.5032 47.9035 56.0681C47.7114 56.1111 47.5135 56.2143 47.3042 56.1111C47.0461 55.9104 47.0949 55.6236 47.092 55.3569C47.0891 48.6728 47.0891 41.9857 47.092 35.3016C47.0949 34.5187 47.1694 34.4098 47.9436 34.2348C50.1 33.7474 52.2679 33.3287 54.4328 32.8814C55.1784 32.7265 55.2386 32.6176 55.1038 31.9408C54.9174 31.6025 55.1583 31.3845 55.3504 31.1723C55.7748 30.6963 56.053 30.1802 55.9927 29.5149C55.9583 29.1364 56.1591 28.8267 56.3512 28.5113C56.7985 27.7887 56.744 27.5249 56.0558 27.089C55.6114 26.8023 55.4594 26.3721 55.3619 25.8933C55.2701 25.4201 55.2673 24.9498 55.3304 24.471C55.5712 23.9261 56.0157 24.0781 56.4372 24.1584Z" fill="#FFC402"/>
</g>
<mask id="mask1_1399_801" style="mask-type:luminance" maskUnits="userSpaceOnUse" x="27" y="34" width="10" height="25">
<path d="M27.002 34.8613H36.545V59H27.002V34.8613Z" fill="white"/>
</mask>
<g mask="url(#mask1_1399_801)">
<path fill-rule="evenodd" clip-rule="evenodd" d="M36.2318 58.835C35.9823 59.0071 35.6955 58.9698 35.4403 58.9125C32.9112 58.359 30.3763 57.7884 27.85 57.2178C27.7611 57.1977 27.6837 57.1461 27.6005 57.1088C27.3367 56.8622 27.3482 56.5353 27.3482 56.2199C27.3425 49.6303 27.3396 43.0379 27.3482 36.4484C27.3482 36.1989 27.3654 35.9494 27.4715 35.7143C27.7038 35.3587 28.0593 35.4046 28.3891 35.482C30.5914 36.0011 32.8223 36.3996 35.0274 36.9215C35.3084 36.9932 35.6095 37.0448 35.7902 37.3172C35.9823 37.7302 35.9307 38.166 35.9307 38.5962C35.9335 44.8617 35.9335 51.1329 35.9335 57.3984C35.9335 57.8974 35.9077 58.3992 36.2318 58.835Z" fill="#FFD45A"/>
</g>
<mask id="mask2_1399_801" style="mask-type:luminance" maskUnits="userSpaceOnUse" x="35" y="34" width="9" height="25">
<path d="M35.0771 34.8613H43.8861V59H35.0771V34.8613Z" fill="white"/>
</mask>
<g mask="url(#mask2_1399_801)">
<path fill-rule="evenodd" clip-rule="evenodd" d="M36.233 58.8381C35.648 58.8783 35.6681 58.494 35.6681 58.084C35.6709 51.1446 35.6681 44.2052 35.6681 37.2659C35.8057 37.0565 36.0523 37.0393 36.2559 36.9476C38.4438 36.3597 40.6719 35.9726 42.8741 35.4479C43.1666 35.379 43.505 35.2586 43.7401 35.6113C43.8921 35.9583 43.8577 36.3253 43.8577 36.6838C43.8634 43.1271 43.8634 49.5675 43.8634 56.0108C43.8634 56.3778 43.8691 56.7391 43.6942 57.0746C41.2224 57.737 38.7564 58.3994 36.233 58.8381Z" fill="#FFC402"/>
</g>
<mask id="mask3_1399_801" style="mask-type:luminance" maskUnits="userSpaceOnUse" x="13" y="21" width="45" height="8">
<path d="M13.0547 21.6465H57.5957V28.9873H13.0547V21.6465Z" fill="white"/>
</mask>
<g mask="url(#mask3_1399_801)">
<path fill-rule="evenodd" clip-rule="evenodd" d="M13.2383 24.2227L35.6622 28.524L57.5671 24.2227L44.345 21.8828L29.0927 22.3072C29.0927 22.3072 14.7753 23.4714 13.2383 24.2227Z" fill="#FFE65B"/>
</g>
<path fill-rule="evenodd" clip-rule="evenodd" d="M45.3597 24.2912C44.8207 24.1105 44.273 23.9528 43.731 23.7894C42.3001 23.3535 40.8291 23.0524 39.424 22.5248C39.0885 22.3843 38.7243 22.3642 38.3774 22.2724C37.715 22.0975 36.9837 22.0975 36.4217 21.6158C36.3013 21.4179 36.198 21.2057 35.9428 21.1541C35.6733 21.1111 35.4009 21.0882 35.1313 21.157C34.9048 21.3262 34.8618 21.6789 34.5435 21.7592C34.0445 22.0631 33.4854 22.1635 32.9233 22.261C32.39 22.3556 31.8308 22.2151 31.3032 22.3843C31.1942 22.433 31.1168 22.5104 31.0537 22.6079C30.9534 22.8976 30.6724 22.889 30.443 22.9635C28.6508 23.5456 26.8041 23.9356 25.0234 24.5636C24.295 24.8245 23.8161 25.2489 23.8219 26.0891C23.8333 28.6068 23.7989 31.1216 23.8391 33.6335C23.7875 34.055 23.7617 34.4766 24.0484 34.8407C24.0513 35.0185 24.0599 35.2021 24.0599 35.3827C24.0685 42.3192 24.0771 49.2529 24.0828 56.1894C24.9746 56.5564 25.9152 56.7313 26.8557 56.9034C27.3202 56.5736 27.1539 56.0804 27.1539 55.656C27.1654 46.3165 27.1597 36.977 27.1625 27.6347C27.1625 27.3651 27.1654 27.0899 27.1711 26.8175C27.1797 26.4418 27.3833 26.2095 27.7332 26.1465C29.3103 25.8654 30.7756 25.2288 32.2638 24.6926C33.2875 24.3227 34.3542 24.0073 35.2231 23.3306C35.5471 23.0753 35.7478 23.0954 36.0518 23.2761C38.1221 24.4948 40.3846 25.2432 42.6614 25.9515C43.0514 25.9687 43.2665 25.6905 43.4987 25.4496C44.0091 24.922 44.6199 24.7356 45.3425 24.9106C45.6035 24.9708 46.6817 25.4669 46.8996 25.203C46.8107 24.8217 45.6436 24.3887 45.3597 24.2912Z" fill="#FE1C37"/>
<path fill-rule="evenodd" clip-rule="evenodd" d="M42.7588 25.7997C43.0599 25.7825 43.1373 25.4986 43.3007 25.3295C43.9373 24.6785 44.6513 24.4061 45.5431 24.7646C45.7009 24.8276 45.8958 24.8018 46.0736 24.819C46.4493 24.6355 46.4866 24.8821 46.779 25.0513C47.0056 25.2606 47.3583 25.5158 47.3497 25.8255C47.3898 28.5067 47.4816 31.1906 47.3669 33.8603C47.0515 41.1352 47.3411 48.4129 47.2235 55.6878C47.2149 55.8627 47.2636 56.052 47.1518 56.2154C46.2572 56.6083 45.2965 56.7373 44.3445 56.9122C44.0291 56.5882 44.0406 56.1638 44.0348 55.7623C44.0148 54.558 44.0291 53.3508 44.0291 52.1493C44.0234 50.3772 44.0291 48.6079 43.9058 46.8387C43.7739 44.9346 44.0578 43.0306 44.0377 41.1237C44.0004 36.9429 44.0291 32.762 44.0291 28.5841C44.0291 28.2428 44.0291 27.9016 44.0148 27.5604C43.9918 26.9181 43.8714 26.3417 43.1115 26.1639C42.9394 26.1238 42.7645 26.0263 42.7588 25.7997Z" fill="#EC0017"/>
<path fill-rule="evenodd" clip-rule="evenodd" d="M42.7587 25.7994C42.8562 25.8482 42.9537 25.9113 43.0569 25.9514C44.2527 26.3729 44.2699 26.3701 44.2699 27.6777C44.2756 32.9539 44.3645 38.233 44.2412 43.5063C44.1437 47.6671 44.4161 51.8164 44.2899 55.9714C44.2785 56.2811 44.3272 56.5994 44.3444 56.9119C44.1294 56.9664 43.9114 57.0209 43.6935 57.0725C43.5157 56.7772 43.6017 56.4503 43.6017 56.1406C43.5989 49.6284 43.5989 43.1163 43.5989 36.6013C43.5989 36.2372 43.5845 35.8759 43.5788 35.5117C43.2691 35.1905 43.3895 34.7948 43.3924 34.4192C43.3178 32.4234 43.3809 30.4276 43.358 28.4318C43.3379 26.4446 43.5358 26.8031 41.7493 26.0432C39.8854 25.2661 37.947 24.6725 36.1491 23.7434C35.8222 23.5742 35.4924 23.5914 35.1655 23.7406C32.9575 24.7528 30.6492 25.5155 28.3638 26.3271C27.8304 26.5163 27.7759 26.892 27.839 27.3565C27.862 29.7365 27.905 32.1108 27.8247 34.488C27.8448 34.8866 27.9136 35.2909 27.624 35.6321C27.6154 42.7923 27.6096 49.9525 27.6039 57.1098C27.3286 57.1241 27.0763 57.0668 26.8555 56.9033C26.8784 56.5879 26.9186 56.2725 26.9186 55.9542C26.9214 46.2563 26.9243 36.5555 26.9128 26.8575C26.9128 26.3701 26.9644 26.0575 27.5465 25.9686C29.2183 25.7134 30.7582 25.0166 32.3353 24.4431C33.1238 24.1535 33.8923 23.8122 34.6637 23.4767C34.8931 23.3764 35.1712 23.3305 35.2315 22.9749C35.2888 22.628 35.5211 22.6882 35.7648 22.8488C37.9097 24.2682 40.3672 24.9564 42.7587 25.7994Z" fill="#D30417"/>
<path fill-rule="evenodd" clip-rule="evenodd" d="M46.4614 17.3014C46.4929 17.2956 46.5273 17.2899 46.5646 17.2842C46.5646 17.2813 46.5675 17.2784 46.5675 17.2727C46.8886 16.1028 46.8227 14.8898 46.9575 13.6998C47.0206 13.1234 46.8514 12.5729 46.6535 12.0366C46.4442 11.4717 46.1976 11.3914 45.6585 11.6667C45.2771 11.8588 45.0018 12.2402 44.5344 12.2574C43.3731 12.96 42.4268 13.9034 41.5608 14.9185C39.9263 16.8311 38.3377 18.7839 36.7377 20.7252C36.5255 20.9833 36.2961 21.1725 35.9434 21.1553C36.0351 21.2901 36.1269 21.4249 36.2186 21.5596C36.6516 21.6256 37.0732 21.5654 37.4832 21.4306C38.9026 20.9431 40.3048 20.4184 41.6296 19.7044C41.8562 19.5782 42.0798 19.5266 42.3121 19.5782C42.3436 19.5552 42.3781 19.5323 42.4096 19.5094C43.7315 18.7179 45.0104 17.8548 46.4614 17.3014Z" fill="#F1001A"/>
<path fill-rule="evenodd" clip-rule="evenodd" d="M34.4981 20.4589C33.2278 18.6954 31.9661 16.929 30.5725 15.2601C29.4398 13.9067 28.2469 12.5991 26.6612 11.7417C26.5493 11.7417 26.4375 11.7187 26.3285 11.6786C25.431 11.3316 25.0697 11.6184 25.1586 12.5876C25.2245 13.2815 25.2676 13.9783 25.3106 14.6752C25.3536 15.4981 25.4339 16.3297 25.3536 17.1642C25.3564 17.1871 25.3622 17.2043 25.3679 17.2244C25.3823 17.2272 25.3995 17.233 25.4109 17.2358C26.6984 17.795 27.9315 18.4488 29.0928 19.2374C29.11 19.2546 29.1272 19.266 29.1502 19.2832C29.2964 19.1972 29.4283 19.1886 29.6376 19.3004C30.9653 20.0259 32.3331 20.6998 33.7468 21.2532C34.111 21.3937 34.4522 21.5514 34.7275 21.8325C35.1633 21.7894 35.1175 21.4539 35.1318 21.1586C34.8508 20.9894 34.6816 20.717 34.4981 20.4589Z" fill="#F1001A"/>
<mask id="mask4_1399_801" style="mask-type:luminance" maskUnits="userSpaceOnUse" x="16" y="10" width="9" height="9">
<path d="M16.7256 10H24.8005V18.7115H16.7256V10Z" fill="white"/>
</mask>
<g mask="url(#mask4_1399_801)">
<path fill-rule="evenodd" clip-rule="evenodd" d="M21.5338 17.475C21.9238 17.3459 22.3138 17.2169 22.7038 17.0821C22.8242 17.0764 22.9418 17.0678 23.0622 17.0592C23.2658 16.9015 23.4121 16.7065 23.3547 16.3968C23.0679 14.8713 23.2228 13.3171 23.0421 11.7858C22.9532 11.0403 23.0049 11.0345 23.7705 11.0747C24.083 11.0948 24.4673 11.2439 24.6107 10.7736C23.3404 10.1714 21.9984 10.0194 20.622 10.16C19.6872 10.2546 19.0305 10.7621 18.6032 11.5937C17.9122 12.9357 17.4677 14.358 17.2125 15.8405C17.0921 16.5488 16.8827 17.2542 17.0777 17.9854C17.3587 18.1632 17.5967 17.9596 17.8491 17.8965C19.0305 17.604 20.2033 17.1911 21.4421 17.604C21.4679 17.6097 21.4966 17.6069 21.5224 17.6097C21.5224 17.5667 21.5252 17.5209 21.5338 17.475Z" fill="#F1001A"/>
</g>
<mask id="mask5_1399_801" style="mask-type:luminance" maskUnits="userSpaceOnUse" x="46" y="10" width="9" height="9">
<path d="M46.8223 10H54.8972V18.7115H46.8223V10Z" fill="white"/>
</mask>
<g mask="url(#mask5_1399_801)">
<path fill-rule="evenodd" clip-rule="evenodd" d="M52.3877 11.1015C52.0867 10.5767 51.5418 10.29 50.9253 10.2068C49.4944 10.0147 48.1352 10.2384 46.8506 10.9094C47.123 11.3825 47.5302 11.1502 47.8886 11.0843C48.3188 11.004 48.5854 11.1359 48.5453 11.589C48.3962 13.4098 48.7718 15.2881 47.9546 17.0372C47.9574 17.0372 47.9632 17.0372 47.966 17.0344C48.6198 17.0516 49.2335 17.2265 49.8299 17.4702C49.8299 17.5104 49.8271 17.5505 49.8242 17.5907C49.8414 17.5935 49.8615 17.5935 49.8758 17.5964C50.1826 17.5218 50.4751 17.3871 50.8049 17.4243C51.7454 17.5333 52.6888 17.6279 53.5634 18.0409C53.79 18.147 54.0538 18.3563 54.2602 17.9921C54.3807 15.4945 53.6208 13.2263 52.3877 11.1015Z" fill="#F1001A"/>
</g>
<mask id="mask6_1399_801" style="mask-type:luminance" maskUnits="userSpaceOnUse" x="13" y="23" width="8" height="11">
<path d="M13 23.1172H20.3953V33.3943H13V23.1172Z" fill="white"/>
</mask>
<g mask="url(#mask6_1399_801)">
<path fill-rule="evenodd" clip-rule="evenodd" d="M17.7657 23.6074C16.8395 23.9113 15.8703 23.9687 14.9269 24.1637C14.7405 24.2038 14.4767 24.0834 14.3907 24.3386C14.3247 24.5336 14.5312 24.6512 14.6487 24.7859C15.6179 25.8871 16.4667 27.0771 17.2696 28.3015C17.9894 29.3969 18.7808 30.4435 19.5866 31.4787C19.9278 31.9174 20.1343 32.402 20.3608 32.8866C20.14 33.1218 19.8619 33.0616 19.5981 33.0042C18.3564 32.7461 17.1033 32.5798 15.8617 32.3275C15.5921 32.2701 15.3197 32.23 15.1792 31.9432C13.0888 31.5705 13.1003 31.5676 13.0888 29.4428C13.0802 27.9 13.0487 26.3545 12.9999 24.8117C12.9884 24.3673 13.0831 24.1924 13.5791 24.1465C14.6201 24.0461 15.6495 23.8396 16.6789 23.6762C17.0402 23.6131 17.3958 23.5615 17.7657 23.6074Z" fill="#FFD45A"/>
</g>
<path fill-rule="evenodd" clip-rule="evenodd" d="M25.4101 17.2359C25.5305 17.0983 25.9807 17.1728 25.6911 16.7771C25.5133 16.5248 25.5534 16.2151 25.5563 15.9226C25.5764 14.7096 25.4559 13.5053 25.3126 12.3038C25.2552 11.8134 25.5821 11.5697 26.0696 11.7131C26.2531 11.7618 26.4481 12.1489 26.6603 11.7417C26.0323 11.3001 25.3756 10.9216 24.61 10.7754C24.2229 11.1052 23.8301 10.7926 23.4401 10.784C23.0386 10.7754 22.6314 10.741 22.7175 11.3661C22.8952 12.688 22.9956 14.0157 22.9612 15.3491C22.9583 15.5957 22.9268 15.8939 23.0444 16.0803C23.3655 16.5936 23.1046 16.8488 22.7031 17.0839C23.6121 17.0208 24.524 16.9836 25.4101 17.2359Z" fill="#F1001A"/>
<path fill-rule="evenodd" clip-rule="evenodd" d="M47.9666 17.0338C48.3394 16.7929 48.6806 16.5033 48.6519 16.0187C48.5659 14.5219 48.8469 13.0422 48.801 11.5454C48.7752 10.797 48.5745 10.645 47.8232 10.8572C47.5021 10.9432 47.1895 11.1411 46.8511 10.9088C45.988 11.2013 45.2453 11.7031 44.5342 12.2565C44.5973 12.5634 44.7751 12.4544 44.9299 12.3569C45.2367 12.1676 45.5407 11.9727 45.8418 11.7748C46.14 11.5855 46.3407 11.6286 46.4439 11.9899C46.6848 12.8386 46.8311 13.6731 46.6647 14.5792C46.5013 15.4682 46.5185 16.3915 46.4611 17.3005C46.963 17.2145 47.4619 17.1256 47.9666 17.0338Z" fill="#F1001A"/>
<path fill-rule="evenodd" clip-rule="evenodd" d="M47.1523 56.2148C47.1523 46.2961 47.1552 36.3716 47.1609 26.4501C47.1609 26.1776 47.1724 25.9052 47.1782 25.6328C47.6197 25.8221 47.5194 26.2321 47.5223 26.5676C47.5395 28.4458 47.5309 30.3241 47.5337 32.1994C47.5366 33.0797 47.5681 33.1027 48.414 32.945C49.0592 32.8274 49.7016 32.6812 50.3468 32.5693C51.6257 32.3686 52.8759 32.0474 54.1462 31.818C54.4616 31.7607 54.7713 31.6718 55.0839 31.8094C55.5656 31.7722 55.471 32.1163 55.4968 32.403C55.5283 32.7672 55.3506 32.9421 55.0093 33.0109C53.8767 33.2346 52.7469 33.4669 51.6171 33.6991C50.2865 33.9744 48.9589 34.2583 47.6255 34.5192C47.3645 34.5708 47.2814 34.6999 47.29 34.935C47.2929 35.1386 47.2871 35.3422 47.2871 35.5458C47.2871 41.969 47.2814 48.3922 47.2814 54.8155C47.2814 55.2456 47.2986 55.6786 47.3043 56.1087C47.2556 56.146 47.204 56.1804 47.1523 56.2148Z" fill="#FF8606"/>
<path fill-rule="evenodd" clip-rule="evenodd" d="M21.8669 18.1637C21.6805 17.986 21.4654 17.791 21.5342 17.4755C21.2676 17.2375 20.9579 17.1687 20.6023 17.1917C19.3865 17.272 18.1907 17.4411 17.0781 17.986C17.2358 19.328 18.271 19.8986 19.2861 20.4864C19.6675 20.5725 20.0202 20.9051 20.4388 20.5868C21.0525 20.1194 21.7808 19.933 22.5092 19.7437C22.7701 19.6721 23.0569 19.6405 23.1486 19.3165C23.1486 19.3165 23.1486 19.3165 23.1486 19.3136C23.14 19.3079 23.1314 19.3021 23.12 19.2964C22.7042 18.9208 22.2712 18.5537 21.8669 18.1637Z" fill="#A70417"/>
<path fill-rule="evenodd" clip-rule="evenodd" d="M53.9505 18.0379C53.0386 17.3841 51.9489 17.3755 50.9023 17.2063C50.5295 17.1461 50.1309 17.1375 49.8298 17.4701C49.8385 17.9949 49.394 18.2157 49.0986 18.5282C48.8234 18.8179 48.5108 19.0731 48.2154 19.3426C48.1925 19.357 48.1667 19.3684 48.1438 19.3828C48.1409 19.42 48.1409 19.4602 48.1438 19.5032C48.1982 19.7039 48.3559 19.7928 48.5395 19.8272C49.6062 20.0222 50.5983 20.5011 51.6765 20.6703C52.1267 20.5097 52.5368 20.2688 52.8924 19.9706C53.5175 19.4372 54.2028 18.9211 54.2602 17.992C54.1627 18.0436 54.0652 18.1182 53.9505 18.0379Z" fill="#A70417"/>
<path fill-rule="evenodd" clip-rule="evenodd" d="M40.2958 21.3236C39.8427 21.3236 39.6534 21.3924 39.3638 21.4383C39.2319 21.4555 39.0742 21.4727 38.8649 21.4727C38.9394 21.4383 39.0169 21.401 39.0885 21.3637C39.0111 21.3723 38.9366 21.3809 38.8591 21.3924C38.7272 21.4182 38.5695 21.4669 38.5638 21.6246C38.5552 21.7795 38.7244 21.8627 38.8448 21.8541C39.4212 21.8225 39.4871 22.2756 39.642 22.6484C42.2055 22.7487 44.7347 22.4706 47.2466 22.0089C47.6681 21.9057 48.0839 21.8053 48.5026 21.6992C48.1614 20.882 47.4674 20.3773 46.6903 20.4547C46.5584 20.4662 46.4294 20.449 46.3032 20.4375C46.2057 20.492 46.1082 20.5493 46.0136 20.6067C44.3218 21.0339 42.0392 21.2203 40.2958 21.3236Z" fill="#A70417"/>
<path fill-rule="evenodd" clip-rule="evenodd" d="M32.0975 21.5361C30.1734 21.4845 28.2551 21.3698 26.3797 20.8881C25.9209 20.7734 25.4707 20.6185 25.0176 20.4809C24.9316 20.4264 24.8485 20.3748 24.7653 20.3203C23.8248 20.4608 23.4663 20.911 23.5036 21.8516C23.7817 21.9376 24.0628 22.0293 24.338 22.1154C26.6005 22.4681 28.8687 22.7032 31.1656 22.6487C31.2086 22.6057 31.2487 22.5598 31.2889 22.5168C31.4867 22.2444 31.5699 21.8745 31.9857 21.7885C32.1233 21.7598 32.1864 21.648 32.1061 21.5333C32.1061 21.5333 32.1004 21.5361 32.0975 21.5361Z" fill="#A70417"/>
<path fill-rule="evenodd" clip-rule="evenodd" d="M15.1796 31.9434C16.9087 32.2588 18.6349 32.5742 20.3612 32.8868C21.5798 33.1879 22.7957 33.466 24.043 33.5664C24.043 33.9908 24.0459 34.4152 24.0488 34.8395C21.2386 34.2804 18.4342 33.7241 15.6269 33.1649C15.472 33.1334 15.3258 33.0703 15.1738 33.0244C15.1767 32.6631 15.1796 32.3047 15.1796 31.9434Z" fill="#FF8606"/>
<path fill-rule="evenodd" clip-rule="evenodd" d="M23.1219 19.2969C22.967 19.4489 22.7749 19.4775 22.5713 19.5263C21.9806 19.6639 21.3526 19.7528 20.8422 20.1026C20.3576 20.4381 19.8873 20.6991 19.2852 20.4869C20.5899 21.2496 22.0408 21.5765 23.5033 21.8518C23.8072 21.1751 24.0022 20.3751 25.0173 20.4783C24.3836 20.0854 23.7499 19.6926 23.1219 19.2969Z" fill="#A70417"/>
<path fill-rule="evenodd" clip-rule="evenodd" d="M51.0634 20.3053C50.1802 20.2193 49.4403 19.6113 48.5313 19.6372C48.3392 19.6429 48.2618 19.5024 48.2159 19.3418C47.479 19.7633 46.7449 20.182 46.0137 20.6064C46.2058 20.6264 46.418 20.7096 46.5958 20.658C47.1894 20.4917 47.6137 20.744 47.9062 21.2057C48.0639 21.4552 48.3306 21.5068 48.5027 21.6989C49.6181 21.5354 50.6734 21.177 51.677 20.6695C51.5594 20.4056 51.3014 20.3282 51.0634 20.3053Z" fill="#A70417"/>
<path fill-rule="evenodd" clip-rule="evenodd" d="M55.0837 31.8114C53.5467 32.1928 52.0011 32.5197 50.4412 32.7577C50.0999 32.3219 50.381 31.9319 50.5559 31.5591C51.267 30.0135 52.242 28.6228 53.2083 27.232C53.7101 26.5094 54.2607 25.8155 54.774 25.1015C54.9288 24.8864 55.0579 24.6341 55.3532 24.5566C55.402 24.5595 55.445 24.5595 55.4909 24.5595C55.4765 25.1015 55.4995 25.6406 55.6256 26.1739C55.7117 26.5238 55.878 26.8019 56.2049 26.9567C56.8644 27.2693 57.1053 27.8399 56.6895 28.3991C56.3167 28.9009 56.1447 29.3769 56.1991 30.0135C56.2364 30.4494 55.9439 30.8652 55.617 31.2007C55.4278 31.3899 55.2586 31.6079 55.0837 31.8114Z" fill="#FFC402"/>
<path fill-rule="evenodd" clip-rule="evenodd" d="M27.624 35.6316C27.6269 35.2559 27.6298 34.8774 27.6355 34.5018C27.7875 34.3641 27.971 34.3699 28.1516 34.4014C30.6263 34.8516 33.0924 35.3649 35.5584 35.8696C35.6215 35.9011 35.6789 35.9441 35.7276 35.9986C35.9111 36.3657 35.8652 36.8359 36.2323 37.1256C36.0717 37.2976 35.8566 37.2345 35.6674 37.2632C33.23 36.7442 30.7955 36.2338 28.3638 35.7061C28.1144 35.6517 27.8735 35.6029 27.624 35.6316Z" fill="#FF8606"/>
<path fill-rule="evenodd" clip-rule="evenodd" d="M36.2324 37.1267C35.2976 37.1353 35.7994 36.4299 35.6819 36.0314C35.8052 35.7704 36.0575 35.7217 36.3041 35.6729C38.4662 35.2313 40.6197 34.7496 42.7875 34.3367C43.0514 34.285 43.3266 34.1875 43.579 34.3682C43.579 34.7496 43.579 35.131 43.579 35.5123C41.1301 36.0514 38.6784 36.5877 36.2324 37.1267Z" fill="#FF8606"/>
<path fill-rule="evenodd" clip-rule="evenodd" d="M34.2801 21.2235C32.5883 20.6443 31.0025 19.8471 29.4598 18.961C28.9809 18.6886 29.1243 19.027 29.0928 19.2363C30.1996 20.1769 31.5359 20.7188 32.8664 21.3783C32.5768 21.4357 32.3359 21.4844 32.0979 21.5361C31.6678 21.7282 30.9739 21.7052 31.2893 22.5167C31.7424 22.5167 32.2069 22.5684 32.6514 22.5053C33.374 22.4049 34.1568 22.4279 34.7274 21.8314C34.8851 21.407 34.5324 21.3095 34.2801 21.2235Z" fill="#F1001A"/>
<path fill-rule="evenodd" clip-rule="evenodd" d="M39.1379 21.3439C39.0748 21.3554 39.0174 21.364 38.9515 21.3726C39.0203 21.3669 39.0834 21.3525 39.1493 21.341C40.2992 20.802 41.4175 20.2715 42.4097 19.5087C42.2377 19.1818 42.0169 19.2678 41.7616 19.4083C40.4311 20.1396 39.0088 20.6528 37.6009 21.1948C37.1364 21.3726 36.5915 21.1346 36.2188 21.559C36.2704 21.8916 36.4797 22.0321 36.798 22.1181C37.6439 22.3533 38.5042 22.5139 39.3644 22.6658C39.4562 22.663 39.5508 22.6544 39.6426 22.6486C39.7888 21.7454 39.7888 21.7454 38.7909 21.6823C38.768 21.6765 38.7479 21.6364 38.7164 21.602C39.4332 21.4729 39.5336 21.4729 38.8655 21.4729C38.9572 21.4299 39.0461 21.3869 39.1379 21.3439Z" fill="#F1001A"/>
<path fill-rule="evenodd" clip-rule="evenodd" d="M55.3528 24.5552C54.4294 25.8685 53.486 27.1675 52.5885 28.4951C51.8716 29.5418 51.1805 30.6085 50.6586 31.7727C50.5239 32.0824 50.4006 32.4007 50.4407 32.7563C49.5977 32.9312 48.7575 33.1032 47.923 33.2953C47.4384 33.4072 47.2606 33.3011 47.2692 32.7505C47.3037 30.6171 47.2864 28.4865 47.2807 26.3588C47.2807 26.1151 47.3352 25.8542 47.1775 25.6334C47.1488 25.4154 46.9567 25.3036 46.8506 25.1344C48.1868 25.3437 49.4973 25.0742 50.8106 24.9394C51.8142 24.8305 52.8322 24.8046 53.8244 24.5752C54.0882 24.515 54.3921 24.5122 54.5986 24.363C54.9656 24.1021 55.1721 24.2197 55.3528 24.5552Z" fill="#FFC402"/>
<path fill-rule="evenodd" clip-rule="evenodd" d="M43.5796 34.3681C41.4147 34.8269 39.2468 35.2886 37.079 35.7445C36.6116 35.842 36.1499 35.9366 35.6825 36.0313L35.6739 35.9825C35.4216 35.7675 35.4244 35.4635 35.4216 35.1739C35.4216 33.0089 35.3872 30.8468 35.433 28.6818C35.542 27.727 35.6538 27.6065 36.6374 27.4918C37.2023 27.423 37.7586 27.3255 38.3206 27.2653C39.4246 27.1363 42.6878 26.1756 43.2011 26.3592C43.5768 26.4939 43.594 26.8036 43.594 27.1391C43.5854 29.5478 43.5825 31.9594 43.5796 34.3681Z" fill="#FFC402"/>
<path fill-rule="evenodd" clip-rule="evenodd" d="M35.6618 28.5246C35.6675 31.0107 35.6704 33.4968 35.6733 35.983C34.3599 35.9514 33.0954 35.5872 31.8164 35.3435C30.4171 35.0768 29.0292 34.7843 27.6356 34.5062C27.6356 32.0545 27.6356 29.6027 27.6299 27.1568C27.9711 26.8356 28.3984 26.9159 28.797 26.9274C30.5863 26.9847 32.3641 27.2084 34.1277 27.5238C34.7729 27.6414 35.332 27.9109 35.6618 28.5246Z" fill="#FFD45A"/>
<path fill-rule="evenodd" clip-rule="evenodd" d="M18.3164 17.527C18.3164 17.527 26.1132 13.6272 32.7601 21.3236C32.7601 21.3236 29.4051 19.8555 26.6609 18.6482C26.6609 18.6482 19.0505 16.9994 18.3164 17.527Z" fill="#A70417"/>
<path fill-rule="evenodd" clip-rule="evenodd" d="M53.7587 17.5271C53.7587 17.5271 45.3598 13.9054 38.7129 21.6018C38.7129 21.6018 38.8591 21.8026 39.3151 21.6018C40.5825 21.0427 43.3898 19.5401 45.4143 18.6483C45.4143 18.6483 53.0246 16.9995 53.7587 17.5271Z" fill="#A70417"/>
<path fill-rule="evenodd" clip-rule="evenodd" d="M53.4871 17.4208C53.4871 17.4208 54.4449 17.5125 54.2614 18.3298L52.69 19.0352L51.6777 17.8767L52.3287 17.2344L53.4871 17.4208Z" fill="#A70417"/>
</svg>
