<svg width="71" height="71" viewBox="0 0 71 71" fill="none" xmlns="http://www.w3.org/2000/svg">
<path fill-rule="evenodd" clip-rule="evenodd" d="M26.3794 16.4872C28.5546 12.1615 30.727 10 35.0691 10C39.8649 10 43.7588 13.8776 43.7588 18.6487C43.7588 27.2974 35.0691 35.9462 26.3794 44.5922C17.6897 35.9462 9 27.2974 9 18.6487C9 13.8776 12.894 10 17.687 10C22.0346 10 24.207 12.1615 26.3794 16.4872Z" fill="#B6332F"/>
<path fill-rule="evenodd" clip-rule="evenodd" d="M26.3794 16.4872C28.5545 12.1615 30.7269 10 35.0691 10C39.8648 10 43.7588 13.8776 43.7588 18.6487C43.7588 25.606 38.1351 32.5659 31.4101 39.5232C23.3735 31.4838 15.8643 23.4445 15.8643 15.4051C15.8643 13.3611 16.5802 11.4838 17.7716 10C22.0618 10.0301 24.2206 12.1916 26.3794 16.4872Z" fill="#F94640"/>
<path fill-rule="evenodd" clip-rule="evenodd" d="M46.1199 54.3809C29.4783 47.2625 31.1452 42.7919 31.4102 25.9262C37.1569 25.1693 42.3707 22.8411 46.1199 19.3652C49.8717 22.8439 55.0856 25.1693 60.8295 25.9262C61.0919 42.7919 62.7642 47.2625 46.1199 54.3809Z" fill="#FFA203"/>
<path fill-rule="evenodd" clip-rule="evenodd" d="M38.3479 24.1528C41.3073 22.9914 43.9552 21.3682 46.1221 19.3652C49.8713 22.8439 55.0851 25.1693 60.8318 25.9262C61.0395 39.4226 62.1516 44.9808 54.0576 50.3121C44.8733 46.7706 38.2932 37.2065 38.2932 25.9563C38.2905 25.3497 38.3123 24.7485 38.3479 24.1528Z" fill="#FFCC00"/>
<path fill-rule="evenodd" clip-rule="evenodd" d="M46.1198 49.5005C34.6483 44.5982 35.7987 40.3872 35.9818 28.7682C39.9386 28.2435 43.5374 26.6422 46.1198 24.2402C48.7048 26.6395 52.2982 28.2435 56.2578 28.7682C56.4408 40.3872 57.5913 44.5955 46.1198 49.5005Z" fill="#CCCCCC"/>
<path fill-rule="evenodd" clip-rule="evenodd" d="M38.3896 28.3064C41.3873 27.5467 44.0708 26.1449 46.1202 24.2402C48.7053 26.6395 52.2987 28.2435 56.2582 28.7682C56.4222 39.1138 57.3485 43.5844 49.4622 47.8992C43.3302 43.732 39.0728 36.5834 38.3896 28.3064Z" fill="white"/>
<path fill-rule="evenodd" clip-rule="evenodd" d="M31.2487 40.6679L39.1924 45.1138C42.917 47.1961 43.6521 50.1801 39.9986 51.6011L54.7028 47.7891C59.9548 46.4282 61.7556 51.0409 56.3587 53.1149L38.1021 60.1323C37.3015 60.4411 36.5063 60.4547 35.6892 60.1787L23.4717 56.0306L13.2354 59.0966L14.9487 45.1412L28.139 40.4957C29.202 40.1186 30.265 40.1159 31.2487 40.6679Z" fill="#FFB7B2"/>
<path fill-rule="evenodd" clip-rule="evenodd" d="M58.4902 48C60.3811 49.0548 60.0778 51.6863 56.3587 53.1155L38.1021 60.1355C37.3015 60.4443 36.5063 60.458 35.6892 60.1793L23.4717 56.0339L13.2354 59.0971L13.7327 55.0283L23.1739 52.2028L35.3859 56.3509C36.2057 56.6296 36.9982 56.6132 37.8043 56.3044L56.0581 49.2871C57.1485 48.8717 57.9491 48.4345 58.4902 48Z" fill="#FF9AA2"/>
<path fill-rule="evenodd" clip-rule="evenodd" d="M18.1462 43.1758V58.4785C18.1462 59.7819 17.075 60.8476 15.7634 60.8476C14.3944 60.8449 13.0253 60.8449 11.6508 60.8476C10.3419 60.8476 9.27344 59.7819 9.27344 58.4785V43.1758C9.27344 41.8696 10.3419 40.8066 11.6508 40.8066H15.7661C17.075 40.8066 18.1462 41.8696 18.1462 43.1758Z" fill="#0593FC"/>
<path fill-rule="evenodd" clip-rule="evenodd" d="M44 31.5684H48.241V35.2629H51.9546V39.4847H48.241V43.1765H44V39.4847H40.2891V35.2629H44V31.5684Z" fill="#0593FC"/>
</svg>
