<svg width="71" height="71" viewBox="0 0 71 71" fill="none" xmlns="http://www.w3.org/2000/svg">
<mask id="mask0_1399_868" style="mask-type:luminance" maskUnits="userSpaceOnUse" x="13" y="11" width="45" height="51">
<path d="M13.7852 11.7871H57.3241V61.8825H13.7852V11.7871Z" fill="white"/>
</mask>
<g mask="url(#mask0_1399_868)">
<path d="M56.5049 32.7157C56.5025 32.7083 56.5 32.7033 56.4975 32.7009L39.9412 15.3065C37.6662 13.061 37.3605 12.2402 35.5094 12.2402C34.07 12.2402 33.0692 13.1843 30.6241 15.5702L14.6174 32.6959C14.1294 33.184 13.8213 33.8717 13.8213 34.6432V59.1954C13.8213 60.6719 14.9502 61.8723 16.3404 61.8723H54.7598C56.15 61.8723 57.2789 60.6719 57.2789 59.1954V34.6432C57.2789 33.884 56.9831 33.2037 56.5049 32.7157Z" fill="#F7E3B5"/>
</g>
<path d="M36.696 54.9788C36.0896 54.9788 35.5967 54.3528 35.5967 53.5739V43.0983C35.5967 42.3219 36.0896 41.6934 36.696 41.6934H52.2565C52.8629 41.6934 53.3559 42.3219 53.3559 43.0983V53.5739C53.3559 54.3528 52.8629 54.9788 52.2565 54.9788H36.696Z" fill="#EA8342"/>
<mask id="mask1_1399_868" style="mask-type:luminance" maskUnits="userSpaceOnUse" x="10" y="8" width="51" height="28">
<path d="M10 8H61V35.764H10V8Z" fill="white"/>
</mask>
<g mask="url(#mask1_1399_868)">
<path d="M60.0683 32.2764L36.6621 8.82837C36.0804 8.24666 35.4618 7.92377 34.9614 8.4266C34.9614 8.4266 33.5466 9.51359 33.2434 9.81677L10.7838 32.3183C10.2267 32.8778 9.92355 33.4792 10.4264 33.9796L11.8289 35.3846C12.3292 35.8874 12.9307 35.5842 13.4877 35.0271L35.447 13.026L57.3643 34.9852C57.9436 35.5645 58.5622 35.8874 59.0651 35.3846L60.4676 33.9796C60.9679 33.4792 60.6475 32.8581 60.0683 32.2764Z" fill="#E0464C"/>
</g>
<mask id="mask2_1399_868" style="mask-type:luminance" maskUnits="userSpaceOnUse" x="19" y="41" width="15" height="21">
<path d="M19.4648 41.4434H33.3468V61.8818H19.4648V41.4434Z" fill="white"/>
</mask>
<g mask="url(#mask2_1399_868)">
<path d="M32.8074 61.836V43.0416C32.8074 42.2972 32.2036 41.6934 31.4592 41.6934H21.4347C20.6928 41.6934 20.0889 42.2972 20.0889 43.0416V61.836H32.8074Z" fill="#EA8342"/>
</g>
<path d="M37.6825 53.7122C37.1501 53.7122 36.7188 53.2044 36.7188 52.5759V44.0919C36.7188 43.4658 37.1501 42.9531 37.6825 42.9531H51.2736C51.806 42.9531 52.2349 43.4658 52.2349 44.0919V52.5759C52.2349 53.2044 51.806 53.7122 51.2736 53.7122H37.6825Z" fill="#A6D1EE"/>
<path d="M52.2349 46.2535V44.0919C52.2349 43.4658 51.806 42.9531 51.2736 42.9531H37.6825C37.1501 42.9531 36.7188 43.4658 36.7188 44.0919V46.2535H52.2349Z" fill="#F8A64B"/>
<path d="M39.5224 29.8387C39.5224 32.094 37.6959 33.9229 35.4455 33.9229C33.1902 33.9229 31.3662 32.094 31.3662 29.8387C31.3662 27.5809 33.1902 25.752 35.4455 25.752C37.6959 25.752 39.5224 27.5809 39.5224 29.8387Z" fill="#EA8342"/>
<path d="M38.5453 29.8381C38.5453 31.5512 37.1551 32.9438 35.4445 32.9438C33.7339 32.9438 32.3438 31.5512 32.3438 29.8381C32.3438 28.1201 33.7339 26.7324 35.4445 26.7324C37.1551 26.7324 38.5453 28.1201 38.5453 29.8381Z" fill="#A6D1EE"/>
<mask id="mask3_1399_868" style="mask-type:luminance" maskUnits="userSpaceOnUse" x="35" y="53" width="25" height="9">
<path d="M35.8691 53.4316H59.8471V61.8811H35.8691V53.4316Z" fill="white"/>
</mask>
<g mask="url(#mask3_1399_868)">
<path d="M57.4223 57.1525C56.9195 57.1525 56.4561 57.3128 56.0765 57.5839C56.111 57.4459 56.1332 57.3029 56.1332 57.1525C56.1332 56.1543 55.3247 55.3434 54.3265 55.3434C53.6905 55.3434 53.131 55.6736 52.8106 56.1715C52.4902 55.6736 51.9331 55.3434 51.2947 55.3434C50.957 55.3434 50.6415 55.4395 50.3729 55.5997C50.1362 54.5669 49.2144 53.793 48.1101 53.793C46.9788 53.793 46.0347 54.6088 45.8302 55.681C45.5344 55.4691 45.1745 55.3434 44.7801 55.3434C44.265 55.3434 43.7991 55.5652 43.4688 55.9152C43.0572 55.262 42.335 54.8282 41.5093 54.8282C40.2251 54.8282 39.1849 55.8684 39.1849 57.1525C39.1849 57.2142 39.1899 57.2783 39.1948 57.3399C38.9163 57.2191 38.6082 57.1525 38.2853 57.1525C37.0036 57.1525 35.9609 58.1952 35.9609 59.4818C35.9609 60.766 37.0036 61.8062 38.2853 61.8062H57.4223C58.704 61.8062 59.7417 60.766 59.7417 59.4818C59.7417 58.1952 58.704 57.1525 57.4223 57.1525Z" fill="#53C285"/>
</g>
</svg>
