<svg width="71" height="71" viewBox="0 0 71 71" fill="none" xmlns="http://www.w3.org/2000/svg">
<path d="M47.1914 8.87109C54.8906 8.87109 61.1289 15.1055 61.1289 22.8047C61.1289 30.5039 54.8906 36.7422 47.1914 36.7422C45.9648 36.7422 44.7891 36.5859 43.6484 36.2891C43.4453 35.5469 42.7695 35 41.9648 35H36.7422V17.5781C36.7422 16.5703 36.3125 15.6641 35.625 15.0273C38.125 11.3164 42.375 8.87109 47.1914 8.87109Z" fill="#4FC1E9"/>
<path d="M17.0742 45.4492H35C34.5195 45.4492 34.0859 45.6406 33.7695 45.9648C33.4492 46.2773 33.2578 46.7148 33.2578 47.1914C33.2578 48.1523 34.0391 48.9336 35 48.9336H36.7422C36.7422 50.8594 35.1797 52.418 33.2578 52.418H17.5781V48.0625C17.5781 47.1562 17.4063 46.2773 17.0664 45.4609L17.0742 45.4492Z" fill="#969FAA"/>
<path d="M33.2578 43.707C33.2578 44.668 34.0391 45.4492 35 45.4492H17.0742L17.0664 45.4609C16.6055 44.293 15.8203 43.2656 14.793 42.4883L14.0938 41.9648L16.6836 39.3789C17.2852 38.7773 17.7344 38.0742 18.0312 37.2969C19.6367 39.0938 21.9609 40.2266 24.5469 40.2266C29.3555 40.2266 33.2578 36.3242 33.2578 31.5156C33.2578 26.707 29.3555 22.8047 24.5469 22.8047C19.7383 22.8047 15.8359 26.707 15.8359 31.5156C15.8359 32.1406 15.9062 32.7617 16.0273 33.3516C15.7578 33.4414 15.5078 33.5898 15.2969 33.7969L12.3555 36.7305V17.5781C12.3555 15.6562 13.9141 14.0977 15.8359 14.0977H21.0625C21.0625 15.0547 21.457 15.9258 22.082 16.5625C22.7188 17.1875 23.5898 17.5781 24.5469 17.5781C26.4727 17.5781 28.0312 16.0195 28.0312 14.0977H33.2578C34.1719 14.0977 35 14.4531 35.625 15.0273C36.3125 15.6641 36.7422 16.5703 36.7422 17.5781V38.4844H35C34.5195 38.4844 34.0859 38.6758 33.7695 38.9961C33.4492 39.3086 33.2578 39.7461 33.2578 40.2266C33.2578 41.1836 34.0391 41.9648 35 41.9648C34.5195 41.9648 34.0859 42.1602 33.7695 42.4805C33.4492 42.793 33.2578 43.2305 33.2578 43.707Z" fill="#69D6F4"/>
<path d="M24.5469 22.8047C29.3555 22.8047 33.2578 26.707 33.2578 31.5156C33.2578 36.3242 29.3555 40.2266 24.5469 40.2266C21.9609 40.2266 19.6367 39.0938 18.0312 37.2969C18.3125 36.6016 18.4492 35.8594 18.4492 35.1016C18.4492 34.5977 18.2422 34.1289 17.9102 33.7969C17.5781 33.4648 17.1094 33.2578 16.6055 33.2578C16.4141 33.2578 16.2109 33.293 16.0273 33.3516C15.9062 32.7617 15.8359 32.1406 15.8359 31.5156C15.8359 26.707 19.7383 22.8047 24.5469 22.8047Z" fill="#FF826E"/>
<path d="M38.4844 45.4492C39.4414 45.4492 40.2227 46.2344 40.2227 47.1914C40.2227 47.6719 40.0313 48.1055 39.7109 48.4219C39.3984 48.7422 38.9609 48.9336 38.4844 48.9336H35C34.0391 48.9336 33.2578 48.1523 33.2578 47.1914C33.2578 46.7148 33.4492 46.2773 33.7695 45.9648C34.0859 45.6406 34.5195 45.4492 35 45.4492H38.4844Z" fill="#F0D0B4"/>
<path d="M38.4844 41.9648C39.4414 41.9648 40.2227 42.75 40.2227 43.707C40.2227 44.1875 40.0313 44.625 39.7109 44.9375C39.3984 45.2578 38.9609 45.4492 38.4844 45.4492H35C34.0391 45.4492 33.2578 44.668 33.2578 43.707C33.2578 43.2305 33.4492 42.793 33.7695 42.4805C34.0859 42.1602 34.5195 41.9648 35 41.9648H38.4844Z" fill="#F0D0B4"/>
<path d="M38.4844 38.4844C39.4414 38.4844 40.2227 39.2656 40.2227 40.2266C40.2227 40.7031 40.0313 41.1406 39.7109 41.4531C39.3984 41.7734 38.9609 41.9648 38.4844 41.9648H35C34.0391 41.9648 33.2578 41.1836 33.2578 40.2266C33.2578 39.7461 33.4492 39.3086 33.7695 38.9961C34.0859 38.6758 34.5195 38.4844 35 38.4844H38.4844Z" fill="#F0D0B4"/>
<path d="M43.6484 36.2891C43.6914 36.4258 43.707 36.5859 43.707 36.7422C43.707 37.2187 43.5156 37.6562 43.1953 37.9688C42.8828 38.293 42.4453 38.4844 41.9648 38.4844H36.7422V35H41.9648C42.7695 35 43.4453 35.5469 43.6484 36.2891Z" fill="#F0D0B4"/>
<path d="M33.2578 52.418L31.5156 55.9023V61.1289H14.0938V55.9023L9.98438 48.3594C9.25391 47.0273 8.87109 45.5195 8.87109 43.9961C8.87109 41.582 9.82813 39.2656 11.5352 37.5508L12.3555 36.7422V36.7305L15.2969 33.7969C15.5078 33.5898 15.7578 33.4414 16.0273 33.3516C16.2109 33.293 16.4141 33.2578 16.6055 33.2578C17.1094 33.2578 17.5781 33.4648 17.9102 33.7969C18.2422 34.1289 18.4492 34.5977 18.4492 35.1016C18.4492 35.8594 18.3125 36.6016 18.0312 37.2969C17.7344 38.0742 17.2852 38.7773 16.6836 39.3789L14.0938 41.9648L14.793 42.4883C15.8203 43.2656 16.6055 44.293 17.0664 45.4609C17.4062 46.2773 17.5781 47.1563 17.5781 48.0625V52.418H33.2578Z" fill="#F0D0B4"/>
<path d="M21.0625 14.0977H28.0312C28.0312 16.0195 26.4727 17.5781 24.5469 17.5781C23.5898 17.5781 22.7188 17.1875 22.082 16.5625C21.457 15.9258 21.0625 15.0547 21.0625 14.0977Z" fill="#4FC1E9"/>
<path d="M16.707 17.5781C16.707 17.8203 16.625 18.0273 16.4531 18.1953C16.2852 18.3672 16.0781 18.4492 15.8359 18.4492C15.5977 18.4492 15.3906 18.3672 15.2227 18.1953C15.0508 18.0273 14.9648 17.8203 14.9648 17.5781C14.9648 17.3398 15.0508 17.1328 15.2227 16.9648C15.3906 16.793 15.5977 16.707 15.8359 16.707C16.0781 16.707 16.2852 16.793 16.4531 16.9648C16.625 17.1328 16.707 17.3398 16.707 17.5781Z" fill="black"/>
<path d="M21.9336 48.0625H27.1602V49.8047H21.9336V48.0625Z" fill="black"/>
<path d="M20.1758 32.4297L21.4062 33.6602C22.2305 32.8398 23.3242 32.3867 24.4844 32.3867C25.6484 32.3867 26.7422 32.8398 27.5664 33.6602L28.7969 32.4297C27.6445 31.2773 26.1133 30.6445 24.4844 30.6445C22.8555 30.6445 21.3281 31.2773 20.1758 32.4297Z" fill="black"/>
<path d="M30.0273 31.1992L31.2578 29.9648C27.5234 26.2305 21.4453 26.2305 17.7109 29.9648L18.9414 31.1992C22 28.1406 26.9727 28.1406 30.0273 31.1992Z" fill="black"/>
<path d="M22.6367 34.8936L23.8711 36.124C24.1992 35.7959 24.7734 35.7959 25.1016 36.124L26.332 34.8936C25.3477 33.9053 23.625 33.9053 22.6367 34.8936Z" fill="black"/>
<mask id="mask0_1399_2595" style="mask-type:luminance" maskUnits="userSpaceOnUse" x="8" y="8" width="54" height="54">
<path d="M8 8H62V62H8V8Z" fill="white"/>
</mask>
<g mask="url(#mask0_1399_2595)">
<path d="M47.1914 8C42.5547 8 38.2188 10.1602 35.4219 13.8242C34.7812 13.4531 34.0469 13.2266 33.2578 13.2266H15.8359C13.4375 13.2266 11.4844 15.1797 11.4844 17.5781V36.3789L10.9219 36.9375C9.03516 38.8242 8 41.332 8 44C8 45.6641 8.42188 47.3164 9.21875 48.7773L13.2227 56.125V62H32.3867V56.1094L33.8125 53.2539C35.6641 53.0156 37.1484 51.6133 37.5195 49.8047H38.4844C39.9219 49.8047 41.0938 48.6328 41.0938 47.1953C41.0938 46.5234 40.832 45.9141 40.418 45.4531C40.8359 44.9883 41.0938 44.3828 41.0938 43.7109C41.0938 43.0391 40.832 42.4297 40.418 41.9688C40.8359 41.5039 41.0938 40.8984 41.0938 40.2266C41.0938 39.918 41.0312 39.6289 40.9336 39.3555H41.9648C43.1914 39.3555 44.2148 38.5039 44.4961 37.3633C45.3828 37.5273 46.2852 37.6133 47.1914 37.6133C55.3555 37.6133 62 30.9688 62 22.8047C62 14.6406 55.3555 8 47.1914 8ZM47.1914 9.74219C49.1367 9.74219 50.8984 11.8203 52.0234 14.9648H42.3633C43.4883 11.8203 45.25 9.74219 47.1914 9.74219ZM52.5547 16.707C52.957 18.293 53.207 20.0703 53.2656 21.9336H41.1172C41.1758 20.0703 41.4258 18.293 41.8281 16.707H52.5547ZM39.375 21.9336H37.6133V17.5781C37.6133 17.2812 37.582 16.9883 37.5234 16.707H40.0312C39.6562 18.3125 39.4297 20.0703 39.375 21.9336ZM37.6133 23.6758H39.375C39.4297 25.5 39.6562 27.2656 40.0391 28.9023H37.6133V23.6758ZM41.1172 23.6758H53.2656C53.207 25.543 52.957 27.3164 52.5547 28.9023H41.8203C41.4102 27.293 41.1758 25.5195 41.1172 23.6758ZM55.0078 23.6758H60.2109C60.0859 25.5547 59.5742 27.3242 58.7383 28.9023H54.3516C54.7266 27.3008 54.9531 25.5391 55.0078 23.6758ZM55.0078 21.9336C54.9531 20.0703 54.7266 18.3125 54.3516 16.707H58.7383C59.5742 18.2852 60.0859 20.0586 60.2109 21.9336H55.0078ZM57.6211 14.9648H53.8672C53.293 13.2031 52.5352 11.6914 51.6328 10.5352C54.0352 11.4062 56.1055 12.9609 57.6211 14.9648ZM42.7617 10.5195C41.8555 11.6758 41.0938 13.1953 40.5156 14.9648H36.7422C38.293 12.9023 40.3945 11.375 42.7617 10.5195ZM27 14.9648C26.6406 15.9766 25.6797 16.707 24.5469 16.707C23.4141 16.707 22.4531 15.9766 22.0938 14.9648H27ZM13.2227 17.5781C13.2227 16.1406 14.3984 14.9648 15.8359 14.9648H20.2812C20.6836 16.9531 22.4453 18.4492 24.5469 18.4492C26.6523 18.4492 28.4102 16.9531 28.8125 14.9648H33.2578C34.6992 14.9648 35.8711 16.1406 35.8711 17.5781V37.6133H35C33.5586 37.6133 32.3867 38.7852 32.3867 40.2266C32.3867 40.8945 32.6484 41.5039 33.0664 41.9648C32.6484 42.4297 32.3867 43.0391 32.3867 43.707C32.3867 44.0156 32.4492 44.3047 32.5469 44.5781H17.625C17.1055 43.5352 16.3594 42.6016 15.4219 41.875L17.293 40C17.6758 39.6172 18 39.1953 18.2812 38.75C20.0117 40.2461 22.2305 41.0977 24.5469 41.0977C29.8281 41.0977 34.1289 36.7969 34.1289 31.5156C34.1289 26.2344 29.8281 21.9336 24.5469 21.9336C19.2656 21.9336 14.9648 26.2344 14.9648 31.5156C14.9648 31.9648 15.0117 32.4141 15.0742 32.8633C14.9336 32.957 14.8008 33.0625 14.6797 33.1836L13.2227 34.6367V17.5781ZM39.3555 43.707C39.3555 44.1875 38.9648 44.5781 38.4844 44.5781H35C34.5195 44.5781 34.1289 44.1875 34.1289 43.707C34.1289 43.2305 34.5195 42.8359 35 42.8359H38.4844C38.9648 42.8359 39.3555 43.2305 39.3555 43.707ZM16.7617 32.4023C16.7266 32.1055 16.707 31.8125 16.707 31.5156C16.707 27.1914 20.2227 23.6758 24.5469 23.6758C28.8711 23.6758 32.3867 27.1914 32.3867 31.5156C32.3867 35.8359 28.8711 39.3555 24.5469 39.3555C22.4766 39.3555 20.5 38.5234 19.0352 37.0742C19.2227 36.4414 19.3203 35.7812 19.3203 35.1055C19.3203 33.6602 18.1836 32.4844 16.7617 32.4023ZM30.6445 55.6953V60.2578H14.9648V55.6797L10.7461 47.9453C10.0898 46.7383 9.74219 45.3711 9.74219 44C9.74219 41.7969 10.5977 39.7266 12.1523 38.1719L15.9102 34.4141C16.0938 34.2344 16.3477 34.1289 16.6016 34.1289C17.1406 34.1289 17.5781 34.5664 17.5781 35.1055C17.5781 36.4883 17.0391 37.7891 16.0625 38.7695L12.7695 42.0625L14.2695 43.1875C15.7969 44.332 16.707 46.1562 16.707 48.0625V53.2891H31.8477L30.6445 55.6953ZM33.2578 51.5469H18.4492V48.0625C18.4492 47.4727 18.3789 46.8867 18.25 46.3203H32.5469C32.4492 46.5938 32.3867 46.8867 32.3867 47.1914C32.3867 48.6328 33.5586 49.8047 35 49.8047H35.7109C35.3477 50.8164 34.3906 51.5469 33.2578 51.5469ZM38.4844 48.0625H35C34.5195 48.0625 34.1289 47.6719 34.1289 47.1914C34.1289 46.7109 34.5195 46.3203 35 46.3203H38.4844C38.9648 46.3203 39.3555 46.7109 39.3555 47.1914C39.3555 47.6719 38.9648 48.0625 38.4844 48.0625ZM39.3555 40.2266C39.3555 40.7031 38.9648 41.0977 38.4844 41.0977H35C34.5195 41.0977 34.1289 40.7031 34.1289 40.2266C34.1289 39.7461 34.5195 39.3555 35 39.3555H38.4844C38.9648 39.3555 39.3555 39.7461 39.3555 40.2266ZM41.9648 37.6133H37.6133V35.8711H41.9648C42.4453 35.8711 42.8359 36.2617 42.8359 36.7422C42.8359 37.2227 42.4453 37.6133 41.9648 37.6133ZM44.2695 35.5352C43.832 34.7031 42.9688 34.1289 41.9648 34.1289H37.6133V30.6445H40.5156C40.7578 31.3984 41.0391 32.1133 41.3555 32.7773L42.9297 32.0312C42.7227 31.5938 42.5352 31.125 42.3633 30.6445H52.0234C50.8984 33.7891 49.1367 35.8711 47.1914 35.8711C46.2031 35.8711 45.2266 35.7539 44.2695 35.5352ZM51.6328 35.0781C52.5352 33.9219 53.293 32.4062 53.8672 30.6445H57.6211C56.1055 32.6523 54.0352 34.2031 51.6328 35.0781Z" fill="black"/>
</g>
</svg>
