<svg width="71" height="71" viewBox="0 0 71 71" fill="none" xmlns="http://www.w3.org/2000/svg">
<mask id="mask0_1399_989" style="mask-type:luminance" maskUnits="userSpaceOnUse" x="47" y="13" width="4" height="7">
<path d="M47.374 13.9219H50.5499V19.5848H47.374V13.9219Z" fill="white"/>
</mask>
<g mask="url(#mask0_1399_989)">
<path d="M47.9531 18.8869V14.8167C47.9531 14.5133 48.2028 14.2637 48.503 14.2637H49.6059C49.9061 14.2637 50.1557 14.5133 50.1557 14.8167V18.8869C50.1557 19.1903 49.9061 19.4399 49.6059 19.4399H48.503C48.1996 19.4399 47.9531 19.1903 47.9531 18.8869Z" fill="#CECCBE"/>
</g>
<mask id="mask1_1399_989" style="mask-type:luminance" maskUnits="userSpaceOnUse" x="47" y="13" width="4" height="8">
<path d="M47.374 13.1133H50.5499V20.3942H47.374V13.1133Z" fill="white"/>
</mask>
<g mask="url(#mask1_1399_989)">
<path d="M49.6052 19.8083H48.5024C47.9968 19.8083 47.5859 19.3943 47.5859 18.8856V14.8153C47.5859 14.3066 47.9968 13.8926 48.5024 13.8926H49.6052C50.1109 13.8926 50.5217 14.3066 50.5217 14.8153V18.8856C50.5217 19.3943 50.1109 19.8083 49.6052 19.8083ZM48.5024 14.632C48.4044 14.632 48.3191 14.7142 48.3191 14.8153V18.8856C48.3191 18.9867 48.4044 19.0688 48.5024 19.0688H49.6052C49.7032 19.0688 49.7885 18.9867 49.7885 18.8856V14.8153C49.7885 14.7142 49.7032 14.632 49.6052 14.632H48.5024Z" fill="#1F212B"/>
</g>
<path d="M44.651 61.2359H23.374C21.3578 61.2359 19.7051 59.5705 19.7051 57.5386V12.4153C19.7051 10.3802 21.3578 8.71484 23.374 8.71484H44.651C46.6703 8.71484 48.3199 10.3802 48.3199 12.4153V57.5386C48.3199 59.5705 46.6703 61.2359 44.651 61.2359Z" fill="#FEFDEF"/>
<mask id="mask2_1399_989" style="mask-type:luminance" maskUnits="userSpaceOnUse" x="19" y="8" width="31" height="54">
<path d="M19 8H49.8016V62H19V8Z" fill="white"/>
</mask>
<g mask="url(#mask2_1399_989)">
<path d="M44.6508 61.9746H23.3737C20.9467 61.9746 18.9717 59.9837 18.9717 57.5378V12.4146C18.9717 9.96548 20.9467 7.97461 23.3737 7.97461H44.6508C47.0809 7.97461 49.0528 9.96548 49.0528 12.4146V57.5378C49.0528 59.9837 47.0777 61.9746 44.6508 61.9746ZM23.3737 9.45354C21.7557 9.45354 20.4411 10.7808 20.4411 12.4146V57.5378C20.4411 59.1684 21.7557 60.4957 23.3737 60.4957H44.6508C46.2719 60.4957 47.5865 59.1684 47.5865 57.5378V12.4146C47.5865 10.7808 46.2719 9.45354 44.6508 9.45354H23.3737Z" fill="#1F212B"/>
</g>
<path d="M23.374 15.373H45.3874V52.359H23.374V15.373Z" fill="#C7DFF1"/>
<path d="M23.0072 38.3021C22.805 38.3021 22.6406 38.1377 22.6406 37.9323V15.0025C22.6406 14.7971 22.805 14.6328 23.0072 14.6328H42.0848C42.287 14.6328 42.4514 14.7971 42.4514 15.0025C42.4514 15.2048 42.287 15.3723 42.0848 15.3723H23.3738V37.9323C23.3738 38.1377 23.2094 38.3021 23.0072 38.3021ZM45.0174 52.3582H23.0072C22.805 52.3582 22.6406 52.1939 22.6406 51.9885V45.3301C22.6406 45.1279 22.805 44.9604 23.0072 44.9604C23.2094 44.9604 23.3738 45.1279 23.3738 45.3301V51.6188H44.6508V21.6609C44.6508 21.4555 44.8151 21.2912 45.0174 21.2912C45.2228 21.2912 45.3871 21.4555 45.3871 21.6609V51.9885C45.3871 52.1939 45.2228 52.3582 45.0174 52.3582Z" fill="#1F212B"/>
<path d="M33.6475 54.207C33.4042 54.207 33.1704 54.2544 32.946 54.3492C32.7185 54.4409 32.5225 54.5768 32.3487 54.7506C32.1781 54.9212 32.0454 55.1235 31.9506 55.3478C31.8589 55.5754 31.8115 55.8124 31.8115 56.0557C31.8115 56.3022 31.8589 56.5392 31.9506 56.7636C32.0454 56.9911 32.1781 57.1902 32.3487 57.364C32.5225 57.5378 32.7185 57.6705 32.946 57.7653C33.1704 57.8601 33.4042 57.9075 33.6475 57.9075C33.8909 57.9075 34.1247 57.8601 34.3491 57.7653C34.5735 57.6705 34.7725 57.5378 34.9432 57.364C35.117 57.1902 35.2497 56.9911 35.3414 56.7636C35.433 56.5392 35.4804 56.3022 35.4804 56.0557C35.4804 55.8124 35.433 55.5754 35.3414 55.3478C35.2497 55.1235 35.117 54.9212 34.9432 54.7506C34.7725 54.5768 34.5735 54.4409 34.3491 54.3492C34.1247 54.2544 33.8909 54.207 33.6475 54.207Z" fill="#CECCBE"/>
<path d="M33.6467 58.276C32.4332 58.276 31.4441 57.2806 31.4441 56.0544C31.4441 54.8315 32.4332 53.836 33.6467 53.836C34.8602 53.836 35.8461 54.8315 35.8461 56.0544C35.8461 57.2806 34.8602 58.276 33.6467 58.276ZM33.6467 54.5755C32.8377 54.5755 32.1772 55.2391 32.1772 56.0544C32.1772 56.8729 32.8377 57.5365 33.6467 57.5365C34.4557 57.5365 35.113 56.8729 35.113 56.0544C35.113 55.2391 34.4557 54.5755 33.6467 54.5755ZM36.9806 12.4133H31.0427C30.8595 12.4133 30.7109 12.2616 30.7109 12.0752V12.0088C30.7109 11.8224 30.8595 11.6738 31.0427 11.6738H36.9806C37.1639 11.6738 37.3124 11.8224 37.3124 12.0088V12.0752C37.3156 12.2616 37.1639 12.4133 36.9806 12.4133Z" fill="#1F212B"/>
<path d="M28.7704 22.4009H26.0496C25.585 22.4009 25.209 22.0185 25.209 21.5508V18.8078C25.209 18.3433 25.585 17.9609 26.0496 17.9609H28.7704C29.2318 17.9609 29.611 18.3433 29.611 18.8078V21.5508C29.611 22.0185 29.2318 22.4009 28.7704 22.4009Z" fill="#A1D3A2"/>
<path d="M28.7718 22.7712H26.0509C25.3841 22.7712 24.8438 22.2245 24.8438 21.5514V18.8084C24.8438 18.1385 25.3841 17.5918 26.0509 17.5918H28.7718C29.4354 17.5918 29.9789 18.1385 29.9789 18.8084V21.5514C29.9789 22.2245 29.4354 22.7712 28.7718 22.7712ZM26.0509 18.3313C25.7886 18.3313 25.5769 18.5462 25.5769 18.8084V21.5546C25.5769 21.8169 25.7886 22.0318 26.0509 22.0318H28.7718C29.0309 22.0318 29.2458 21.8169 29.2458 21.5546V18.8084C29.2458 18.5462 29.0309 18.3313 28.7718 18.3313H26.0509Z" fill="#1F212B"/>
<path d="M35.373 22.4009H32.6521C32.1907 22.4009 31.8115 22.0185 31.8115 21.5508V18.8078C31.8115 18.3433 32.1907 17.9609 32.6521 17.9609H35.373C35.8375 17.9609 36.2136 18.3433 36.2136 18.8078V21.5508C36.2136 22.0185 35.8375 22.4009 35.373 22.4009Z" fill="#78A2D2"/>
<path d="M35.3724 22.7712H32.6515C31.9879 22.7712 31.4443 22.2245 31.4443 21.5514V18.8084C31.4443 18.1385 31.9879 17.5918 32.6515 17.5918H35.3724C36.0391 17.5918 36.5795 18.1385 36.5795 18.8084V21.5514C36.5795 22.2245 36.0391 22.7712 35.3724 22.7712ZM32.6515 18.3313C32.3924 18.3313 32.1775 18.5462 32.1775 18.8084V21.5546C32.1775 21.8169 32.3924 22.0318 32.6515 22.0318H35.3724C35.6346 22.0318 35.8464 21.8169 35.8464 21.5546V18.8084C35.8464 18.5462 35.6346 18.3313 35.3724 18.3313H32.6515Z" fill="#1F212B"/>
<path d="M41.9765 22.4009H39.2556C38.7943 22.4009 38.415 22.0185 38.415 21.5508V18.8078C38.415 18.3433 38.7943 17.9609 39.2556 17.9609H41.9765C42.4379 17.9609 42.8171 18.3433 42.8171 18.8078V21.5508C42.8171 22.0185 42.4379 22.4009 41.9765 22.4009Z" fill="#FEF6AA"/>
<path d="M41.9768 22.7712H39.256C38.5892 22.7712 38.0488 22.2245 38.0488 21.5514V18.8084C38.0488 18.1385 38.5892 17.5918 39.256 17.5918H41.9768C42.6436 17.5918 43.184 18.1385 43.184 18.8084V21.5514C43.184 22.2245 42.6405 22.7712 41.9768 22.7712ZM39.256 18.3313C38.9937 18.3313 38.782 18.5462 38.782 18.8084V21.5546C38.782 21.8169 38.9937 22.0318 39.256 22.0318H41.9768C42.2391 22.0318 42.4509 21.8169 42.4509 21.5546V18.8084C42.4509 18.5462 42.2391 18.3313 41.9768 18.3313H39.256Z" fill="#1F212B"/>
<path d="M28.7704 29.0559H26.0496C25.585 29.0559 25.209 28.6767 25.209 28.209V25.4661C25.209 25.0015 25.585 24.6191 26.0496 24.6191H28.7704C29.2318 24.6191 29.611 25.0015 29.611 25.4661V28.209C29.611 28.6767 29.2318 29.0559 28.7704 29.0559Z" fill="#F69272"/>
<path d="M28.7718 29.4243H26.0509C25.3841 29.4243 24.8438 28.8808 24.8438 28.2077V25.4647C24.8438 24.7947 25.3841 24.248 26.0509 24.248H28.7718C29.4354 24.248 29.9789 24.7916 29.9789 25.4647V28.2077C29.9789 28.8776 29.4354 29.4243 28.7718 29.4243ZM26.0509 24.9875C25.7886 24.9875 25.5769 25.2024 25.5769 25.4647V28.2077C25.5769 28.47 25.7886 28.688 26.0509 28.688H28.7718C29.0309 28.688 29.2458 28.4731 29.2458 28.2077V25.4647C29.2458 25.2024 29.0309 24.9875 28.7718 24.9875H26.0509Z" fill="#1F212B"/>
<path d="M35.373 29.0559H32.6521C32.1907 29.0559 31.8115 28.6767 31.8115 28.209V25.4661C31.8115 25.0015 32.1907 24.6191 32.6521 24.6191H35.373C35.8375 24.6191 36.2136 25.0015 36.2136 25.4661V28.209C36.2136 28.6767 35.8375 29.0559 35.373 29.0559Z" fill="#F37E98"/>
<path d="M35.3724 29.4243H32.6515C31.9879 29.4243 31.4443 28.8808 31.4443 28.2077V25.4647C31.4443 24.7947 31.9879 24.248 32.6515 24.248H35.3724C36.0391 24.248 36.5795 24.7916 36.5795 25.4647V28.2077C36.5795 28.8776 36.0391 29.4243 35.3724 29.4243ZM32.6515 24.9875C32.3924 24.9875 32.1775 25.2024 32.1775 25.4647V28.2077C32.1775 28.47 32.3924 28.688 32.6515 28.688H35.3724C35.6346 28.688 35.8464 28.4731 35.8464 28.2077V25.4647C35.8464 25.2024 35.6346 24.9875 35.3724 24.9875H32.6515Z" fill="#1F212B"/>
<path d="M41.9765 29.0559H39.2556C38.7943 29.0559 38.415 28.6767 38.415 28.209V25.4661C38.415 25.0015 38.7943 24.6191 39.2556 24.6191H41.9765C42.4379 24.6191 42.8171 25.0015 42.8171 25.4661V28.209C42.8171 28.6767 42.4379 29.0559 41.9765 29.0559Z" fill="#00A7A7"/>
<path d="M41.9774 29.4253H39.2565C38.5897 29.4253 38.0493 28.8818 38.0493 28.2087V25.4657C38.0493 24.7957 38.5897 24.249 39.2565 24.249H41.9774C42.6441 24.249 43.1845 24.7926 43.1845 25.4657V28.2087C43.1845 28.8786 42.641 29.4253 41.9774 29.4253ZM39.2565 24.9885C38.9942 24.9885 38.7825 25.2034 38.7825 25.4657V28.2087C38.7825 28.4709 38.9942 28.689 39.2565 28.689H41.9774C42.2396 28.689 42.4514 28.4741 42.4514 28.2087V25.4657C42.4514 25.2034 42.2396 24.9885 41.9774 24.9885H39.2565ZM45.0174 17.5907C44.8151 17.5907 44.6508 17.4264 44.6508 17.2209V15.0025C44.6508 14.7971 44.8151 14.6328 45.0174 14.6328C45.2228 14.6328 45.3871 14.7971 45.3871 15.0025V17.2209C45.3871 17.4264 45.2228 17.5907 45.0174 17.5907ZM45.0174 19.0696C44.9668 19.0696 44.9226 19.0633 44.8783 19.0412C44.8341 19.0254 44.7899 18.9969 44.7614 18.959C44.6887 18.8926 44.6508 18.7978 44.6508 18.6999C44.6508 18.6051 44.6887 18.5071 44.7614 18.4407C44.7899 18.4028 44.8341 18.3744 44.8783 18.3617C45.0111 18.3017 45.1817 18.3396 45.2765 18.4407C45.3492 18.5071 45.3871 18.6051 45.3871 18.6999C45.3871 18.7978 45.3492 18.8926 45.2765 18.959C45.2101 19.0348 45.1153 19.0696 45.0174 19.0696ZM23.0072 44.2209C22.805 44.2209 22.6406 44.0566 22.6406 43.8512V42.3723C22.6406 42.1669 22.805 42.0025 23.0072 42.0025C23.2094 42.0025 23.3738 42.1669 23.3738 42.3723V43.8512C23.3738 44.0566 23.2094 44.2209 23.0072 44.2209Z" fill="#1F212B"/>
</svg>
