<svg width="71" height="71" viewBox="0 0 71 71" fill="none" xmlns="http://www.w3.org/2000/svg">
<mask id="mask0_1399_1238" style="mask-type:luminance" maskUnits="userSpaceOnUse" x="8" y="51" width="11" height="9">
<path d="M8 51.8027H18.8484V59.9721H8V51.8027Z" fill="white"/>
</mask>
<g mask="url(#mask0_1399_1238)">
<path d="M14.6474 52.875C14.2458 52.875 13.8574 52.9456 13.4778 53.0824C13.1027 53.2193 12.7584 53.4134 12.4495 53.6694C12.1405 53.9254 11.8846 54.2255 11.6815 54.5698C11.4785 54.914 11.3417 55.2848 11.2711 55.6776C10.9754 55.5275 10.662 55.4569 10.331 55.4525C10 55.4481 9.68664 55.5187 9.38652 55.6599C9.09082 55.8011 8.83925 55.9998 8.63181 56.2601C8.42438 56.5161 8.28756 56.803 8.21695 57.1252C8.14633 57.4474 8.14633 57.7651 8.22577 58.0873C8.3008 58.4051 8.44645 58.692 8.65388 58.9436C8.86573 59.1995 9.12171 59.3937 9.42183 59.5305C9.72195 59.6674 10.0353 59.7292 10.3663 59.7203H14.6342C15.0799 59.7027 15.5036 59.6056 15.9097 59.4202C16.3157 59.2393 16.6732 58.9921 16.9821 58.6699C17.2867 58.3521 17.525 57.9902 17.6927 57.5798C17.856 57.1693 17.9399 56.7412 17.9399 56.2999C17.9399 55.8585 17.856 55.4348 17.6927 55.0244C17.525 54.6139 17.2867 54.2476 16.9821 53.9298C16.6732 53.6121 16.3157 53.3605 15.9097 53.1795C15.5036 52.9986 15.0799 52.8971 14.6342 52.8794L14.6474 52.875Z" fill="#2AC58F"/>
</g>
<path d="M13.3311 16.502H21.0238V28.8597H13.3311V16.502Z" fill="#FFAB8A"/>
<path d="M13.3311 16.502V18.2718H16.8398C17.0958 18.2718 17.3297 18.3424 17.5415 18.4836C17.7578 18.6248 17.9123 18.8146 18.0094 19.0485C18.1065 19.2825 18.1329 19.5252 18.08 19.7768C18.0314 20.0283 17.9167 20.2402 17.7357 20.4211L13.3311 24.7993V28.8597H15.7673L21.0149 23.643V16.502H13.3311Z" fill="#FF8867"/>
<mask id="mask1_1399_1238" style="mask-type:luminance" maskUnits="userSpaceOnUse" x="13" y="15" width="40" height="45">
<path d="M13.1982 15.6484H52.7431V59.9731H13.1982V15.6484Z" fill="white"/>
</mask>
<g mask="url(#mask1_1399_1238)">
<path d="M51.9094 34.8919V59.7222H13.3311V35.3333L32.8387 15.9492L51.9094 34.8919Z" fill="#FFB080"/>
</g>
<path d="M49.7739 37.7513V56.5219C49.7739 56.8176 49.668 57.0691 49.4605 57.281C49.2531 57.4884 48.9971 57.5943 48.7014 57.5988H16.5668C16.2711 57.5988 16.0151 57.4928 15.8032 57.2854C15.5914 57.0735 15.4855 56.822 15.4855 56.5219V38.1706C15.4766 36.8553 15.9401 35.7343 16.8801 34.8075L31.7183 20.0753C31.8639 19.9252 32.0361 19.8104 32.2347 19.7266C32.4289 19.6471 32.6319 19.6074 32.8437 19.6074C33.0556 19.6074 33.2586 19.6471 33.4528 19.7266C33.6514 19.8104 33.8235 19.9252 33.9736 20.0753L48.3792 34.3882C49.3149 35.315 49.7783 36.4361 49.7739 37.7513Z" fill="#FFD894"/>
<path d="M15.4678 36.2157L32.8393 18.959L15.4678 36.2246V36.2157Z" fill="#FFB080"/>
<path d="M49.7734 35.77V35.7832L32.8389 18.959L49.7734 35.77Z" fill="#FFB080"/>
<path d="M41.6709 32.5128H24.0125C23.6286 32.5128 23.3638 32.3362 23.2181 31.9832C23.0725 31.6301 23.1343 31.3211 23.4079 31.0563L32.2349 22.2823C32.4026 22.1146 32.6056 22.0352 32.8395 22.0352C33.0778 22.0352 33.2809 22.1146 33.4486 22.2823L42.28 31.0563C42.5536 31.3211 42.6154 31.6345 42.4698 31.9876C42.3241 32.3407 42.0549 32.5128 41.6709 32.5128Z" fill="#FFF1AD"/>
<path d="M34.4895 26.3207L33.1699 25.0099C33.0816 24.9216 32.9713 24.873 32.8433 24.873C32.7153 24.873 32.605 24.9216 32.5167 25.0099L31.2236 26.3207C31.0912 26.4619 31.0558 26.6252 31.1265 26.8062C31.1971 26.9871 31.3295 27.0886 31.5237 27.1063H34.1585C34.3616 27.1019 34.5028 27.0048 34.5822 26.8194C34.6617 26.634 34.6308 26.4663 34.4895 26.3207Z" fill="white"/>
<mask id="mask2_1399_1238" style="mask-type:luminance" maskUnits="userSpaceOnUse" x="8" y="10" width="51" height="29">
<path d="M8 10H58.3932V38.2463H8V10Z" fill="white"/>
</mask>
<g mask="url(#mask2_1399_1238)">
<path d="M56.9854 35.7182L55.9924 36.7024C55.8423 36.8524 55.6702 36.9628 55.476 37.0466C55.2774 37.1261 55.0744 37.1658 54.8625 37.1658C54.6551 37.1658 54.4476 37.1261 54.2535 37.0466C54.0593 36.9628 53.8871 36.8524 53.7371 36.7024L32.8789 15.9457L12.0208 36.7024C11.8707 36.8524 11.6986 36.9628 11.5 37.0466C11.3058 37.1261 11.1028 37.1658 10.8909 37.1658C10.6791 37.1658 10.476 37.1261 10.2818 37.0466C10.0876 36.9628 9.91552 36.8524 9.76546 36.7024L8.67533 35.7182C8.52969 35.5681 8.41494 35.396 8.33549 35.2018C8.25605 35.0076 8.21191 34.8046 8.21191 34.5971C8.21191 34.3853 8.25605 34.1867 8.33549 33.9925C8.41494 33.7983 8.52969 33.6262 8.67533 33.4761L31.6255 10.6804C31.7844 10.5127 31.9697 10.3892 32.1816 10.3009C32.3934 10.2082 32.6141 10.1641 32.8436 10.1641C33.0731 10.1641 33.2938 10.2082 33.5056 10.3009C33.7175 10.3892 33.9028 10.5127 34.0617 10.6804L36.1008 12.7062L56.9633 33.4364C57.1178 33.5865 57.237 33.7586 57.3252 33.9528C57.4091 34.1514 57.4532 34.3588 57.4576 34.5707C57.4576 34.7869 57.4179 34.9944 57.3385 35.193C57.2546 35.3916 57.1355 35.5637 56.9854 35.7182Z" fill="#E66F49"/>
</g>
<mask id="mask3_1399_1238" style="mask-type:luminance" maskUnits="userSpaceOnUse" x="8" y="10" width="51" height="26">
<path d="M8 10H58.3932V35.9866H8V10Z" fill="white"/>
</mask>
<g mask="url(#mask3_1399_1238)">
<path d="M57.4226 34.2706C57.4756 34.5707 57.3609 34.7869 57.0872 34.9237C56.818 35.0606 56.5753 35.0164 56.3634 34.8002C52.2986 30.7398 33.3735 11.9383 33.25 11.8279C33.1308 11.7132 32.9851 11.6558 32.8174 11.6558C32.6541 11.6558 32.5085 11.7132 32.3893 11.8279C32.279 11.9339 13.3451 30.7486 9.30235 34.8002C9.0905 35.012 8.85217 35.0517 8.57854 34.9193C8.30932 34.7869 8.19456 34.5751 8.2387 34.275C8.29607 33.9616 8.44172 33.688 8.67563 33.4629L31.6258 10.6804C31.7847 10.5127 31.97 10.3892 32.1819 10.3009C32.3937 10.2082 32.6144 10.1641 32.8439 10.1641C33.0734 10.1641 33.2941 10.2082 33.5059 10.3009C33.7178 10.3892 33.9031 10.5127 34.062 10.6804L36.1011 12.7062L56.9901 33.4629C57.2196 33.688 57.3653 33.9572 57.4226 34.2706Z" fill="#FF974E"/>
</g>
<mask id="mask4_1399_1238" style="mask-type:luminance" maskUnits="userSpaceOnUse" x="33" y="40" width="16" height="20">
<path d="M33.5361 40.5059H48.2242V59.9738H33.5361V40.5059Z" fill="white"/>
</mask>
<g mask="url(#mask4_1399_1238)">
<path d="M34.4404 41.0547H47.8354V59.7282H34.4404V41.0547Z" fill="#F02F62"/>
</g>
<path d="M36.0479 57.5591V44.2613C36.0479 44.1024 36.1008 43.9655 36.2156 43.8552C36.3259 43.7449 36.4627 43.6875 36.6216 43.6875H45.6516C45.8105 43.6875 45.9473 43.7449 46.0576 43.8552C46.1724 43.9655 46.2254 44.1024 46.2254 44.2613V57.5591C46.2254 57.718 46.1724 57.8504 46.0576 57.9651C45.9473 58.0755 45.8105 58.1329 45.6516 58.1329H36.6216C36.4627 58.1329 36.3259 58.0755 36.2156 57.9651C36.1008 57.8504 36.0479 57.718 36.0479 57.5591Z" fill="#FF4D6C"/>
<path d="M37.9589 45.2852H44.3099C44.3981 45.2852 44.4688 45.316 44.5306 45.3734C44.5923 45.4352 44.6188 45.5058 44.6188 45.5941V47.1344C44.6188 47.2183 44.5923 47.2933 44.5306 47.3507C44.4688 47.4125 44.3981 47.4434 44.3099 47.4434H37.9589C37.8706 47.4434 37.8 47.4125 37.7382 47.3507C37.6764 47.2933 37.6455 47.2183 37.6455 47.1344V45.5941C37.6455 45.5058 37.6764 45.4352 37.7382 45.3734C37.8 45.316 37.8706 45.2852 37.9589 45.2852Z" fill="white"/>
<path d="M34.4414 41.0527H47.8364V42.4827H34.4414V41.0527Z" fill="#B92053"/>
<path d="M30.8046 41.0488V50.0744C30.8046 50.2819 30.7296 50.4584 30.5839 50.604C30.4383 50.7497 30.2617 50.8203 30.0543 50.8203H18.1599C17.9525 50.8203 17.776 50.7453 17.6303 50.5996C17.4847 50.454 17.4141 50.2819 17.4141 50.0744V41.0488H30.8046Z" fill="#CEF0FC"/>
<path d="M19.0469 41.8828H29.1626C29.3215 41.8828 29.4539 41.9402 29.5642 42.0505C29.6746 42.1609 29.7319 42.2933 29.7319 42.4522V49.4211C29.7319 49.5755 29.6746 49.7079 29.5642 49.8183C29.4539 49.9286 29.3215 49.986 29.1626 49.986H19.0469C18.8924 49.986 18.7556 49.9286 18.6453 49.8183C18.5349 49.7079 18.4775 49.5755 18.4775 49.4211V42.4522C18.4775 42.2933 18.5349 42.1609 18.6453 42.0505C18.7556 41.9402 18.8924 41.8828 19.0469 41.8828Z" fill="#FFFFFC"/>
<path d="M35.6502 38.2031H46.6221C46.7854 38.2031 46.9399 38.234 47.09 38.3002C47.24 38.362 47.3724 38.4503 47.4872 38.565C47.6019 38.6798 47.6858 38.8122 47.7476 38.9622C47.8094 39.1123 47.8358 39.2712 47.8358 39.4301V41.0542H34.4409V39.4301C34.4365 39.2712 34.463 39.1123 34.5248 38.9622C34.5865 38.8122 34.6704 38.6798 34.7852 38.565C34.8999 38.4503 35.0323 38.362 35.1824 38.3002C35.3324 38.234 35.4869 38.2031 35.6502 38.2031Z" fill="#E16A3F"/>
<path d="M36.604 39.1152H45.6737C45.8326 39.1152 45.965 39.1726 46.0753 39.2785C46.1856 39.3889 46.2386 39.5213 46.2386 39.6757V41.0528H36.0479V39.6669C36.0479 39.5124 36.1052 39.3845 36.2112 39.2785C36.3215 39.1726 36.4539 39.1196 36.604 39.1152Z" fill="#F5923F"/>
<path d="M18.6189 38.2031H29.5908C29.7541 38.2031 29.9086 38.234 30.0587 38.3002C30.2087 38.362 30.3411 38.4503 30.4559 38.565C30.5706 38.6798 30.6589 38.8122 30.7163 38.9622C30.7781 39.1123 30.8045 39.2712 30.8045 39.4301V41.0542H17.4096V39.4301C17.4052 39.2712 17.4361 39.1123 17.4935 38.9622C17.5552 38.8122 17.6435 38.6798 17.7538 38.565C17.8686 38.4503 18.001 38.362 18.1511 38.3002C18.3011 38.234 18.4556 38.2031 18.6189 38.2031Z" fill="#E16A3F"/>
<path d="M19.5668 39.1152H28.6366C28.791 39.1152 28.9279 39.1726 29.0382 39.2785C29.1441 39.3889 29.2015 39.5213 29.2015 39.6757V41.0528H19.0107V39.6669C19.0107 39.5124 19.0681 39.3845 19.174 39.2785C19.2844 39.1726 19.4124 39.1196 19.5668 39.1152Z" fill="#F5923F"/>
<path d="M23.5576 41.0488H24.6522V50.8203H23.5576V41.0488Z" fill="#FF6A4E"/>
<path d="M23.5576 41.8828H24.6522V49.986H23.5576V41.8828Z" fill="#FF8D67"/>
<path d="M23.5576 44.959H24.6522V46.9142H23.5576V44.959Z" fill="#FF6A4E"/>
<path d="M17.4141 45.3945H30.8046V46.4847H17.4141V45.3945Z" fill="#FF6A4E"/>
<path d="M18.415 45.3945H29.7886V46.4847H18.415V45.3945Z" fill="#FF8D67"/>
<path d="M23.1205 45.3945H25.0845C25.239 45.3945 25.367 45.4475 25.4729 45.5534C25.5788 45.6593 25.6318 45.7873 25.6318 45.9374C25.6318 46.0874 25.5788 46.2154 25.4729 46.3214C25.367 46.4317 25.239 46.4847 25.0845 46.4847H23.1205C22.966 46.4847 22.8381 46.4317 22.7321 46.3214C22.6262 46.2154 22.5732 46.0874 22.5732 45.9374C22.5732 45.7873 22.6262 45.6593 22.7321 45.5534C22.8381 45.4475 22.966 45.3945 23.1205 45.3945Z" fill="#FFB585"/>
<path d="M39.009 50.3885C39.009 50.6931 38.9031 50.9535 38.6869 51.1697C38.4706 51.386 38.2058 51.4919 37.9013 51.4919C37.5923 51.4919 37.3319 51.386 37.1157 51.1697C36.8994 50.9535 36.7891 50.6931 36.7891 50.3885C36.7891 50.084 36.8994 49.8236 37.1157 49.6073C37.3319 49.3955 37.5923 49.2852 37.9013 49.2852C38.2058 49.2852 38.4706 49.3955 38.6869 49.6073C38.9031 49.8236 39.009 50.084 39.009 50.3885Z" fill="#405075"/>
<path d="M22.5772 13.8437V15.4679C22.5772 15.7504 22.4757 15.9887 22.2771 16.1873C22.0785 16.3903 21.8357 16.4874 21.5533 16.4874H12.7969C12.5144 16.4874 12.2717 16.3903 12.0687 16.1873C11.8701 15.9887 11.7686 15.7504 11.7686 15.4679V13.8437C11.7686 13.5613 11.8701 13.3229 12.0687 13.1243C12.2717 12.9213 12.5144 12.8242 12.7969 12.8242H21.5533C21.8357 12.8242 22.0785 12.9213 22.2771 13.1243C22.4757 13.3229 22.5772 13.5613 22.5772 13.8437Z" fill="#FF5B49"/>
<path d="M20.022 13.8437V15.4679C20.022 15.7504 19.9249 15.9887 19.7219 16.1873C19.5233 16.3903 19.2806 16.4874 18.9981 16.4874H15.3526C15.0657 16.4874 14.8274 16.3903 14.6243 16.1873C14.4257 15.9887 14.3242 15.7504 14.3242 15.4679V13.8437C14.3242 13.5613 14.4257 13.3229 14.6243 13.1243C14.8274 12.9213 15.0657 12.8242 15.3526 12.8242H18.9981C19.2806 12.8242 19.5233 12.9213 19.7219 13.1243C19.9249 13.3229 20.022 13.5613 20.022 13.8437Z" fill="#FF7449"/>
<path d="M26.312 54.0905H21.9029C21.722 54.1347 21.5631 54.1038 21.4174 53.989C21.2718 53.8787 21.2012 53.733 21.2012 53.5477C21.2012 53.3667 21.2718 53.2211 21.4174 53.1063C21.5631 52.996 21.722 52.9607 21.9029 53.0048H26.312C26.5945 53.0754 26.7357 53.2564 26.7357 53.5477C26.7357 53.839 26.5945 54.0199 26.312 54.0905Z" fill="#FFFBC6"/>
<mask id="mask5_1399_1238" style="mask-type:luminance" maskUnits="userSpaceOnUse" x="50" y="49" width="6" height="11">
<path d="M50.4834 49.5449H55.0028V59.974H50.4834V49.5449Z" fill="white"/>
</mask>
<g mask="url(#mask5_1399_1238)">
<path d="M50.5498 49.6719H53.9173V59.7214H50.5498V49.6719Z" fill="#FF8D6D"/>
</g>
<path d="M50.5498 49.6719H53.9173V54.3458H50.5498V49.6719Z" fill="#E66F49"/>
<mask id="mask6_1399_1238" style="mask-type:luminance" maskUnits="userSpaceOnUse" x="41" y="40" width="22" height="13">
<path d="M41.4453 40.5059H62.2329V52.9342H41.4453V40.5059Z" fill="white"/>
</mask>
<g mask="url(#mask6_1399_1238)">
<path d="M43.3127 41.0547H61.1609C61.4566 41.0547 61.7081 41.1606 61.92 41.368C62.1274 41.5755 62.2333 41.827 62.2333 42.1228V51.6471C62.2333 51.9384 62.1274 52.1899 61.92 52.3974C61.7081 52.6048 61.4566 52.7107 61.1609 52.7107H43.3127C43.017 52.7107 42.7654 52.6048 42.5536 52.3974C42.3462 52.1899 42.2402 51.9384 42.2402 51.6471V42.1228C42.2402 41.827 42.3462 41.5755 42.5536 41.368C42.7654 41.1606 43.017 41.0547 43.3127 41.0547Z" fill="#27AAFC"/>
</g>
<path d="M59.9776 43.5774V50.1888C59.9776 50.2638 59.9512 50.33 59.8938 50.383C59.8408 50.4404 59.7746 50.4668 59.6952 50.4668H44.7776C44.7026 50.4668 44.6363 50.4404 44.579 50.383C44.526 50.33 44.4951 50.2638 44.4951 50.1888V43.5774C44.4951 43.4979 44.526 43.4317 44.579 43.3788C44.6363 43.3214 44.7026 43.2949 44.7776 43.2949H59.6952C59.7746 43.2949 59.8408 43.3214 59.8938 43.3788C59.9512 43.4317 59.9776 43.4979 59.9776 43.5774Z" fill="#27B9FC"/>
<path d="M46.4459 47.0381H45.1616C45.0071 47.0381 44.8747 46.9851 44.7644 46.8748C44.6541 46.7644 44.5967 46.632 44.5967 46.4776V44.5312C44.5967 44.3723 44.6541 44.2443 44.7644 44.134C44.8747 44.0237 45.0071 43.9707 45.1616 43.9707H46.4459C46.6534 43.9707 46.852 44.006 47.0418 44.0855C47.2315 44.1649 47.3992 44.2752 47.5449 44.4209C47.6905 44.5665 47.8009 44.7298 47.8803 44.9196C47.9598 45.1094 47.9995 45.3036 47.9995 45.511C47.9995 45.714 47.9598 45.9082 47.8803 46.098C47.8009 46.2878 47.6905 46.4555 47.5449 46.5967C47.3992 46.7424 47.2315 46.8527 47.0418 46.9322C46.852 47.0116 46.6534 47.0513 46.4459 47.0513V47.0381ZM45.7265 45.9171H46.4459C46.5607 45.9171 46.6534 45.8773 46.7328 45.8023C46.8123 45.7229 46.852 45.6258 46.852 45.5154C46.852 45.4051 46.8123 45.308 46.7328 45.2285C46.6534 45.1491 46.5607 45.1138 46.4459 45.1138H45.7309L45.7265 45.9171Z" fill="white"/>
<path d="M45.1616 49.8009C45.0071 49.8009 44.8747 49.7479 44.7644 49.6376C44.6541 49.5273 44.5967 49.3949 44.5967 49.2404V46.4687C44.5967 46.3142 44.6541 46.1818 44.7644 46.0715C44.8747 45.9612 45.0071 45.9082 45.1616 45.9082C45.3161 45.9082 45.4485 45.9612 45.5588 46.0715C45.6692 46.1818 45.7265 46.3142 45.7265 46.4687V49.2316C45.7309 49.386 45.6736 49.5229 45.5632 49.6332C45.4529 49.7435 45.3205 49.8009 45.1616 49.8009Z" fill="white"/>
<path d="M47.9808 49.8008C47.7513 49.8008 47.5836 49.7037 47.4777 49.5051L45.9506 46.7423C45.8712 46.6054 45.8535 46.4598 45.8977 46.3053C45.9418 46.1553 46.0301 46.0405 46.1713 45.9611C46.3081 45.886 46.4538 45.8684 46.6082 45.9125C46.7583 45.9522 46.8775 46.0449 46.9525 46.1817L48.4796 48.9534C48.5634 49.0946 48.5811 49.2403 48.5369 49.3904C48.4928 49.5448 48.4001 49.6596 48.2545 49.7346C48.1706 49.7787 48.0779 49.8008 47.9808 49.8008Z" fill="white"/>
<path d="M51.2965 49.8009H49.5576C49.4031 49.8009 49.2707 49.748 49.1604 49.6376C49.05 49.5273 48.9971 49.3949 48.9971 49.2404V44.5312C48.9971 44.3723 49.05 44.2443 49.1604 44.134C49.2707 44.0237 49.4031 43.9707 49.5576 43.9707H51.2965C51.451 43.9707 51.5834 44.0237 51.6937 44.134C51.8041 44.2443 51.8614 44.3723 51.8614 44.5312C51.8614 44.6857 51.8041 44.8137 51.6937 44.924C51.5834 45.0344 51.451 45.0873 51.2965 45.0873H50.1358V48.6578H51.2965C51.451 48.6578 51.5834 48.7108 51.6937 48.8211C51.8041 48.9315 51.8614 49.0639 51.8614 49.2183C51.8614 49.3728 51.8041 49.5052 51.6937 49.6156C51.5834 49.7259 51.451 49.7789 51.2965 49.7789V49.8009Z" fill="white"/>
<path d="M50.5727 47.4472H49.5576C49.4031 47.4472 49.2707 47.3898 49.1604 47.2839C49.05 47.1736 48.9971 47.0412 48.9971 46.8867C48.9971 46.7322 49.05 46.5998 49.1604 46.4895C49.2707 46.3791 49.4031 46.3262 49.5576 46.3262H50.5727C50.7316 46.3262 50.864 46.3791 50.9743 46.4895C51.0847 46.5998 51.1376 46.7322 51.1376 46.8867C51.1376 47.0412 51.0847 47.1736 50.9743 47.2839C50.864 47.3898 50.7316 47.4472 50.5727 47.4472Z" fill="white"/>
<path d="M55.4673 49.8009C55.229 49.8053 55.0569 49.6994 54.9554 49.4875L53.7019 46.9674V49.205C53.7019 49.3639 53.649 49.4919 53.5386 49.6023C53.4283 49.7126 53.2959 49.7656 53.1414 49.7656C52.9825 49.7656 52.8501 49.7126 52.7398 49.6023C52.6295 49.4919 52.5765 49.3639 52.5765 49.205V44.5312C52.5721 44.3943 52.6118 44.2752 52.6957 44.1693C52.7751 44.0633 52.8854 43.9971 53.0134 43.9706C53.1458 43.9353 53.2738 43.9486 53.393 44.006C53.5166 44.0633 53.6048 44.1516 53.6622 44.2708L54.9024 46.7909V44.5532C54.9024 44.3988 54.9598 44.2664 55.0701 44.156C55.1805 44.0457 55.3129 43.9927 55.4673 43.9927C55.6218 43.9927 55.7542 44.0457 55.8646 44.156C55.9749 44.2664 56.0323 44.3988 56.0323 44.5532V49.2536C56.0323 49.386 55.9925 49.5052 55.9087 49.6111C55.8248 49.717 55.7189 49.7832 55.5865 49.8141C55.5468 49.8141 55.5071 49.8097 55.4673 49.8009Z" fill="white"/>
<path d="M59.3109 45.0956H56.8481C56.6937 45.0956 56.5613 45.0383 56.4509 44.9323C56.3406 44.822 56.2832 44.6896 56.2832 44.5351C56.2832 44.3807 56.3406 44.2482 56.4509 44.1379C56.5613 44.0276 56.6937 43.9746 56.8481 43.9746H59.3109C59.4653 43.9746 59.6021 44.0276 59.7125 44.1379C59.8184 44.2482 59.8758 44.3807 59.8758 44.5351C59.8758 44.6896 59.8184 44.822 59.7125 44.9323C59.6021 45.0383 59.4653 45.0956 59.3109 45.0956Z" fill="white"/>
<path d="M58.0752 49.8009C57.9207 49.8009 57.7883 49.748 57.6779 49.6376C57.5676 49.5273 57.5146 49.3949 57.5146 49.2404V44.5312C57.5146 44.3723 57.5676 44.2443 57.6779 44.134C57.7883 44.0237 57.9207 43.9707 58.0752 43.9707C58.234 43.9707 58.3665 44.0237 58.4768 44.134C58.5871 44.2443 58.6401 44.3723 58.6401 44.5312V49.2316C58.6445 49.3861 58.5915 49.5229 58.4812 49.6332C58.3709 49.7435 58.234 49.8009 58.0752 49.8009Z" fill="white"/>
</svg>
