<svg width="71" height="71" viewBox="0 0 71 71" fill="none" xmlns="http://www.w3.org/2000/svg">
<mask id="mask0_1399_688" style="mask-type:luminance" maskUnits="userSpaceOnUse" x="55" y="29" width="13" height="12">
<path d="M55.3076 29.5176H67.1501V40.9046H55.3076V29.5176Z" fill="white"/>
</mask>
<g mask="url(#mask0_1399_688)">
<path d="M56.4288 40.5733C56.7502 39.9794 57.1035 39.4026 57.4951 38.8535C57.6058 38.696 57.7208 38.5428 57.8378 38.3895C57.8101 38.4278 57.7804 38.464 57.7527 38.5002C58.206 37.917 58.7062 37.3679 59.2639 36.8783C59.4192 36.74 59.5789 36.608 59.7449 36.4803C59.7066 36.5101 59.6704 36.5378 59.6342 36.5655C60.0748 36.2271 60.5452 35.9269 61.0432 35.6779C61.1858 35.6077 61.3305 35.5417 61.4774 35.48C61.4348 35.4991 61.3901 35.5162 61.3476 35.5353C61.8477 35.3246 62.3735 35.1671 62.9141 35.0926C62.8651 35.099 62.8162 35.1054 62.7672 35.1118C63.1652 35.0586 63.5675 35.0522 63.9676 35.1033C63.9187 35.0969 63.8697 35.0905 63.8208 35.0841C64.1251 35.1267 64.4252 35.2033 64.7104 35.3203C64.6657 35.3033 64.6232 35.2842 64.5785 35.265C64.8169 35.365 65.0382 35.497 65.2425 35.6524C65.2042 35.6247 65.1681 35.5949 65.1319 35.5672C65.3341 35.7247 65.5171 35.9057 65.6746 36.1079C65.6469 36.0717 65.6171 36.0334 65.5895 35.9972C65.7321 36.1824 65.8513 36.3824 65.9428 36.5953C65.9236 36.5527 65.9066 36.508 65.8875 36.4654C65.9683 36.657 66.0258 36.8592 66.0535 37.0656C66.0471 37.0167 66.0407 36.9699 66.0343 36.9209C66.0599 37.104 66.0599 37.2891 66.0364 37.4743C66.0428 37.4253 66.0492 37.3764 66.0556 37.3296C66.0322 37.4935 65.9896 37.6552 65.9258 37.8085C65.9449 37.7638 65.9641 37.7212 65.9811 37.6786C65.9258 37.8106 65.8555 37.9362 65.7683 38.0511C65.7959 38.0128 65.8257 37.9766 65.8534 37.9404C65.7789 38.0362 65.6938 38.1213 65.598 38.1958C65.6342 38.1682 65.6725 38.1405 65.7087 38.1107C65.6214 38.1767 65.5278 38.232 65.4256 38.2746C65.4703 38.2576 65.5129 38.2384 65.5575 38.2192C65.449 38.2661 65.3341 38.2937 65.2191 38.3108C65.266 38.3044 65.3149 38.298 65.3639 38.2916C65.2191 38.3108 65.0723 38.3108 64.9254 38.2916C64.9744 38.298 65.0233 38.3044 65.0701 38.3108C64.9126 38.2873 64.7573 38.2469 64.6104 38.1852C64.653 38.2022 64.6977 38.2214 64.7402 38.2405C64.5785 38.1703 64.4274 38.0788 64.2869 37.9702C64.3252 38 64.3614 38.0277 64.3976 38.0554C64.2124 37.9127 64.0528 37.7425 63.908 37.5573C63.9378 37.5935 63.9655 37.6318 63.9953 37.668C63.7633 37.3679 63.5781 37.0316 63.4313 36.6825C63.4483 36.7272 63.4675 36.7698 63.4866 36.8145C63.2993 36.3739 63.178 35.912 63.1141 35.4395C63.1205 35.4885 63.1269 35.5353 63.1333 35.5843C63.0652 35.0692 63.0673 34.5435 63.1376 34.0284C63.1312 34.0752 63.1248 34.1242 63.1163 34.1731C63.1886 33.641 63.3312 33.1196 63.5398 32.6258C63.5207 32.6684 63.5036 32.7109 63.4845 32.7556C63.6782 32.298 63.9272 31.8659 64.2316 31.4722C64.2018 31.5084 64.1741 31.5467 64.1443 31.5829C64.4167 31.2338 64.7317 30.9167 65.0808 30.6442C65.0446 30.674 65.0084 30.7017 64.9701 30.7294C65.0169 30.6953 65.0638 30.6591 65.1106 30.6251C65.2298 30.5399 65.3213 30.4442 65.3617 30.2994C65.3979 30.1696 65.383 29.9951 65.3064 29.878C65.2319 29.7631 65.1191 29.6588 64.9808 29.6269C64.8445 29.5971 64.6764 29.5992 64.5572 29.6822C64.1869 29.9504 63.8421 30.2505 63.5441 30.5974C63.2504 30.9401 62.9886 31.3104 62.7757 31.7084C62.3415 32.5172 62.0882 33.4027 62.0095 34.3157C61.9754 34.7287 61.9818 35.1458 62.035 35.5566C62.0925 36.0078 62.1819 36.4484 62.3394 36.8762C62.5075 37.3317 62.7225 37.7808 63.012 38.1703C63.1822 38.398 63.3632 38.6173 63.5845 38.796C63.7122 38.9003 63.8442 39.0025 63.9889 39.0855C64.1294 39.1643 64.2805 39.2281 64.4316 39.2813C64.9957 39.475 65.6853 39.4409 66.1897 39.1047C66.4494 38.9323 66.6622 38.7109 66.8197 38.4427C66.9006 38.3086 66.9623 38.1618 67.0155 38.017C67.0538 37.9085 67.0836 37.7957 67.1028 37.6829C67.1283 37.5318 67.1475 37.3785 67.1496 37.2253C67.1496 37.0678 67.1304 36.9145 67.1092 36.7613C67.0708 36.5037 66.9857 36.2675 66.8814 36.0291C66.7942 35.8269 66.6792 35.6354 66.5451 35.4587C66.3812 35.2459 66.2088 35.0458 66.0045 34.8734C65.8023 34.7031 65.5852 34.5477 65.3511 34.4264C65.0978 34.2945 64.8275 34.188 64.5508 34.1178C63.991 33.9709 63.3972 33.9411 62.8247 34.0135C62.2521 34.0859 61.6987 34.2221 61.1624 34.4371C60.6856 34.6286 60.2259 34.8542 59.7917 35.1267C58.9637 35.6439 58.2188 36.2952 57.5696 37.0188C56.9077 37.7574 56.3288 38.5704 55.8222 39.4218C55.7052 39.6197 55.5924 39.8198 55.4838 40.022C55.4136 40.1476 55.3902 40.3008 55.4285 40.4413C55.4625 40.569 55.5604 40.7052 55.6796 40.7691C55.8073 40.8351 55.9606 40.8691 56.101 40.8223C56.2351 40.7797 56.3607 40.6988 56.4288 40.5733Z" fill="#F79C9C"/>
</g>
<mask id="mask1_1399_688" style="mask-type:luminance" maskUnits="userSpaceOnUse" x="19" y="54" width="10" height="10">
<path d="M19.5654 54.0547H28.9432V63.7964H19.5654V54.0547Z" fill="white"/>
</mask>
<g mask="url(#mask1_1399_688)">
<path d="M25.616 63.7496C25.0818 63.8007 24.5391 63.8007 23.9985 63.7901C22.5171 63.7666 20.7973 63.5793 20.0332 62.5471C19.6076 61.9724 19.5905 61.2658 19.5884 60.5974C19.582 59.5865 19.5756 58.5755 19.5714 57.5645C19.5565 54.8784 21.5082 54.1271 24.5774 54.176C25.6671 54.1952 26.8484 54.2378 27.6934 54.7975C28.8363 55.5574 28.9087 56.9302 28.8853 58.1306C28.8683 58.9926 28.8512 59.8568 28.8342 60.7209C28.8236 61.2807 28.8065 61.8638 28.5022 62.3661C28.1276 62.9876 27.355 63.4027 26.5376 63.6028C26.2354 63.6751 25.9289 63.7219 25.616 63.7496Z" fill="#F49090"/>
</g>
<mask id="mask2_1399_688" style="mask-type:luminance" maskUnits="userSpaceOnUse" x="39" y="54" width="10" height="10">
<path d="M39.0918 54.0547H48.5121V63.7964H39.0918V54.0547Z" fill="white"/>
</mask>
<g mask="url(#mask2_1399_688)">
<path d="M45.1582 63.7496C44.624 63.8007 44.0791 63.8007 43.5406 63.7901C42.0593 63.7666 40.3395 63.5793 39.5733 62.5471C39.1497 61.9724 39.1327 61.2658 39.1284 60.5974C39.1242 59.5865 39.1178 58.5755 39.1114 57.5645C39.0965 54.8784 41.0504 54.1271 44.1196 54.176C45.2093 54.1952 46.3906 54.2378 47.2355 54.7975C48.3785 55.5574 48.4487 56.9302 48.4253 58.1306C48.4083 58.9926 48.3913 59.8568 48.3764 60.7209C48.3657 61.2807 48.3487 61.8638 48.0443 62.3661C47.6697 62.9876 46.8971 63.4027 46.0798 63.6028C45.7776 63.6751 45.469 63.7219 45.1582 63.7496Z" fill="#F49090"/>
</g>
<path d="M18.3121 26.2103C18.3206 26.8808 18.3334 27.5746 18.6144 28.1855C18.9847 28.99 19.7807 29.537 20.6257 29.8095C21.4728 30.0819 22.3731 30.1181 23.2607 30.15C24.078 30.1798 24.9442 30.2011 25.6594 29.8052C26.4682 29.3582 26.9322 28.4558 27.111 27.5512C27.543 25.3888 26.581 23.1263 25.0656 21.5215C23.9652 20.3551 19.4189 16.6368 17.9694 18.2586C17.1862 19.1355 17.978 20.2934 18.1333 21.183C18.4207 22.8177 18.293 24.5523 18.3121 26.2103Z" fill="#F49090"/>
<path d="M14.4041 27.0744C14.5722 27.7257 14.751 28.3961 15.1703 28.9219C15.7216 29.6157 16.6283 29.9563 17.5137 30.0201C18.3991 30.084 19.2824 29.903 20.1529 29.7221C20.9553 29.5582 21.7982 29.3709 22.4005 28.8154C23.0795 28.1897 23.3115 27.2021 23.271 26.2826C23.171 24.0797 21.696 22.111 19.84 20.9127C18.4927 20.0421 13.1866 17.5157 12.1671 19.4355C11.618 20.4742 12.663 21.4086 13.027 22.2365C13.6974 23.7562 13.989 25.4674 14.4041 27.0744Z" fill="#F79C9C"/>
<mask id="mask3_1399_688" style="mask-type:luminance" maskUnits="userSpaceOnUse" x="3" y="22" width="58" height="38">
<path d="M3 22.0566H60.3414V59.1079H3V22.0566Z" fill="white"/>
</mask>
<g mask="url(#mask3_1399_688)">
<path d="M51.6042 55.3519C46.1725 58.5934 39.483 58.6658 33.151 58.6232C29.1325 58.5956 25.0715 58.5551 21.1723 57.5888C17.2752 56.6225 13.4951 54.6282 11.1411 51.3803C11.09 51.3121 11.0411 51.2398 10.9921 51.1695C9.92578 49.6456 9.051 47.8641 7.39298 47.0426C6.38411 46.5403 5.14751 46.4402 4.31317 45.6889C4.29827 45.6761 4.28337 45.6612 4.26635 45.6463C3.40221 44.8269 3.27025 43.5222 3.1915 42.3345C3.08721 40.7446 2.99356 38.9865 3.73212 37.5179C3.90239 37.1838 4.11736 36.9262 4.36638 36.7177C5.29011 35.9387 6.6608 35.8386 7.68244 34.9766C8.91053 33.9422 9.48094 32.3523 10.2748 30.9561C12.5586 26.9312 16.8772 24.3793 21.3638 23.2129C25.8484 22.0444 30.55 22.0976 35.1857 22.1764C40.4322 22.2658 45.8852 22.4275 50.5613 24.8028C50.6784 24.8624 50.7954 24.9242 50.9104 24.9859C51.4467 25.2754 51.9661 25.5925 52.4641 25.9373C56.9572 29.0405 59.9263 34.3083 60.1136 39.7698C60.3243 45.9698 56.9423 52.1656 51.6042 55.3519Z" fill="#F79C9C"/>
</g>
<mask id="mask4_1399_688" style="mask-type:luminance" maskUnits="userSpaceOnUse" x="3" y="38" width="58" height="22">
<path d="M3 38.9473H60.3414V59.1075H3V38.9473Z" fill="white"/>
</mask>
<g mask="url(#mask4_1399_688)">
<path d="M60.0707 39.0371C59.6343 44.5944 56.4119 49.909 51.6039 52.7781C46.1722 56.0197 39.4826 56.092 33.1506 56.0495C29.1321 56.0239 25.0711 55.9814 21.1719 55.0151C17.2748 54.0488 13.4947 52.0566 11.1407 48.8065C11.0896 48.7384 11.0407 48.666 10.9917 48.5958C9.9254 47.0718 9.05063 45.2904 7.3926 44.4688C6.38374 43.9665 5.14713 43.8665 4.3128 43.1151C4.2979 43.1024 4.283 43.0875 4.26597 43.0726C3.40184 42.2531 3.26988 40.9484 3.19113 39.7608C3.18687 39.6841 3.18261 39.6054 3.17623 39.5288C3.07619 40.461 3.13153 41.4252 3.19113 42.334C3.26988 43.5217 3.40184 44.8264 4.26597 45.6458C4.283 45.6607 4.2979 45.6756 4.3128 45.6884C5.14713 46.4397 6.38374 46.5397 7.3926 47.042C9.05063 47.8636 9.9254 49.6451 10.9917 51.169C11.0407 51.2393 11.0896 51.3116 11.1407 51.3797C13.4947 54.6277 17.2748 56.622 21.1719 57.5883C25.0711 58.5546 29.1321 58.595 33.1506 58.6227C39.4826 58.6653 46.1722 58.5929 51.6039 55.3513C56.9419 52.1651 60.3239 45.9693 60.1132 39.7693C60.1047 39.5245 60.0898 39.2797 60.0707 39.0371Z" fill="#F49090"/>
</g>
<path d="M15.1495 34.366C15.1495 35.1578 14.5068 35.7984 13.715 35.7984C12.9211 35.7984 12.2783 35.1578 12.2783 34.366C12.2783 33.5764 12.9211 32.9336 13.715 32.9336C14.5068 32.9336 15.1495 33.5764 15.1495 34.366Z" fill="#4D4D4D"/>
<mask id="mask5_1399_688" style="mask-type:luminance" maskUnits="userSpaceOnUse" x="3" y="36" width="3" height="11">
<path d="M3 36.2227H5.85419V46.0304H3V36.2227Z" fill="white"/>
</mask>
<g mask="url(#mask5_1399_688)">
<path d="M5.17305 43.2957C5.06663 44.0662 4.90913 44.858 4.46216 45.4965C4.41534 45.5625 4.36638 45.6263 4.31317 45.688C4.29827 45.6753 4.28337 45.6604 4.26635 45.6455C3.40221 44.826 3.27025 43.5213 3.1915 42.3337C3.08721 40.7437 2.99356 38.9857 3.73212 37.5171C3.90239 37.1829 4.11736 36.9254 4.36638 36.7168C4.6899 37.3638 4.90913 38.0641 5.00703 38.4365C5.42207 40.0158 5.3944 41.6888 5.17305 43.2957Z" fill="#FFBDBD"/>
</g>
<path d="M52.1068 28.449C52.0408 27.9595 51.7216 27.5231 51.3789 27.1528C50.6999 26.4185 49.8379 25.7906 48.8461 25.648C46.9284 25.3713 45.4662 27.2805 46.656 28.9619C47.0753 29.5558 47.7287 29.9516 48.4162 30.1922C49.3867 30.5306 50.5382 30.5582 51.3704 29.9538C51.8003 29.643 52.1238 29.1471 52.1175 28.615C52.1175 28.5597 52.1132 28.5043 52.1068 28.449Z" fill="#FFBDBD"/>
<path d="M52.7285 31.8025C52.8882 32.2091 53.2521 32.5134 53.6565 32.6773C54.1482 32.8753 54.7931 32.8497 55.1081 32.4262C56.4703 30.6064 51.7537 29.3208 52.7285 31.8025Z" fill="#FFBDBD"/>
<path d="M39.5089 24.2432C39.5026 24.2432 39.4962 24.2432 39.4898 24.2432C35.1734 24.075 34.3582 24.0729 29.7906 24.2197C29.5203 24.2283 29.2968 24.0175 29.2883 23.7494C29.2798 23.4812 29.4905 23.2577 29.7587 23.2492C34.3582 23.1023 35.1798 23.1045 39.526 23.2726C39.7963 23.2832 40.0049 23.511 39.9942 23.777C39.9836 24.0388 39.7686 24.2432 39.5089 24.2432Z" fill="#4D4D4D"/>
<mask id="mask6_1399_688" style="mask-type:luminance" maskUnits="userSpaceOnUse" x="29" y="7" width="11" height="10">
<path d="M29.8291 7H39.6368V16.6076H29.8291V7Z" fill="white"/>
</mask>
<g mask="url(#mask6_1399_688)">
<path d="M39.3492 11.715C39.3492 14.3095 37.24 16.4145 34.6369 16.4145C32.036 16.4145 29.9268 14.3095 29.9268 11.715C29.9268 9.12044 32.036 7.01758 34.6369 7.01758C37.24 7.01758 39.3492 9.12044 39.3492 11.715Z" fill="#DDAD43"/>
</g>
<path d="M34.6368 15.4304C32.5829 15.4304 30.9121 13.7639 30.9121 11.7142C30.9121 9.66459 32.5829 7.99805 34.6368 7.99805C36.6929 7.99805 38.3637 9.66459 38.3637 11.7142C38.3637 13.7639 36.6929 15.4304 34.6368 15.4304Z" fill="#F2C964"/>
</svg>
