<svg width="71" height="71" viewBox="0 0 71 71" fill="none" xmlns="http://www.w3.org/2000/svg">
<mask id="mask0_1399_2644" style="mask-type:luminance" maskUnits="userSpaceOnUse" x="12" y="10" width="47" height="51">
<path d="M12 10H58.4935V60.9427H12V10Z" fill="white"/>
</mask>
<g mask="url(#mask0_1399_2644)">
<path d="M58.4094 50.909C58.3423 50.8565 58.2577 50.8448 58.1818 50.8565C57.8346 50.9528 57.4758 51.0286 57.1198 51.0928C56.8368 51.1483 56.8164 51.1045 57.0644 50.9528C57.3678 50.7807 57.6712 50.6056 57.9747 50.4451C58.0943 50.381 58.2139 50.2934 58.3335 50.1855C58.4619 50.0542 58.4736 49.9375 58.3423 49.8179C58.2781 49.7537 58.1818 49.742 58.106 49.7945L56.7055 50.6377C56.6209 50.6815 56.5976 50.661 56.6093 50.5735C56.7406 49.99 56.6297 49.3948 56.2738 48.8026C55.982 48.3037 55.7311 47.7727 55.5269 47.233C55.4598 47.0608 55.3431 47.0054 55.168 47.0725C54.9959 47.1367 54.9084 47.5364 54.7362 47.6881C53.8347 48.5196 52.904 49.1789 51.9296 49.6457C51.8625 49.6778 51.7983 49.6662 51.7458 49.6107C51.1798 49.0827 50.6838 48.5633 50.2374 48.044C49.0033 46.6057 47.778 45.1586 46.5643 43.6998C46.1529 43.201 45.8728 42.705 45.7299 42.2294C44.9626 39.557 44.9071 36.7999 44.8955 33.9466C44.8867 32.3566 44.4841 30.218 42.8474 29.5995C42.4797 29.4595 42.048 29.3749 41.5491 29.3311C39.6731 29.191 38.0276 28.4646 37.66 26.5186C37.4645 25.4916 37.3974 24.596 38.3631 23.9804C38.4186 23.9454 38.4594 23.8928 38.4711 23.8287C38.579 23.4377 38.687 23.0701 38.7978 22.7025C38.9904 22.0344 39.0896 22.0548 39.1013 22.7463C39.1013 23.146 39.3172 23.709 39.7285 24.4122C39.7927 24.5318 39.7723 24.6718 39.6731 24.7681C39.3376 25.0832 39.0896 25.4712 38.9379 25.9264C38.9058 26.0226 38.9262 26.0985 39.0021 26.151C39.1217 26.2385 39.1655 26.2064 39.1217 26.0664C39.0575 25.8272 39.11 25.6113 39.2938 25.4508C39.5885 25.1999 39.8248 24.9081 40.032 24.5726C40.064 24.5201 40.064 24.4647 40.0436 24.4122L39.4455 23.2014C39.393 23.0934 39.393 22.9622 39.4572 22.8542L39.9123 21.9994C39.9444 21.9352 39.9561 21.8506 39.9444 21.7835C39.8482 21.3838 39.7927 20.9841 39.8161 20.5727C39.8161 20.5085 39.8044 20.456 39.7723 20.4006C39.6964 20.281 39.641 20.1526 39.6206 20.0009C39.5972 19.9046 39.6206 19.8929 39.6731 19.9805C39.9561 20.3889 40.0845 20.8119 40.064 21.2671C40.032 21.9469 40.1078 21.9585 40.2799 21.2992C40.4433 20.7157 40.312 20.0009 40.172 19.4057C40.172 19.3853 40.172 19.3736 40.1837 19.3532C40.1837 19.3415 40.1953 19.3415 40.2041 19.3415C40.2362 19.3415 40.2479 19.3532 40.2595 19.3736C40.9101 20.7157 40.7672 21.9148 39.8365 22.9622V22.9738L39.8802 23.0059C39.9007 23.0176 39.9123 23.0176 39.924 22.9942C40.4637 22.3028 40.8343 21.5588 40.7905 20.6719C40.7672 20.173 40.5513 19.6216 40.4433 19.0935C40.4754 19.0819 40.4988 19.0614 40.5075 19.0381C40.5192 19.0177 40.5308 18.9943 40.5308 18.9739C40.5308 18.7347 40.4754 18.51 40.347 18.2825C40.3237 18.2387 40.312 18.1833 40.3237 18.1424C40.5629 16.7245 40.6913 15.4496 39.5126 14.4226C39.3172 14.2505 39.1217 14.0754 38.9145 13.9149C38.862 13.8595 38.8387 13.807 38.8737 13.7311C39.1217 13.0922 39.0137 12.5204 38.5353 12.0331C38.4828 11.9777 38.4507 11.9048 38.439 11.8289C38.3748 11.3096 38.0393 10.8982 37.4412 10.5831C36.2509 9.97922 35.0372 10.0113 33.7914 10.6911C33.0854 11.0704 32.674 11.7735 32.9336 12.5846C32.9453 12.605 32.9336 12.6167 32.9132 12.6283C32.9016 12.6371 32.8899 12.6283 32.8899 12.6167C32.8257 12.5087 32.7732 12.4008 32.7294 12.3045C32.6857 12.2053 32.6536 12.2053 32.6419 12.3132C32.5894 12.9317 32.7498 13.4715 33.1291 13.9149C33.1729 13.9587 33.1612 13.9996 33.1174 14.0433C32.4698 14.5422 31.4924 15.4379 31.3407 16.1731C31.1685 16.9958 30.9527 17.8069 30.7017 18.6384C30.658 18.7901 30.6376 18.9302 30.6376 19.0935C30.6376 19.146 30.6492 19.146 30.6697 19.1023L31.1569 17.8915C31.1802 17.8507 31.2006 17.839 31.2444 17.8594L31.2998 17.8828C31.3086 17.8828 31.3086 17.8915 31.3086 17.9032C31.0373 18.5188 31.1365 19.0702 31.0489 19.6975C30.9847 20.173 30.941 20.6486 30.9293 21.1037C30.9206 21.5997 31.0927 22.0227 31.4603 22.3903C31.5041 22.4341 31.5274 22.4866 31.5157 22.542C31.4836 22.9942 31.1248 23.5369 30.8855 23.9133C30.7251 24.1642 30.7572 24.5405 30.941 24.7477C31.2123 25.0598 31.5157 25.3749 31.8396 25.6667C31.9475 25.763 31.9825 25.9264 31.9154 26.0547C31.8512 26.2064 31.72 26.294 31.5478 26.326C31.3203 26.3581 31.3203 26.4107 31.5362 26.4661C31.895 26.5624 32.2101 26.151 32.1342 25.8067C31.9913 25.159 31.224 24.9198 31.1569 24.1963C31.1481 24.1292 31.1685 24.065 31.2006 24.0125L31.5916 23.3093C31.6441 23.2131 31.6674 23.2218 31.6674 23.3298C31.6558 23.6128 31.5362 23.8608 31.2998 24.0766C31.2765 24.0971 31.2765 24.1204 31.2882 24.1408L31.3203 24.1846C31.3319 24.1963 31.3407 24.1963 31.3407 24.1846C31.895 23.7732 31.9913 23.1139 31.9154 22.4428C31.895 22.3028 31.9475 22.2824 32.0584 22.367C32.0788 22.3903 32.0992 22.402 32.1226 22.4224C32.1547 22.4428 32.1663 22.4778 32.1868 22.5099C32.6098 23.3619 33.0328 24.1204 33.4763 24.7564C33.6484 25.0073 33.736 25.2553 33.7243 25.4829C33.6601 26.9096 33.2692 28.0211 31.9475 28.6717C31.1365 29.0714 30.162 29.2231 29.2838 29.3194C28.0264 29.4595 27.0957 30.078 26.661 31.2771C26.3897 32.024 26.2379 32.8117 26.2175 33.6344C26.13 36.7795 26.0979 39.3411 25.2839 42.0339C25.0914 42.6933 24.7325 43.201 24.289 43.7086C23.0199 45.1469 21.7304 46.5736 20.4088 48.0119C20.0295 48.435 19.586 48.8551 19.0871 49.2781C18.9033 49.4386 18.7195 49.4386 18.5036 49.3423C17.1149 48.6917 16.0967 47.904 15.4256 46.985C15.306 46.8216 15.1105 46.8012 14.9588 46.9529C14.9063 47.0054 14.8947 47.0725 14.9151 47.1483C14.9384 47.233 14.9472 47.3205 14.9384 47.408C14.9267 47.4722 14.9063 47.5247 14.8713 47.5801C14.2324 48.4671 13.7014 49.494 13.9523 50.5531C13.9727 50.6494 13.9406 50.6727 13.8531 50.6173L12.4118 49.8295C12.3272 49.7858 12.2193 49.8062 12.1522 49.8821C12.0997 49.9579 12.1084 50.0221 12.1843 50.0863C12.6394 50.4889 13.1266 50.8448 13.6372 51.1483C13.6489 51.157 13.6489 51.157 13.6489 51.1687C13.6489 51.1803 13.6372 51.1803 13.6372 51.1803C13.6255 51.1891 13.6168 51.1891 13.6051 51.1891C13.1821 51.017 12.7386 50.909 12.2718 50.8565C12.1639 50.8448 12.0559 50.909 12.0326 51.017L12.0122 51.0403C12.0005 51.0928 12.0326 51.157 12.088 51.1803C12.4673 51.2971 12.8787 51.3962 13.3221 51.4488C13.9961 51.5363 14.6437 51.6326 15.2944 51.7201C15.7174 51.7755 16.1404 51.7522 16.5518 51.6559C16.6072 51.6442 16.6481 51.6997 16.6277 51.7405C16.4001 52.2511 16.1404 52.7266 16.085 53.278C15.9771 54.3371 16.3563 55.1482 17.2024 55.6996C19.4897 57.1904 21.9054 58.0219 24.4495 58.2057C24.8084 58.2291 24.8405 58.3487 24.5487 58.5412C24.2132 58.7688 23.9185 59.0926 23.6589 59.504C23.4867 60.0438 23.5947 60.4668 23.974 60.7702C24.1811 60.9307 24.4845 60.8548 24.6771 60.7031C24.9601 60.4872 25.4269 60.3034 26.0658 60.1838C28.4173 59.7199 30.4858 59.504 32.2743 59.5361C32.4698 59.5361 32.8374 59.4398 33.38 59.2444C33.8439 59.0722 34.3224 58.8884 34.8096 58.7046C35.2647 58.5325 35.6878 58.445 36.0758 58.445C36.6389 58.4566 37.1495 58.5091 37.6046 58.6171C39.4893 59.081 41.2573 59.4486 42.9145 59.7316C43.498 59.8279 43.7489 60.3676 44.3003 60.5747C45.0063 60.8344 45.2747 59.9154 45.2222 59.3406L44.8108 58.585C44.7671 58.5091 44.8196 58.4216 44.9071 58.4216C47.8771 58.3895 50.5729 57.7739 53.1083 56.2072C54.7566 55.1803 55.1563 53.6544 54.0185 52.0118C53.9222 51.8718 53.9543 51.828 54.1177 51.8718C54.5174 51.9681 54.92 51.9681 55.3197 51.8922C55.8828 51.7959 56.4371 51.7084 56.9885 51.6442C57.4553 51.5917 57.9192 51.4283 58.3423 51.265C58.4415 51.2329 58.4852 51.157 58.4736 51.0607C58.494 50.9965 58.4619 50.9528 58.4094 50.909ZM40.3558 18.9185C40.312 18.8543 40.2712 18.8018 40.2041 18.758C40.1282 18.6938 40.1078 18.7026 40.1603 18.8018C40.1195 18.7143 40.1282 18.7026 40.2041 18.758C40.2595 18.8018 40.312 18.8543 40.3558 18.9185ZM16.1288 49.7741L14.8188 49.8704C14.775 49.8704 14.7546 49.8383 14.7634 49.7945L15.2856 47.9156C15.2944 47.8602 15.3702 47.8602 15.3935 47.904L16.1959 49.6866C16.1959 49.7303 16.1725 49.7624 16.1288 49.7741ZM29.6631 47.0287C29.348 47.5801 29.0329 48.1403 28.7091 48.715C28.2744 49.4824 27.9068 50.413 27.615 51.4809C27.5829 51.5917 27.5158 51.6326 27.4079 51.5917C25.2839 50.8127 22.7836 50.1855 20.5926 50.7135C20.117 50.8332 20.0937 50.769 20.5284 50.5414C22.8157 49.2869 24.82 47.9244 26.553 46.4452C27.6471 45.5029 28.1664 44.4555 28.4932 43.093C28.9046 41.4067 29.1642 39.6445 29.2722 37.8181C29.2722 37.8065 29.2838 37.7948 29.2955 37.7948H29.3363C29.348 37.7948 29.348 37.7948 29.348 37.8065C29.3801 39.3411 30.2145 40.5635 30.4975 42.0456C30.8214 43.7961 30.55 45.462 29.6631 47.0287ZM50.2608 51.0286C48.3965 50.6056 46.5555 51.1162 44.6796 51.4079C44.627 51.4167 44.5833 51.3846 44.5599 51.3321C44.3878 50.6289 43.4338 50.6056 42.8911 50.8011C42.7832 50.8448 42.7307 50.8011 42.719 50.6931C42.6752 50.2176 42.5789 49.7303 42.436 49.2548C42.0159 47.8485 41.0706 46.6728 40.6913 45.2549C40.3558 44.0003 40.347 42.7458 40.6826 41.503C40.9422 40.5198 41.517 39.4169 41.6774 38.3024C41.7124 38.0661 41.7445 38.0661 41.7766 38.3024C42.0042 40.3243 42.2084 42.4541 42.8386 44.3359C43.142 45.2432 43.7168 45.958 44.4082 46.5969C46.2521 48.2833 48.201 49.6107 50.3133 50.8769C50.6079 51.0491 50.5846 51.1045 50.2608 51.0286ZM55.5706 50.0338H54.637C54.4211 50.0338 54.2898 49.7858 54.4095 49.6107C54.6254 49.2781 54.8442 48.9426 55.0396 48.5954C55.1155 48.4554 55.1476 48.3037 55.1243 48.152C55.1243 48.1403 55.1243 48.1403 55.1359 48.1403L55.1914 48.1199C55.2118 48.1082 55.2234 48.1199 55.2322 48.1403L55.7223 49.8616C55.7544 49.9696 55.699 50.0338 55.5706 50.0338Z" fill="#FF73AC"/>
</g>
</svg>
