<svg width="71" height="71" viewBox="0 0 71 71" fill="none" xmlns="http://www.w3.org/2000/svg">
<mask id="mask0_1399_780" style="mask-type:luminance" maskUnits="userSpaceOnUse" x="11" y="11" width="50" height="48">
<path d="M11.2842 11H60.5149V59H11.2842V11Z" fill="white"/>
</mask>
<g mask="url(#mask0_1399_780)">
<path d="M26.9066 54.2633L26.8276 54.1714L27.1438 53.7333L27.4194 53.8444L27.2848 54.7761L27.0626 54.4641C27.0135 54.3936 26.96 54.3274 26.9066 54.2633ZM48.4301 54.4641L48.6524 54.7761L48.7891 53.8444L48.5113 53.7333L48.1951 54.1714L48.2741 54.2633C48.3297 54.3274 48.381 54.3936 48.4301 54.4641ZM15.9152 11.7184C15.8404 11.6992 15.7763 11.6863 15.71 11.6778L11.6182 11.2227L12.0199 11.5517C12.4259 11.885 12.6588 12.3765 12.6588 12.8979C12.6588 13.3402 12.4921 13.7611 12.1865 14.0859L12.1182 14.1607L12.3489 14.6927L12.4472 14.6949C12.9472 14.712 15.4536 14.7974 15.5092 14.7974H15.5135C15.5199 14.7974 15.5284 14.7974 15.5348 14.7974C15.5925 14.7974 15.6502 14.7932 15.7143 14.7846C15.7699 14.7761 15.8297 14.7654 15.8874 14.7526C16.2207 14.6692 16.522 14.4769 16.7378 14.2077C16.7784 14.1586 16.8147 14.1051 16.8532 14.0432C16.8938 13.9748 16.928 13.9107 16.9536 13.8509C17.0391 13.6543 17.0818 13.4449 17.0818 13.2312C17.0818 12.5239 16.6011 11.9021 15.9152 11.7184ZM51.0754 54.1692L50.1502 55.4577L50.1887 55.5368C50.2656 55.7077 50.3062 55.885 50.3062 56.0688C50.3062 56.7697 49.7336 57.3402 49.0306 57.3402C48.9451 57.3402 48.8553 57.3316 48.7699 57.3124L48.6588 57.2889L48.6032 57.3893C48.4066 57.7526 48.1288 58.0709 47.7977 58.3124L47.5904 58.4641L47.8212 58.5752C48.2015 58.7568 48.6075 58.8509 49.0306 58.8509C50.569 58.8509 51.819 57.603 51.819 56.0688C51.819 55.4363 51.6011 54.8188 51.2015 54.3252L51.0754 54.1692ZM29.7079 54.1692L28.7827 55.4577L28.819 55.5389C28.8981 55.7077 28.9387 55.885 28.9387 56.0688C28.9387 56.7697 28.366 57.3402 27.663 57.3402C27.5754 57.3402 27.4878 57.3316 27.4024 57.3124L27.2891 57.2889L27.2357 57.3893C27.0391 57.7526 26.7592 58.0709 26.4301 58.3124L26.2229 58.4641L26.4536 58.5752C26.8318 58.7568 27.24 58.8509 27.663 58.8509C29.2015 58.8509 30.4515 57.603 30.4515 56.0688C30.4515 55.4363 30.2314 54.8188 29.834 54.3252L29.7079 54.1692ZM60.0049 20.5517C59.8147 20.4107 59.5883 20.3295 59.3532 20.3145L55.2742 20.0774L55.5989 20.3701C55.8746 20.618 56.0177 20.9684 55.9964 21.3338C55.9771 21.6906 55.7977 22.0175 55.5071 22.2333L55.1652 22.4855L59.2122 22.7205C59.2336 22.7227 59.2528 22.7227 59.2742 22.7227C59.3083 22.7227 59.3425 22.7205 59.3746 22.7184C59.4408 22.7141 59.5049 22.7034 59.5626 22.6906C59.6267 22.6756 59.693 22.6521 59.7592 22.6244C60.1823 22.4427 60.4622 22.0453 60.49 21.588C60.5135 21.1842 60.3318 20.7953 60.0049 20.5517Z" fill="#EC8F3C"/>
</g>
<path d="M24.4253 51.7166H26.2415V52.6611H24.4253V51.7166ZM25.156 55.7337L25.0706 55.4239L24.3056 56.488C24.2052 56.629 24.0513 56.7102 23.8825 56.7102C23.8142 56.7102 23.7458 56.6974 23.6795 56.6696C23.4488 56.5777 23.3184 56.3512 23.3548 56.1055L23.5428 54.8128L23.2629 54.9859C22.8804 55.2188 22.6518 55.6247 22.6518 56.0692C22.6518 56.77 23.2244 57.3406 23.9274 57.3406C24.3163 57.3406 24.6795 57.1653 24.9274 56.8555C24.9744 56.7936 25.0193 56.7273 25.0556 56.6589L25.062 56.6483L25.0642 56.6397C25.124 56.5243 25.1646 56.3983 25.186 56.2658L25.1881 56.2487C25.1966 56.1824 25.2009 56.1247 25.2009 56.0692C25.2009 56.0115 25.1966 55.9538 25.186 55.8769C25.1795 55.8277 25.1689 55.7807 25.156 55.7337ZM28.8056 55.4239L28.0428 56.488C27.9402 56.629 27.7864 56.7102 27.6261 56.7102L27.5022 56.7017L27.468 56.8213C27.436 56.9282 27.4039 57.0265 27.3654 57.1162L27.2907 57.3L27.4872 57.3277C27.5535 57.3363 27.609 57.3406 27.6625 57.3406C28.3654 57.3406 28.9381 56.77 28.9381 56.0692C28.9381 55.9581 28.921 55.847 28.8911 55.7337L28.8056 55.4239ZM24.0727 49.8512H25.5492L25.3526 49.6034C25.2757 49.5072 25.2073 49.4068 25.1496 49.3064C24.7137 48.55 24.7137 47.6483 25.1518 46.894L27.7073 42.5115H26.3078L24.1048 46.2914C23.4808 47.3683 23.4531 48.6675 24.03 49.77L24.0727 49.8512ZM16.6411 14.3171C16.4466 14.5179 16.2009 14.6653 15.9317 14.7401L15.7607 14.7871L16.7372 17.0265H18.0556L16.8013 14.1504L16.6411 14.3171ZM50.1753 55.4239L49.4103 56.488C49.3099 56.6269 49.1582 56.7081 48.9915 56.7102H48.8676L48.8355 56.8213C48.8056 56.9282 48.7714 57.0243 48.7351 57.1162L48.6582 57.3L48.8548 57.3277C48.921 57.3363 48.9766 57.3406 49.03 57.3406C49.733 57.3406 50.3056 56.77 50.3056 56.0692C50.3056 55.9581 50.2907 55.847 50.2586 55.7359L50.1753 55.4239ZM58.5428 26.9538L58.359 26.7636C58.436 26.8491 58.4808 26.9624 58.4808 27.0842C58.4808 27.2829 58.3612 27.4538 58.1902 27.5307L58.436 27.4367L57.3633 32.2423L57.1838 32.0457C57.2522 32.129 57.2928 32.2359 57.2928 32.3512C57.2928 32.55 57.1731 32.7209 57.0043 32.7978L57.265 32.6889L56.2308 37.3235L56.2244 37.3448C56.2201 37.3598 56.2159 37.3747 56.2095 37.3897C56.2009 37.4111 56.1945 37.4303 56.1838 37.4495C56.1753 37.4666 56.171 37.4773 56.1625 37.4901C56.1518 37.5094 56.139 37.5286 56.124 37.5478L56.1176 37.5585C56.1112 37.5671 56.1048 37.5735 56.1005 37.5777C56.0834 37.597 56.0642 37.6162 56.0449 37.6333L56.0278 37.6504L56.0214 37.6547C55.9936 37.6782 55.9637 37.6974 55.936 37.7145L55.9295 37.7166L55.9103 37.7252C55.8847 37.738 55.859 37.7487 55.8313 37.7594L55.8206 37.7615L55.7928 37.7679C55.7693 37.7743 55.7436 37.7807 55.7201 37.7829L55.7095 37.785L55.6924 37.7871L51.4979 38.1931L51.6667 37.9218C51.6731 37.9089 51.6795 37.8983 51.686 37.8854C51.6945 37.8662 51.7031 37.847 51.7116 37.8256C51.7159 37.8106 51.7223 37.7936 51.7266 37.7786C51.7308 37.7636 51.733 37.7594 51.733 37.7551L51.9146 36.9431L55.1475 36.629L55.9936 32.8406H52.8291L53.0471 31.8641H56.2116L57.1667 27.5713H54.0043L54.2201 26.597H57.3847L58.2607 22.6653L59.2116 22.7209C59.2351 22.723 59.2607 22.723 59.2842 22.723C59.2842 22.723 59.2885 22.723 59.2949 22.723H59.4872L58.5428 26.9538ZM53.2031 50.5115H51.6219L51.8035 50.7572C51.8804 50.8619 51.9231 50.9837 51.9231 51.1141C51.9231 51.2423 51.8804 51.3662 51.8035 51.4709L51.6219 51.7166H53.2031C53.5364 51.7166 53.8078 51.4453 53.8078 51.1141C53.8078 50.7807 53.5364 50.5115 53.2031 50.5115ZM46.5535 55.879C46.5471 55.8277 46.5364 55.7807 46.5236 55.7359L46.4381 55.4239L45.6753 56.488C45.5727 56.629 45.4189 56.7102 45.2501 56.7102C45.1817 56.7102 45.1133 56.6974 45.0471 56.6696C44.8184 56.5777 44.686 56.3512 44.7223 56.1055L44.9103 54.8128L44.6304 54.9859C44.2479 55.2188 44.0193 55.6247 44.0193 56.0692C44.0193 56.77 44.5919 57.3406 45.2949 57.3406C45.6838 57.3406 46.0492 57.1653 46.2885 56.8641L46.2949 56.8555C46.3377 56.8021 46.3761 56.7444 46.4103 56.6846L46.4445 56.6589V56.6162C46.4979 56.5072 46.5342 56.3876 46.5535 56.2658V56.2594C46.5642 56.1889 46.5706 56.129 46.5706 56.0692C46.5706 56.0136 46.5663 55.9559 46.5556 55.8918L46.5535 55.879ZM45.7928 52.6611H47.609V51.7166H45.7928V52.6611Z" fill="#145DA0"/>
<mask id="mask1_1399_780" style="mask-type:luminance" maskUnits="userSpaceOnUse" x="9" y="11" width="48" height="48">
<path d="M9.09668 11H56.1394V59H9.09668V11Z" fill="white"/>
</mask>
<g mask="url(#mask1_1399_780)">
<path d="M12.2841 13.9729L12.1238 14.1758L11.4636 12.6566C11.4037 12.522 11.299 12.4152 11.1644 12.3532C11.126 12.334 11.0854 12.3211 11.0448 12.3105C11.0042 12.3019 10.9636 12.2955 10.923 12.2955H10.9059C10.8247 12.2955 10.7435 12.3126 10.6687 12.3447C10.5191 12.4088 10.4059 12.5263 10.3461 12.6758C10.2884 12.8254 10.2905 12.99 10.3546 13.1374L11.017 14.6566L10.7584 14.6352C9.86315 14.5583 9.16016 13.7955 9.16016 12.8959C9.16016 11.9344 9.94434 11.1523 10.908 11.1523C10.9273 11.1523 10.9443 11.1523 10.9614 11.1545H10.9828C11.0405 11.1588 11.0961 11.163 11.1495 11.1694C11.2072 11.178 11.2649 11.1887 11.3183 11.2015C12.1067 11.3917 12.658 12.0882 12.658 12.8959C12.658 13.2891 12.5277 13.6609 12.2841 13.9729ZM26.658 55.5006C26.6409 55.4258 26.6217 55.3489 26.5982 55.2699C26.4935 54.9237 26.3268 54.6053 26.0982 54.3233L25.97 54.1673L25.0469 55.4558L25.0832 55.537C25.1623 55.7058 25.2008 55.8831 25.2008 56.0669C25.2008 56.3019 25.1345 56.5327 25.0084 56.7378C24.9743 56.7891 24.9443 56.834 24.9123 56.8724L24.908 56.8767C24.8802 56.9109 24.8461 56.9472 24.8033 56.9878C24.564 57.2143 24.252 57.3382 23.9273 57.3382C23.2243 57.3382 22.6516 56.7677 22.6516 56.0669C22.6516 55.5455 22.9678 55.0818 23.455 54.8853L23.5362 54.8532L23.767 53.2827L23.564 53.3083C22.1815 53.49 21.1388 54.6737 21.1388 56.0669C21.1388 57.6011 22.3888 58.8489 23.9273 58.8489C24.5619 58.8489 25.1623 58.6395 25.6602 58.2421H25.6623C25.6986 58.2122 25.7349 58.1823 25.7691 58.1523L25.8375 58.1182V58.0904C25.8589 58.0711 25.8802 58.0498 25.8995 58.0306L25.9059 58.0241C26.2285 57.6994 26.4678 57.2976 26.5982 56.8639C26.6217 56.7848 26.6409 56.7079 26.658 56.631C26.6837 56.507 26.7008 56.3767 26.7093 56.2442C26.7136 56.1865 26.7157 56.1267 26.7157 56.0669C26.7157 56.007 26.7136 55.9472 26.7093 55.8895C26.7008 55.7549 26.6837 55.6246 26.658 55.5006ZM48.0255 55.5006C48.0106 55.4258 47.9892 55.3489 47.9657 55.2699C47.8631 54.9237 47.6943 54.6053 47.4657 54.3233L47.3396 54.1673L46.4144 55.4558L46.4529 55.5348C46.5298 55.7058 46.5704 55.8831 46.5704 56.0669C46.5704 56.3019 46.5042 56.5327 46.376 56.7378C46.3461 56.787 46.3161 56.8276 46.2884 56.8639L46.282 56.8682L46.2713 56.8831C46.2435 56.9152 46.2114 56.9494 46.1708 56.9878C45.9315 57.2143 45.6217 57.3382 45.2948 57.3382C44.5918 57.3382 44.0191 56.7677 44.0191 56.0669C44.0191 55.5455 44.3354 55.0818 44.8226 54.8853L44.9059 54.8532L45.1345 53.2827L44.9315 53.3083C43.549 53.49 42.5063 54.6737 42.5063 56.0669C42.5063 57.6011 43.7563 58.8489 45.2948 58.8489C45.9315 58.8489 46.5298 58.6395 47.0298 58.2421C47.0726 58.2079 47.1131 58.1737 47.1537 58.1374C47.1922 58.1032 47.2307 58.0669 47.2691 58.0306L47.2734 58.0241C47.5961 57.6994 47.8354 57.2976 47.9657 56.8639C47.9892 56.7848 48.0106 56.7079 48.0255 56.6331C48.0512 56.507 48.0683 56.3767 48.0768 56.2442C48.0811 56.1865 48.0832 56.1267 48.0832 56.0669C48.0832 56.007 48.0811 55.9472 48.0768 55.8895C48.0683 55.7549 48.0512 55.6246 48.0255 55.5006ZM54.861 20.0583L13.4764 17.6459C13.4508 17.6459 13.4273 17.6438 13.4037 17.6438C13.1089 17.6438 12.8247 17.7528 12.6025 17.9494C12.5939 17.9558 12.5875 17.9622 12.5747 17.9771C12.5234 18.0241 12.4807 18.0711 12.4443 18.1203C12.4016 18.1737 12.3631 18.2357 12.329 18.2998C12.252 18.4515 12.2093 18.6117 12.1986 18.7784C12.1666 19.3361 12.5341 19.8532 13.0725 20.007C13.1388 20.0263 13.2093 20.0391 13.2841 20.0476H13.2969C13.3097 20.0498 13.3225 20.0519 13.3354 20.0519L54.72 22.4643C54.7414 22.4664 54.7627 22.4664 54.7841 22.4664C54.8119 22.4664 54.8396 22.4664 54.8674 22.4643C54.9294 22.46 54.9935 22.4515 55.0576 22.4365C55.1217 22.4237 55.1879 22.4023 55.252 22.3746C55.3247 22.3447 55.3931 22.3083 55.4572 22.2656C55.7734 22.0562 55.9743 21.7079 55.9956 21.3318C56.0362 20.6694 55.5255 20.0989 54.861 20.0583Z" fill="#F6BD3B"/>
</g>
<path d="M13.4017 17.6475C13.124 17.6475 12.8633 17.7394 12.6475 17.9146L12.4915 18.0406L10.3547 13.1389C10.2906 12.9915 10.2885 12.827 10.3462 12.6774C10.406 12.5278 10.5193 12.4103 10.6688 12.3462C10.7436 12.312 10.8248 12.2949 10.9081 12.2949C10.9765 12.2949 11.0449 12.3077 11.1133 12.3334C11.1881 12.359 11.2543 12.3996 11.312 12.4509C11.3782 12.5107 11.4295 12.5791 11.4637 12.6582L13.6368 17.6475H13.4017ZM26.5705 52.6603H24.1282C23.9744 52.6603 23.8398 52.7757 23.8184 52.9274L23.3547 56.1048C23.312 56.3868 23.4872 56.5919 23.6795 56.6689C23.7436 56.6945 23.8141 56.7095 23.8825 56.7095C24.0534 56.7095 24.203 56.6304 24.3056 56.4872L26.7714 53.0535C26.8269 52.9765 26.8334 52.8804 26.7906 52.7949C26.7479 52.7095 26.6646 52.6603 26.5705 52.6603ZM30.3056 52.6603H27.8633C27.7094 52.6603 27.5748 52.7757 27.5534 52.9274L27.0898 56.1048C27.0599 56.3035 27.1368 56.4851 27.297 56.6026C27.3355 56.6304 27.374 56.6539 27.4146 56.6689C27.4402 56.6795 27.468 56.6881 27.4979 56.6945C27.5385 56.703 27.5791 56.7073 27.6197 56.7073C27.6517 56.7073 27.6838 56.7052 27.7137 56.6988C27.8462 56.6753 27.9594 56.6026 28.0428 56.4872L30.5064 53.0535C30.562 52.9765 30.5705 52.8804 30.5257 52.7949C30.4829 52.7095 30.3996 52.6603 30.3056 52.6603ZM51.374 38.1774L51.3056 38.0385L51.3633 38.1817C51.3526 38.1859 51.3419 38.1902 51.3334 38.1945L51.2949 38.203C51.2714 38.2095 51.2458 38.2159 51.2201 38.218L51.2116 38.2201L51.1945 38.2223L40.468 39.2607H40.4808C40.7778 39.28 41.0128 39.5086 41.0428 39.8013C41.0577 39.9616 41.0107 40.1176 40.9081 40.2415C40.8056 40.3676 40.6603 40.4445 40.5 40.4595L23.4188 42.1347L20.6603 46.8932C20.2222 47.6475 20.2201 48.5492 20.6581 49.3056C21.094 50.0599 21.8761 50.5107 22.75 50.5107H51.3184C51.6517 50.5107 51.9231 50.78 51.9231 51.1133C51.9231 51.4445 51.6517 51.7159 51.3184 51.7159H22.75C21.4402 51.7159 20.2671 51.0385 19.6111 49.906C18.9573 48.7736 18.9573 47.421 19.6133 46.2906L22.5363 41.2522L22.5428 41.2436C22.547 41.2372 22.5513 41.233 22.5577 41.2223C22.5705 41.203 22.5812 41.1881 22.5919 41.1753C22.6026 41.1624 22.6133 41.1539 22.6218 41.1454L22.641 41.1261C22.6539 41.1133 22.6646 41.1026 22.6774 41.0941C22.6902 41.0834 22.703 41.0748 22.7137 41.0684L22.7329 41.0556C22.75 41.0449 22.7628 41.0364 22.7757 41.03C22.7885 41.0236 22.8013 41.0193 22.8141 41.0129L22.8419 41.0022C22.859 40.9958 22.8718 40.9915 22.8846 40.9872C22.8996 40.983 22.9167 40.9787 22.9402 40.9744H22.9509C22.9573 40.9723 22.9616 40.9723 22.9701 40.9701L22.9808 40.9659L34.4487 39.8419L22.9295 40.9573C22.9146 40.9573 22.9039 40.9573 22.891 40.9595H22.8633C22.8355 40.9595 22.8034 40.9552 22.7693 40.9488L22.7372 40.9424C22.7137 40.9381 22.6923 40.9317 22.671 40.9231C22.6581 40.9189 22.6475 40.9146 22.6389 40.9103C22.6133 40.9018 22.5919 40.8889 22.5705 40.8783L22.5556 40.8697L22.5492 40.8654C22.5214 40.8483 22.4957 40.8291 22.4701 40.8077L22.4594 40.7971C22.4359 40.7736 22.4188 40.7543 22.4017 40.733C22.3975 40.7287 22.3932 40.7223 22.3846 40.7116C22.3675 40.6881 22.3569 40.6689 22.3462 40.6518C22.3398 40.6389 22.3334 40.6261 22.3269 40.6154L22.3227 40.6069L22.3163 40.5962L13.3675 20.0556L14.7201 20.1347L20.7436 33.9616L20.4359 33.2543L25.0107 33.062L23.3633 27.1539L17.75 27.0919L17.3526 26.1774L23.109 26.2415L21.5171 20.53L22.4787 20.5877L24.0577 26.2522L30.2244 26.3206L29.547 20.9979L30.4722 21.0535L31.1453 26.3291L36.7351 26.3911L36.6325 21.4124L37.5449 21.4659L37.6475 26.4018L42.6731 26.4573L43.062 21.7864L43.9722 21.8398L43.5876 26.468L48.4231 26.5214L49.1517 22.1411L50.0663 22.1945L49.344 26.5321L52.9893 26.5706L53.9146 22.4189L54.7201 22.4659C54.7436 22.468 54.7671 22.468 54.7928 22.468C54.7992 22.468 54.8077 22.468 54.8163 22.468L54.8398 22.4659C54.8718 22.4659 54.9017 22.4637 54.9338 22.4595L55.1475 22.4338L55.0983 22.6582L51.7329 37.7586L51.7244 37.78C51.7201 37.7949 51.7158 37.8099 51.7116 37.8248C51.703 37.8462 51.6945 37.8654 51.6859 37.8847C51.6774 37.9018 51.671 37.9124 51.6646 37.9253C51.6517 37.9445 51.6389 37.9637 51.6261 37.983L51.6175 37.9915C51.6111 38.0022 51.6069 38.0086 51.6026 38.0129C51.5855 38.0321 51.5663 38.0513 51.5449 38.0684L51.5299 38.0855L51.5235 38.0898C51.4958 38.1133 51.4658 38.1325 51.4381 38.1496L51.4295 38.1539L51.4103 38.1603C51.3996 38.1667 51.3868 38.171 51.374 38.1774ZM52.7863 27.4787L49.1923 27.4402L48.421 32.077L51.7928 31.9359L52.7863 27.4787ZM51.5876 32.8548L48.2671 32.9936L47.5385 37.3654L46.7842 37.4381L50.6496 37.0642L51.5876 32.8548ZM46.6004 37.4573L47.3376 33.0342L43.0257 33.2137L42.641 37.8398L41.718 37.9274L42.109 33.2543L37.7906 33.4338L37.891 38.2992L46.6004 37.4573ZM31.8248 38.8847L31.1667 33.7137L26.1966 33.9231L27.6923 39.2842L31.8248 38.8847ZM24.312 27.1646L25.9466 33.0214L31.0513 32.8077L30.3398 27.2308L24.312 27.1646ZM31.2607 27.2415L31.9658 32.7693L36.8611 32.5642L36.7522 27.3013L31.2607 27.2415ZM31.9124 38.8761L36.9808 38.3868L36.8804 33.4723L32.0812 33.6753L32.7329 38.7971L31.9124 38.8761ZM37.6646 27.312L37.7735 32.5257L42.1838 32.3398L42.5983 27.3654L37.6646 27.312ZM43.5128 27.3761L43.1026 32.3013L47.4893 32.1176L48.2714 27.4295L43.5128 27.3761ZM20.8248 34.1475L23.25 39.7137L27.1026 39.3419L26.7693 39.374L25.2607 33.9616L20.8248 34.1475ZM51.6731 52.6603H49.2329C49.0769 52.6603 48.9445 52.7757 48.921 52.9274L48.4573 56.1048C48.4295 56.3035 48.5043 56.4851 48.6646 56.6026C48.703 56.6304 48.7436 56.6539 48.7842 56.6689C48.8077 56.6795 48.8355 56.6881 48.8654 56.6945C48.906 56.703 48.9466 56.7073 48.9872 56.7073C49.0193 56.7073 49.0513 56.7052 49.0834 56.6988C49.2137 56.6753 49.3269 56.6026 49.4103 56.4872L51.8761 53.0535C51.9316 52.9765 51.9381 52.8783 51.8953 52.7949C51.8504 52.7095 51.7693 52.6603 51.6731 52.6603ZM47.9381 52.6603H45.4958C45.3419 52.6603 45.2094 52.7757 45.1859 52.9274L44.7222 56.1048C44.6816 56.3868 44.8569 56.5919 45.047 56.6689C45.1111 56.6945 45.1816 56.7095 45.2522 56.7095C45.421 56.7095 45.5727 56.6304 45.6752 56.4872L48.1389 53.0535C48.1945 52.9765 48.203 52.8783 48.1581 52.7949C48.1154 52.7116 48.0321 52.6603 47.9381 52.6603Z" fill="#7BC9C0"/>
<mask id="mask2_1399_780" style="mask-type:luminance" maskUnits="userSpaceOnUse" x="9" y="11" width="52" height="48">
<path d="M9 11H60.6923V59H9V11Z" fill="white"/>
</mask>
<g mask="url(#mask2_1399_780)">
<path d="M59.3606 20.1603L18.5507 17.7821L18.196 16.9658L16.9674 14.1474C17.1362 13.8803 17.2345 13.5684 17.2345 13.2308C17.2345 12.3675 16.5871 11.6346 15.7302 11.5256C15.7281 11.5256 15.7281 11.5256 15.7281 11.5256L11.1554 11.015C11.1512 11.015 11.1469 11.015 11.1405 11.015C11.0657 11.0064 10.9866 11 10.9076 11C9.85842 11 9.00586 11.8504 9.00586 12.8974C9.00586 13.9444 9.85842 14.797 10.9076 14.797C10.9097 14.797 10.9097 14.797 10.9097 14.797L12.3178 18.0321C12.1554 18.2436 12.0614 18.5 12.0443 18.7714C12.0016 19.4979 12.5443 20.1261 13.2623 20.2009L22.1747 40.6581C22.1789 40.6667 22.1832 40.6752 22.1875 40.6816C22.1939 40.6966 22.2024 40.7115 22.211 40.7265C22.2238 40.75 22.2388 40.7735 22.258 40.7991C22.2665 40.8098 22.273 40.8205 22.2815 40.8291C22.3007 40.8568 22.3242 40.8803 22.3499 40.9038C22.3542 40.9103 22.3606 40.9145 22.367 40.9209C22.3969 40.9487 22.4311 40.9744 22.4674 40.9957C22.4738 41 22.4824 41.0043 22.493 41.0107C22.5037 41.0171 22.5144 41.0214 22.523 41.0256L22.5187 41.0299C22.5037 41.0449 22.4888 41.0577 22.4759 41.0748C22.4589 41.094 22.4439 41.1154 22.4289 41.1368L22.5529 41.2286L22.4225 41.1474C22.4118 41.1603 22.4033 41.1731 22.3947 41.1859L19.4802 46.2137C18.7965 47.3932 18.7943 48.8034 19.4781 49.9829C20.1597 51.1645 21.3841 51.8697 22.7494 51.8697H24.2708V52.5064H24.1277C23.8969 52.5064 23.6982 52.6774 23.6661 52.906L23.6298 53.1474C22.1469 53.297 20.9845 54.5491 20.9845 56.0684C20.9845 57.6859 22.3029 59.0043 23.9268 59.0043C24.6341 59.0043 25.2858 58.7521 25.7943 58.3355C25.8029 58.3419 25.8136 58.3504 25.8242 58.359C25.8306 58.3633 25.8349 58.3675 25.8413 58.3718C25.8819 58.4038 25.9225 58.4338 25.9653 58.4637C25.9738 58.4701 25.9845 58.4786 25.993 58.485C26.0422 58.5171 26.0913 58.5513 26.1426 58.5812C26.1426 58.5812 26.1426 58.5812 26.1447 58.5812C26.5871 58.8483 27.1063 59.0043 27.6618 59.0043C29.2836 59.0043 30.6042 57.6859 30.6042 56.0684C30.6042 55.3419 30.3371 54.6774 29.899 54.1645L30.6319 53.141C30.7195 53.0192 30.7324 52.859 30.6618 52.7244C30.5935 52.5897 30.4567 52.5064 30.305 52.5064H30.1298V51.8697H45.6383V52.5064H45.4952C45.2644 52.5064 45.0657 52.6774 45.0336 52.906L44.9973 53.1474C43.5144 53.297 42.352 54.5491 42.352 56.0684C42.352 57.6859 43.6725 59.0043 45.2943 59.0043C46.0037 59.0043 46.6533 58.7521 47.1618 58.3355C47.1725 58.3419 47.1832 58.3504 47.1918 58.359C47.1982 58.3633 47.2046 58.3675 47.2089 58.3718C47.2495 58.4038 47.2922 58.4338 47.3328 58.4637C47.3435 58.4701 47.352 58.4786 47.3627 58.485C47.4097 58.5171 47.461 58.5513 47.5101 58.5812C47.5123 58.5812 47.5123 58.5812 47.5123 58.5812C47.9567 58.8483 48.4759 59.0043 49.0294 59.0043C50.6533 59.0043 51.9717 57.6859 51.9717 56.0684C51.9717 55.3419 51.7067 54.6774 51.2665 54.1645L51.9995 53.141C52.0892 53.0192 52.0999 52.859 52.0315 52.7244C51.961 52.5897 51.8242 52.5064 51.6725 52.5064H51.4973V51.8697H53.2024C53.6212 51.8697 53.961 51.5299 53.961 51.1133C53.961 50.6966 53.6212 50.3568 53.2024 50.3568H27.2409C27.1747 50.3568 27.1106 50.3526 27.0465 50.3483C27.0294 50.3462 27.0144 50.344 26.9995 50.344C26.9375 50.3376 26.8777 50.3291 26.82 50.3184C26.8157 50.3162 26.8114 50.3162 26.8071 50.3162C26.7409 50.3034 26.6747 50.2863 26.6106 50.2692C26.6042 50.2671 26.5977 50.265 26.5913 50.2628C26.2537 50.1624 25.9439 49.985 25.6875 49.7393C25.6853 49.7393 25.6853 49.7393 25.6853 49.7393C25.5294 49.5919 25.3947 49.4209 25.2815 49.2286C24.8734 48.5214 24.8734 47.6774 25.2836 46.9701L27.8392 42.5876L28.0721 42.1859L28.2922 41.8098L40.5144 40.6132C40.7153 40.5919 40.8969 40.4957 41.0272 40.3397C41.1554 40.1838 41.2153 39.9872 41.1939 39.7863C41.1789 39.6239 41.1106 39.4765 41.008 39.3611L51.2174 38.3739C51.2238 38.3739 51.2281 38.3739 51.2324 38.3718L55.7153 37.938C55.7259 37.938 55.7366 37.9359 55.7366 37.9338C55.7708 37.9316 55.8029 37.9231 55.8435 37.9124C55.8542 37.9103 55.867 37.9081 55.8777 37.9038C55.9097 37.8932 55.9418 37.8803 55.9781 37.8611C55.9888 37.859 55.9973 37.8547 56.0059 37.8483C56.0443 37.8269 56.0828 37.8013 56.1191 37.7735C56.1277 37.7671 56.1362 37.7585 56.149 37.7457C56.1725 37.7244 56.196 37.703 56.2174 37.6752C56.2259 37.6667 56.2324 37.656 56.2473 37.6389C56.2644 37.6154 56.2815 37.5919 56.2965 37.5662C56.305 37.5491 56.3136 37.5342 56.3221 37.5171C56.3328 37.4915 56.3435 37.468 56.3542 37.4423C56.3606 37.4231 56.367 37.4017 56.3734 37.3825C56.3755 37.3718 56.3798 37.3611 56.3819 37.3504L59.6191 22.8333C60.1789 22.6902 60.6063 22.1987 60.6405 21.5962C60.6853 20.8483 60.1106 20.2051 59.3606 20.1603ZM59.696 22.4829C59.6426 22.5064 59.5849 22.5256 59.5251 22.5406C59.4738 22.5534 59.4183 22.5598 59.3627 22.5641C59.3157 22.5684 59.2687 22.5705 59.2217 22.5662L58.4503 22.5214L58.1383 22.5043L55.5977 22.3547C55.9118 22.1239 56.1255 21.7607 56.149 21.344C56.1747 20.9145 55.9973 20.5214 55.7003 20.2564L58.7751 20.4338L59.3435 20.4679C59.5571 20.4808 59.7516 20.5556 59.9118 20.6752C60.1853 20.8803 60.3563 21.2137 60.3349 21.5791C60.3093 21.9872 60.0507 22.3291 59.696 22.4829ZM56.0742 37.3034C56.0721 37.3141 56.0678 37.3269 56.0636 37.3376C56.0593 37.3526 56.0529 37.3675 56.0443 37.3825C56.0401 37.391 56.0358 37.4017 56.0294 37.4103C56.0208 37.4252 56.0101 37.4402 56.0016 37.453L55.9909 37.4658C55.9888 37.4701 55.9866 37.4744 55.9845 37.4765C55.9717 37.4915 55.9567 37.5043 55.9418 37.5192L55.9247 37.5342C55.9033 37.5513 55.8819 37.5662 55.8606 37.5769C55.8542 37.5812 55.8477 37.5833 55.8413 37.5876C55.8221 37.5962 55.8029 37.6047 55.7815 37.6111L55.7559 37.6175C55.7366 37.6239 55.7174 37.6282 55.7003 37.6303C55.6918 37.6303 55.6853 37.6325 55.6789 37.6346L51.7922 38.0085C51.7943 38.0064 51.7965 38.0043 51.7965 38.0021C51.8071 37.985 51.8157 37.9701 51.8221 37.953C51.8349 37.9274 51.8456 37.9038 51.8542 37.8761C51.8627 37.8568 51.8691 37.8376 51.8734 37.8184C51.8777 37.8077 51.8798 37.797 51.8841 37.7863L52.0401 37.0833L55.1618 36.7821C55.2281 36.7756 55.2836 36.7265 55.2986 36.6624L56.117 32.9915H56.8029C56.8905 32.9915 56.9738 32.9744 57.0486 32.9444L56.0828 37.2799C56.0785 37.2863 56.0764 37.2949 56.0742 37.3034ZM46.9439 38.4786L46.6042 38.5128L42.5764 38.9017L42.2345 38.9338L42.0999 38.9487L41.7623 38.9808L40.4695 39.1047L37.9012 39.3547L37.5593 39.3868L37.4332 39.3996L37.0849 39.4338L34.4589 39.6859L32.8029 39.8462L32.4567 39.8803L32.3328 39.8932L31.9909 39.9252L27.8456 40.3269L27.508 40.359L27.3734 40.3718L27.0294 40.406L22.914 40.8034C22.8969 40.8056 22.8819 40.8056 22.8648 40.8056C22.8456 40.8056 22.8221 40.8034 22.7943 40.7991L22.7708 40.7927C22.7537 40.7885 22.7388 40.7842 22.7217 40.7778C22.7131 40.7756 22.7046 40.7735 22.696 40.7692C22.6789 40.7628 22.6618 40.7543 22.6469 40.7436C22.6447 40.7436 22.6341 40.7372 22.6319 40.7372C22.6106 40.7222 22.5892 40.7073 22.5721 40.6923C22.57 40.6902 22.5636 40.6816 22.5614 40.6816C22.5465 40.6667 22.5336 40.6538 22.5208 40.6368C22.5165 40.6325 22.5123 40.6261 22.5059 40.6154C22.4952 40.6026 22.4866 40.5897 22.4802 40.5748C22.4738 40.5662 22.4695 40.5577 22.4653 40.5491C22.4631 40.5449 22.4589 40.5385 22.4589 40.5363L19.7345 34.2842L19.5956 33.9658L19.5422 33.8419L19.4054 33.5321L16.6405 27.1838L16.5037 26.8675L16.4524 26.7521L16.3136 26.4316L13.6084 20.2244L14.6148 20.2821L17.117 26.0214L17.1832 26.1752L17.2516 26.3312L17.5144 26.9359L17.5806 27.0897L17.649 27.2436L20.2046 33.109L20.2708 33.2607L20.3349 33.4124L20.5935 34.0043L20.6597 34.156L20.7259 34.3056L23.1084 39.7756C23.1341 39.8376 23.1982 39.8739 23.2644 39.8675L26.6554 39.5406L26.8114 39.5235L26.9674 39.5085L27.5785 39.4509L27.7324 39.4359L27.8883 39.4209L31.6896 39.0534L31.9973 39.0235L32.5977 38.9658L32.9054 38.9359L36.8306 38.5556L37.1383 38.5256L37.7409 38.468L38.0486 38.438L41.5507 38.0983L41.7046 38.0833L41.8606 38.0684L42.4717 38.0107L42.6277 37.9957L42.7836 37.9786L46.414 37.6282L46.5721 37.6132L46.7324 37.5983L47.3542 37.5385L47.5123 37.5214L47.6704 37.5064L50.664 37.218C50.7302 37.2115 50.7858 37.1624 50.7986 37.0983L51.7131 33.0021L51.7473 32.8483L51.7815 32.6923L51.8029 32.5919L51.9161 32.0833L51.9524 31.9295L51.961 31.8825L51.9866 31.7735L52.9097 27.6346L52.9781 27.3269L52.9824 27.3013L53.1106 26.7265L53.1447 26.5726L53.1789 26.4209L54.0358 22.5812L54.711 22.6197C54.7388 22.6218 54.7644 22.6218 54.7922 22.6218C54.8093 22.6218 54.8285 22.6197 54.8456 22.6197C54.8819 22.6175 54.9161 22.6154 54.9503 22.6111L54.9482 22.6261L54.0956 26.4423L54.0614 26.5962L54.0336 26.7286L54.0272 26.75L53.9567 27.0727L53.8798 27.4188L53.8542 27.5278L53.8456 27.5705L53.8114 27.7244L52.9225 31.7094L52.8542 32.0171L52.8435 32.0662L52.7665 32.4081L52.7388 32.5342L52.7046 32.6859L52.6704 32.8397L52.664 32.8654L52.6362 32.9915L51.7879 36.7991L51.7516 36.9573L51.7174 37.1154L51.5828 37.7158C51.5806 37.7222 51.5785 37.7308 51.5764 37.7393C51.5721 37.75 51.57 37.7628 51.5657 37.7735C51.5593 37.7885 51.5529 37.8034 51.5465 37.8184C51.5422 37.8269 51.5358 37.8376 51.5315 37.8462C51.523 37.8632 51.5123 37.8761 51.5016 37.891L51.493 37.9017C51.4909 37.906 51.4866 37.9103 51.4845 37.9124C51.4717 37.9274 51.4589 37.9402 51.4418 37.9551L51.4268 37.9701C51.4054 37.9872 51.3819 38.0021 51.3627 38.0128C51.3563 38.0171 51.3477 38.0192 51.3413 38.0235C51.3306 38.0278 51.32 38.0321 51.3071 38.0385C51.2986 38.0406 51.2922 38.0449 51.2836 38.047L51.2559 38.0534C51.2388 38.0598 51.2195 38.0641 51.2003 38.0662C51.1939 38.0662 51.1853 38.0684 51.1789 38.0705L51.1405 38.0727L50.9802 38.0897L47.4183 38.4338L47.0742 38.4658L46.9439 38.4786ZM12.352 18.7885C12.3606 18.641 12.4012 18.5 12.4674 18.3718C12.4952 18.3162 12.5272 18.265 12.5657 18.2137C12.5999 18.1709 12.6383 18.1282 12.6789 18.0897C12.6875 18.0812 12.696 18.0727 12.7046 18.0641C12.899 17.8932 13.1447 17.7991 13.4033 17.7991C13.4225 17.7991 13.4439 17.7991 13.4653 17.8013L13.5358 17.8056L13.7089 17.8162L13.8819 17.8248L16.9973 18.0064L17.0871 18.0128L17.1683 18.0171L17.3413 18.0278H17.3563L17.8328 18.0556L18.3477 18.0855L18.5208 18.0962L18.6918 18.1068L54.852 20.2137C55.4311 20.2479 55.8755 20.7457 55.8435 21.3248C55.8221 21.6667 55.6383 21.9615 55.3712 22.1389C55.3157 22.1774 55.2559 22.2094 55.1918 22.235C55.1383 22.2585 55.0806 22.2756 55.023 22.2885C54.9695 22.3013 54.914 22.3098 54.8563 22.312C54.8157 22.3141 54.773 22.3162 54.7281 22.3141L54.1042 22.2778L53.9482 22.2671L53.7922 22.2585L50.2067 22.0491L50.0443 22.0406L49.8755 22.0299L49.3606 22L49.1918 21.9893L49.0294 21.9808L44.1148 21.6944L43.9546 21.6859L43.7836 21.6752L43.2687 21.6453L43.0999 21.6346L42.9396 21.6261L37.6853 21.3205L37.523 21.3098L37.3542 21.3013L36.8371 21.2692L36.6683 21.2607L36.508 21.25L30.6042 20.906L30.446 20.8974L30.2772 20.8868L29.7601 20.8568L29.5913 20.8483L29.4289 20.8376L22.5956 20.4402L22.4332 20.4295L22.2644 20.4209L21.7473 20.391L21.5785 20.3803L21.4161 20.3718L17.2601 20.1282L16.9845 20.1132L14.8221 19.9872L14.6512 19.9765L14.4781 19.9658L13.4717 19.9081L13.3435 19.8996C13.3285 19.8996 13.3136 19.8974 13.2986 19.8953C13.2345 19.8889 13.1747 19.8782 13.1148 19.8611C12.6512 19.7286 12.3221 19.2885 12.352 18.7885ZM11.2324 14.7671L11.1811 14.6517L11.1683 14.6218L11.1127 14.4957L11.1042 14.4765L11.0977 14.4573L10.961 14.1453L10.8264 13.8355L10.4952 13.0769C10.4482 12.9679 10.446 12.8462 10.4888 12.7329C10.5336 12.6218 10.6191 12.5342 10.7281 12.4872C10.7879 12.4615 10.8477 12.4487 10.9076 12.4487C10.961 12.4487 11.0123 12.4594 11.0614 12.4765C11.1148 12.4979 11.1661 12.5256 11.2089 12.5662C11.2559 12.6068 11.2943 12.6581 11.3221 12.7201L11.9311 14.1175L11.9952 14.265L12.0571 14.4081L12.1106 14.5299L12.1768 14.6859L12.2452 14.8419L13.4012 17.4936C13.0913 17.4936 12.7943 17.5983 12.5507 17.7949L11.2494 14.8077L11.2324 14.7671ZM10.9076 11.3077C10.9311 11.3077 10.9524 11.3098 10.9759 11.3098C11.0272 11.312 11.0785 11.3162 11.1298 11.3248C11.1811 11.3312 11.2324 11.3397 11.2815 11.3526C11.9824 11.5214 12.5037 12.1496 12.5037 12.8974C12.5037 13.2692 12.3755 13.609 12.1618 13.8782L11.6042 12.5962C11.5272 12.4209 11.3905 12.2906 11.2302 12.2158C11.1811 12.1923 11.1319 12.1752 11.0785 12.1624C11.0294 12.1517 10.9781 12.1453 10.9268 12.1432C10.82 12.141 10.711 12.1603 10.6063 12.2051C10.4204 12.2863 10.2772 12.4338 10.2024 12.6218C10.1298 12.8098 10.1319 13.015 10.2131 13.1987L10.773 14.4829C9.95671 14.4124 9.31355 13.7308 9.31355 12.8974C9.31355 12.0214 10.0294 11.3077 10.9076 11.3077ZM15.1148 11.765L15.6918 11.8291C15.7537 11.8376 15.8136 11.8504 15.8734 11.8675C16.4845 12.0299 16.9268 12.5855 16.9268 13.2308C16.9268 13.4295 16.8862 13.6175 16.8114 13.7885C16.7858 13.8483 16.7537 13.9081 16.7195 13.9637C16.6875 14.015 16.6533 14.0641 16.617 14.1111C16.4247 14.3504 16.1554 14.5256 15.8477 14.6026C15.7986 14.6154 15.7473 14.6239 15.6939 14.6303C15.6405 14.6389 15.5871 14.6432 15.5315 14.6432C15.5251 14.6432 15.5187 14.6453 15.5123 14.6453C15.4695 14.6432 13.9012 14.5897 12.4503 14.5406L12.2986 14.1923C12.6148 13.8526 12.8114 13.3974 12.8114 12.8974C12.8114 12.3077 12.54 11.7799 12.1148 11.4316L15.1148 11.765ZM52.6618 27.3248L49.0636 27.2842L48.2366 32.2393L51.5977 32.0983L51.4631 32.7051L48.1362 32.8462L47.4054 37.2244L46.7836 37.2842L47.5187 32.8718L42.8841 33.0662L42.4973 37.6987L41.8862 37.7585L42.2751 33.0919L37.6341 33.2885L37.7345 38.1603L37.1319 38.218L37.0294 33.312L31.9054 33.5278L32.5593 38.6603L31.9589 38.718L31.3007 33.5534L25.9952 33.7778L27.493 39.1496L26.8841 39.2094L25.3755 33.8034L20.9225 33.9893L20.6661 33.3974L25.211 33.2073L23.4802 27.0021L17.852 26.9402L17.5871 26.3333L23.3114 26.3974L21.7217 20.6966L22.3584 20.7329L23.9396 26.4038L30.399 26.4744L29.7217 21.1624L30.3349 21.1987L31.008 26.4829L36.8905 26.547L36.7879 21.5748L37.3926 21.6111L37.4952 26.5534L42.8136 26.6132L43.2024 21.9487L43.805 21.985L43.4204 26.6197L48.5507 26.6752L49.2794 22.3034L49.8862 22.3397L49.1618 26.6838L52.7965 26.7222L52.6618 27.3248ZM48.602 31.9167L49.3221 27.594L52.5935 27.6303L51.6683 31.7863L48.602 31.9167ZM48.399 33.1432L51.3926 33.0171L50.523 36.9231L47.7238 37.1923L48.399 33.1432ZM43.1683 33.3632L47.1533 33.1944L46.4674 37.3141L42.8093 37.6688L43.1683 33.3632ZM37.9482 33.5812L41.9396 33.4145L41.5764 37.7885L38.0422 38.1303L37.9482 33.5812ZM32.2537 33.8205L36.7281 33.6325L36.8242 38.2479L32.867 38.6303L32.2537 33.8205ZM26.3969 34.0684L31.0315 33.8718L31.6512 38.7479L27.805 39.1197L26.3969 34.0684ZM25.1447 34.1197L26.5721 39.2393L23.3456 39.5513L21.055 34.2927L25.1447 34.1197ZM23.2452 27.3056L24.8093 32.9167L20.5336 33.0962L17.9866 27.2479L23.2452 27.3056ZM29.4097 21.1453L30.0486 26.1645L24.1747 26.1004L22.6832 20.7521L29.4097 21.1453ZM36.5764 26.2372L31.2794 26.1774L30.649 21.2179L36.4802 21.5577L36.5764 26.2372ZM42.8947 21.9316L42.5315 26.3013L37.7965 26.25L37.7024 21.6282L42.8947 21.9316ZM48.9717 22.2863L48.2922 26.3654L43.7537 26.3162L44.1127 22.0021L48.9717 22.2863ZM21.399 20.6774C21.4012 20.6923 21.4054 20.7073 21.4097 20.7222L22.9054 26.0855L17.4546 26.0256L14.961 20.3034L21.399 20.6774ZM49.5251 26.3803L50.196 22.3568L53.7238 22.562L52.8648 26.4167L49.5251 26.3803ZM55.8007 32.9915L55.0208 36.4872L52.1106 36.7671L52.9524 32.9915H55.8007ZM53.0208 32.6859L53.1683 32.0171H56.8029C56.9888 32.0171 57.1383 32.1667 57.1383 32.3504C57.1383 32.5363 56.9888 32.6859 56.8029 32.6859H53.0208ZM53.2388 31.7094L54.1255 27.7244H56.9759L56.0871 31.7094H53.2388ZM54.1939 27.4188L54.3435 26.75H57.993C58.1768 26.75 58.3264 26.8996 58.3264 27.0833C58.3264 27.2692 58.1768 27.4188 57.993 27.4188H54.1939ZM54.4118 26.4423L55.2601 22.6432L58.0721 22.8077L57.2601 26.4423H54.4118ZM16.8584 17.6923L13.743 17.5107L12.5871 14.8526C13.9375 14.8996 15.4909 14.9509 15.5101 14.9509C15.5614 14.9509 15.6106 14.9487 15.6618 14.9444L16.8584 17.6923ZM16.8371 16.8739L15.9738 14.8868C16.273 14.8034 16.54 14.641 16.7516 14.4231L17.82 16.8739H16.8371ZM57.2772 31.9188C57.1597 31.7906 56.9909 31.7094 56.8029 31.7094H56.4012L57.2901 27.7244H57.993C58.0721 27.7244 58.1512 27.7094 58.2217 27.6816L57.2772 31.9188ZM58.4546 26.6389C58.3371 26.5192 58.1725 26.4423 57.993 26.4423H57.5764L58.3819 22.8269L59.2024 22.8739C59.2302 22.8761 59.2559 22.8761 59.2836 22.8761C59.2858 22.8761 59.2901 22.8761 59.2943 22.8761L58.4546 26.6389ZM22.664 41.3376C22.6704 41.3291 22.6747 41.3227 22.6853 41.3077C22.6939 41.297 22.7003 41.2842 22.7089 41.2735C22.7153 41.2671 22.7238 41.2607 22.7302 41.2543L22.7409 41.2436L22.7473 41.2372C22.7559 41.2286 22.7644 41.2201 22.773 41.2137C22.7815 41.2073 22.79 41.2009 22.7986 41.1966L22.8157 41.1838C22.8264 41.1774 22.8371 41.1709 22.8456 41.1667C22.8563 41.1624 22.8648 41.1581 22.8755 41.1538L22.899 41.1453C22.9076 41.141 22.9161 41.1368 22.9268 41.1346C22.9396 41.1303 22.9524 41.1282 22.9759 41.1261C22.9845 41.1239 22.9952 41.1218 23.008 41.1175L27.1896 40.7073L27.3734 40.6902L34.4717 39.9936L40.4695 39.4145C40.6853 39.4295 40.867 39.5962 40.8883 39.8162C40.899 39.9359 40.8648 40.0513 40.7879 40.1453C40.711 40.2372 40.6042 40.2949 40.4845 40.3077L28.1447 41.5171L28.0165 41.5299L26.9995 41.6282L26.8114 41.6474L26.7003 41.6581L26.6212 41.6667L23.4033 41.9808C23.3542 41.9872 23.3093 42.015 23.2858 42.0577L20.5251 46.8162C20.0593 47.6197 20.0593 48.5791 20.523 49.3803C20.9888 50.1838 21.82 50.6645 22.7494 50.6645H51.3178C51.5657 50.6645 51.7687 50.8654 51.7687 51.1133C51.7687 51.3611 51.5657 51.562 51.3178 51.562H22.7494C21.4952 51.562 20.3712 50.9145 19.7452 49.8291C19.117 48.7457 19.117 47.4509 19.7473 46.3675L22.664 41.3376ZM25.0144 49.3803C25.0806 49.4936 25.1533 49.5983 25.2324 49.6987H24.164C23.6106 48.641 23.6341 47.4081 24.2388 46.3675L26.3969 42.6645H27.4375L25.0165 46.8162C24.5507 47.6197 24.5507 48.5791 25.0144 49.3803ZM26.1747 42.4338L23.9717 46.2137C23.2986 47.3739 23.2879 48.7564 23.9375 49.9252L23.9482 49.9444C23.9524 49.953 23.9589 49.9637 23.9631 49.9722C23.9653 49.9765 23.9674 49.9786 23.9695 49.9829C23.9695 49.985 23.9717 49.9872 23.9738 49.9893C24.008 50.0513 24.0465 50.1133 24.0871 50.1731C24.1042 50.1987 24.1212 50.2244 24.1383 50.2479C24.1618 50.2842 24.1875 50.3184 24.2131 50.3526C24.2153 50.3547 24.2153 50.3547 24.2153 50.3568H22.7494C21.9311 50.3568 21.2003 49.9338 20.79 49.2286C20.3819 48.5214 20.3819 47.6774 20.7922 46.9701L23.5123 42.2799L26.4311 41.9936L26.1747 42.4338ZM53.2024 50.6645C53.4503 50.6645 53.6533 50.8654 53.6533 51.1133C53.6533 51.3611 53.4503 51.562 53.2024 51.562H51.9268C52.0187 51.4359 52.0764 51.2821 52.0764 51.1133C52.0764 50.9444 52.0187 50.7906 51.9268 50.6645H53.2024ZM51.7559 52.8654C51.7644 52.8803 51.7794 52.9209 51.7495 52.9637L51.0507 53.938L50.961 54.0641L50.8691 54.188L50.1512 55.188L50.0593 55.3184L49.9631 55.4509L49.2836 56.3974C49.2195 56.4893 49.1362 56.5342 49.055 56.5491C49.0016 56.5577 48.9482 56.5556 48.899 56.5449C48.8777 56.5406 48.8584 56.5342 48.8392 56.5278C48.8114 56.515 48.7836 56.4979 48.7559 56.4786C48.6618 56.4103 48.5849 56.2927 48.6106 56.1261L48.711 55.4359L48.7623 55.0855L48.7772 54.9786L48.8007 54.8184L48.805 54.7949L48.8242 54.6581L49.0016 53.4402L49.0251 53.2863L49.0465 53.1325L49.0742 52.9509C49.0849 52.8718 49.1533 52.8141 49.2324 52.8141H51.6725C51.7238 52.8141 51.7495 52.8504 51.7559 52.8654ZM49.0294 58.6966C48.6212 58.6966 48.2324 58.6026 47.8883 58.4359C48.243 58.1774 48.5315 57.8419 48.7366 57.4637C48.8328 57.4829 48.9289 57.4936 49.0294 57.4936C49.8178 57.4936 50.4589 56.8547 50.4589 56.0684C50.4589 55.8547 50.4097 55.6538 50.3264 55.4722L51.0806 54.4209C51.446 54.8718 51.664 55.4444 51.664 56.0684C51.664 57.5171 50.4824 58.6966 49.0294 58.6966ZM46.9332 58.1239C46.4824 58.4808 45.914 58.6966 45.2943 58.6966C43.8413 58.6966 42.6597 57.5171 42.6597 56.0684C42.6597 54.735 43.6597 53.6303 44.9524 53.4637L44.7644 54.7457C44.2388 54.9551 43.8648 55.468 43.8648 56.0684C43.8648 56.8547 44.5059 57.4936 45.2943 57.4936C45.6747 57.4936 46.0208 57.344 46.2751 57.1004C46.2772 57.1004 46.2772 57.1004 46.2794 57.0983C46.32 57.0598 46.3584 57.0192 46.3947 56.9765C46.4353 56.9274 46.4717 56.8739 46.5059 56.8205C46.5059 56.8184 46.508 56.8184 46.508 56.8162C46.6426 56.5983 46.7238 56.344 46.7238 56.0684C46.7238 55.8547 46.6747 55.6538 46.5913 55.4722L47.3456 54.4209C47.5571 54.6838 47.7195 54.985 47.8178 55.3162C47.8392 55.3868 47.8584 55.4594 47.8734 55.5342C47.899 55.6538 47.9161 55.7756 47.9225 55.8996C47.9268 55.9551 47.9289 56.0107 47.9289 56.0684C47.9289 56.1239 47.9268 56.1795 47.9225 56.2372C47.9161 56.3611 47.899 56.4829 47.8734 56.6026C47.8584 56.6774 47.8392 56.7479 47.8178 56.8205C47.6918 57.2393 47.4653 57.6154 47.164 57.9188H47.1618C47.1255 57.9551 47.0892 57.9915 47.0507 58.0256C47.0123 58.0598 46.9738 58.0919 46.9332 58.1239ZM45.3114 53.1325L45.3392 52.9509C45.3499 52.8718 45.4183 52.8141 45.4952 52.8141H47.9375C47.9888 52.8141 48.0144 52.8504 48.0208 52.8654C48.0294 52.8803 48.0443 52.9209 48.0144 52.9637L47.6426 53.4808L47.6405 53.485L47.4076 53.8077V53.8098L47.3157 53.938L47.2238 54.0641L47.1341 54.188L46.4161 55.188L46.3584 55.2692L46.3221 55.3184L46.2281 55.4509L46.1277 55.5919L45.5486 56.3974C45.4225 56.5748 45.2302 56.5769 45.1042 56.5278C44.9781 56.4765 44.8435 56.3419 44.8734 56.1261L45.0422 54.9786L45.0892 54.6581L45.2665 53.4402L45.2901 53.2863L45.3114 53.1325ZM49.3734 51.8697V52.5064H49.2324C49.0016 52.5064 48.8029 52.6774 48.7687 52.906L48.7345 53.1474C48.5443 53.1667 48.3584 53.203 48.1811 53.2585L48.2644 53.141C48.352 53.0192 48.3648 52.859 48.2943 52.7244C48.2259 52.5897 48.0892 52.5064 47.9375 52.5064H47.7623V51.8697H49.3734ZM48.9866 56.8633C49.1982 56.8633 49.4012 56.7607 49.5336 56.5769L50.1106 55.7735C50.1362 55.8675 50.1512 55.9658 50.1512 56.0684C50.1512 56.6838 49.649 57.1859 49.0294 57.1859C48.9781 57.1859 48.9268 57.1816 48.8755 57.1752C48.9183 57.0727 48.9524 56.968 48.9824 56.8633C48.9845 56.8633 48.9845 56.8633 48.9866 56.8633ZM46.2901 56.5791C46.2901 56.5812 46.2901 56.5812 46.2901 56.5812C46.2559 56.6432 46.2174 56.7051 46.1725 56.7607C46.1725 56.7607 46.1725 56.7607 46.1704 56.7628C45.9653 57.0192 45.649 57.1859 45.2943 57.1859C44.6768 57.1859 44.1725 56.6838 44.1725 56.0684C44.1725 55.6645 44.3883 55.312 44.711 55.1154L44.57 56.0833C44.523 56.3996 44.6918 56.6923 44.9888 56.812C45.0764 56.8462 45.164 56.8633 45.2495 56.8633C45.4631 56.8633 45.6661 56.7607 45.7986 56.5769L46.0892 56.1709H46.0913L46.243 55.9573H46.2452L46.3755 55.7735C46.3862 55.8162 46.3947 55.8568 46.4012 55.8996C46.4012 55.9038 46.4012 55.906 46.4033 55.9081C46.4097 55.9594 46.4161 56.0128 46.4161 56.0684C46.4161 56.1261 46.4097 56.1816 46.4012 56.235C46.4012 56.2372 46.4012 56.2372 46.4012 56.2372C46.3819 56.359 46.3456 56.4744 46.2901 56.5791ZM48.555 54.3739C48.5037 54.3013 48.4482 54.2308 48.3905 54.1645L48.6341 53.8227L48.555 54.3739ZM45.946 51.8697H47.4546V52.5064H45.946V51.8697ZM30.3883 52.8654C30.3969 52.8803 30.4118 52.9209 30.3819 52.9637L29.6832 53.938L29.5913 54.0641L29.5016 54.1902L28.7836 55.188L28.6896 55.3184L28.5956 55.4509L27.9161 56.3974C27.8499 56.4893 27.7687 56.5321 27.6853 56.5491C27.6319 56.5577 27.5785 56.5556 27.5315 56.5449C27.5101 56.5406 27.4909 56.5342 27.4717 56.5256C27.4439 56.515 27.414 56.4979 27.3862 56.4786C27.2943 56.4103 27.2174 56.2927 27.2409 56.1261L27.3435 55.4359L27.3926 55.0855L27.4097 54.9786L27.4332 54.8184L27.4353 54.7949L27.4567 54.6581L27.6341 53.4402L27.6554 53.2863L27.6789 53.1325L27.7046 52.9509C27.7174 52.8718 27.7858 52.8141 27.8627 52.8141H30.305C30.3563 52.8141 30.3798 52.8504 30.3883 52.8654ZM27.6618 58.6966C27.2537 58.6966 26.8648 58.6026 26.5187 58.4359C26.8734 58.1774 27.1618 57.8419 27.3691 57.4637C27.4631 57.4829 27.5614 57.4936 27.6618 57.4936C28.4503 57.4936 29.0913 56.8547 29.0913 56.0684C29.0913 55.8547 29.0422 55.6538 28.9589 55.4722L29.7131 54.4209C30.0785 54.8718 30.2965 55.4444 30.2965 56.0684C30.2965 57.5171 29.1148 58.6966 27.6618 58.6966ZM25.5636 58.1239C25.1148 58.4808 24.5443 58.6966 23.9268 58.6966C22.4738 58.6966 21.2922 57.5171 21.2922 56.0684C21.2922 54.735 22.2922 53.6303 23.5828 53.4637L23.3969 54.7457C22.8712 54.9551 22.4973 55.468 22.4973 56.0684C22.4973 56.8547 23.1383 57.4936 23.9268 57.4936C24.3071 57.4936 24.6512 57.344 24.9076 57.1004C24.9097 57.1004 24.9097 57.1004 24.9097 57.0983C24.9503 57.0598 24.9909 57.0192 25.0272 56.9765C25.0678 56.9274 25.1042 56.8739 25.1383 56.8205C25.1383 56.8184 25.1383 56.8184 25.1405 56.8184C25.2751 56.5983 25.3563 56.344 25.3563 56.0684C25.3563 55.8547 25.3071 55.6538 25.2238 55.4722L25.9781 54.4209C26.1896 54.6838 26.352 54.985 26.4503 55.3162C26.4717 55.3868 26.4909 55.4594 26.5059 55.5342C26.5315 55.6538 26.5465 55.7756 26.555 55.8996C26.5593 55.9551 26.5614 56.0107 26.5614 56.0684C26.5614 56.1239 26.5593 56.1795 26.555 56.2372C26.5465 56.3611 26.5315 56.4829 26.5059 56.6026C26.4909 56.6752 26.4717 56.7479 26.4503 56.8205C26.3242 57.2393 26.0977 57.6154 25.7965 57.9188C25.7943 57.9188 25.7943 57.9188 25.7943 57.9188C25.758 57.9551 25.7217 57.9915 25.6832 58.0256C25.6447 58.0598 25.6063 58.0919 25.5657 58.1239C25.5657 58.1239 25.5657 58.1239 25.5636 58.1239ZM23.9439 53.1325L23.9695 52.9509C23.9802 52.8718 24.0486 52.8141 24.1277 52.8141H26.57C26.6212 52.8141 26.6447 52.8504 26.6533 52.8654C26.6618 52.8803 26.6768 52.9209 26.6469 52.9637L26.2751 53.4808L26.2708 53.485L26.04 53.8077L26.0379 53.8098L25.946 53.938L25.7665 54.1902L25.0486 55.188L24.9909 55.2692L24.9546 55.3184L24.8606 55.4509L24.7601 55.5919H24.758L24.1811 56.3974C24.055 56.5748 23.8627 56.5769 23.7366 56.5256C23.6106 56.4765 23.4738 56.3419 23.5059 56.1261L23.6747 54.9786L23.6982 54.8184L23.7195 54.6581L23.899 53.4402L23.9204 53.2863L23.9439 53.1325ZM28.0059 52.5064H27.8627C27.6319 52.5064 27.4332 52.6774 27.4012 52.906L27.3648 53.1474C27.1747 53.1667 26.9909 53.203 26.8136 53.2585L26.8969 53.141C26.9845 53.0192 26.9973 52.859 26.9268 52.7244C26.8584 52.5897 26.7195 52.5064 26.57 52.5064H26.3947V51.8697H28.0059V52.5064ZM27.617 56.8633C27.8306 56.8633 28.0336 56.7607 28.1661 56.5769L28.743 55.7735C28.7687 55.8675 28.7836 55.9658 28.7836 56.0684C28.7836 56.6838 28.2794 57.1859 27.6618 57.1859C27.6084 57.1859 27.5593 57.1816 27.508 57.1752C27.5486 57.0727 27.5849 56.968 27.6148 56.8633H27.617ZM24.9225 56.5791C24.9225 56.5812 24.9225 56.5812 24.9204 56.5812C24.8883 56.6453 24.8499 56.7051 24.805 56.7607L24.8029 56.7628C24.5977 57.0214 24.2815 57.1859 23.9268 57.1859C23.3071 57.1859 22.805 56.6838 22.805 56.0684C22.805 55.6645 23.0208 55.312 23.3435 55.1154L23.2003 56.0833C23.1554 56.3996 23.3242 56.6923 23.6212 56.812C23.7067 56.8462 23.7965 56.8633 23.8819 56.8633C24.0956 56.8633 24.2986 56.7607 24.4311 56.5769L24.7217 56.1709L24.8755 55.9573L25.0059 55.7735C25.0187 55.8162 25.0272 55.8568 25.0336 55.8996C25.0336 55.9017 25.0336 55.906 25.0336 55.9081C25.0422 55.9594 25.0465 56.0128 25.0465 56.0684C25.0465 56.1261 25.0422 56.1816 25.0336 56.2372C25.0144 56.359 24.9759 56.4744 24.9225 56.5791ZM27.1853 54.3739C27.1341 54.3013 27.0806 54.2308 27.023 54.1645L27.2665 53.8227L27.1853 54.3739ZM24.5785 51.8697H26.0871V52.5064H24.5785V51.8697ZM24.1084 27.0085L25.8285 33.1816L31.2238 32.9551L30.4759 27.0791L24.1084 27.0085ZM26.0614 32.8632L24.5144 27.3205L30.2046 27.3825L30.8755 32.6603L26.0614 32.8632ZM37.6212 32.6859L42.3264 32.4872L42.7644 27.2137L37.508 27.156L37.6212 32.6859ZM37.9225 32.3654L37.8221 27.4679L42.4311 27.5192L42.0422 32.1923L37.9225 32.3654ZM42.9332 32.4615L47.6212 32.265L48.4524 27.2778L43.3691 27.2222L42.9332 32.4615ZM48.0892 27.5812L47.3584 31.9679L43.2687 32.141L43.6533 27.5321L48.0892 27.5812ZM31.0849 27.0855L31.8306 32.9295L37.0187 32.7115L36.9033 27.1496L31.0849 27.0855ZM36.602 27.453L36.7046 32.4167L32.0999 32.609L31.4353 27.3974L36.602 27.453Z" fill="#19055B"/>
</g>
</svg>
