<svg width="71" height="71" viewBox="0 0 71 71" fill="none" xmlns="http://www.w3.org/2000/svg">
<mask id="mask0_1399_2618" style="mask-type:luminance" maskUnits="userSpaceOnUse" x="38" y="19" width="24" height="39">
<path d="M38.1191 19.0469H61.8867V57.7918H38.1191V19.0469Z" fill="white"/>
</mask>
<g mask="url(#mask0_1399_2618)">
<path fill-rule="evenodd" clip-rule="evenodd" d="M57.8301 57.6711H42.6469C40.4161 57.6711 38.6211 55.8731 38.6211 53.6422V49.6769C38.6211 49.1502 39.0237 48.7476 39.5504 48.7476C40.3858 44.2224 45.6527 19.0957 46.1491 19.0957H57.8301C60.0609 19.0957 61.8862 20.8937 61.8862 23.1246V53.6422C61.8862 55.8731 60.0609 57.6711 57.8301 57.6711Z" fill="#58A640"/>
</g>
<path fill-rule="evenodd" clip-rule="evenodd" d="M46.6123 20.6465C46.5821 20.7706 46.4882 23.7461 46.2097 24.8297C45.4681 28.0837 44.7841 31.3044 44.0727 34.528C43.4522 37.4702 42.8347 40.4124 42.2142 43.3879C41.8116 45.3403 41.4696 47.8799 40.8188 49.7384H40.168V53.6432C40.168 55.0053 41.2849 56.1223 42.647 56.1223H57.8302C59.1923 56.1223 60.3062 55.0053 60.3062 53.6432V23.1256C60.3062 21.7634 59.1923 20.6465 57.8302 20.6465H46.6123Z" fill="white"/>
<mask id="mask1_1399_2618" style="mask-type:luminance" maskUnits="userSpaceOnUse" x="9" y="19" width="24" height="39">
<path d="M9 19.0469H32.6949V57.7918H9V19.0469Z" fill="white"/>
</mask>
<g mask="url(#mask1_1399_2618)">
<path fill-rule="evenodd" clip-rule="evenodd" d="M28.209 57.6711H13.0289C10.798 57.6711 9 55.8731 9 53.6422V23.1246C9 20.8937 10.798 19.0957 13.0289 19.0957H24.7401C25.2063 19.0957 30.2552 43.1387 31.3721 48.7476C31.8655 48.7476 32.2681 49.1805 32.2681 49.6769V53.6422C32.2681 55.8731 30.4398 57.6711 28.209 57.6711Z" fill="#E04535"/>
</g>
<path fill-rule="evenodd" clip-rule="evenodd" d="M30.7214 50.2984L30.0706 50.2651L29.8224 49.0574C28.8931 44.2869 27.87 39.5164 26.8469 34.7763C26.1355 31.492 25.4212 28.2078 24.6796 24.9236C24.4011 23.7461 24.1529 22.5989 23.8411 21.4214C23.7806 21.2034 23.717 20.925 23.6565 20.6465H13.0289C11.6667 20.6465 10.5498 21.7634 10.5498 23.1256V53.6432C10.5498 55.0053 11.6667 56.1223 13.0289 56.1223H28.209C29.6044 56.1223 30.7214 55.0053 30.7214 53.6432V50.2984Z" fill="white"/>
<path fill-rule="evenodd" clip-rule="evenodd" d="M16.7795 41.3737C16.5919 41.3737 16.3769 41.3102 16.2195 41.2193C15.9713 41.0317 15.8503 40.7532 15.8503 40.4445V35.5469L12.9686 31.6149C12.7809 31.3666 12.7507 31.0549 12.8445 30.7764C12.9353 30.4979 13.1533 30.28 13.4317 30.1892L18.1114 28.6999L20.9597 24.7346C21.1171 24.4864 21.3956 24.332 21.7044 24.332C22.0131 24.332 22.2946 24.4864 22.449 24.7346L25.485 28.9481C25.7938 29.3507 25.6999 29.941 25.2671 30.2497L25.6091 40.1327C25.4548 40.5988 24.9281 40.8773 24.4619 40.7229L21.7044 39.7937L17.058 41.3404C16.9642 41.3737 16.8703 41.3737 16.7795 41.3737Z" fill="#F5B909"/>
<path fill-rule="evenodd" clip-rule="evenodd" d="M24.74 47.7531H13.1832C12.6898 47.7531 12.2539 47.3202 12.2539 46.8238C12.2539 46.2971 12.6898 45.8945 13.1832 45.8945H24.74C25.2667 45.8945 25.6693 46.2971 25.6693 46.8238C25.6693 47.3202 25.2667 47.7531 24.74 47.7531Z" fill="#E8E8E8"/>
<path fill-rule="evenodd" clip-rule="evenodd" d="M28.0878 52.7433H13.1832C12.6898 52.7433 12.2539 52.3407 12.2539 51.814C12.2539 51.3176 12.6898 50.8848 13.1832 50.8848H28.0878C28.6145 50.8848 29.0171 51.3176 29.0171 51.814C29.0171 52.3407 28.6145 52.7433 28.0878 52.7433Z" fill="#E8E8E8"/>
<path fill-rule="evenodd" clip-rule="evenodd" d="M50.2996 42.3033C50.0544 42.3033 49.8365 42.2095 49.6488 42.0551C48.1928 40.693 46.7066 39.2673 45.4353 37.8719C45.0963 37.4693 45.1265 36.8821 45.5291 36.54L45.2204 28.113C45.1568 27.6166 45.4988 27.1202 45.9953 27.0597C46.2435 27.0294 46.4584 26.9961 46.7066 26.9961C48.4743 26.9961 49.5277 27.7407 50.2996 28.7003C51.0745 27.7407 52.1279 26.9961 53.8956 26.9961C56.3747 26.9961 58.3876 28.9182 58.3876 31.3034C58.3876 35.0538 54.6069 38.6165 50.9201 42.0551C50.7657 42.2095 50.5175 42.3033 50.2996 42.3033Z" fill="#E04535"/>
<path fill-rule="evenodd" clip-rule="evenodd" d="M57.6726 47.7531H46.149C45.6223 47.7531 45.2197 47.3202 45.2197 46.8238C45.2197 46.2971 45.6223 45.8945 46.149 45.8945H57.7059C58.1993 45.8945 58.6351 46.2971 58.6351 46.8238C58.6351 47.3202 58.1993 47.7531 57.6726 47.7531Z" fill="#E8E8E8"/>
<path fill-rule="evenodd" clip-rule="evenodd" d="M57.6727 52.7433H42.8013C42.2747 52.7433 41.8721 52.3407 41.8721 51.814C41.8721 51.3176 42.2747 50.8848 42.8013 50.8848H57.706C58.1994 50.8848 58.6353 51.3176 58.6353 51.814C58.6353 52.3407 58.1994 52.7433 57.6727 52.7433Z" fill="#E8E8E8"/>
<path fill-rule="evenodd" clip-rule="evenodd" d="M43.0195 50.6056H27.8394C25.6086 50.6056 23.8105 48.7774 23.8105 46.5768V16.0591C23.8105 13.8283 25.6086 12 27.8394 12H43.0195C45.2504 12 47.0787 13.8283 47.0787 16.0591V46.5768C47.0787 48.8076 45.2504 50.6056 43.0195 50.6056Z" fill="#3286F3"/>
<path fill-rule="evenodd" clip-rule="evenodd" d="M43.0195 49.0559C44.3817 49.0559 45.4986 47.9419 45.4986 46.5768V16.0591C45.4986 14.697 44.3817 13.5801 43.0195 13.5801H27.8394C26.4743 13.5801 25.3604 14.697 25.3604 16.0591V46.5768C25.3604 47.9419 26.4743 49.0559 27.8394 49.0559H43.0195Z" fill="white"/>
<path fill-rule="evenodd" clip-rule="evenodd" d="M34.4992 34.8965C33.7576 34.7421 33.0433 34.3698 32.456 33.8128C31.5873 33.0077 31.0909 31.8938 31.0304 30.7163C31.0304 30.1896 31.4329 29.7537 31.9294 29.7537C32.456 29.7234 32.8889 30.126 32.8889 30.6527C32.9192 31.3338 33.1977 31.9846 33.7243 32.4507C34.2208 32.9138 34.9018 33.162 35.5859 33.162C36.267 33.1318 36.9178 32.8533 37.3809 32.3266C37.8773 31.8302 38.1255 31.1794 38.0952 30.4681C38.0619 29.787 37.7835 29.1362 37.2568 28.6701C36.7604 28.2069 36.1126 27.9587 35.3982 27.9587C32.9192 27.9587 30.9365 25.9761 30.9365 23.497C30.9365 21.36 32.456 19.562 34.4992 19.1291V18.0758C34.4992 17.5793 34.9351 17.1465 35.4285 17.1465C35.9552 17.1465 36.3578 17.5793 36.3578 18.0758V19.1594C38.3435 19.6225 39.8297 21.3903 39.8297 23.497C39.8297 24.0237 39.4271 24.4263 38.9004 24.4263C38.404 24.4263 37.9711 24.0237 37.9711 23.497C37.9711 22.1016 36.8542 20.9544 35.4285 20.9241H35.3982C33.9423 20.9241 32.7951 22.0713 32.7951 23.497C32.7951 24.953 33.9423 26.1002 35.3982 26.1002C36.5454 26.0669 37.6927 26.5028 38.5584 27.3079C39.4271 28.1131 39.9235 29.227 39.9538 30.4045C39.9841 31.6153 39.5512 32.7292 38.746 33.5979C38.0952 34.3093 37.287 34.7421 36.3578 34.9298V35.9832C36.3578 36.4765 35.9552 36.9124 35.4285 36.9124C34.9351 36.9124 34.4992 36.4765 34.4992 35.9832V34.8965Z" fill="#F18E16"/>
<path fill-rule="evenodd" clip-rule="evenodd" d="M42.8963 40.4738H27.9644C27.468 40.4738 27.0352 40.0712 27.0352 39.5445C27.0352 39.0481 27.468 38.6152 27.9644 38.6152H42.8963C43.423 38.6152 43.8256 39.0481 43.8256 39.5445C43.8256 40.0712 43.423 40.4738 42.8963 40.4738Z" fill="#E8E8E8"/>
<path fill-rule="evenodd" clip-rule="evenodd" d="M42.8963 45.464H27.9644C27.468 45.464 27.0352 45.0614 27.0352 44.5347C27.0352 44.0081 27.468 43.6055 27.9644 43.6055H42.8963C43.423 43.6055 43.8256 44.0081 43.8256 44.5347C43.8256 45.0614 43.423 45.464 42.8963 45.464Z" fill="#E8E8E8"/>
</svg>
