<svg width="71" height="71" viewBox="0 0 71 71" fill="none" xmlns="http://www.w3.org/2000/svg">
<path fill-rule="evenodd" clip-rule="evenodd" d="M12.4844 42.631H33.3594C33.5234 42.6272 33.6602 42.6847 33.7773 42.7997C33.8945 42.9147 33.9531 43.0528 33.9531 43.2176V46.4841C33.9531 46.649 33.8945 46.787 33.7773 46.902C33.6602 47.0132 33.5234 47.0707 33.3594 47.0707H12.4844C12.3203 47.0707 12.1797 47.0132 12.0664 46.8982C11.9531 46.7832 11.8945 46.6451 11.8945 46.4841V43.2176C11.8945 43.0528 11.9531 42.9147 12.0664 42.8036C12.1797 42.6885 12.3203 42.631 12.4844 42.631Z" fill="#3F5163"/>
<path fill-rule="evenodd" clip-rule="evenodd" d="M16.0195 57.2227H19.3281V60.7575C19.3242 60.8994 19.2734 61.0221 19.1719 61.1217C19.0703 61.2253 18.9492 61.2751 18.8047 61.2751H16.543C16.3984 61.2751 16.2773 61.2253 16.1758 61.1217C16.0742 61.0221 16.0195 60.8994 16.0195 60.7575V57.2227ZM26.5195 57.2227H29.8242V60.7575C29.8242 60.8994 29.7734 61.0221 29.6719 61.1217C29.5703 61.2253 29.4453 61.2751 29.3008 61.2751H27.043C26.8984 61.2751 26.7734 61.2253 26.6719 61.1217C26.5703 61.0221 26.5195 60.8994 26.5195 60.7575V57.2227Z" fill="#3F5163"/>
<path fill-rule="evenodd" clip-rule="evenodd" d="M16.2417 37.5391H29.6011C30.6089 37.5391 31.3589 38.4017 31.4604 39.4752C32.0112 45.4254 32.1558 51.3872 31.894 57.3566C31.8745 57.8051 31.7612 58.1962 31.4643 58.5221C31.1831 58.8479 30.8237 59.0128 30.3901 59.009H15.4565C15.019 59.0128 14.6597 58.8479 14.3745 58.5221C14.0815 58.1962 13.9683 57.8051 13.9487 57.3566C13.687 51.3872 13.8315 45.4254 14.3823 39.4752C14.4839 38.4017 15.2339 37.5391 16.2417 37.5391Z" fill="#FFAB02"/>
<path fill-rule="evenodd" clip-rule="evenodd" d="M32.0156 50.6359H13.8281C13.8516 47.3617 13.9883 44.0684 14.2695 40.7559H31.5742C31.8555 44.0684 31.9961 47.3617 32.0156 50.6359Z" fill="#D5E3F2"/>
<path fill-rule="evenodd" clip-rule="evenodd" d="M22.9219 50.6359H13.8281C13.8516 47.3617 13.9883 44.0684 14.2695 40.7559H22.9219V50.6359Z" fill="#B7CFE8"/>
<path fill-rule="evenodd" clip-rule="evenodd" d="M16.8008 53.6089C17.2969 53.4287 17.8125 53.4785 18.3125 53.6357C19.0508 53.8619 20.4961 55.0849 19.9844 55.8287C19.4727 56.5725 13.8555 54.6823 16.8008 53.6089ZM29.0469 53.6089C28.5508 53.4287 28.0313 53.4785 27.5352 53.6357C26.793 53.8619 25.3477 55.0849 25.8594 55.8287C26.375 56.5725 31.9883 54.6823 29.0469 53.6089Z" fill="#FF3D50"/>
<path d="M46.4062 50.0212L40.3398 61.2737H37.7656L44.1797 49.3848L46.4062 50.0212Z" fill="#334454"/>
<path d="M49.5898 50.0212L55.6562 61.2737H58.2305L51.8203 49.3848L49.5898 50.0212Z" fill="#334454"/>
<path fill-rule="evenodd" clip-rule="evenodd" d="M38.1211 42.0549V48.5956C38.1211 48.9061 38.1523 49.209 38.2148 49.5119C38.2734 49.8147 38.3633 50.1061 38.4844 50.3898C38.6016 50.6774 38.7461 50.9457 38.9219 51.2026C39.0938 51.4595 39.2891 51.6972 39.5078 51.9119C39.7266 52.1304 39.9648 52.326 40.2227 52.4985C40.4805 52.6672 40.7539 52.8129 41.0391 52.9317C41.3242 53.0506 41.6211 53.1387 41.9219 53.2001C42.2266 53.2614 42.5352 53.2921 42.8438 53.2921H53.1523C53.4648 53.2921 53.7695 53.2614 54.0742 53.2001C54.3789 53.1387 54.6719 53.0506 54.9609 52.9317C55.2461 52.8129 55.5156 52.6672 55.7734 52.4985C56.0312 52.326 56.2695 52.1304 56.4883 51.9119C56.707 51.6972 56.9023 51.4595 57.0781 51.2026C57.25 50.9457 57.3945 50.6774 57.5117 50.3898C57.6328 50.1061 57.7227 49.8147 57.7812 49.5119C57.8438 49.209 57.875 48.9061 57.875 48.5956V42.0549C57.875 41.683 57.8555 41.315 57.8164 40.9469L57.082 34.3104C57.0273 33.7813 56.875 33.2829 56.6328 32.8113C56.3906 32.3398 56.0703 31.9257 55.6719 31.5692C55.2773 31.2164 54.8281 30.9442 54.3281 30.7564C53.832 30.5685 53.3164 30.4727 52.7812 30.4727H43.2148C42.6836 30.4727 42.168 30.5647 41.668 30.7564C41.168 30.9442 40.7227 31.2164 40.3242 31.5692C39.9258 31.9257 39.6055 32.3359 39.3633 32.8113C39.1211 33.2829 38.9727 33.7813 38.9141 34.3104L38.1836 40.9469C38.1406 41.315 38.1211 41.683 38.1211 42.0549Z" fill="#FF3D50"/>
<path fill-rule="evenodd" clip-rule="evenodd" d="M41.6562 34.3184H54.3398C54.4727 34.3184 54.5859 34.3644 54.6797 34.4602C54.7695 34.5522 54.8164 34.6634 54.8203 34.7938V41.1044C54.8164 41.2386 54.7695 41.3498 54.6797 41.4418C54.5859 41.5338 54.4727 41.5798 54.3398 41.5798H41.6562C41.5273 41.5798 41.4141 41.5338 41.3203 41.4418C41.2266 41.3498 41.1797 41.2386 41.1797 41.1044V34.7938C41.1797 34.6634 41.2266 34.5522 41.3203 34.4602C41.4141 34.3644 41.5273 34.3184 41.6562 34.3184Z" fill="#69A7FF"/>
<path fill-rule="evenodd" clip-rule="evenodd" d="M41.6562 34.3184H48V41.5798H41.6562C41.5273 41.5798 41.4141 41.5338 41.3203 41.4418C41.2266 41.3498 41.1797 41.2386 41.1797 41.1044V34.7938C41.1797 34.6634 41.2266 34.5522 41.3203 34.4602C41.4141 34.3644 41.5273 34.3184 41.6562 34.3184Z" fill="#5F96E6"/>
<path fill-rule="evenodd" clip-rule="evenodd" d="M40.8945 46.0957C41.4102 45.9078 41.9453 45.9615 42.4649 46.1225C43.2305 46.3564 44.7344 47.6293 44.2031 48.3999C43.668 49.1705 37.8399 47.2075 40.8945 46.0957Z" fill="#D5E3F2"/>
<path fill-rule="evenodd" clip-rule="evenodd" d="M55.1016 46.0957C54.5899 45.9078 54.0508 45.9615 53.5352 46.1225C52.7657 46.3564 51.2657 47.6293 51.7969 48.3999C52.3282 49.1705 58.1602 47.2075 55.1016 46.0957Z" fill="#D5E3F2"/>
<path fill-rule="evenodd" clip-rule="evenodd" d="M46.25 50.3556H49.7461C50.0078 50.3518 50.2422 50.4285 50.4492 50.5818C50.6563 50.739 50.7969 50.9384 50.8672 51.1876L51.4961 53.2924H44.5L45.1289 51.1876C45.1992 50.9384 45.3398 50.739 45.5508 50.5818C45.7578 50.4285 45.9922 50.3518 46.25 50.3556Z" fill="#3F5163"/>
<path fill-rule="evenodd" clip-rule="evenodd" d="M31.0166 22.2577L21.5166 9.72461L24.7588 9.72844C25.0166 9.72078 25.2666 9.75145 25.5166 9.82046C25.9463 9.93548 26.3291 10.1425 26.6572 10.4416L40.1689 22.2577H31.0166Z" fill="#69A7FF"/>
<path fill-rule="evenodd" clip-rule="evenodd" d="M11.7734 15.0176L13.5547 18.8553V21.4202C16.0313 22.8656 18.9766 24.1001 21.8945 24.1001H48.418C50.6758 24.0963 50.0781 21.6081 48.5195 20.6074L46.4922 19.3077C46.0156 18.9972 45.4961 18.8438 44.9297 18.8515L20.2227 18.8553L15.0391 15.0176H11.7734Z" fill="#D5E3F2"/>
<path fill-rule="evenodd" clip-rule="evenodd" d="M11.7734 15.0176L13.5547 18.8553H20.2227L15.0391 15.0176H11.7734Z" fill="#3F5163"/>
<path fill-rule="evenodd" clip-rule="evenodd" d="M48.8359 20.8455C48.7344 20.7611 48.6289 20.6806 48.5195 20.6078L46.4922 19.3081C46.0156 18.9975 45.4961 18.8442 44.9297 18.8518H41.4297L44.5 20.8455H48.8359Z" fill="#3F5163"/>
<path fill-rule="evenodd" clip-rule="evenodd" d="M31.0156 22.2578L21.5117 34.7909H24.7578C25.4844 34.8024 26.1172 34.5647 26.6562 34.0778L40.168 22.2578H31.0156Z" fill="#69A7FF"/>
<path fill-rule="evenodd" clip-rule="evenodd" d="M14.3555 18.008L12.9648 15.0176H11.7734L13.5547 18.8553H14.3555V18.008Z" fill="#334454"/>
<path fill-rule="evenodd" clip-rule="evenodd" d="M14.3555 18.8574H13.5547V21.4223C16.0313 22.8677 18.9766 24.1022 21.8945 24.1022H29.6172L30.2578 23.2588H22.6914C19.7773 23.2549 16.832 22.0204 14.3555 20.575V18.8574Z" fill="#B7CFE8"/>
<path fill-rule="evenodd" clip-rule="evenodd" d="M39.0273 23.258L38.0625 24.1015H48.418C49.3203 24.1015 49.7656 23.7066 49.875 23.166C49.6602 23.2274 49.4414 23.258 49.2188 23.258H39.0273Z" fill="#B7CFE8"/>
<path fill-rule="evenodd" clip-rule="evenodd" d="M23.3438 34.7909L31.4453 24.1019L31.8633 23.5498H38.6914L39.0273 23.2585L40.168 22.2578H31.0156L30.2578 23.2585L29.6172 24.1019L21.5117 34.7909H23.3438Z" fill="#5F96E6"/>
<path fill-rule="evenodd" clip-rule="evenodd" d="M29.5049 18.857L23.04 10.3265L26.2822 10.3304C26.3643 10.3265 26.4502 10.3265 26.5361 10.3342C26.2354 10.0927 25.8916 9.92014 25.5166 9.82046C25.2666 9.75145 25.0127 9.72078 24.7588 9.72844L21.5166 9.72461L28.4346 18.857H29.5049Z" fill="#5F96E6"/>
<path fill-rule="evenodd" clip-rule="evenodd" d="M14.918 50.6367H13.8282C13.8165 52.8834 13.8555 55.1262 13.9493 57.3576C13.9688 57.8061 14.0821 58.201 14.3751 58.5231C14.6602 58.849 15.0196 59.0138 15.4571 59.01H16.5469C16.3634 59.01 16.1876 58.9793 16.0196 58.9103C15.8048 58.826 15.6212 58.6956 15.4688 58.5231C15.1719 58.201 15.0587 57.8061 15.0391 57.3576C14.9493 55.1224 14.9102 52.8834 14.918 50.6367Z" fill="#ED9E00"/>
<path fill-rule="evenodd" clip-rule="evenodd" d="M14.2695 40.7557H15.3594C15.3945 40.3302 15.4336 39.9046 15.4727 39.4752C15.5742 38.4055 16.3281 37.5391 17.332 37.5391H16.2422C15.2344 37.5391 14.4844 38.4055 14.3828 39.4752C14.3438 39.9046 14.3047 40.3302 14.2695 40.7557Z" fill="#ED9E00"/>
<path fill-rule="evenodd" clip-rule="evenodd" d="M16.7656 60.0833V59.0098H16.0195V60.758C16.0195 60.8999 16.0742 61.0226 16.1758 61.1223C16.2773 61.2258 16.3984 61.2756 16.543 61.2756H18.8047C18.9492 61.2756 19.0703 61.2258 19.1719 61.1223C19.2734 61.0226 19.3242 60.8999 19.3281 60.758V60.6008H17.2852C17.1406 60.6008 17.0195 60.5472 16.918 60.4475C16.8164 60.3478 16.7656 60.2251 16.7656 60.0833Z" fill="#334454"/>
<path fill-rule="evenodd" clip-rule="evenodd" d="M26.5195 59.0098V60.758C26.5195 60.8999 26.5703 61.0226 26.6719 61.1223C26.7734 61.2258 26.8984 61.2756 27.043 61.2756H29.3008C29.4453 61.2756 29.5703 61.2258 29.6719 61.1223C29.7734 61.0226 29.8242 60.8999 29.8242 60.758V60.6008H27.7852C27.6406 60.6008 27.5195 60.551 27.418 60.4475C27.3125 60.3478 27.2617 60.2251 27.2617 60.0833V59.0098H26.5195Z" fill="#334454"/>
<path fill-rule="evenodd" clip-rule="evenodd" d="M39.2969 48.5956V42.0549C39.2969 41.683 39.3164 41.315 39.3594 40.9469L40.0898 34.3104C40.1484 33.7813 40.2969 33.2829 40.5391 32.8113C40.7813 32.3359 41.1016 31.9257 41.5 31.5692C41.8984 31.2164 42.3477 30.9442 42.8438 30.7564C43.3438 30.5647 43.8594 30.4727 44.3945 30.4727H43.2148C42.6836 30.4727 42.168 30.5647 41.668 30.7564C41.168 30.9442 40.7227 31.2164 40.3242 31.5692C39.9258 31.9257 39.6055 32.3359 39.3633 32.8113C39.1211 33.2829 38.9727 33.7813 38.9141 34.3104L38.1836 40.9469C38.1406 41.315 38.1211 41.683 38.1211 42.0549V48.5956C38.1211 48.9061 38.1523 49.209 38.2109 49.5119C38.2734 49.8147 38.3633 50.11 38.4805 50.3937C38.6016 50.6774 38.7461 50.9496 38.918 51.2026C39.0898 51.4595 39.2852 51.6972 39.5039 51.9157C39.7227 52.1343 39.9648 52.3298 40.2227 52.4985C40.4805 52.671 40.75 52.8167 41.0391 52.9317C41.3242 53.0506 41.6172 53.1387 41.9219 53.2001C42.2266 53.2614 42.5352 53.2921 42.8438 53.2921H44.0195C43.7109 53.2921 43.4023 53.2614 43.0977 53.2001C42.793 53.1387 42.5 53.0506 42.2109 52.9317C41.9258 52.8167 41.6523 52.671 41.3945 52.4985C41.1406 52.326 40.8984 52.1343 40.6797 51.9157C40.4609 51.6972 40.2656 51.4595 40.0938 51.2026C39.9219 50.9496 39.7773 50.6774 39.6563 50.3937C39.5391 50.1061 39.4492 49.8147 39.3906 49.5119C39.3281 49.209 39.2969 48.9061 39.2969 48.5956Z" fill="#E82E41"/>
</svg>
