<svg width="71" height="71" viewBox="0 0 71 71" fill="none" xmlns="http://www.w3.org/2000/svg">
<mask id="mask0_1399_897" style="mask-type:luminance" maskUnits="userSpaceOnUse" x="23" y="7" width="40" height="45">
<path d="M23.7393 7H62.9996V51.9872H23.7393V7Z" fill="white"/>
</mask>
<g mask="url(#mask0_1399_897)">
<path d="M41.812 50.7727L24.8495 40.2191C24.2361 39.8357 24.0464 39.0245 24.4298 38.407L43.4304 7.8075C43.8138 7.19002 44.621 7.00034 45.2384 7.38374L62.2009 17.9414C62.8144 18.3248 63.0041 19.136 62.6207 19.7495L43.6201 50.353C43.2367 50.9664 42.4295 51.1561 41.812 50.7727Z" fill="#E6E7E8"/>
</g>
<path d="M41.8559 50.8016L40.8994 50.2043L61.2843 17.373L62.2408 17.9703C62.834 18.3376 63.0156 19.1165 62.6484 19.7098L43.5913 50.394C43.224 50.9873 42.4492 51.1689 41.8559 50.8016Z" fill="#F5CC23"/>
<path d="M33.9627 62.7919L17.5611 52.5813C16.7943 52.101 16.5562 51.088 17.0365 50.3172L22.9893 40.7281C23.4696 39.9573 24.4826 39.7191 25.2494 40.1994L41.6509 50.41C42.4217 50.8862 42.6598 51.8992 42.1796 52.6741L36.2268 62.2632C35.7465 63.034 34.7335 63.2681 33.9627 62.7919Z" fill="#E6E7E8"/>
<path d="M33.9547 62.783L33.3291 62.3955L41.0173 50.0137L41.9698 50.6029C42.563 50.9742 42.7487 51.7571 42.3774 52.3544L36.2349 62.2502C35.7506 63.0251 34.7295 63.2673 33.9547 62.783Z" fill="#F5CC23"/>
<path d="M54.4442 17.8032C56.1432 17.0889 55.0213 16.2373 54.089 16.3261C53.3383 16.3907 52.5958 16.4794 51.8491 16.5642C51.7644 16.5763 51.7038 16.5602 51.6433 16.4996C51.5989 16.4552 51.1308 16.0355 50.5657 15.527L50.7796 15.297C50.929 15.1355 50.9209 14.8853 50.7595 14.736C50.6021 14.5866 50.3478 14.5947 50.1985 14.7521L49.9765 14.9943C49.9079 14.9337 49.8433 14.8732 49.7747 14.8127L50.0048 14.5705C50.1541 14.4091 50.146 14.1589 49.9846 14.0095C49.8232 13.8562 49.5729 13.8642 49.4236 14.0257L49.1855 14.2799C48.8102 13.945 48.5236 13.6867 48.451 13.6221C48.3097 13.497 48.2048 13.4526 48.003 13.4808C47.9344 13.4929 47.2927 13.5938 47.0183 13.6342C47.8012 14.8207 48.5761 15.9911 49.351 17.1655C49.3267 17.1776 46.9416 17.9848 45.7591 18.3763C45.7228 18.3884 45.6582 18.3722 45.6259 18.344C45.2788 18.0332 44.9358 17.7144 44.5887 17.4036C44.5645 17.3794 44.5282 17.3512 44.4999 17.3592C44.3304 17.3915 44.1649 17.4319 44.0156 17.4682C44.4192 18.1624 44.96 19.1189 44.96 19.1189C44.96 19.1189 44.9196 20.5072 44.8954 21.2457C45.0326 21.2134 45.182 21.1812 45.3313 21.1327C45.3717 21.1206 45.4241 21.0762 45.4403 21.0318C45.6138 20.6081 45.7793 20.1803 45.9447 19.7484C45.969 19.6758 46.0053 19.6516 46.0779 19.6435C46.651 19.5668 49.129 19.2278 49.8151 19.135C49.6335 20.5475 49.4599 21.9399 49.2824 23.3484C49.6496 23.2314 49.9886 23.1183 50.3317 23.0134C50.4326 22.9852 50.485 22.9367 50.5213 22.8358C50.5738 22.6986 50.8482 22.0125 51.159 21.2377L51.6594 21.383C51.8733 21.4475 52.0913 21.3264 52.1559 21.1126C52.2164 20.9027 52.0953 20.6807 51.8855 20.6202L51.4536 20.4951C51.4899 20.4103 51.5222 20.3256 51.5545 20.2449L51.9581 20.3619C52.168 20.4224 52.3899 20.3014 52.4505 20.0915C52.515 19.8816 52.394 19.6597 52.1801 19.5991L51.8532 19.5023C52.0106 19.1068 52.1357 18.8 52.1841 18.683C52.2002 18.6386 52.2567 18.6023 52.3052 18.5861C53.0155 18.3238 53.7419 18.0938 54.4442 17.8032Z" fill="#58595B"/>
<path fill-rule="evenodd" clip-rule="evenodd" d="M50.9166 29.2331L50.1902 28.7852L40.0078 45.1826L40.7302 45.6347L50.9166 29.2331Z" fill="#58595B"/>
<path fill-rule="evenodd" clip-rule="evenodd" d="M48.9555 28.0145L48.229 27.5625L43.7412 34.7866L44.4677 35.2386L48.9555 28.0145Z" fill="#58595B"/>
<path fill-rule="evenodd" clip-rule="evenodd" d="M39.1441 21.909L38.4217 21.457L30.6084 34.0407L31.3308 34.4927L39.1441 21.909Z" fill="#58595B"/>
<path fill-rule="evenodd" clip-rule="evenodd" d="M61.7447 19.8471L60.8932 19.3184L56.373 26.599L57.2246 27.1276L61.7447 19.8471Z" fill="#24AAE1"/>
<path d="M26.5807 41.3454C26.5565 41.3454 26.5363 41.3414 26.5161 41.3253L25.709 40.8248C25.6484 40.7885 25.6323 40.7118 25.6686 40.6553C25.7049 40.5988 25.7776 40.5827 25.8381 40.619L26.6453 41.1194C26.7018 41.1558 26.7179 41.2324 26.6816 41.2889C26.6574 41.3253 26.6211 41.3454 26.5807 41.3454ZM28.191 42.3504C28.1708 42.3504 28.1466 42.3423 28.1305 42.3302L27.3233 41.8297C27.2628 41.7934 27.2466 41.7167 27.2829 41.6602C27.3193 41.6037 27.3919 41.5876 27.4484 41.6199L28.2556 42.1244C28.3161 42.1607 28.3323 42.2333 28.2959 42.2939C28.2717 42.3302 28.2354 42.3504 28.191 42.3504ZM29.8053 43.3553C29.7851 43.3553 29.7609 43.3472 29.7408 43.3351L28.9336 42.8347C28.8771 42.7983 28.8609 42.7217 28.8973 42.6652C28.9336 42.6087 29.0062 42.5925 29.0627 42.6248L29.8699 43.1293C29.9304 43.1656 29.9466 43.2382 29.9103 43.2988C29.886 43.3351 29.8497 43.3553 29.8053 43.3553ZM31.4197 44.3602C31.3995 44.3602 31.3753 44.3521 31.3551 44.34L30.5479 43.8396C30.4914 43.8033 30.4753 43.7266 30.5116 43.6701C30.5479 43.6136 30.6206 43.5934 30.6771 43.6297L31.4842 44.1342C31.5448 44.1705 31.5609 44.2432 31.5246 44.2997C31.5004 44.34 31.46 44.3602 31.4197 44.3602ZM33.034 45.3651C33.0138 45.3651 32.9896 45.357 32.9694 45.3449L32.1622 44.8445C32.1057 44.8082 32.0896 44.7315 32.1259 44.675C32.1582 44.6185 32.2349 44.5983 32.2914 44.6346L33.0985 45.1391C33.155 45.1714 33.1752 45.2481 33.1389 45.3046C33.1147 45.3449 33.0743 45.3651 33.034 45.3651ZM34.6483 46.37C34.6281 46.37 34.6039 46.362 34.5837 46.3499L33.7766 45.8494C33.7201 45.8131 33.7039 45.7364 33.7402 45.6799C33.7725 45.6234 33.8492 45.6032 33.9057 45.6395L34.7129 46.144C34.7694 46.1763 34.7895 46.253 34.7532 46.3095C34.729 46.3499 34.6887 46.37 34.6483 46.37ZM36.2626 47.3749C36.2424 47.3749 36.2182 47.3669 36.198 47.3548L35.3909 46.8503C35.3344 46.818 35.3182 46.7413 35.3546 46.6848C35.3868 46.6283 35.4635 46.6081 35.52 46.6445L36.3272 47.1449C36.3837 47.1812 36.4039 47.2579 36.3676 47.3144C36.3433 47.3507 36.303 47.3749 36.2626 47.3749ZM37.8769 48.3758C37.8568 48.3758 37.8325 48.3718 37.8124 48.3597L37.0052 47.8552C36.9487 47.8229 36.9326 47.7462 36.9649 47.6897C37.0012 47.6292 37.0779 47.6131 37.1344 47.6494L37.9415 48.1498C37.998 48.1861 38.0182 48.2628 37.9819 48.3193C37.9577 48.3556 37.9173 48.3758 37.8769 48.3758ZM39.4913 49.3807C39.4711 49.3807 39.4469 49.3767 39.4267 49.3646L38.6195 48.8601C38.563 48.8238 38.5469 48.7512 38.5792 48.6947C38.6155 48.6341 38.6922 48.618 38.7487 48.6543L39.5558 49.1547C39.6123 49.1911 39.6325 49.2677 39.5962 49.3242C39.572 49.3606 39.5316 49.3807 39.4913 49.3807ZM41.1056 50.3857C41.0854 50.3857 41.0612 50.3816 41.041 50.3695L40.2339 49.865C40.1774 49.8287 40.1612 49.7561 40.1935 49.6996C40.2298 49.639 40.3065 49.6229 40.363 49.6592L41.1702 50.1597C41.2267 50.196 41.2468 50.2727 41.2105 50.3292C41.1863 50.3655 41.1459 50.3857 41.1056 50.3857Z" fill="#58595B"/>
<path d="M42.3289 51.1482C42.3047 51.1482 42.2845 51.1402 42.2643 51.128L41.8486 50.8698C41.7921 50.8334 41.772 50.7608 41.8083 50.7002C41.8446 50.6437 41.9213 50.6276 41.9778 50.6639L42.3935 50.9222C42.45 50.9545 42.4661 51.0312 42.4298 51.0877C42.4096 51.128 42.3693 51.1482 42.3289 51.1482Z" fill="#58595B"/>
<path fill-rule="evenodd" clip-rule="evenodd" d="M41.1174 51.7765L40.8632 51.6191L38.1592 55.9738L38.4134 56.1312L41.1174 51.7765Z" fill="#24AAE1"/>
<path fill-rule="evenodd" clip-rule="evenodd" d="M41.6751 52.1243L41.4209 51.9629L40.1133 54.0655L40.3716 54.227L41.6751 52.1243Z" fill="#24AAE1"/>
<path fill-rule="evenodd" clip-rule="evenodd" d="M40.2787 54.3763L40.0204 54.2148L38.7168 56.3215L38.9711 56.4789L40.2787 54.3763Z" fill="#24AAE1"/>
<path fill-rule="evenodd" clip-rule="evenodd" d="M38.4906 57.2506L37.6794 56.7461L34.6768 61.585L35.488 62.0895L38.4906 57.2506Z" fill="#24AAE1"/>
<path fill-rule="evenodd" clip-rule="evenodd" d="M35.8394 49.9481L35.113 49.4961L31.4727 55.3561L32.1991 55.8081L35.8394 49.9481Z" fill="#58595B"/>
<path fill-rule="evenodd" clip-rule="evenodd" d="M33.8773 48.7254L33.1509 48.2734L27.416 57.5074L28.1425 57.9594L33.8773 48.7254Z" fill="#58595B"/>
<path fill-rule="evenodd" clip-rule="evenodd" d="M31.9164 47.5067L31.19 47.0547L25.4551 56.2846L26.1815 56.7366L31.9164 47.5067Z" fill="#58595B"/>
<path d="M47.2236 46.943L27.3836 49.2394C26.6652 49.3241 26.0114 48.8035 25.9307 48.0852L21.8021 12.2916C21.7173 11.5692 22.2339 10.9194 22.9523 10.8346L42.7963 8.54231C43.5147 8.45755 44.1645 8.97414 44.2492 9.69655L48.3779 45.4901C48.4626 46.2085 47.946 46.8623 47.2236 46.943Z" fill="#E6E7E8"/>
<path d="M47.2769 46.9387L46.155 47.0679L41.7236 8.66314L42.8456 8.53399C43.5397 8.45328 44.1653 8.94968 44.242 9.64384L48.3827 45.5383C48.4634 46.2325 47.967 46.858 47.2769 46.9387Z" fill="#24AAE1"/>
<mask id="mask1_1399_897" style="mask-type:luminance" maskUnits="userSpaceOnUse" x="25" y="45" width="26" height="19">
<path d="M25.8057 45.7891H50.6017V63.5668H25.8057V45.7891Z" fill="white"/>
</mask>
<g mask="url(#mask1_1399_897)">
<path d="M48.5437 61.2417L29.3575 63.4574C28.4575 63.5623 27.6423 62.9166 27.5373 62.0126L26.2418 50.7971C26.1409 49.8971 26.7867 49.0818 27.6866 48.9769L46.8729 46.7572C47.7729 46.6523 48.5881 47.302 48.693 48.202L49.9845 59.4175C50.0894 60.3216 49.4437 61.1368 48.5437 61.2417Z" fill="#E6E7E8"/>
</g>
<path d="M48.5272 61.2404L47.8007 61.3252L46.1299 46.8407L47.2397 46.7156C47.9379 46.6349 48.5675 47.1353 48.6482 47.8295L49.9841 59.4042C50.089 60.3122 49.4352 61.1355 48.5272 61.2404Z" fill="#24AAE1"/>
<path d="M36.634 13.2599C37.5259 11.6456 36.1174 11.6779 35.4394 12.3277C34.8946 12.8443 34.3659 13.377 33.8372 13.9097C33.7766 13.9662 33.7201 13.9945 33.6354 13.9864C33.5708 13.9783 32.9412 13.938 32.1865 13.8936L32.2108 13.5828C32.2269 13.3608 32.0655 13.1712 31.8475 13.151C31.6256 13.1348 31.4359 13.2963 31.4157 13.5182L31.3915 13.8411C31.3027 13.8371 31.2139 13.833 31.1251 13.825L31.1493 13.494C31.1695 13.2761 31.004 13.0824 30.7861 13.0662C30.5682 13.0501 30.3745 13.2115 30.3583 13.4295L30.3301 13.7765C29.8296 13.7483 29.4462 13.7241 29.3453 13.72C29.1597 13.7079 29.0467 13.7402 28.9095 13.8895C28.861 13.938 28.4211 14.4182 28.2314 14.62C29.5834 15.064 30.9153 15.4998 32.2511 15.9357C32.243 15.9599 30.8749 18.0747 30.1928 19.1199C30.1686 19.1522 30.1081 19.1764 30.0677 19.1764C29.6036 19.1482 29.1355 19.1119 28.6713 19.0836C28.6391 19.0836 28.5906 19.0836 28.5745 19.1038C28.4615 19.2329 28.3566 19.3702 28.2597 19.4912C29.0063 19.7818 30.0274 20.1975 30.0274 20.1975C30.0274 20.1975 30.8588 21.3074 31.2987 21.9047C31.3834 21.7917 31.4803 21.6706 31.5691 21.5455C31.5933 21.5091 31.6054 21.4405 31.5892 21.3961C31.4601 20.9562 31.3269 20.5163 31.1897 20.0805C31.1655 20.0038 31.1776 19.9634 31.226 19.911C31.6296 19.4953 33.361 17.6872 33.8372 17.1908C34.5757 18.4056 35.3022 19.6042 36.0367 20.819C36.2506 20.4962 36.4484 20.1975 36.6542 19.9029C36.7107 19.8181 36.7228 19.7455 36.6905 19.6446C36.6461 19.5033 36.4362 18.8011 36.1941 17.998L36.6824 17.8002C36.8842 17.7155 36.9811 17.4854 36.9004 17.2796C36.8156 17.0778 36.5856 16.9769 36.3797 17.0617L35.9681 17.2312C35.9398 17.1424 35.9156 17.0576 35.8914 16.9729L36.2788 16.8115C36.4847 16.7307 36.5815 16.4967 36.4968 16.2949C36.4161 16.0891 36.182 15.9922 35.9802 16.0769L35.6614 16.2061C35.5403 15.7985 35.4475 15.4796 35.4111 15.3586C35.399 15.3142 35.4192 15.2496 35.4475 15.2052C35.843 14.5554 36.2667 13.9259 36.634 13.2599Z" fill="#58595B"/>
<path fill-rule="evenodd" clip-rule="evenodd" d="M40.9725 24.4102L40.125 24.507L42.3407 43.6933L43.1882 43.5924L40.9725 24.4102Z" fill="#58595B"/>
<path fill-rule="evenodd" clip-rule="evenodd" d="M38.6805 24.6738L37.833 24.7747L38.8056 33.2257L39.6532 33.1288L38.6805 24.6738Z" fill="#58595B"/>
<path fill-rule="evenodd" clip-rule="evenodd" d="M34.0917 25.2051L33.2441 25.3019L34.6486 37.482L35.4961 37.3811L34.0917 25.2051Z" fill="#58595B"/>
<path fill-rule="evenodd" clip-rule="evenodd" d="M31.7948 25.4727L30.9473 25.5695L33.1589 44.7517L34.0064 44.6549L31.7948 25.4727Z" fill="#58595B"/>
<path fill-rule="evenodd" clip-rule="evenodd" d="M29.5029 25.7344L28.6514 25.8353L30.867 45.0175L31.7145 44.9206L29.5029 25.7344Z" fill="#58595B"/>
<path fill-rule="evenodd" clip-rule="evenodd" d="M27.2059 26L26.3584 26.0969L28.0575 40.8155L28.905 40.7186L27.2059 26Z" fill="#58595B"/>
<path fill-rule="evenodd" clip-rule="evenodd" d="M43.6238 10.3184L42.627 10.4314L43.6077 18.9469L44.6045 18.8299L43.6238 10.3184Z" fill="#F5CC23"/>
<path d="M45.4117 47.2172C45.3471 47.2172 45.2946 47.1728 45.2906 47.1083C45.2825 47.0437 45.3269 46.9791 45.3955 46.9751L46.3399 46.8661C46.4085 46.858 46.469 46.9065 46.4771 46.971C46.4812 47.0397 46.4368 47.1002 46.3681 47.1083L45.4238 47.2172C45.4197 47.2172 45.4157 47.2172 45.4117 47.2172ZM43.5229 47.4352C43.4624 47.4352 43.4059 47.3908 43.4018 47.3262C43.3938 47.2616 43.4422 47.2011 43.5068 47.193L44.4511 47.084C44.5197 47.076 44.5803 47.1244 44.5884 47.189C44.5964 47.2576 44.548 47.3181 44.4794 47.3262L43.535 47.4352C43.531 47.4352 43.5269 47.4352 43.5229 47.4352ZM41.6341 47.6531C41.5736 47.6531 41.5211 47.6087 41.5131 47.5441C41.505 47.4796 41.5534 47.419 41.618 47.4109L42.5624 47.302C42.631 47.2939 42.6915 47.3423 42.6996 47.4069C42.7077 47.4755 42.6592 47.5361 42.5906 47.5441L41.6463 47.6531C41.6422 47.6531 41.6382 47.6531 41.6341 47.6531ZM39.7454 47.871C39.6849 47.871 39.6324 47.8266 39.6243 47.7621C39.6162 47.6975 39.6647 47.637 39.7333 47.6289L40.6777 47.5199C40.7422 47.5118 40.8028 47.5603 40.8108 47.6248C40.8189 47.6935 40.7705 47.754 40.7019 47.7621L39.7615 47.871C39.7535 47.871 39.7494 47.871 39.7454 47.871ZM37.8566 48.089C37.7961 48.089 37.7436 48.0446 37.7356 47.98C37.7275 47.9154 37.7759 47.8549 37.8445 47.8468L38.7889 47.7378C38.8535 47.7298 38.914 47.7782 38.9221 47.8428C38.9302 47.9114 38.8817 47.9719 38.8172 47.98L37.8728 48.089C37.8687 48.089 37.8607 48.089 37.8566 48.089ZM35.9679 48.3069C35.9073 48.3069 35.8549 48.2625 35.8468 48.202C35.8428 48.1334 35.8872 48.0728 35.9558 48.0647L36.9001 47.9558C36.9688 47.9477 37.0293 47.9961 37.0333 48.0647C37.0414 48.1293 36.993 48.1899 36.9284 48.1979L35.984 48.3069C35.98 48.3069 35.9759 48.3069 35.9679 48.3069ZM34.0831 48.5248C34.0186 48.5248 33.9661 48.4804 33.9621 48.4199C33.954 48.3513 34.0024 48.2908 34.067 48.2827L35.0114 48.1737C35.08 48.1656 35.1405 48.2141 35.1486 48.2827C35.1567 48.3473 35.1082 48.4078 35.0396 48.4159L34.0953 48.5248C34.0912 48.5248 34.0872 48.5248 34.0831 48.5248ZM32.1944 48.7468C32.1339 48.7468 32.0814 48.6984 32.0733 48.6378C32.0652 48.5692 32.1137 48.5087 32.1782 48.5006L33.1226 48.3917C33.1912 48.3836 33.2518 48.432 33.2598 48.5006C33.2679 48.5652 33.2195 48.6257 33.1509 48.6338L32.2065 48.7428C32.2025 48.7428 32.1984 48.7468 32.1944 48.7468ZM30.3056 48.9647C30.2451 48.9647 30.1926 48.9163 30.1846 48.8558C30.1765 48.7872 30.2249 48.7266 30.2935 48.7186L31.2339 48.6096C31.3025 48.6015 31.363 48.6499 31.3711 48.7186C31.3792 48.7831 31.3307 48.8437 31.2621 48.8517L30.3218 48.9607C30.3137 48.9647 30.3097 48.9647 30.3056 48.9647ZM28.4169 49.1827C28.3563 49.1827 28.3039 49.1342 28.2958 49.0737C28.2877 49.0051 28.3362 48.9446 28.4048 48.9365L29.3491 48.8275C29.4137 48.8194 29.4743 48.8679 29.4823 48.9365C29.4904 49.0051 29.442 49.0656 29.3774 49.0697L28.433 49.1827C28.429 49.1827 28.4209 49.1827 28.4169 49.1827Z" fill="#58595B"/>
<path d="M47.2968 46.9987C47.2362 46.9987 47.1838 46.9544 47.1757 46.8898C47.1676 46.8212 47.216 46.7606 47.2847 46.7566L47.7689 46.7001C47.8376 46.692 47.8981 46.7405 47.9062 46.805C47.9142 46.8736 47.8658 46.9342 47.7972 46.9422L47.3129 46.9987C47.3089 46.9987 47.3008 46.9987 47.2968 46.9987Z" fill="#58595B"/>
<path fill-rule="evenodd" clip-rule="evenodd" d="M47.3045 48.1621L47.0059 48.1984L47.5951 53.2916L47.8937 53.2553L47.3045 48.1621Z" fill="#F5CC23"/>
<path fill-rule="evenodd" clip-rule="evenodd" d="M47.9549 48.0879L47.6562 48.1202L47.9428 50.582L48.2414 50.5457L47.9549 48.0879Z" fill="#F5CC23"/>
<path fill-rule="evenodd" clip-rule="evenodd" d="M48.2615 50.7207L47.9629 50.757L48.2454 53.2148L48.544 53.1825L48.2615 50.7207Z" fill="#F5CC23"/>
<path fill-rule="evenodd" clip-rule="evenodd" d="M48.6487 54.0859L47.6963 54.1949L48.3501 59.8531L49.3025 59.7441L48.6487 54.0859Z" fill="#F5CC23"/>
<path fill-rule="evenodd" clip-rule="evenodd" d="M42.034 50.0176L41.1865 50.1144L41.9775 56.9713L42.8251 56.8744L42.034 50.0176Z" fill="#58595B"/>
<path fill-rule="evenodd" clip-rule="evenodd" d="M39.7372 50.2832L38.8896 50.3801L40.1367 61.1799L40.9842 61.083L39.7372 50.2832Z" fill="#58595B"/>
<path fill-rule="evenodd" clip-rule="evenodd" d="M37.4453 50.5508L36.5938 50.6476L37.8408 61.4475L38.6883 61.3466L37.4453 50.5508Z" fill="#58595B"/>
<path fill-rule="evenodd" clip-rule="evenodd" d="M35.1493 50.8125L34.3018 50.9134L35.2582 59.1989L36.1058 59.098L35.1493 50.8125Z" fill="#58595B"/>
<mask id="mask2_1399_897" style="mask-type:luminance" maskUnits="userSpaceOnUse" x="8" y="20" width="34" height="41">
<path d="M8 20.9922H41.3035V60.2525H8V20.9922Z" fill="white"/>
</mask>
<g mask="url(#mask2_1399_897)">
<path d="M35.2617 59.687L9.39217 57.2857C8.58905 57.213 7.99982 56.4987 8.07246 55.6956L11.1316 22.6383C11.2083 21.8351 11.9186 21.2459 12.7217 21.3186L38.5912 23.7158C40.028 23.849 41.0854 25.1243 40.9522 26.5651L38.1069 57.322C37.9738 58.7588 36.6985 59.8202 35.2617 59.687Z" fill="#1C355B"/>
</g>
<path d="M16.4188 25.916L17.7426 26.0613C18.1663 26.1097 18.3641 26.2752 18.3318 26.5537L18.2511 27.2882C18.2188 27.5707 17.9928 27.6877 17.565 27.6393L16.9596 27.5707L16.8668 28.4182L16.1484 28.3375L16.4188 25.916ZM17.5368 27.1348L17.6013 26.5496C17.6094 26.4851 17.569 26.4487 17.4803 26.4366L17.0928 26.3963L17.004 27.1712L17.3955 27.2155C17.4803 27.2236 17.5287 27.1994 17.5368 27.1348Z" fill="#F5CC23"/>
<path d="M20.0224 28.7686L19.9578 28.3206L19.2273 28.2359L19.0659 28.6637L18.3516 28.583L19.3524 26.2422L20.2726 26.3431L20.7488 28.8493L20.0224 28.7686ZM19.3726 27.8525L19.8973 27.909L19.748 26.8556L19.3726 27.8525Z" fill="#F5CC23"/>
<path d="M22.2746 28.5197L22.3231 28.0838C22.3271 28.0515 22.319 28.0273 22.2988 28.0112C22.2787 27.995 22.2464 27.9829 22.1939 27.9749L21.75 27.9264C21.3504 27.882 21.1688 27.7166 21.2011 27.4341L21.2616 26.8812C21.2939 26.6027 21.5199 26.4857 21.9477 26.5341L22.5652 26.6027C22.989 26.6511 23.1867 26.8126 23.1544 27.091L23.1181 27.4099L22.3957 27.3291L22.424 27.087C22.428 27.0264 22.3876 26.9861 22.2948 26.978L22.1253 26.9578C22.0325 26.9498 21.984 26.974 21.976 27.0386L21.9316 27.4664C21.9275 27.4986 21.9316 27.5229 21.9518 27.539C21.9719 27.5551 22.0042 27.5672 22.0567 27.5713L22.4926 27.6197C22.7065 27.6439 22.8598 27.6964 22.9446 27.7771C23.0334 27.8578 23.0656 27.9668 23.0535 28.104L22.989 28.6731C22.9567 28.9556 22.7266 29.0726 22.3029 29.0242L21.6935 28.9556C21.2616 28.9112 21.0639 28.7457 21.0962 28.4632L21.1325 28.1524L21.8549 28.2332L21.8267 28.4713C21.8186 28.5358 21.863 28.5722 21.9518 28.5802L22.1253 28.6004C22.2181 28.6125 22.2666 28.5843 22.2746 28.5197Z" fill="#F5CC23"/>
<path d="M24.6115 28.7814L24.66 28.3456C24.664 28.3092 24.6559 28.285 24.6358 28.2689C24.6196 28.2527 24.5833 28.2447 24.5349 28.2366L24.0869 28.1882C23.6914 28.1438 23.5057 27.9783 23.538 27.6958L23.5986 27.1429C23.6308 26.8644 23.8609 26.7474 24.2846 26.7958L24.9021 26.8644C25.3259 26.9128 25.5236 27.0743 25.4913 27.3527L25.455 27.6716L24.7326 27.5909L24.7609 27.3487C24.7689 27.2841 24.7245 27.2478 24.6358 27.2397L24.4622 27.2196C24.3694 27.2075 24.321 27.2357 24.3129 27.3003L24.2685 27.724C24.2645 27.7604 24.2725 27.7846 24.2887 27.8007C24.3089 27.8169 24.3411 27.8249 24.3936 27.833L24.8295 27.8814C25.0434 27.9056 25.1967 27.9581 25.2815 28.0388C25.3703 28.1195 25.4066 28.2285 25.3905 28.3657L25.3259 28.9348C25.2936 29.2173 25.0676 29.3343 24.6398 29.2859L24.0304 29.2173C23.5986 29.1689 23.4008 29.0074 23.4331 28.7249L23.4694 28.4101L24.1918 28.4908L24.1636 28.733C24.1595 28.7976 24.1999 28.8339 24.2927 28.842L24.4622 28.8621C24.555 28.8702 24.6035 28.846 24.6115 28.7814Z" fill="#F5CC23"/>
<path d="M26.0438 26.9902L27.3716 27.1396C27.7954 27.188 27.9931 27.3494 27.9608 27.6319L27.8801 28.3664C27.8478 28.649 27.6178 28.766 27.194 28.7176L26.5887 28.649L26.4918 29.4965L25.7734 29.4158L26.0438 26.9902ZM27.1618 28.2131L27.2304 27.6279C27.2344 27.5633 27.194 27.527 27.1093 27.5149L26.7178 27.4705L26.6331 28.2494L27.0205 28.2938C27.1093 28.3019 27.1577 28.2777 27.1618 28.2131Z" fill="#F5CC23"/>
<path d="M29.0754 27.3277L29.7534 27.4044C30.1772 27.4528 30.375 27.6183 30.3427 27.8968L30.1691 29.4748C30.1368 29.7573 29.9068 29.8743 29.483 29.8259L28.805 29.7532C28.3772 29.7048 28.1795 29.5394 28.2077 29.2568L28.3853 27.6748C28.4176 27.3963 28.6476 27.2833 29.0754 27.3277ZM29.4508 29.3214L29.6122 27.8927C29.6203 27.8282 29.5799 27.7918 29.4911 27.7797L29.249 27.7555C29.1561 27.7434 29.1077 27.7717 29.0996 27.8322L28.9422 29.2649C28.9342 29.3295 28.9745 29.3658 29.0674 29.3779L29.3095 29.4021C29.3983 29.4142 29.4467 29.386 29.4508 29.3214Z" fill="#F5CC23"/>
<path d="M31.4765 29.1332L31.3756 30.0413L30.6572 29.9605L30.9276 27.5391L32.2514 27.6884C32.6751 27.7328 32.8729 27.8982 32.8446 28.1767L32.768 28.8547C32.7437 29.0767 32.5904 29.1978 32.3159 29.2139L32.7801 30.1987L32.0052 30.1099L31.6016 29.1494L31.4765 29.1332ZM31.6016 28.0193L31.5169 28.7498L31.9083 28.7942C31.9568 28.7982 31.989 28.7942 32.0133 28.7821C32.0334 28.77 32.0455 28.7498 32.0496 28.7175L32.1101 28.1727C32.1182 28.1081 32.0778 28.0718 31.989 28.0637L31.6016 28.0193Z" fill="#F5CC23"/>
<path d="M35.1005 28.0028L35.0561 28.4064L34.4629 28.3378L34.2369 30.3597L33.5145 30.279L33.7405 28.2571L33.1553 28.1925L33.1997 27.793L35.1005 28.0028Z" fill="#F5CC23"/>
<path d="M24.9666 40.3404C24.9424 40.3404 24.9222 40.3364 24.902 40.3203L24.4863 40.066C24.4298 40.0297 24.4097 39.953 24.446 39.8965C24.4823 39.84 24.559 39.8198 24.6155 39.8561L25.0312 40.1144C25.0877 40.1508 25.1038 40.2274 25.0675 40.2839C25.0473 40.3203 25.007 40.3404 24.9666 40.3404Z" fill="#58595B"/>
<path d="M23.949 35.1261C23.7714 35.1261 23.5938 35.1342 23.4162 35.1463C21.1078 35.3118 18.9647 36.5629 17.6773 38.496C16.9872 39.5332 16.5634 40.74 16.4464 41.983C16.1639 45.0421 17.7379 47.9439 20.454 49.3725C21.3257 49.8286 22.2701 50.1111 23.2629 50.1999C24.5866 50.325 25.9184 50.095 27.1171 49.5421C29.5547 48.412 31.2215 46.0511 31.4717 43.3794C31.7704 40.1507 29.9865 37.1037 27.0364 35.784L27.0202 35.7759C26.7175 35.6427 26.4068 35.5257 26.0879 35.4329C25.7489 35.332 25.3938 35.2553 25.0386 35.2069C24.9095 35.1867 24.7803 35.1705 24.6552 35.1625C24.522 35.1463 24.3889 35.1382 24.2557 35.1342C24.1548 35.1302 24.0539 35.1261 23.949 35.1261ZM23.9611 50.6721C23.7149 50.6721 23.4687 50.664 23.2225 50.6398C22.1732 50.5429 21.1723 50.2483 20.2481 49.76C18.8638 49.0335 17.7338 47.9237 16.9711 46.5515C16.1921 45.143 15.8612 43.5529 16.0105 41.9426C16.1316 40.6269 16.5796 39.3476 17.3101 38.2539C17.976 37.253 18.876 36.4015 19.9132 35.7921C20.9665 35.1705 22.1651 34.7952 23.384 34.7064C23.6786 34.6862 23.9772 34.6822 24.2718 34.6943C24.4131 34.6983 24.5543 34.7105 24.6956 34.7226C24.8288 34.7347 24.966 34.7508 25.0992 34.771C25.4785 34.8235 25.8498 34.9042 26.2131 35.0131C26.5359 35.106 26.8588 35.223 27.1695 35.3602L27.2018 35.3764C28.7153 36.0463 29.9623 37.1602 30.8179 38.5889C31.6896 40.0498 32.065 41.7207 31.9076 43.4197C31.7744 44.8403 31.2699 46.2004 30.4385 47.3506C29.6354 48.4685 28.5498 49.3645 27.3027 49.9416C26.2574 50.4259 25.1153 50.6721 23.9611 50.6721Z" fill="#F5CC23"/>
<path d="M24.2764 39.371C24.2159 39.3065 24.1231 39.2621 24.0343 39.2823C23.9011 39.3145 23.8486 39.4679 23.8163 39.5971C23.7679 39.7948 23.7195 40.0087 23.8083 40.1903C23.8728 40.3275 24.0141 40.4526 23.9818 40.602C23.9697 40.6665 23.9253 40.719 23.893 40.7795C23.8607 40.8401 23.8486 40.9208 23.893 40.9692C23.9414 41.0257 24.0383 41.0096 24.0988 40.9652C24.1594 40.9208 24.2038 40.8562 24.2643 40.8118C24.3208 40.7755 24.3935 40.7594 24.454 40.7795C24.5186 40.7957 24.571 40.8562 24.5791 40.9208C24.5831 40.9854 24.5307 41.054 24.4661 41.062C24.4096 41.0661 24.3491 41.0298 24.3006 41.0499C24.228 41.0822 24.2361 41.1831 24.2562 41.2598C24.2845 41.3647 24.3168 41.4777 24.3935 41.5625C24.4701 41.6432 24.6033 41.6795 24.6961 41.615C24.7365 41.5867 24.7688 41.5342 24.8172 41.5302C24.8899 41.5221 24.9343 41.6271 24.8939 41.6916C24.8576 41.7562 24.7769 41.7764 24.7042 41.7804C24.6316 41.7804 24.5549 41.7683 24.4822 41.7885C24.4136 41.8046 24.345 41.8692 24.3531 41.9419C24.3612 42.0064 24.4217 42.0468 24.4782 42.071C24.5387 42.0952 24.6033 42.1114 24.6517 42.1517C24.7526 42.2405 24.7325 42.414 24.8293 42.5069C24.9302 42.6078 25.1199 42.5553 25.2006 42.4342C25.2813 42.3172 25.2854 42.1598 25.2733 42.0185C25.249 41.7239 25.1724 41.4374 25.0997 41.1549C25.0553 40.9773 25.0069 40.7957 24.8899 40.6585C24.7849 40.5293 24.6316 40.4486 24.4943 40.3517C24.4136 40.2912 24.3329 40.2186 24.2804 40.1338C24.2078 40.0127 24.2401 39.9885 24.3087 39.8917C24.4177 39.7383 24.4056 39.5083 24.2764 39.371Z" fill="#F5CC23"/>
<path d="M23.4166 41.4288C23.3722 41.4611 23.3278 41.4894 23.2955 41.5297C23.2632 41.5741 23.2471 41.6347 23.2753 41.6791C23.3036 41.7315 23.3762 41.7477 23.4327 41.7275C23.4892 41.7114 23.5336 41.667 23.574 41.6226C23.6506 41.5338 23.7192 41.441 23.7758 41.3401C23.8242 41.2513 23.8282 41.0454 23.687 41.1463C23.5861 41.223 23.5215 41.3522 23.4166 41.4288Z" fill="#F5CC23"/>
<path d="M23.1378 42.0394C23.158 42.0072 23.1822 41.9749 23.2185 41.9749C23.2629 41.9708 23.2952 42.0152 23.3194 42.0515C23.3921 42.1726 23.4647 42.2897 23.5374 42.4107C23.5737 42.4713 23.61 42.5439 23.5858 42.6125C23.5454 42.7255 23.3679 42.7296 23.3073 42.8345C23.2589 42.9192 23.3114 43.0242 23.3719 43.1049C23.4284 43.1816 23.497 43.2704 23.4809 43.3672C23.4647 43.4479 23.3921 43.5085 23.3356 43.565C23.2427 43.6618 23.1741 43.7748 23.1055 43.8878C23.0248 44.0251 22.9441 44.1623 22.8795 44.3076C22.8513 44.3681 22.8271 44.4286 22.7827 44.4851C22.7423 44.5376 22.6818 44.578 22.6132 44.582C22.4437 44.586 22.3589 44.352 22.1934 44.3156C22.0764 44.2874 21.9594 44.3641 21.8423 44.3358C21.7172 44.3076 21.6567 44.1663 21.6123 44.0452C21.5558 43.8919 21.5033 43.7385 21.471 43.5811C21.4428 43.456 21.4307 43.3269 21.4307 43.1977C21.4307 43.1049 21.463 42.9919 21.5517 42.9798C21.6244 42.9757 21.6768 43.0403 21.7414 43.0645C21.8423 43.1049 21.9513 43.0524 22.0441 42.9959C22.2701 42.8627 22.488 42.7053 22.6939 42.5399C22.8755 42.3865 22.9966 42.2291 23.1378 42.0394Z" fill="#F5CC23"/>
<path d="M18.719 41.886C18.6908 41.8699 18.6585 41.8578 18.6262 41.8659C18.5899 41.878 18.5697 41.9224 18.5738 41.9587C18.5778 41.999 18.598 42.0354 18.6181 42.0676C18.9047 42.5318 19.1872 42.9959 19.4737 43.456C19.611 43.686 19.7522 43.912 19.8935 44.138L20.176 44.6021C20.2163 44.6627 20.2526 44.7232 20.3051 44.7716C20.3616 44.816 20.4343 44.8443 20.5029 44.8281C20.5674 44.812 20.6199 44.7555 20.6482 44.695C20.6764 44.6344 20.6845 44.5658 20.6926 44.4972C20.7087 44.364 20.7248 44.2228 20.6643 44.1017C20.6078 43.9887 20.4908 43.916 20.4141 43.8151C20.3051 43.6779 20.2728 43.5004 20.1921 43.347C20.1275 43.2138 20.0266 43.1008 19.9257 42.9878C19.7361 42.7739 19.5464 42.56 19.3567 42.3461C19.276 42.2533 19.1993 42.1403 19.0984 42.0757C18.9773 42.0031 18.8442 41.9466 18.719 41.886Z" fill="#F5CC23"/>
<path d="M20.7613 44.8631C20.6684 44.8954 20.5998 45.0043 20.6321 45.0971C20.6644 45.1859 20.7613 45.2263 20.8501 45.2586C21.1124 45.3554 21.3747 45.4523 21.637 45.5492C21.9397 45.6581 22.2505 45.7711 22.5733 45.7752C22.6177 45.7752 22.6621 45.7752 22.7025 45.755C22.7428 45.7348 22.7751 45.6944 22.7711 45.6501C22.763 45.5895 22.6944 45.5572 22.6379 45.5371C22.2626 45.4039 21.8913 45.2667 21.5119 45.1536C21.403 45.1214 21.2859 45.1093 21.1931 45.0447C21.0599 44.9519 20.9469 44.7985 20.7613 44.8631Z" fill="#F5CC23"/>
<path d="M24.3409 43.4792C24.2643 43.4388 24.1836 43.4025 24.0948 43.3984C23.9737 43.3984 23.8607 43.4711 23.788 43.5679C23.7154 43.6648 23.675 43.7818 23.6347 43.8989C23.5782 44.0643 23.5217 44.2298 23.4611 44.3953C23.449 44.4316 23.4369 44.472 23.445 44.5083C23.4611 44.5648 23.5257 44.5971 23.554 44.6455C23.5862 44.706 23.5741 44.7787 23.5499 44.8433C23.5297 44.9078 23.5015 44.9764 23.5136 45.041C23.5257 45.1096 23.5984 45.1702 23.6589 45.1419C23.7114 45.1177 23.7235 45.0491 23.7275 44.9926C23.7396 44.8594 23.7477 44.7222 23.7598 44.585C23.8849 44.7141 24.014 44.8433 24.1392 44.9724C24.2239 44.9199 24.2401 44.8029 24.2118 44.706C24.1836 44.6132 24.123 44.5285 24.0948 44.4356C24.0625 44.3428 24.0746 44.2217 24.1593 44.1693C24.1957 44.1491 24.236 44.141 24.2764 44.1289C24.3127 44.1128 24.3531 44.0845 24.3571 44.0442C24.3652 43.9877 24.3006 43.9433 24.2441 43.9473C24.1876 43.9473 24.1351 43.9836 24.0867 44.0119C24.0383 44.0401 23.9818 44.0643 23.9253 44.0522C23.8445 44.028 23.8082 43.9191 23.8445 43.8424C23.8809 43.7657 23.9697 43.7213 24.0544 43.7132C24.1392 43.7052 24.2199 43.7253 24.3046 43.7455C24.3894 43.7657 24.4741 43.7818 24.5589 43.7657C24.6154 43.7536 24.9221 43.5357 24.8131 43.467C24.7889 43.4509 24.6598 43.5437 24.6275 43.5478C24.5266 43.572 24.4257 43.5235 24.3409 43.4792Z" fill="#F5CC23"/>
<path d="M29.3455 46.761C29.2123 46.5754 29.0751 46.3978 28.9338 46.2202C28.845 46.1113 28.728 45.9942 28.5908 46.0185C28.4051 46.0548 28.3527 46.3333 28.167 46.3817C28.0338 46.418 27.9047 46.3131 27.8038 46.2122C27.7029 46.1153 27.5737 46.0064 27.4406 46.0427C27.3841 46.0548 27.3356 46.0951 27.2791 46.1032C27.2226 46.1153 27.1459 46.075 27.1581 46.0185C27.1702 45.97 27.2226 45.9539 27.267 45.9337C27.3881 45.8812 27.4688 45.7521 27.4648 45.6189C27.4607 45.4898 27.3679 45.3647 27.2428 45.3243C27.1056 45.2759 26.9684 45.179 26.8312 45.1265C26.6657 45.066 26.4841 44.957 26.3832 44.8118C26.3267 44.731 26.2863 44.6422 26.246 44.5535C26.1935 44.4364 26.141 44.3234 26.0886 44.2064C26.0603 44.1499 26.0361 44.0853 26.0644 44.0288C26.1047 43.94 26.2339 43.9481 26.3307 43.9763C26.4276 44.0046 26.5285 44.0328 26.6092 44.0934C26.6939 44.1539 26.7585 44.2467 26.7625 44.3476C26.7625 44.4324 26.7262 44.5091 26.7101 44.5898C26.6939 44.6665 26.7141 44.7674 26.7868 44.7996C26.8554 44.8319 26.9361 44.7916 26.9845 44.7351C27.037 44.6826 27.0733 44.614 27.1298 44.5656C27.259 44.4526 27.4567 44.4849 27.6222 44.5373C27.8361 44.6059 28.0419 44.7028 28.2397 44.8158C28.6674 45.062 29.0508 45.3848 29.3656 45.7602C29.402 45.8046 29.4383 45.8651 29.41 45.9135C29.3939 45.9337 29.3737 45.9458 29.3535 45.962C29.2849 46.0144 29.2769 46.1234 29.3132 46.2041C29.3455 46.2889 29.4141 46.3494 29.4827 46.4059C29.5513 46.4664 29.6199 46.5229 29.6603 46.6037C29.6925 46.6642 29.7047 46.7328 29.6804 46.7974C29.6603 46.8579 29.5957 46.9063 29.5311 46.9063C29.4665 46.9023 29.3334 46.8256 29.3455 46.761Z" fill="#F5CC23"/>
<path d="M25.3665 43.6617C25.3503 43.7464 25.3382 43.8352 25.3261 43.92C25.3221 43.9523 25.3221 43.9926 25.3503 44.0047C25.3786 44.0168 25.4109 43.9926 25.419 43.9603C25.427 43.9321 25.419 43.9038 25.423 43.8715C25.427 43.8433 25.4432 43.811 25.4714 43.807C25.5037 43.8029 25.5239 43.8312 25.5441 43.8554C25.5602 43.8796 25.5885 43.9038 25.6167 43.8958C25.645 43.8877 25.653 43.8514 25.645 43.8271C25.6369 43.7989 25.6207 43.7787 25.6006 43.7585C25.5844 43.7384 25.5683 43.7101 25.5683 43.6859C25.5723 43.6132 25.6651 43.585 25.6853 43.5204C25.7015 43.4599 25.6732 43.3872 25.6167 43.359C25.4432 43.2702 25.3826 43.5487 25.3665 43.6617Z" fill="#F5CC23"/>
<path d="M23.1262 45.6274C23.1827 45.6314 23.2311 45.6597 23.2796 45.6879C23.324 45.7081 23.3684 45.7323 23.4087 45.7565C23.4208 45.7646 23.4329 45.7686 23.441 45.7807C23.445 45.8009 23.437 45.8211 23.4249 45.8292C23.4087 45.8413 23.3926 45.8453 23.3724 45.8493C23.324 45.8615 23.2755 45.8695 23.2231 45.8816C23.1746 45.8937 23.1222 45.9018 23.0697 45.8937C22.8639 45.8655 22.9446 45.6153 23.1262 45.6274Z" fill="#F5CC23"/>
<path d="M22.7957 45.3887C22.8239 45.4008 22.8522 45.425 22.8441 45.4533C22.836 45.4856 22.7957 45.4936 22.7634 45.4896C22.7029 45.4896 22.5132 45.4856 22.5495 45.3847C22.5818 45.2878 22.7432 45.3605 22.7957 45.3887Z" fill="#F5CC23"/>
<path d="M23.808 45.7351C23.8524 45.727 23.8968 45.7391 23.9371 45.7472C24.0421 45.7674 24.147 45.7916 24.2519 45.8118C24.2842 45.8198 24.3165 45.8279 24.3367 45.8562C24.3569 45.8884 24.3407 45.9369 24.3084 45.9611C24.2762 45.9853 24.2358 45.9893 24.1954 45.9934C24.0501 46.0014 23.9089 45.9853 23.7717 45.9409C23.6143 45.8925 23.6587 45.7553 23.808 45.7351Z" fill="#F5CC23"/>
<path d="M23.3284 46.0181C23.3002 46.0585 23.3365 46.115 23.3728 46.1513C23.3769 46.1553 23.3809 46.1594 23.3849 46.1634C23.4334 46.2078 23.4899 46.2482 23.5464 46.2845C23.6796 46.3652 23.7119 46.2522 23.6473 46.1553C23.6069 46.0908 23.4051 45.9051 23.3284 46.0181Z" fill="#F5CC23"/>
<path d="M24.5386 45.9981C24.4216 46.1232 24.2723 46.212 24.1068 46.2604C24.0826 46.2685 24.0543 46.2725 24.0301 46.2887C24.0059 46.3088 23.9897 46.3371 23.9938 46.3654C24.0019 46.3936 24.0382 46.4138 24.0705 46.4138C24.0987 46.4138 24.131 46.3976 24.1593 46.3815C24.3933 46.2685 24.6234 46.1515 24.8574 46.0344C24.9583 45.986 25.1722 45.7802 24.9624 45.7156C24.7888 45.6591 24.6355 45.8972 24.5386 45.9981Z" fill="#F5CC23"/>
<path d="M25.4062 45.8283C25.4224 45.9009 25.4991 45.9332 25.5717 45.9453C25.6605 45.9655 25.7574 45.9574 25.8462 45.9292C25.9793 45.8888 26.1327 45.6386 25.9027 45.6467C25.8542 45.6507 25.4224 45.8969 25.4062 45.8283Z" fill="#F5CC23"/>
<path d="M26.6976 45.5789C26.7016 45.5385 26.6936 45.4941 26.6774 45.4497C26.6532 45.3569 26.6048 45.2681 26.5483 45.1914C26.52 45.1511 26.4756 45.1147 26.4312 45.1309C26.3707 45.1511 26.3828 45.2398 26.3465 45.2883C26.3182 45.3206 26.2779 45.3327 26.2375 45.3407C26.2012 45.3528 26.1568 45.373 26.1447 45.4093C26.1124 45.4941 26.2173 45.5304 26.2819 45.5264C26.3546 45.5183 26.3828 45.482 26.4393 45.5425C26.4797 45.591 26.4716 45.6757 26.5442 45.704C26.625 45.7322 26.6895 45.6515 26.6976 45.5789Z" fill="#F5CC23"/>
<path d="M25.2733 44.6937C25.2491 44.722 25.2289 44.7623 25.2451 44.7987C25.2572 44.8229 25.2854 44.839 25.3177 44.839C25.346 44.839 25.3742 44.8309 25.4025 44.8269C25.5356 44.7987 25.6809 44.8269 25.7939 44.8995C25.8222 44.9157 25.8504 44.9359 25.8827 44.948C25.915 44.9601 25.9513 44.9641 25.9796 44.9439C26.024 44.9157 26.024 44.8552 26.0159 44.8067C25.9311 44.4677 25.467 44.4556 25.2733 44.6937Z" fill="#F5CC23"/>
<path d="M24.8701 44.6752C24.854 44.6994 24.8499 44.7358 24.8701 44.764C24.8903 44.7882 24.9226 44.7963 24.9549 44.8003C24.9831 44.8044 25.0194 44.8125 25.0436 44.7963C25.1042 44.764 25.0921 44.6631 25.0436 44.6268C24.9952 44.5905 24.8984 44.6228 24.8701 44.6752Z" fill="#F5CC23"/>
<path d="M27.2104 49.7394C26.0117 50.2963 24.6517 50.5506 23.2432 50.4214C22.2019 50.3246 21.2253 50.0259 20.3535 49.5658C20.5553 49.469 20.7571 49.3721 20.9549 49.2672C21.4351 49.021 21.9073 48.7425 22.3351 48.3833C22.7024 48.0766 23.0817 47.6932 23.5216 47.7013C23.7557 47.7053 23.9696 47.8183 24.1795 47.9313C24.4902 48.0968 24.805 48.2623 25.1158 48.4277C25.3055 48.5286 25.4951 48.6295 25.6848 48.7345C26.2095 49.0331 26.722 49.3681 27.2104 49.7394Z" fill="#F5CC23"/>
<path d="M23.8607 36.3645C23.9091 36.6712 23.8446 36.9981 23.7154 37.2846C23.562 37.6398 23.2916 37.9425 22.9647 38.1402C22.6338 38.342 22.2383 38.4349 21.8549 38.4106C21.6652 38.3985 21.4594 38.3824 21.2939 38.2936C21.3585 38.3541 21.4271 38.4147 21.4917 38.4752C21.3545 38.4268 21.1971 38.447 21.0719 38.5317C20.9509 38.6124 20.8702 38.7496 20.8621 38.899C20.85 39.0765 20.9388 39.2501 21.0518 39.3873C21.1648 39.5245 21.306 39.6375 21.4311 39.7707C21.5482 39.8958 21.645 40.0451 21.6975 40.2106C21.7459 40.3761 21.7419 40.5617 21.6652 40.7191C21.5845 40.8846 21.4271 40.9976 21.2778 41.1066C21.1446 41.1994 21.0154 41.2922 20.8823 41.3891C20.8217 41.4335 20.745 41.4779 20.6724 41.4536C20.5877 41.4294 20.5594 41.3245 20.5392 41.2357C20.4787 41.0057 20.3657 40.7918 20.2083 40.6102C20.1114 40.5012 19.9742 40.3963 19.8289 40.4326C19.6957 40.4649 19.6191 40.6102 19.5989 40.7474C19.5626 41.0137 19.6836 41.2761 19.833 41.498C19.9823 41.72 20.1679 41.9218 20.285 42.1599C20.3899 42.3698 20.4424 42.5998 20.4908 42.8298C20.5069 42.9025 20.5231 42.9792 20.4868 43.0478C20.4545 43.1124 20.3738 43.1446 20.3011 43.1366C20.2285 43.1325 20.1599 43.0962 20.1034 43.0478C19.9137 42.8904 19.833 42.6361 19.7805 42.394C19.7321 42.1478 19.7038 41.8935 19.5787 41.6796C19.4818 41.5101 19.3325 41.377 19.2478 41.2034C19.1227 40.9653 19.1348 40.6788 19.1711 40.4084C19.2074 40.142 19.2679 39.8716 19.2357 39.6012C19.2276 39.5366 19.2114 39.468 19.1711 39.4196C19.1307 39.3671 19.0581 39.3348 18.9975 39.3591C18.9451 39.3792 18.9168 39.4317 18.8724 39.464C18.7514 39.5487 18.5697 39.4559 18.5132 39.3187C18.4527 39.1815 18.481 39.0241 18.5092 38.8788C18.5415 38.7254 18.4164 38.5519 18.3357 38.4147C18.255 38.2775 18.1016 38.1725 17.9442 38.1967C17.8393 38.2088 17.7505 38.2775 17.6536 38.3259C17.6052 38.3501 17.5487 38.3703 17.4922 38.3743C18.7998 36.4129 20.967 35.1013 23.4006 34.9277C23.3966 34.9277 23.3966 34.9277 23.3925 34.9318C23.3199 34.9681 23.2392 35.0004 23.1988 35.069C23.1464 35.1497 23.1665 35.2627 23.223 35.3434C23.2755 35.4282 23.3562 35.4887 23.4248 35.5533C23.6549 35.7672 23.8123 36.0578 23.8607 36.3645Z" fill="#F5CC23"/>
<path d="M25.0678 35.5496C24.9992 35.6546 24.866 35.7191 24.7449 35.6869C24.6077 35.6465 24.535 35.5012 24.4907 35.368C24.4503 35.2308 24.4261 35.0815 24.3333 34.9766C24.3131 34.9523 24.2889 34.9322 24.2646 34.916C24.4019 34.9201 24.5391 34.9281 24.6763 34.9402C24.8095 34.9523 24.9386 34.9685 25.0718 34.9887C25.096 35.0532 25.1162 35.1218 25.1283 35.1905C25.1485 35.3156 25.1364 35.4487 25.0678 35.5496Z" fill="#F5CC23"/>
<path d="M21.3542 39.0195C21.33 39.1285 21.3865 39.2496 21.4794 39.3101C21.5762 39.3707 21.7054 39.3666 21.7982 39.3101C21.895 39.2496 21.9515 39.1366 21.9515 39.0276C21.9515 38.9025 21.8668 38.7128 21.7215 38.7169C21.5681 38.7249 21.3865 38.8743 21.3542 39.0195Z" fill="#F5CC23"/>
<path d="M24.0501 38.2169C24.046 38.2734 24.046 38.3299 24.0258 38.3824C24.0097 38.4349 23.9814 38.4833 23.933 38.5116C23.8563 38.5559 23.7514 38.5277 23.6949 38.4591C23.6384 38.3945 23.6182 38.3017 23.6303 38.2129C23.6465 38.1281 23.6828 38.0474 23.7272 37.9708C23.7716 37.89 23.9209 37.5833 24.0379 37.6842C24.1267 37.7649 24.0541 38.108 24.0501 38.2169Z" fill="#F5CC23"/>
<path d="M27.1132 35.5738C27.0849 35.6182 27.0405 35.6545 26.9961 35.6787C26.9033 35.7312 26.7944 35.7392 26.6854 35.7513C26.2778 35.8159 25.8903 36.0137 25.6038 36.3123C25.4262 36.2841 25.2648 36.167 25.2486 35.9895C25.2285 35.7554 25.406 35.5496 25.6119 35.4406C25.7814 35.3437 25.971 35.2953 26.1527 35.2227C26.4796 35.3195 26.8024 35.4366 27.1132 35.5738Z" fill="#F5CC23"/>
<path d="M25.1521 37.3663C25.1441 37.4107 25.1642 37.4631 25.2086 37.4833C25.249 37.4995 25.2934 37.4833 25.3257 37.451C25.362 37.4228 25.3822 37.3865 25.4104 37.3501C25.4831 37.2654 25.5719 37.2492 25.6566 37.1927C25.7373 37.1403 25.7494 37.0111 25.6324 36.999C25.5436 36.9869 25.4589 37.0918 25.3983 37.1403C25.3176 37.2048 25.1763 37.2533 25.1521 37.3663Z" fill="#F5CC23"/>
<path d="M27.2988 36.0658C27.2867 36.0779 27.2786 36.094 27.2746 36.1142C27.2665 36.1384 27.2665 36.1667 27.2746 36.1949C27.2827 36.2232 27.2988 36.2474 27.3271 36.2554C27.3513 36.2676 27.3755 36.2635 27.3997 36.2514C27.4199 36.2433 27.4401 36.2232 27.4562 36.203C27.4764 36.1788 27.4925 36.1465 27.4885 36.1102C27.4845 36.0819 27.4643 36.0537 27.4401 36.0416C27.4118 36.0294 27.3876 36.0375 27.3594 36.0416C27.3351 36.0456 27.315 36.0456 27.2988 36.0658Z" fill="#F5CC23"/>
</svg>
