<svg width="71" height="71" viewBox="0 0 71 71" fill="none" xmlns="http://www.w3.org/2000/svg">
<path d="M45.6394 49.0503C45.6473 49.0793 45.6473 49.1125 45.6473 49.1498L45.6394 49.9834L50.4392 50.0374H50.5861L50.606 48.789L45.3535 48.6895C45.5004 48.7517 45.6116 48.8844 45.6394 49.0503Z" fill="#F6D23A"/>
<path d="M43.9884 49.1166V49.1208L43.9765 49.9668L44.7109 49.9751L44.7228 49.1332C44.7228 48.9217 44.8499 48.7475 45.0285 48.6811L43.6787 48.6562C43.8613 48.7268 43.9884 48.9051 43.9884 49.1166Z" fill="#F6D23A"/>
<path d="M36.2227 49.8804L43.0512 49.955L43.0592 49.1048C43.0632 48.8933 43.1902 48.7149 43.3768 48.6527L36.2227 48.5117V49.8804Z" fill="#F6D23A"/>
<path d="M58.0584 43.7656C58.0545 43.7656 58.0545 43.7656 58.0505 43.7656C57.6932 43.7656 57.3954 44.0352 57.3398 44.3919L58.7532 44.3794C58.6937 44.0352 58.4078 43.7698 58.0584 43.7656Z" fill="#469DDC"/>
<path d="M48.2204 33.9288L47.4025 36.5375L57.7248 35.1813L57.7407 34.0325C57.7446 33.7712 57.9511 33.5597 58.2052 33.5597C58.2052 33.5597 58.2091 33.5597 58.2131 33.5597C58.4672 33.5638 58.6736 33.7836 58.6697 34.0491C58.6697 34.0532 58.6697 34.0532 58.6697 34.0532L58.6538 35.061L59.7218 34.92C59.956 34.8868 60.0354 34.6919 60.0513 34.6339C60.0632 34.6048 60.0791 34.5385 60.0711 34.4597C60.0632 34.3767 60.0314 34.2855 59.9441 34.2025L40.8796 15.5684C40.8757 15.5725 40.8677 15.5725 40.8598 15.5725L11.874 17.107L20.3224 26.0322L20.779 24.5806C21.1561 23.3779 22.2519 22.5816 23.4628 22.6438C27.7743 22.8677 32.0581 23.7138 36.1909 25.1571C40.0697 26.5133 43.758 28.3796 47.1484 30.698C47.8432 31.1749 48.268 31.9505 48.3434 32.7841C48.3792 33.1615 48.3395 33.5514 48.2204 33.9288Z" fill="#469DDC"/>
<path d="M35.9722 28.3003C35.9682 28.2381 35.9722 28.1717 35.996 28.1095C36.0754 27.8565 36.3374 27.7155 36.5796 27.8026C39.712 28.8975 42.6896 30.403 45.429 32.2776C45.56 32.3689 45.6354 32.5182 45.6354 32.6758C45.6394 32.7712 45.6156 32.8666 45.56 32.9495C45.4727 33.0905 45.3258 33.1693 45.1709 33.1693C45.0876 33.1693 44.9962 33.1444 44.9208 33.0905C42.2489 31.2615 39.3428 29.7933 36.2858 28.7233C36.1032 28.6611 35.9841 28.4911 35.9722 28.3003ZM44.3769 43.0525L47.3386 33.6214C47.3902 33.4638 47.4101 33.3062 47.418 33.1486C47.3823 33.1113 46.5366 32.3025 45.2781 31.473C44.5317 30.9795 40.4743 28.4123 34.0745 26.4049C29.5247 24.9782 24.8281 24.3935 23.9348 24.2939C23.3989 24.2317 22.7239 24.3478 22.2317 25.816L19.3652 34.3513C20.0084 34.3762 20.6476 34.4177 21.2868 34.4716C21.3423 34.4674 21.3979 34.4716 21.4495 34.4882C24.705 34.7743 27.9288 35.4172 31.081 36.4043C31.1207 36.4126 31.1565 36.425 31.1962 36.4416C31.3708 36.4997 31.5416 36.5577 31.7162 36.6158C31.8076 36.6448 31.9028 36.6738 31.9941 36.707C32.1649 36.7651 32.3395 36.8149 32.5142 36.8771C32.7048 36.9434 32.8954 37.0181 33.0899 37.0886C33.2368 37.1425 33.3837 37.1964 33.5306 37.2503C33.7688 37.3416 34.011 37.4287 34.2492 37.5241C34.273 37.5324 34.2928 37.5406 34.3127 37.5531C36.0556 38.2416 37.7508 39.0379 39.3944 39.9337C39.4659 39.971 39.5334 40.0083 39.6009 40.0457C39.9502 40.2364 40.2996 40.4355 40.645 40.6346C40.7403 40.6927 40.8395 40.7507 40.9348 40.8088C41.2643 41.0037 41.5939 41.2028 41.9194 41.406C42.0187 41.4682 42.114 41.5304 42.2132 41.5926C42.5427 41.8041 42.8722 42.0157 43.1978 42.2355L43.2018 42.2396C43.5988 42.5051 43.9918 42.7746 44.3769 43.0525Z" fill="#469DDC"/>
<path d="M34.3374 53.8415L31.8521 53.8125L31.8203 55.7742L46.8313 56.0231L46.863 53.995L34.4446 53.8581C34.4088 53.8581 34.3731 53.854 34.3374 53.8415Z" fill="white"/>
<path d="M12.5166 52.5341L13.0446 52.5424L13.0565 51.713C13.0605 51.4434 13.267 51.2236 13.529 51.236C13.7553 51.2402 13.9379 51.4102 13.9776 51.6342C13.9816 51.6673 13.9855 51.7005 13.9855 51.7337L13.9736 52.559L14.7081 52.5673L14.72 51.742C14.724 51.4724 14.9225 51.2568 15.1925 51.265C15.4187 51.2692 15.6014 51.4392 15.6411 51.6632C15.645 51.6922 15.649 51.7254 15.649 51.7586L15.6371 52.5839L27.5752 52.7705L27.5673 50.7176L12.5484 50.4688L12.5166 52.5341Z" fill="white"/>
<path d="M16.1133 55.5111L30.894 55.7558L30.9138 54.4991L27.309 54.4493L27.305 54.5115C27.301 54.777 27.0946 54.9885 26.8445 54.9885C26.8405 54.9885 26.8365 54.9885 26.8365 54.9885C26.6102 54.9844 26.4237 54.8143 26.3879 54.5904C26.38 54.5572 26.38 54.524 26.38 54.4908V54.4327L25.6455 54.4245V54.4825C25.6376 54.748 25.4311 54.9595 25.181 54.9595C25.177 54.9595 25.177 54.9595 25.1731 54.9595C24.9468 54.9553 24.7641 54.7853 24.7244 54.5613C24.7165 54.5281 24.7165 54.495 24.7165 54.4618V54.4079L16.1133 54.2793V55.5111Z" fill="#F6D23A"/>
<path d="M32.2207 37.798C32.1373 37.769 32.0579 37.7441 31.9745 37.7151C32.1214 38.0717 32.2326 38.4243 32.316 38.7726C32.3199 38.7934 32.3279 38.8141 32.3318 38.8349C32.3715 39.009 32.4033 39.1749 32.4271 39.3408C32.4351 39.3906 32.447 39.4404 32.4509 39.4901C32.4589 39.5482 32.4668 39.6063 32.4708 39.6602C32.4827 39.7473 32.4906 39.8344 32.4946 39.9173C32.4986 39.9546 32.5026 39.992 32.5026 40.0334C32.5105 40.1579 32.5145 40.2781 32.5105 40.3901C32.4906 41.8044 32.0817 43.1689 31.3314 44.3384C31.2401 44.4753 31.0932 44.5499 30.9463 44.5499C30.855 44.5499 30.7676 44.5251 30.6882 44.467C30.5532 44.3757 30.4818 44.2223 30.4818 44.0688C30.4818 43.9735 30.5056 43.8781 30.5612 43.791C31.2123 42.779 31.5656 41.597 31.5855 40.3735C31.5855 40.2657 31.5815 40.1579 31.5775 40.0417C31.5735 39.9629 31.5616 39.88 31.5537 39.8012C31.5497 39.7639 31.5497 39.7265 31.5458 39.6892C31.4544 38.951 31.2043 38.0759 30.712 37.3003C29.1835 36.8275 27.6392 36.4335 26.0869 36.1225C26.1147 36.1639 26.1385 36.2137 26.1583 36.2635C26.1742 36.3132 26.1821 36.3672 26.1821 36.4252V36.4294L26.1742 36.9105L26.6824 36.9188C26.9047 36.9229 27.0913 37.093 27.131 37.3169C27.135 37.3501 27.1389 37.3833 27.1389 37.4164C27.135 37.6819 26.9206 37.9017 26.6665 37.8934L25.5747 37.8727C25.3167 37.8685 25.0745 37.9722 24.8879 38.1588C24.7966 38.2501 24.7251 38.3621 24.6735 38.4782C24.6735 38.4865 24.6735 38.4906 24.6695 38.4989C24.6457 38.5528 24.6298 38.6109 24.6179 38.669C24.6179 38.669 24.6179 38.669 24.6179 38.6731C24.606 38.7353 24.5981 38.7975 24.5941 38.8639C24.5941 38.9344 24.602 39.0007 24.614 39.063C24.6179 39.1044 24.6338 39.1418 24.6457 39.1791C24.6497 39.204 24.6537 39.2289 24.6656 39.2496C24.7092 39.3699 24.7767 39.4818 24.868 39.5772C25.0467 39.7722 25.2849 39.88 25.543 39.8841L25.7891 39.8883C26.5077 39.9007 27.131 40.3362 27.4407 40.9625C27.4446 40.9749 27.4526 40.9915 27.4605 41.0081C27.4804 41.0496 27.4962 41.091 27.5161 41.1325C27.524 41.1574 27.532 41.1823 27.5399 41.2072C27.5518 41.2445 27.5637 41.2777 27.5757 41.315C27.5836 41.344 27.5876 41.373 27.5955 41.4062C27.6034 41.4394 27.6114 41.4684 27.6154 41.5016C27.6233 41.5389 27.6273 41.5804 27.6312 41.6177C27.6352 41.6426 27.6392 41.6675 27.6431 41.6965C27.6471 41.7629 27.6511 41.8293 27.6471 41.8998C27.6392 42.4514 27.4367 42.9449 27.0714 43.314C27.0437 43.3431 27.0079 43.3679 26.9801 43.397C26.9563 43.4136 26.9365 43.4343 26.9126 43.4509C26.8769 43.4841 26.8372 43.5131 26.7935 43.5421C26.7697 43.5587 26.7459 43.5712 26.7221 43.5836C26.6586 43.6251 26.5871 43.6665 26.5196 43.6956C26.4878 43.7122 26.4561 43.7246 26.4243 43.7371C26.3806 43.7536 26.3409 43.7702 26.3012 43.7827C26.2417 43.7993 26.1782 43.8159 26.1147 43.8283C26.0988 43.8324 26.0829 43.8366 26.071 43.8407L26.0511 44.9108C26.0472 45.172 25.8407 45.3836 25.5906 45.3836C25.5866 45.3836 25.5866 45.3836 25.5827 45.3836C25.3246 45.3794 25.1221 45.1596 25.1261 44.8942C25.1261 44.89 25.1261 44.89 25.1261 44.89L25.142 43.8573L24.4909 43.849C24.2646 43.8449 24.082 43.6748 24.0423 43.4509C24.0383 43.4177 24.0343 43.3845 24.0343 43.3513C24.0383 43.0859 24.2408 42.8703 24.5068 42.8744L25.7415 42.8951C25.9955 42.8993 26.2417 42.7997 26.4283 42.6131C26.6109 42.4265 26.7181 42.1735 26.7221 41.9081C26.726 41.6136 26.6189 41.3523 26.4481 41.1615C26.2695 40.9708 26.0273 40.8629 25.7732 40.8588L25.531 40.8546C24.8085 40.8422 24.1892 40.4109 23.8795 39.7846C23.8676 39.7639 23.8596 39.7431 23.8517 39.7182C23.8358 39.6851 23.816 39.6477 23.804 39.6104C23.7921 39.5814 23.7802 39.5482 23.7723 39.515C23.7604 39.486 23.7524 39.4611 23.7445 39.4321C23.7326 39.3906 23.7246 39.3533 23.7167 39.3118C23.7127 39.2911 23.7048 39.2662 23.7008 39.2413C23.6929 39.1915 23.6849 39.1418 23.681 39.092C23.681 39.0754 23.677 39.063 23.677 39.0505C23.6691 38.98 23.6691 38.9137 23.6691 38.8431C23.673 38.6607 23.7008 38.4865 23.7485 38.3164C23.7524 38.304 23.7564 38.2874 23.7604 38.2708C23.7723 38.2376 23.7842 38.2003 23.7961 38.1671C23.808 38.1422 23.816 38.1132 23.8279 38.0883C23.8398 38.0634 23.8517 38.0386 23.8636 38.0137C23.8795 37.9805 23.8914 37.9473 23.9112 37.9141C23.9232 37.8934 23.9351 37.8727 23.947 37.8519C23.9668 37.8187 23.9867 37.7856 24.0065 37.7524C24.0264 37.7234 24.0502 37.6943 24.07 37.6694C24.0859 37.6446 24.1018 37.6238 24.1177 37.6031C24.2169 37.4787 24.3321 37.375 24.4551 37.2796C24.4631 37.2754 24.4671 37.2671 24.475 37.263C24.7013 37.0971 24.9633 36.981 25.2452 36.9312L25.2571 36.4086C25.2571 36.2386 25.3365 36.0934 25.4636 36.0063C24.471 35.8239 23.4745 35.6746 22.478 35.5626C22.4463 35.6206 22.4066 35.6787 22.351 35.7202C21.6562 36.2801 21.0845 37.0017 20.7034 37.8187C20.2349 38.8058 20.1277 39.7182 20.1198 40.3072C20.096 41.7878 20.624 42.8703 20.8503 43.2684C21.3743 44.1808 22.0294 44.6785 22.3788 44.9481C23.9549 46.155 25.7296 46.408 26.9801 46.408C27.8099 46.1923 28.596 45.7983 29.2749 45.2425C29.4734 45.0767 29.7672 45.114 29.926 45.3214C29.9855 45.4002 30.0173 45.4955 30.0212 45.5868C30.0331 45.7444 29.9736 45.902 29.8466 46.0057C28.6198 47.0176 27.0913 47.5692 25.5271 47.5692C25.4913 47.5692 25.4516 47.5692 25.4159 47.5692C23.3078 47.5319 21.3505 46.5199 20.0444 44.7905C19.9848 44.7117 19.953 44.6163 19.9451 44.5251C19.9332 44.3675 19.9927 44.2099 20.1198 44.1062C20.1555 44.0771 20.1952 44.0564 20.2389 44.0357C20.1793 43.9486 20.1198 43.8573 20.0642 43.7619C19.953 43.5712 19.7863 43.2435 19.6275 42.808C19.5878 42.8412 19.5402 42.8702 19.4885 42.891C19.4409 42.9076 19.3893 42.9159 19.3416 42.9159C19.1471 42.9159 18.9645 42.7873 18.901 42.5841C18.7779 42.1942 18.6826 41.7919 18.627 41.3855C18.5635 40.979 18.5397 40.5685 18.5437 40.1537C18.5476 39.9588 18.5635 39.7639 18.5834 39.5648C18.5834 39.5441 18.5873 39.5275 18.5873 39.5067C18.6111 39.3077 18.6429 39.1044 18.6826 38.9054C18.6826 38.8971 18.6826 38.8929 18.6866 38.8846C18.9367 37.6238 19.5124 36.3713 20.3104 35.3676C19.9927 35.3469 19.6751 35.3386 19.3615 35.3262C19.3456 35.3635 19.3297 35.3967 19.3059 35.4299C18.8533 36.0603 18.496 36.7529 18.2419 37.487C17.9958 38.1962 17.6186 39.6602 17.8767 41.4933C17.9521 42.0325 18.1784 43.6707 19.3297 45.2343C20.1992 46.4204 20.8543 46.9056 22.5138 47.8554C23.2284 48.266 24.0621 48.66 25.0388 49.0457C25.1579 49.054 25.273 49.0623 25.3921 49.0623C27.6312 49.0996 29.7711 48.2204 31.387 46.5863C31.4227 46.549 31.4584 46.5075 31.4981 46.466C31.5974 46.3623 31.6966 46.2504 31.7919 46.1425C31.8435 46.0803 31.8991 46.0223 31.9467 45.96C32.0658 45.8149 32.177 45.6656 32.2882 45.5121C32.3279 45.4541 32.3715 45.3919 32.4112 45.3338C32.5224 45.172 32.6256 45.0061 32.7249 44.8403C32.7527 44.7905 32.7805 44.7366 32.8122 44.6868C32.9115 44.5043 33.0068 44.3218 33.0941 44.1352C33.0981 44.1269 33.102 44.1145 33.11 44.1062C33.1179 44.0813 33.1259 44.0605 33.1378 44.0398C33.1537 43.9983 33.1735 43.961 33.1894 43.9237C33.2211 43.849 33.2529 43.7744 33.2847 43.6997C33.3085 43.6375 33.3323 43.5753 33.3561 43.5089C33.3839 43.4343 33.4157 43.3596 33.4395 43.2808C33.4633 43.2145 33.4832 43.1523 33.507 43.0859C33.5308 43.0113 33.5546 42.9325 33.5745 42.8578C33.5943 42.7873 33.6142 42.7209 33.634 42.6504C33.6539 42.5758 33.6737 42.5053 33.6896 42.4306C33.7095 42.356 33.7253 42.2813 33.7412 42.2067C33.7571 42.1403 33.769 42.0698 33.7849 41.9993C33.7968 41.9205 33.8127 41.8417 33.8246 41.7629C33.8365 41.6965 33.8445 41.6302 33.8564 41.5638C33.8643 41.4809 33.8802 41.3938 33.8881 41.3108C33.8961 41.2486 33.9 41.1864 33.904 41.1201C33.9119 41.033 33.9239 40.9459 33.9278 40.8588C33.9318 40.7966 33.9318 40.7344 33.9358 40.6721C33.9397 40.585 33.9437 40.498 33.9437 40.4109C33.9477 40.2823 33.9477 40.1579 33.9477 40.0417C33.9477 40.0334 33.9477 40.0252 33.9477 40.021C33.9437 39.9132 33.9437 39.8136 33.9397 39.7141C33.9397 39.6892 33.9358 39.6602 33.9358 39.6353C33.9318 39.5606 33.9278 39.486 33.9239 39.4155C33.9199 39.3782 33.9199 39.345 33.9159 39.3118C33.9119 39.2537 33.904 39.1957 33.9 39.1376C33.8961 39.1003 33.8921 39.063 33.8881 39.0298C33.8802 38.98 33.8762 38.9344 33.8683 38.8929C33.8603 38.8514 33.8564 38.8141 33.8484 38.7768C33.8445 38.7395 33.8365 38.7063 33.8286 38.6731C33.8206 38.6316 33.8127 38.5902 33.8048 38.5487C33.8048 38.5487 33.8008 38.5445 33.8008 38.5404C33.7889 38.4782 33.773 38.4201 33.7571 38.3662C33.245 38.1713 32.7368 37.9805 32.2207 37.798Z" fill="#F6D23A"/>
<path d="M38.4057 45.3126C38.4017 45.5739 38.1953 45.7895 37.9412 45.7895H37.9372C37.6791 45.7813 37.4767 45.5614 37.4806 45.296C37.4806 45.2919 37.4806 45.2919 37.4806 45.2919L37.4846 44.8315L33.8242 44.7734C33.5502 45.3167 33.2287 45.8393 32.8555 46.3287V46.7849L35.1383 46.8264C35.1462 46.8264 35.1542 46.8264 35.1621 46.8264L40.0533 46.9135L40.0652 46.0674C40.0692 45.802 40.2796 45.5905 40.5297 45.5905C40.5337 45.5905 40.5337 45.5905 40.5376 45.5905C40.7639 45.5946 40.9465 45.7647 40.9862 45.9886C40.9902 46.0218 40.9942 46.055 40.9942 46.0882L40.9823 46.9301L41.7287 46.9425V46.1047C41.7287 45.8352 41.9351 45.6195 42.1932 45.6195C42.4195 45.6195 42.6061 45.7895 42.6458 46.0094C42.6537 46.0425 42.6577 46.0757 42.6577 46.1089V46.9591L47.8704 47.0545L47.9022 45.0057L38.4136 44.8481L38.4057 45.3126Z" fill="white"/>
<path d="M39.3271 52.0532H39.3231C39.1008 52.0532 38.9182 51.8873 38.8745 51.6716L38.1122 51.6633C38.0606 51.8748 37.882 52.0283 37.6676 52.0283C37.6636 52.0283 37.6596 52.0283 37.6596 52.0283C37.4452 52.0241 37.2666 51.8665 37.2189 51.655L35.5674 51.6426V52.8826L47.3388 53.0237L49.9312 53.0527L49.9511 51.7546L39.7797 51.6758C39.736 51.8956 39.5494 52.0532 39.3271 52.0532Z" fill="#F6D23A"/>
<path d="M40.8632 15.5706C40.8672 15.5706 40.8752 15.5706 40.8791 15.5665C40.8831 15.5665 40.8831 15.5665 40.8831 15.5665L40.3829 15.0771C40.3035 15.0025 40.1923 14.961 40.0891 14.9651L11.3098 16.4955C11.0676 16.508 10.9763 16.7029 10.9564 16.7609C10.9326 16.8232 10.8731 17.0305 11.0438 17.2089L20.0837 26.7934L20.3219 26.0303L11.8735 17.1052L40.8632 15.5706Z" fill="white"/>
<path d="M23.9349 24.2956C24.8282 24.3951 29.5248 24.9799 34.0745 26.4066C40.4743 28.4139 44.5318 30.9812 45.2782 31.4747C46.5367 32.3042 47.3823 33.1129 47.4181 33.1502C47.4538 32.5032 47.1719 31.8728 46.6399 31.512C43.3169 29.2351 39.7002 27.4061 35.8968 26.0748C31.8433 24.6606 27.643 23.8311 23.4148 23.6113C22.6287 23.5739 21.9062 24.0924 21.66 24.8804L18.6943 34.3198C18.9206 34.3239 19.143 34.3405 19.3653 34.353L22.2317 25.8177C22.724 24.3495 23.3989 24.2334 23.9349 24.2956Z" fill="white"/>
<path d="M19.3298 45.2345C18.1784 43.6709 17.9521 42.0327 17.8767 41.4935C17.6186 39.6604 17.9958 38.1964 18.2419 37.4872C18.496 36.7531 18.8533 36.0605 19.3059 35.4301C19.3298 35.3969 19.3456 35.3637 19.3615 35.3264C19.3615 35.3222 19.3615 35.3181 19.3655 35.3139C19.1193 35.3015 18.8772 35.2932 18.631 35.2891C17.6782 36.7655 17.1343 38.4742 17.1105 40.1291C17.0747 42.4806 17.9164 44.6995 19.4806 46.3874C20.9615 47.9842 22.9227 48.9215 25.0388 49.0459C24.0621 48.6602 23.2284 48.2662 22.5138 47.8556C20.8543 46.9059 20.1992 46.4206 19.3298 45.2345Z" fill="white"/>
<path d="M20.0641 43.7623C20.1197 43.8577 20.1793 43.9489 20.2388 44.036C20.4215 43.9613 20.6398 44.0153 20.7708 44.1853C21.9063 45.6867 23.6015 46.5659 25.4317 46.5949C25.9518 46.6032 26.4759 46.541 26.9801 46.4083C25.7295 46.4083 23.9549 46.1553 22.3787 44.9484C22.0294 44.6788 21.3743 44.1812 20.8502 43.2687C20.6239 42.8706 20.0959 41.7881 20.1197 40.3075C20.1277 39.7186 20.2349 38.8062 20.7033 37.8191C21.0845 37.002 21.6562 36.2804 22.3509 35.7205C22.4065 35.679 22.4462 35.621 22.478 35.5629C22.478 35.5588 22.478 35.5588 22.478 35.5588C22.1524 35.5173 21.8229 35.4883 21.4974 35.4551C20.2865 36.662 19.4964 38.4868 19.4726 40.1706C19.4607 40.8881 19.5639 41.5973 19.7823 42.2734C19.8458 42.4724 19.7743 42.684 19.6274 42.8042V42.8084C19.7862 43.2439 19.953 43.5715 20.0641 43.7623Z" fill="white"/>
<path d="M35.5801 49.8701L36.2232 49.8784V48.5097L43.3774 48.6508C43.425 48.6342 43.4766 48.6217 43.5282 48.6259C43.5838 48.6259 43.6315 48.6383 43.6791 48.6549L45.0289 48.6798C45.0805 48.6632 45.1322 48.6508 45.1917 48.6508C45.2513 48.6549 45.3068 48.6673 45.3585 48.6881L50.6069 48.7876L50.6188 48.0701L48.1653 48.0286L35.6118 47.8047L35.5801 49.8701Z" fill="white"/>
<path d="M39.8031 50.8887L39.7912 51.5771C39.7912 51.6103 39.7872 51.6435 39.7793 51.6767L49.9507 51.7555L49.9626 51.0007L46.2029 50.9592L39.8031 50.8887Z" fill="white"/>
<path d="M38.8746 51.6715C38.8706 51.6342 38.8627 51.5969 38.8666 51.5596L38.8746 50.8794L38.1401 50.8711L38.1282 51.5471C38.1282 51.5886 38.1202 51.6259 38.1123 51.6632L38.8746 51.6715Z" fill="white"/>
<path d="M37.2186 51.6552C37.2067 51.6178 37.2027 51.5764 37.2027 51.5307L37.2107 50.8589L34.9517 50.834L34.9199 52.8786L35.567 52.8828V51.6427L37.2186 51.6552Z" fill="white"/>
<path d="M30.9145 54.4994L30.9224 53.7944L27.3176 53.7363L27.3057 54.4497H27.3096L30.9145 54.4994Z" fill="white"/>
<path d="M16.1139 55.5125V54.2807L24.7172 54.4093L24.7291 53.6959L15.5581 53.5508L15.5264 55.5L16.1139 55.5125Z" fill="white"/>
<path d="M26.381 54.4345L26.3929 53.7253L25.6544 53.7129L25.6465 54.4262L26.381 54.4345Z" fill="white"/>
<path d="M20.7716 44.1841C20.6406 44.014 20.4222 43.9601 20.2396 44.0348C20.1959 44.0555 20.1562 44.0762 20.1205 44.1053C19.9935 44.209 19.9339 44.3666 19.9458 44.5242C19.9538 44.6154 19.9855 44.7066 20.0451 44.7854C21.3512 46.5149 23.3085 47.5269 25.4166 47.5642C25.4524 47.5642 25.4921 47.5642 25.5278 47.5642C26.0836 47.5642 26.6355 47.4895 27.1714 47.3527C28.1401 47.108 29.0572 46.6518 29.8473 46.0006C29.9743 45.8969 30.0339 45.7393 30.022 45.5859C30.018 45.4947 29.9862 45.3993 29.9267 45.3205C29.7679 45.1131 29.4741 45.0758 29.2756 45.2417C28.5967 45.7974 27.8106 46.1914 26.9809 46.4071C26.4767 46.5398 25.9526 46.602 25.4325 46.5937C23.6023 46.5647 21.9031 45.6854 20.7716 44.1841Z" fill="#3E4445"/>
<mask id="mask0_1399_1025" style="mask-type:luminance" maskUnits="userSpaceOnUse" x="10" y="14" width="51" height="43">
<path d="M10 14H61V57H10V14Z" fill="white"/>
</mask>
<g mask="url(#mask0_1399_1025)">
<path d="M48.2205 33.9241C48.3396 33.5467 48.3753 33.1568 48.3435 32.7836C48.2681 31.95 47.8433 31.1744 47.1485 30.6974C43.7581 28.3791 40.0698 26.5127 36.191 25.1565C32.0582 23.7133 27.7744 22.8672 23.4629 22.6432C22.252 22.581 21.1562 23.3773 20.7791 24.5801L20.3225 26.0316L20.0843 26.7948L11.0444 17.2102C10.8737 17.0318 10.9332 16.8245 10.957 16.7623C10.9769 16.7042 11.0682 16.5093 11.3104 16.4968L40.0897 14.9664C40.1929 14.9623 40.3041 15.0038 40.3835 15.0784L40.8837 15.5678L59.9442 34.1978C60.0315 34.2808 60.0633 34.3762 60.0712 34.4591C60.0792 34.5379 60.0633 34.6043 60.0514 34.6333C60.0355 34.6914 59.9561 34.8863 59.7219 34.9195L58.6539 35.0605L58.6698 34.0485C58.6738 33.7831 58.4673 33.5633 58.2132 33.5591C58.2093 33.5591 58.2053 33.5591 58.2053 33.5591C57.9512 33.5591 57.7448 33.7706 57.7408 34.0319L57.7249 35.1808L47.4026 36.537H47.3987L48.2205 33.9241ZM34.2417 43.8073C34.6387 42.7414 34.8531 41.6009 34.873 40.4272C34.8809 39.7885 34.8531 39.2452 34.7896 38.789C38.0491 40.1535 41.1378 41.8871 44.0042 43.969L34.2417 43.8073ZM47.9029 45.0059L47.8711 47.0547L42.6583 46.9593V46.1049C42.6583 46.0718 42.6544 46.0427 42.6464 46.0096C42.6067 45.7897 42.4201 45.6197 42.1938 45.6197C41.9358 45.6197 41.7293 45.8354 41.7293 46.1049V46.9427L40.983 46.9303L40.9949 46.0842C40.9949 46.051 40.9909 46.0179 40.9869 45.9888C40.9472 45.7649 40.7646 45.5948 40.5383 45.5907C40.5343 45.5907 40.5343 45.5907 40.5304 45.5907C40.2803 45.5907 40.0698 45.8022 40.0659 46.0676L40.054 46.9137L35.1628 46.8266C35.1548 46.8266 35.1469 46.8266 35.139 46.8266L32.8562 46.7851V46.3289C33.2293 45.8395 33.5509 45.3169 33.8249 44.7736C33.8249 44.7695 33.8249 44.7695 33.8249 44.7695L37.4853 44.8276V44.8317L37.4813 45.2921C37.4813 45.2921 37.4813 45.2921 37.4813 45.2962C37.4774 45.5616 37.6798 45.7773 37.9339 45.7815C37.9379 45.7815 37.9419 45.7815 37.9419 45.7815C38.1959 45.7815 38.4024 45.5699 38.4064 45.3087L38.4143 44.8441L47.9029 45.0017V45.0059ZM46.8627 53.9933L46.8309 56.0213L31.82 55.7725L31.8517 53.8066L34.337 53.8357C34.3727 53.8481 34.4085 53.8522 34.4442 53.8522L46.8627 53.985V53.9933ZM12.5491 50.4638L27.568 50.7127V50.7168L27.5759 52.7698L15.6378 52.5832L15.6497 51.7537C15.6497 51.7246 15.6457 51.6915 15.6418 51.6624C15.6021 51.4385 15.4194 51.2684 15.1931 51.2643C14.9232 51.256 14.7247 51.4717 14.7207 51.7412L14.7088 52.5666L13.9743 52.5583L13.9862 51.7288C13.9862 51.6956 13.9823 51.6624 13.9783 51.6334C13.9386 51.4094 13.756 51.2394 13.5297 51.2353C13.2676 51.2228 13.0612 51.4426 13.0572 51.7122L13.0453 52.5417L12.5173 52.5334L12.5491 50.4638ZM15.5584 53.5495L24.7293 53.6946L24.7174 54.408V54.4619C24.7174 54.4951 24.7174 54.5283 24.7254 54.5615C24.7651 54.7813 24.9477 54.9513 25.174 54.9555C25.174 54.9555 25.178 54.9555 25.1819 54.9555C25.4321 54.9555 25.6385 54.7439 25.6425 54.4785L25.6464 54.4246L25.6544 53.7112L26.3928 53.7237L26.3809 54.4329V54.4909C26.3809 54.5241 26.3809 54.5573 26.3888 54.5905C26.4286 54.8103 26.6112 54.9803 26.8375 54.9845H26.8414C27.0955 54.9845 27.302 54.773 27.3059 54.5075V54.4495L27.3179 53.7361L30.9227 53.7942L30.9148 54.4992L30.8949 55.7559L16.1142 55.5112L15.5266 55.4988L15.5584 53.5495ZM34.6824 47.7888L34.6506 49.8625H34.4998C34.2338 49.8583 34.0353 50.0698 34.0313 50.3353L33.9956 52.8652L31.3991 52.8361L28.5009 52.7864L28.493 50.2357C28.493 49.9703 28.2866 49.7588 28.0364 49.7546L27.7744 49.7505C29.3228 49.3523 30.752 48.5395 31.9391 47.3699C31.9867 47.5814 32.1654 47.7432 32.3837 47.7473L34.6824 47.7888ZM50.6184 48.0708L50.6065 48.7883L50.5867 50.0367H50.4398L45.6399 49.9827L45.6478 49.145C45.6478 49.1118 45.6478 49.0786 45.6399 49.0496C45.6121 48.8837 45.5009 48.751 45.3541 48.6888C45.3064 48.668 45.2508 48.6556 45.1913 48.6514C45.1317 48.6514 45.0801 48.6639 45.0285 48.6805C44.8498 48.7468 44.7228 48.921 44.7228 49.1325L44.7109 49.9745L43.9764 49.9662L43.9883 49.1159C43.9883 48.9044 43.8613 48.7261 43.6787 48.6556C43.631 48.639 43.5834 48.6266 43.5278 48.6266C43.4762 48.6224 43.4246 48.6348 43.3769 48.6514C43.1903 48.7136 43.0633 48.892 43.0593 49.1035L43.0514 49.9537L36.2228 49.8791L35.5796 49.8708L35.6114 47.8054L48.1649 48.0293L50.6184 48.0708ZM49.9514 51.7537L49.9316 53.0518L47.3391 53.0228L35.5638 52.8818L34.9206 52.8776L34.9524 50.833L37.2114 50.8578L37.2034 51.5297C37.2034 51.5753 37.2074 51.6168 37.2193 51.6541C37.2669 51.8615 37.4456 52.0191 37.66 52.0233C37.66 52.0233 37.664 52.0233 37.6679 52.0233C37.8783 52.0233 38.061 51.8698 38.1126 51.6624C38.1205 51.6251 38.1285 51.5878 38.1285 51.5463L38.1404 50.8703L38.8748 50.8786L38.8669 51.5588C38.8629 51.5961 38.8709 51.6334 38.8748 51.6707C38.9225 51.8822 39.1011 52.044 39.3195 52.0481C39.3235 52.0481 39.3274 52.0481 39.3274 52.0481C39.5458 52.0481 39.7324 51.8905 39.78 51.6749C39.788 51.6417 39.7919 51.6085 39.7919 51.5753L39.8038 50.8869L46.2037 50.9574L49.9633 50.9989L49.9514 51.7537ZM33.805 38.5484C33.813 38.5899 33.8209 38.6314 33.8288 38.6728C33.8368 38.706 33.8447 38.7392 33.8487 38.7765C33.8566 38.8139 33.8606 38.8512 33.8685 38.8927C33.8765 38.9341 33.8804 38.9798 33.8884 39.0295C33.8924 39.0627 33.8963 39.1 33.9003 39.1374C33.9043 39.1954 33.9122 39.2535 33.9162 39.3115C33.9201 39.3447 33.9201 39.3779 33.9241 39.4152C33.9281 39.4857 33.9321 39.5604 33.936 39.635C33.936 39.6599 33.94 39.689 33.94 39.7138C33.944 39.8134 33.944 39.9129 33.9479 40.0207C33.9479 40.0249 33.9479 40.0332 33.9479 40.0415C33.9479 40.1576 33.9479 40.282 33.944 40.4106C33.944 40.4977 33.94 40.5848 33.936 40.6719C33.9321 40.7341 33.9321 40.7963 33.9281 40.8585C33.9241 40.9456 33.9122 41.0327 33.9043 41.1198C33.9003 41.1862 33.8963 41.2484 33.8884 41.3106C33.8804 41.3935 33.8646 41.4806 33.8566 41.5636C33.8447 41.6299 33.8368 41.6963 33.8249 41.7626C33.813 41.8414 33.7971 41.9202 33.7812 41.999C33.7693 42.0696 33.7574 42.1401 33.7415 42.2064C33.7256 42.2811 33.7097 42.3557 33.6899 42.4304C33.674 42.505 33.6541 42.5755 33.6343 42.6502C33.6144 42.7207 33.5946 42.787 33.5747 42.8576C33.5549 42.9322 33.5311 43.011 33.5073 43.0857C33.4834 43.152 33.4636 43.2142 33.4398 43.2806C33.4159 43.3594 33.3842 43.434 33.3564 43.5087C33.3326 43.575 33.3087 43.6373 33.2849 43.6995C33.2532 43.7741 33.2214 43.8488 33.1896 43.9234C33.1738 43.9608 33.1539 43.9981 33.138 44.0396C33.1261 44.0603 33.1182 44.081 33.1102 44.1059C33.1023 44.1142 33.0983 44.1266 33.0944 44.1349C33.007 44.3216 32.9117 44.5041 32.8125 44.6865C32.7807 44.7363 32.7529 44.7902 32.7251 44.84C32.6259 45.0059 32.5227 45.1718 32.4115 45.3335C32.3718 45.3916 32.3281 45.4538 32.2884 45.5119C32.1773 45.6653 32.0661 45.8146 31.947 45.9598C31.8994 46.022 31.8438 46.0801 31.7922 46.1423C31.6969 46.2501 31.5976 46.3621 31.4984 46.4658C31.4587 46.5072 31.4229 46.5487 31.3872 46.586C29.7714 48.2201 27.6315 49.0994 25.3924 49.062C25.2733 49.062 25.1581 49.0537 25.039 49.0454C22.9229 48.921 20.9617 47.9837 19.4809 46.387C17.9166 44.699 17.075 42.4801 17.1107 40.1286C17.1345 38.4738 17.6784 36.7651 18.6313 35.2886C18.8774 35.2927 19.1196 35.301 19.3657 35.3135C19.6794 35.3259 19.997 35.3425 20.3146 35.3632C20.3106 35.3674 20.3106 35.3674 20.3106 35.3674C19.5126 36.3711 18.937 37.6236 18.6868 38.8844C18.6829 38.8927 18.6829 38.8968 18.6829 38.9051C18.6432 39.1042 18.6114 39.3074 18.5876 39.5065C18.5876 39.5272 18.5836 39.5438 18.5836 39.5645C18.5638 39.7636 18.5479 39.9585 18.5439 40.1535C18.5399 40.5682 18.5638 40.9788 18.6273 41.3852C18.6868 41.7917 18.7782 42.1898 18.9012 42.5797C18.9647 42.7829 19.1474 42.9115 19.3419 42.9115C19.3896 42.9115 19.4372 42.9032 19.4888 42.8866C19.5404 42.8658 19.5841 42.8368 19.6278 42.8036C19.7747 42.6834 19.8461 42.4718 19.7826 42.2728C19.5642 41.5968 19.461 40.8875 19.4729 40.1701C19.4967 38.4862 20.2868 36.6614 21.4977 35.4545C21.8232 35.4877 22.1527 35.5208 22.4783 35.5582C23.4788 35.6701 24.4792 35.8195 25.4718 36.0019C25.4678 36.0061 25.4678 36.0061 25.4638 36.0061C25.3368 36.0932 25.2574 36.2383 25.2574 36.4084L25.2455 36.931C24.9636 36.9807 24.7016 37.0968 24.4753 37.2627C24.4673 37.2669 24.4633 37.2752 24.4554 37.2793C24.3323 37.3747 24.2172 37.4784 24.1179 37.6028C24.1021 37.6236 24.0862 37.6443 24.0703 37.6692C24.0505 37.6941 24.0266 37.7231 24.0068 37.7521C23.9869 37.7812 23.9671 37.8185 23.9472 37.8517C23.9353 37.8724 23.9234 37.8931 23.9115 37.9139C23.8917 37.9471 23.8797 37.9802 23.8639 38.0134C23.852 38.0383 23.84 38.0632 23.8281 38.0881C23.8162 38.113 23.8083 38.142 23.7964 38.1669C23.7845 38.2 23.7725 38.2374 23.7606 38.2706C23.7567 38.2871 23.7527 38.3037 23.7487 38.3162C23.7011 38.4862 23.6733 38.6604 23.6693 38.8429C23.6693 38.9134 23.6693 38.9798 23.6773 39.0503C23.6773 39.0627 23.6812 39.0751 23.6812 39.0917C23.6852 39.1415 23.6931 39.1913 23.7011 39.241C23.7051 39.2659 23.713 39.2908 23.717 39.3115C23.7249 39.353 23.7328 39.3903 23.7448 39.4318C23.7527 39.4609 23.7606 39.4857 23.7725 39.5148C23.7805 39.5479 23.7924 39.5811 23.8043 39.6102C23.8162 39.6475 23.8361 39.6848 23.852 39.718C23.8599 39.7429 23.8678 39.7636 23.8797 39.7843C23.9631 39.9502 24.0703 40.1078 24.2013 40.2489C24.5507 40.6304 25.0231 40.8419 25.5313 40.8502L25.7735 40.8544C26.0355 40.8585 26.2737 40.9746 26.4484 41.1613C26.6191 41.3521 26.7263 41.6133 26.7223 41.9078C26.7184 42.1732 26.6112 42.4262 26.4286 42.6129C26.242 42.7995 25.9958 42.899 25.7417 42.8949L24.507 42.8741C24.241 42.87 24.0385 43.0857 24.0346 43.3511C24.0346 43.3843 24.0385 43.4174 24.0425 43.4506C24.0822 43.6704 24.2648 43.8405 24.4911 43.8446L25.1422 43.8529V43.8571L25.1264 44.8898C25.1264 44.8898 25.1264 44.8898 25.1264 44.8939C25.1224 45.1593 25.3288 45.375 25.5829 45.3792C25.5829 45.3792 25.5869 45.3792 25.5909 45.3792C25.841 45.3792 26.0474 45.1676 26.0514 44.9064L26.0673 43.8363C26.0832 43.8322 26.099 43.8322 26.1149 43.828C26.1784 43.8156 26.242 43.799 26.3015 43.7824C26.3412 43.77 26.3809 43.7534 26.4246 43.7368C26.4563 43.7244 26.4881 43.7119 26.5199 43.6953C26.5874 43.6621 26.6588 43.6248 26.7223 43.5833C26.7462 43.5709 26.77 43.5585 26.7938 43.5419C26.8375 43.5128 26.8772 43.4838 26.9129 43.4506C26.9367 43.434 26.9566 43.4133 26.9804 43.3967C27.0122 43.3677 27.0439 43.3386 27.0717 43.3096C27.437 42.9405 27.6394 42.447 27.6474 41.8954C27.6513 41.8249 27.6474 41.7626 27.6434 41.6963C27.6394 41.6673 27.6355 41.6424 27.6315 41.6175C27.6275 41.5802 27.6236 41.5387 27.6156 41.5014C27.6116 41.4682 27.6037 41.4391 27.5958 41.406C27.5878 41.3728 27.5839 41.3438 27.5759 41.3147C27.564 41.2774 27.5521 41.2442 27.5402 41.2069C27.5322 41.182 27.5243 41.1571 27.5164 41.1322C27.4965 41.0908 27.4806 41.0493 27.4608 41.0078C27.4528 40.9912 27.4449 40.9746 27.4409 40.9622C27.1313 40.3359 26.508 39.9005 25.7894 39.888L25.5432 39.8839C25.2852 39.8797 25.047 39.7719 24.8683 39.577C24.777 39.4816 24.7095 39.3696 24.6658 39.2493C24.6539 39.2286 24.6499 39.2037 24.646 39.1788C24.6341 39.1415 24.6182 39.1042 24.6142 39.0627C24.6023 38.9963 24.5944 38.93 24.5944 38.8595C24.5983 38.7973 24.6063 38.7309 24.6182 38.6728C24.6182 38.6687 24.6182 38.6687 24.6182 38.6687C24.6301 38.6065 24.6499 38.5526 24.6698 38.4987C24.6738 38.4904 24.6738 38.4862 24.6738 38.4779C24.8286 38.1171 25.178 37.86 25.575 37.8683L26.6668 37.889C26.6707 37.889 26.6707 37.889 26.6747 37.889C26.9248 37.889 27.1313 37.6775 27.1392 37.412C27.1392 37.3789 27.1352 37.3457 27.1313 37.3167C27.0916 37.0927 26.905 36.9227 26.6826 36.9185L26.1745 36.9102L26.1824 36.425C26.1824 36.3669 26.1745 36.313 26.1586 36.2632C26.1387 36.2135 26.1149 36.1637 26.0871 36.1222C26.0832 36.1222 26.0832 36.1222 26.0832 36.1181C27.6394 36.4291 29.1838 36.8231 30.7123 37.2959C31.2046 38.0715 31.4587 38.9507 31.546 39.689C31.55 39.7263 31.55 39.7636 31.554 39.8009C31.5619 39.8797 31.5738 39.9627 31.5778 40.0415C31.5818 40.1576 31.5857 40.2654 31.5857 40.3733C31.5659 41.5968 31.2125 42.7788 30.5614 43.7907C30.5059 43.8778 30.482 43.9732 30.482 44.0686C30.482 44.222 30.5535 44.3713 30.6885 44.4626C30.7679 44.5207 30.8552 44.5455 30.9465 44.5455C31.0934 44.5455 31.2403 44.4709 31.3277 44.334C32.082 43.1645 32.4909 41.8 32.5108 40.3857C32.5108 40.2737 32.5108 40.1535 32.5028 40.0332C32.5028 39.9917 32.4988 39.9544 32.4949 39.9171C32.4909 39.8341 32.483 39.747 32.4711 39.6599C32.4671 39.606 32.4591 39.5479 32.4512 39.4899C32.4472 39.4401 32.4353 39.3903 32.4274 39.3406C32.4036 39.1747 32.3718 39.0088 32.3321 38.8346C32.3281 38.8139 32.3202 38.7931 32.3162 38.7724C32.2328 38.424 32.1217 38.0715 31.9748 37.7148V37.7107C32.0542 37.7397 32.1376 37.7646 32.217 37.7936C32.7331 37.9719 33.2452 38.1669 33.7534 38.3618C33.7733 38.4199 33.7891 38.4779 33.801 38.5401C33.801 38.5443 33.805 38.5484 33.805 38.5484ZM42.2137 41.5926C42.1144 41.5304 42.0192 41.4682 41.9199 41.406C41.5944 41.2027 41.2648 41.0037 40.9353 40.8087C40.84 40.7507 40.7408 40.6926 40.6455 40.6346C40.3001 40.4355 39.9507 40.2364 39.6014 40.0456C39.5339 40.0083 39.4664 39.971 39.3949 39.9337C37.7513 39.0378 36.0561 38.2415 34.3132 37.5531C34.2933 37.5406 34.2735 37.5323 34.2497 37.524C34.0115 37.4328 33.7693 37.3415 33.5311 37.2503C33.3842 37.1964 33.2373 37.1425 33.0904 37.0886C32.8959 37.018 32.7053 36.9434 32.5147 36.877C32.34 36.8148 32.1654 36.7651 31.9946 36.707C31.9033 36.6738 31.808 36.6448 31.7167 36.6158C31.542 36.5577 31.3713 36.4996 31.1966 36.4416C31.1569 36.425 31.1212 36.4125 31.0815 36.4042C27.9293 35.4172 24.7055 34.7743 21.45 34.4881C21.3984 34.4716 21.3428 34.4674 21.2873 34.4716C20.6481 34.4176 20.0089 34.3762 19.3657 34.3513C19.1434 34.3388 18.9211 34.3264 18.6948 34.3181L21.6605 24.8787C21.9066 24.0907 22.6292 23.5723 23.4152 23.6096C27.6434 23.8294 31.8438 24.6589 35.8973 26.0773C39.7006 27.4044 43.3174 29.2334 46.6404 31.5103C47.1724 31.8712 47.4542 32.5016 47.4185 33.1485C47.4106 33.3061 47.3867 33.4637 47.3391 33.6213L44.3774 43.0525C43.9923 42.7746 43.5993 42.505 43.2023 42.2396L43.1983 42.2354C42.8727 42.0156 42.5432 41.8041 42.2137 41.5926ZM58.0505 43.7658C58.0544 43.7658 58.0544 43.7658 58.0584 43.7658C58.4078 43.77 58.6936 44.0354 58.7532 44.3796L57.3398 44.3921C57.3954 44.0354 57.6931 43.7658 58.0505 43.7658ZM59.837 35.8775C60.3531 35.8112 60.7739 35.4462 60.9328 34.9319C61.0955 34.4135 60.9605 33.8619 60.5794 33.4886L41.0187 14.3734C40.7567 14.1162 40.3994 13.9794 40.042 14.0001L11.2627 15.5305C10.7347 15.5595 10.2861 15.8955 10.0916 16.4139C9.90099 16.9282 10.0122 17.4963 10.3853 17.8903L19.7588 27.8275L17.6189 34.6375C17.5752 34.7785 17.599 34.9278 17.6745 35.048C16.7375 36.6116 16.2095 38.3867 16.1817 40.1161C16.142 42.7207 17.0789 45.1884 18.8139 47.063C19.9851 48.3196 21.4222 49.2113 22.9984 49.6675L12.1004 49.4892C12.0965 49.4892 12.0965 49.4892 12.0925 49.4892C11.8384 49.4892 11.632 49.7007 11.628 49.962L11.5843 53.002C11.5803 53.1306 11.628 53.255 11.7153 53.3463C11.7987 53.4417 11.9178 53.4914 12.0409 53.4956L13.4939 53.5163C13.4979 53.5163 13.4979 53.5163 13.4979 53.5163L14.6294 53.537L14.5937 55.9674C14.5897 56.096 14.6373 56.2204 14.7247 56.3158C14.808 56.407 14.9271 56.4609 15.0502 56.4609L31.3435 56.7305L47.2796 57.0001C47.2796 57.0001 47.2835 57.0001 47.2875 57.0001C47.5376 57.0001 47.7441 56.7886 47.748 56.5232L47.7877 53.9974L50.3842 54.0264C50.3842 54.0264 50.3842 54.0264 50.3881 54.0264C50.6422 54.0264 50.8447 53.8149 50.8487 53.5495L50.8884 51.0071L51.0392 51.0113H51.0432C51.2973 51.0113 51.5037 50.7998 51.5077 50.5343L51.5514 47.6021C51.5554 47.3367 51.3529 47.1169 51.0988 47.1128L48.7961 47.0713L48.8358 44.5331C48.8398 44.2677 48.6373 44.0478 48.3793 44.0437L45.0603 43.9856C45.0603 43.9815 45.0642 43.9773 45.0642 43.9732L47.081 37.5572L57.709 36.1595L57.6058 42.8658C56.9269 43.0691 56.4187 43.7078 56.4068 44.4833L56.3989 44.8566L55.6724 52.015C55.6604 52.1228 55.6882 52.2306 55.7399 52.3177C55.8113 52.4421 55.9344 52.5292 56.0813 52.5458C56.1011 52.5458 56.117 52.55 56.1329 52.55C56.3671 52.55 56.5696 52.3633 56.5934 52.1145L57.181 46.3372L57.2803 45.3626L57.5661 45.3584L57.443 53.5868C57.443 53.6241 57.447 53.6656 57.4549 53.7029C57.5026 53.9145 57.6812 54.0721 57.8996 54.0762H57.9036C58.1576 54.0762 58.3641 53.8647 58.3681 53.5993L58.4792 46.3248L58.4951 45.3501H58.7929L58.8604 46.3206L59.2733 52.1601C59.2891 52.4131 59.4916 52.608 59.7338 52.608C59.7457 52.608 59.7576 52.608 59.7695 52.608C59.9363 52.5956 60.0752 52.4878 60.1467 52.3426C60.1824 52.268 60.2023 52.1809 60.1943 52.0896L59.6861 44.8483L59.6941 44.5414C59.706 43.7617 59.2097 43.1022 58.5348 42.8824L58.638 36.0434V36.0351L59.837 35.8775Z" fill="#3E4445"/>
</g>
<path d="M36.2857 28.7197C39.3427 29.7898 42.2488 31.2579 44.9207 33.0869C44.9961 33.1408 45.0834 33.1657 45.1708 33.1657C45.3216 33.1657 45.4725 33.0869 45.5599 32.9459C45.6115 32.863 45.6393 32.7676 45.6353 32.6763C45.6353 32.5187 45.5599 32.3694 45.4288 32.2782C42.6895 30.4036 39.7119 28.8981 36.5795 27.8032C36.3373 27.7161 36.0753 27.8571 35.9959 28.1101C35.972 28.1723 35.9681 28.2386 35.972 28.3008C35.9879 28.4875 36.107 28.6575 36.2857 28.7197Z" fill="#3E4445"/>
</svg>
